<svg width="50" height="50" viewBox="0 0 50 50"  xmlns="http://www.w3.org/2000/svg">
<path d="M47.3225 31.2046C44.6877 30.0979 42.3161 28.5218 40.2741 26.5216C39.0318 25.3037 36.8925 25.3037 35.6461 26.5216C35.0435 27.1121 34.4038 27.6533 33.7455 28.1684C32.7668 27.7668 27.2331 26.5054 26.6051 26.3107C25.3605 25.9236 24.3476 24.9762 23.8632 23.7855C27.7037 22.115 29.7394 17.7975 30.0638 13.4564V12.8063H31.6961C32.1881 12.8063 32.5861 12.4077 32.5861 11.9163C32.5861 11.4249 32.1881 11.0262 31.6961 11.0262H30.5836L30.4602 9.77466C30.1687 6.82876 28.1465 4.38237 25.3083 3.54097L23.6858 3.06001V2.45278C23.6858 1.96138 23.2878 1.56274 22.7958 1.56274H17.7303C17.2395 1.56274 16.8414 1.96021 16.8402 2.45044L16.8391 3.05425L15.1795 3.54673C12.3529 4.38462 10.3324 6.82056 10.0312 9.75024L9.89962 11.0262H8.80977C8.31836 11.0262 7.91973 11.4249 7.91973 11.9163C7.91973 12.4077 8.31836 12.8063 8.80977 12.8063H10.4844L10.4856 13.5237C10.8065 17.7861 12.819 22.0669 16.6154 23.7561C16.1362 24.9723 15.1703 25.9204 13.8979 26.3132C12.8166 26.647 8.61915 27.566 8.61915 27.566C8.61856 27.566 8.61797 27.566 8.61797 27.566C8.03799 27.6946 2.93477 28.9381 2.3461 33.0614C1.99092 35.5414 1.57657 37.8951 1.57598 37.8998C1.53018 38.1582 1.60206 38.4248 1.77071 38.6264C1.93995 38.8281 2.18965 38.944 2.45274 38.944H29.7213C30.7307 40.9627 31.947 42.8761 33.3747 44.6608L35.4207 47.2173C36.0407 47.9926 36.9667 48.4376 37.9599 48.4376C38.9536 48.4376 39.879 47.9926 40.4996 47.2173L42.5468 44.6585C45.229 41.3047 47.1875 37.5105 48.3673 33.3814C48.6204 32.4957 48.1708 31.5604 47.3225 31.2046ZM31.9649 29.4257C30.8959 30.1054 29.7775 30.7092 28.5967 31.2046C28.2589 31.3472 28.008 31.5969 27.8162 31.8832L28.6083 28.6574C28.6916 28.6771 31.6827 29.3417 31.9649 29.4257ZM24.8024 5.24673C26.9435 5.88179 28.4686 7.72788 28.6888 9.95063L28.7954 11.0261H23.6858V4.91587L24.8024 5.24673ZM21.9058 3.34272V11.0261H18.6018L18.6186 3.34272H21.9058ZM11.8021 9.93325C12.0292 7.72212 13.5537 5.8853 15.686 5.25249L16.8351 4.91177L16.8218 11.026H11.6897L11.8021 9.93325ZM12.2633 13.4563V12.8062H28.2849L28.286 13.3891C27.936 18.0432 25.3228 22.7378 20.2735 22.7378C15.2243 22.7378 12.6109 18.0431 12.2633 13.4563ZM20.2734 24.5178C20.9421 24.5178 21.569 24.4419 22.1677 24.3197C22.4922 25.1807 22.9981 25.941 23.643 26.5627L20.2973 29.2797L16.8977 26.5337C17.5281 25.9155 18.0212 25.1633 18.3376 24.3127C18.9483 24.4402 19.5892 24.5178 20.2734 24.5178ZM11.9034 28.658L14.0683 37.1636H8.42852V29.4617C8.7461 29.3637 11.1078 28.8417 11.9034 28.658ZM4.10762 33.3138C4.32139 31.8189 5.50059 30.8262 6.64844 30.2022V37.1636H3.50733C3.6626 36.2307 3.89669 34.789 4.10762 33.3138ZM15.9051 37.1636L13.6325 28.235C13.9245 28.1585 15.084 27.7668 15.3946 27.6092L19.7398 31.1177C19.9026 31.2487 20.1009 31.3147 20.299 31.3147C20.4978 31.3147 20.6965 31.2487 20.86 31.1154L25.153 27.6294C25.4491 27.7766 26.5837 28.1562 26.8792 28.2333L24.6872 37.1636H15.9051ZM26.5199 37.1636C26.5199 37.1636 27.5235 33.2796 27.553 33.3822C27.9233 34.6784 28.3793 35.937 28.9008 37.1636H26.5199ZM41.1566 43.5456L39.1095 46.1043C38.548 46.8066 37.3723 46.8066 36.8103 46.1043L34.7648 43.5478C32.2304 40.3806 30.3796 36.795 29.2868 32.8455C33.1543 31.2742 36.1602 28.5101 36.8926 27.7927C37.18 27.5111 37.559 27.3558 37.961 27.3558C38.362 27.3558 38.7409 27.5111 39.0278 27.7927C41.232 29.9505 43.7902 31.6506 46.6551 32.893C45.5406 36.7939 43.6905 40.3772 41.1566 43.5456Z" fill="#CD1A76" stroke="#CD1A76" stroke-width="1.024" stroke-linecap="round" stroke-linejoin="round"/>
<path d="M35.1229 36.1658C34.7752 35.8181 34.212 35.8181 33.8643 36.1658C33.5166 36.5134 33.5166 37.0766 33.8643 37.4244L36.2603 39.8198C36.459 40.0203 36.7244 40.1303 37.0065 40.1303C37.2888 40.1303 37.5535 40.0203 37.7506 39.822L42.6613 34.9107C43.009 34.563 43.009 33.9999 42.6613 33.6521C42.3143 33.3044 41.7505 33.3044 41.4027 33.6521L37.0065 38.0489L35.1229 36.1658Z" fill="#CD1A76" stroke="#CD1A76" stroke-width="1.024" stroke-linecap="round" stroke-linejoin="round"/>
<path d="M47.3225 31.2046C44.6877 30.0979 42.3161 28.5218 40.2741 26.5216C39.0318 25.3037 36.8925 25.3037 35.6461 26.5216C35.0435 27.1121 34.4038 27.6533 33.7455 28.1684C32.7668 27.7668 27.2331 26.5054 26.6051 26.3107C25.3605 25.9236 24.3476 24.9762 23.8632 23.7855C27.7037 22.115 29.7394 17.7975 30.0638 13.4564V12.8063H31.6961C32.1881 12.8063 32.5861 12.4077 32.5861 11.9163C32.5861 11.4249 32.1881 11.0262 31.6961 11.0262H30.5836L30.4602 9.77466C30.1687 6.82876 28.1465 4.38237 25.3083 3.54097L23.6858 3.06001V2.45278C23.6858 1.96138 23.2878 1.56274 22.7958 1.56274H17.7303C17.2395 1.56274 16.8414 1.96021 16.8402 2.45044L16.8391 3.05425L15.1795 3.54673C12.3529 4.38462 10.3324 6.82056 10.0312 9.75024L9.89962 11.0262H8.80977C8.31836 11.0262 7.91973 11.4249 7.91973 11.9163C7.91973 12.4077 8.31836 12.8063 8.80977 12.8063H10.4844L10.4856 13.5237C10.8065 17.7861 12.819 22.0669 16.6154 23.7561C16.1362 24.9723 15.1703 25.9204 13.8979 26.3132C12.8166 26.647 8.61915 27.566 8.61915 27.566C8.61856 27.566 8.61797 27.566 8.61797 27.566C8.03799 27.6946 2.93477 28.9381 2.3461 33.0614C1.99092 35.5414 1.57657 37.8951 1.57598 37.8998C1.53018 38.1582 1.60206 38.4248 1.77071 38.6264C1.93995 38.8281 2.18965 38.944 2.45274 38.944H29.7213C30.7307 40.9627 31.947 42.8761 33.3747 44.6608L35.4207 47.2173C36.0407 47.9926 36.9667 48.4376 37.9599 48.4376C38.9536 48.4376 39.879 47.9926 40.4996 47.2173L42.5468 44.6585C45.229 41.3047 47.1875 37.5105 48.3673 33.3814C48.6204 32.4957 48.1708 31.5604 47.3225 31.2046ZM31.9649 29.4257C30.8959 30.1054 29.7775 30.7092 28.5967 31.2046C28.2589 31.3472 28.008 31.5969 27.8162 31.8832L28.6083 28.6574C28.6916 28.6771 31.6827 29.3417 31.9649 29.4257ZM24.8024 5.24673C26.9435 5.88179 28.4686 7.72788 28.6888 9.95063L28.7954 11.0261H23.6858V4.91587L24.8024 5.24673ZM21.9058 3.34272V11.0261H18.6018L18.6186 3.34272H21.9058ZM11.8021 9.93325C12.0292 7.72212 13.5537 5.8853 15.686 5.25249L16.8351 4.91177L16.8218 11.026H11.6897L11.8021 9.93325ZM12.2633 13.4563V12.8062H28.2849L28.286 13.3891C27.936 18.0432 25.3228 22.7378 20.2735 22.7378C15.2243 22.7378 12.6109 18.0431 12.2633 13.4563ZM20.2734 24.5178C20.9421 24.5178 21.569 24.4419 22.1677 24.3197C22.4922 25.1807 22.9981 25.941 23.643 26.5627L20.2973 29.2797L16.8977 26.5337C17.5281 25.9155 18.0212 25.1633 18.3376 24.3127C18.9483 24.4402 19.5892 24.5178 20.2734 24.5178ZM11.9034 28.658L14.0683 37.1636H8.42852V29.4617C8.7461 29.3637 11.1078 28.8417 11.9034 28.658ZM4.10762 33.3138C4.32139 31.8189 5.50059 30.8262 6.64844 30.2022V37.1636H3.50733C3.6626 36.2307 3.89669 34.789 4.10762 33.3138ZM15.9051 37.1636L13.6325 28.235C13.9245 28.1585 15.084 27.7668 15.3946 27.6092L19.7398 31.1177C19.9026 31.2487 20.1009 31.3147 20.299 31.3147C20.4978 31.3147 20.6965 31.2487 20.86 31.1154L25.153 27.6294C25.4491 27.7766 26.5837 28.1562 26.8792 28.2333L24.6872 37.1636H15.9051ZM26.5199 37.1636C26.5199 37.1636 27.5235 33.2796 27.553 33.3822C27.9233 34.6784 28.3793 35.937 28.9008 37.1636H26.5199ZM41.1566 43.5456L39.1095 46.1043C38.548 46.8066 37.3723 46.8066 36.8103 46.1043L34.7648 43.5478C32.2304 40.3806 30.3796 36.795 29.2868 32.8455C33.1543 31.2742 36.1602 28.5101 36.8926 27.7927C37.18 27.5111 37.559 27.3558 37.961 27.3558C38.362 27.3558 38.7409 27.5111 39.0278 27.7927C41.232 29.9505 43.7902 31.6506 46.6551 32.893C45.5406 36.7939 43.6905 40.3772 41.1566 43.5456Z" fill="#CD1A76"/>
<path d="M35.1229 36.1658C34.7752 35.8181 34.212 35.8181 33.8643 36.1658C33.5166 36.5134 33.5166 37.0766 33.8643 37.4244L36.2603 39.8198C36.459 40.0203 36.7244 40.1303 37.0065 40.1303C37.2888 40.1303 37.5535 40.0203 37.7506 39.822L42.6613 34.9107C43.009 34.563 43.009 33.9999 42.6613 33.6521C42.3143 33.3044 41.7505 33.3044 41.4027 33.6521L37.0065 38.0489L35.1229 36.1658Z" fill="#CD1A76"/>
</svg>
