<svg width="50" height="50" viewBox="0 0 50 50"  xmlns="http://www.w3.org/2000/svg">
<g clip-path="url(#clip0_36_2)">
<path d="M21 0C20.7348 0 20.4804 0.105357 20.2929 0.292893C20.1054 0.48043 20 0.734784 20 1V3C20 3.26522 20.1054 3.51957 20.2929 3.70711C20.4804 3.89464 20.7348 4 21 4H22.5V6.6475C11.682 7.8925 3.25 17.1045 3.25 28.25C3.25 40.2415 13.0085 50 25 50C36.9915 50 46.75 40.2415 46.75 28.25C46.7535 24.1457 45.588 20.1252 43.39 16.659L45.509 14.9435L46.453 16.1095C46.5356 16.2116 46.6375 16.2965 46.7529 16.3592C46.8683 16.4219 46.9949 16.4613 47.1255 16.4751C47.2561 16.4889 47.3881 16.4768 47.5141 16.4395C47.64 16.4023 47.7574 16.3406 47.8595 16.258L49.4145 14.999C49.6204 14.832 49.7515 14.5901 49.779 14.3264C49.8066 14.0628 49.7284 13.799 49.5615 13.593L44.5275 7.375C44.4449 7.27289 44.343 7.18805 44.2276 7.12532C44.1122 7.0626 43.9856 7.02321 43.855 7.00942C43.7244 6.99563 43.5924 7.00771 43.4664 7.04495C43.3405 7.0822 43.2231 7.14389 43.121 7.2265L41.566 8.4855C41.3602 8.65251 41.229 8.89443 41.2015 9.15807C41.1739 9.42172 41.2521 9.68552 41.419 9.8915L42.3635 11.0575L40.2535 12.7645C36.885 9.4455 32.4415 7.2175 27.5 6.6485V4H29C29.2652 4 29.5196 3.89464 29.7071 3.70711C29.8946 3.51957 30 3.26522 30 3V1C30 0.734784 29.8946 0.48043 29.7071 0.292893C29.5196 0.105357 29.2652 0 29 0L21 0ZM25 10C35.1 10 43.25 18.15 43.25 28.25C43.25 38.35 35.1 46.5 25 46.5C14.9 46.5 6.75 38.35 6.75 28.25C6.75 18.15 14.9 10 25 10ZM25.001 13.7215L25 28.25L36.617 36.9735C38.2375 34.8155 39.2248 32.2488 39.4684 29.5612C39.7119 26.8735 39.2021 24.1711 37.996 21.757C36.7899 19.3429 34.9353 17.3125 32.64 15.8933C30.3448 14.4741 27.6996 13.7217 25.001 13.7215Z" fill="#CD1A76"/>
</g>
<defs>
<clipPath id="clip0_36_2">
<rect width="50" height="50" fill="white"/>
</clipPath>
</defs>
</svg>
