<svg width="50" height="50" viewBox="0 0 50 50"  xmlns="http://www.w3.org/2000/svg">
<g clip-path="url(#clip0_12_3)">
<path d="M1.03369 49.9593H1.02031C0.456736 49.9593 0 50.4161 0 50.9796C0 51.5431 0.456736 52 1.02031 52H1.03369C1.59716 52 2.05399 51.5432 2.05399 50.9796C2.0539 50.4161 1.59716 49.9593 1.03369 49.9593Z" fill="white"/>
<path d="M48.9744 49.9593H48.961C48.3975 49.9593 47.9407 50.416 47.9407 50.9796C47.9407 51.5433 48.3974 52 48.961 52H48.9744C49.5378 52 49.9947 51.5433 49.9947 50.9796C49.9947 50.416 49.5378 49.9593 48.9744 49.9593Z" fill="white"/>
<path d="M28.7186 22.7154C28.0897 22.7154 27.5781 23.227 27.5781 23.856C27.5781 24.4848 28.0897 24.9965 28.7186 24.9965C29.3474 24.9965 29.859 24.4848 29.8591 23.856C29.859 23.227 29.3475 22.7154 28.7186 22.7154Z" fill="white"/>
<path d="M21.2766 22.7154C20.6477 22.7154 20.1361 23.227 20.1361 23.856C20.1361 24.4848 20.6477 24.9965 21.2766 24.9965C21.9055 24.9965 22.4171 24.4848 22.4171 23.856C22.4171 23.227 21.9055 22.7154 21.2766 22.7154Z" fill="white"/>
<path d="M25.9989 27.5229H24.0049C23.4414 27.5229 22.9846 27.9797 22.9846 28.5433C22.9846 29.6557 23.8895 30.5608 25.0018 30.5608C26.1141 30.5608 27.0191 29.6557 27.0191 28.5433C27.0192 27.9798 26.5624 27.5229 25.9989 27.5229Z" fill="white"/>
<path d="M47.2448 35.9388V26.3774C48.1481 25.6075 48.6732 24.4849 48.6732 23.2758C48.6732 22.0423 48.1236 20.8877 47.1652 20.1083C46.873 19.8707 46.4734 19.8136 46.1261 19.9594C45.7789 20.1053 45.5402 20.4308 45.5055 20.806C45.4617 21.2802 45.0689 21.6377 44.5921 21.6377C44.1152 21.6377 43.7224 21.2802 43.6786 20.806C43.6438 20.4309 43.4052 20.1055 43.058 19.9594C42.7106 19.8134 42.3112 19.8706 42.0189 20.1083C41.0605 20.8877 40.5109 22.0423 40.5109 23.2758C40.5109 24.485 41.0359 25.6075 41.9393 26.3774V35.9388C41.036 36.7087 40.5109 37.8312 40.5109 39.0404C40.5109 40.274 41.0605 41.4285 42.0189 42.2079C42.3113 42.4456 42.7107 42.5028 43.058 42.3568C43.4052 42.2109 43.6439 41.8854 43.6786 41.5102C43.7224 41.0361 44.1152 40.6786 44.5921 40.6786C45.0689 40.6786 45.4617 41.0361 45.5055 41.5102C45.5403 41.8853 45.7789 42.2107 46.1261 42.3568C46.2536 42.4102 46.3878 42.4365 46.5213 42.4365C46.752 42.4365 46.98 42.3584 47.1652 42.2079C48.1236 41.4286 48.6732 40.2741 48.6732 39.0404C48.6732 37.8312 48.1481 36.7088 47.2448 35.9388ZM45.6795 37.3141C46.2764 37.6913 46.6327 38.3366 46.6327 39.0404C46.6327 39.1675 46.621 39.2929 46.5983 39.4154C46.0707 38.9301 45.3658 38.638 44.5921 38.638C43.8184 38.638 43.1135 38.9301 42.5858 39.4154C42.5632 39.2929 42.5514 39.1675 42.5514 39.0404C42.5514 38.3366 42.9077 37.6913 43.5046 37.3141C43.8005 37.127 43.9798 36.8014 43.9798 36.4514V25.8646C43.9798 25.5145 43.8004 25.1891 43.5046 25.0019C42.9078 24.6248 42.5514 23.9794 42.5514 23.2757C42.5514 23.1485 42.5631 23.0231 42.5858 22.9006C43.1134 23.3859 43.8183 23.678 44.5921 23.678C45.3658 23.678 46.0707 23.3859 46.5983 22.9006C46.621 23.0231 46.6327 23.1485 46.6327 23.2757C46.6327 23.9794 46.2764 24.6247 45.6795 25.0019C45.3837 25.189 45.2043 25.5146 45.2043 25.8646V36.4514C45.2043 36.8015 45.3837 37.127 45.6795 37.3141Z" fill="white"/>
<path d="M6.03013 3.22593C5.66538 2.94886 5.1607 2.94886 4.79595 3.22593C4.65455 3.33326 1.33191 5.89263 1.33191 9.01219C1.33191 11.3332 3.04821 13.0177 5.41304 13.0177C7.77787 13.0177 9.49417 11.3332 9.49417 9.01219C9.49417 5.89263 6.17153 3.33336 6.03013 3.22593ZM5.41304 10.977C4.39732 10.977 3.37243 10.3694 3.37243 9.01229C3.37243 7.6451 4.54957 6.21375 5.4146 5.38585C6.27964 6.21062 7.45356 7.63719 7.45356 9.01229C7.45356 10.3694 6.42876 10.977 5.41304 10.977Z" fill="white"/>
<path d="M9.43123 32.3515H9.41795C8.85448 32.3515 8.39764 32.8083 8.39764 33.3719C8.39764 33.9355 8.85438 34.3923 9.41795 34.3923H9.43133C9.9948 34.3923 10.4516 33.9355 10.4516 33.3719C10.4516 32.8083 9.99471 32.3515 9.43123 32.3515Z" fill="white"/>
<path d="M49.8029 10.1184L48.9127 8.90233C48.9147 8.84491 48.9155 8.78797 48.9155 8.73152C48.9155 8.67673 48.9147 8.62145 48.9128 8.56569L49.8028 7.34968C50.0054 7.0731 50.0554 6.7134 49.9362 6.39209C49.6721 5.67983 49.2914 5.02148 48.8048 4.43531C48.5861 4.17181 48.2502 4.03587 47.9095 4.07268L46.4164 4.235C46.3196 4.17484 46.2206 4.11771 46.12 4.0637L45.5143 2.68997C45.3759 2.37608 45.089 2.15282 44.7509 2.09559C43.9975 1.96814 43.2456 1.96814 42.4923 2.09559C42.1542 2.15272 41.8673 2.37608 41.729 2.68997L41.1232 4.0637C41.0226 4.11771 40.9237 4.17484 40.8268 4.235L39.3337 4.07268C38.9932 4.03538 38.6569 4.17191 38.4383 4.43541C37.9517 5.02158 37.5711 5.67993 37.3069 6.39209C37.1878 6.7134 37.2379 7.0732 37.4403 7.34968L38.3303 8.56569C38.3286 8.62126 38.3277 8.67663 38.3277 8.73152C38.3277 8.78797 38.3286 8.84491 38.3305 8.90233L37.4403 10.1184C37.2378 10.395 37.1878 10.7547 37.3069 11.076C37.5711 11.7882 37.9517 12.4464 38.4383 13.0327C38.6569 13.2962 38.9926 13.4323 39.3337 13.3954L40.8339 13.2322C40.9275 13.2902 41.0231 13.3454 41.1203 13.3976L41.7289 14.7781C41.8672 15.0919 42.1541 15.3152 42.4922 15.3724C42.869 15.4361 43.2491 15.4684 43.6215 15.4684C43.9939 15.4684 44.3739 15.4361 44.7511 15.3724C45.0894 15.3153 45.3761 15.0919 45.5145 14.7781L46.1231 13.3976C46.2202 13.3454 46.3158 13.2902 46.4094 13.2322L47.9097 13.3954C48.2498 13.4326 48.5863 13.2962 48.805 13.0328C49.2916 12.4466 49.6723 11.7883 49.9364 11.076C50.0554 10.7547 50.0054 10.3949 49.8029 10.1184ZM46.8547 8.37368C46.868 8.49576 46.8747 8.61598 46.8747 8.73113C46.8747 8.84725 46.8679 8.96855 46.8543 9.0918C46.8265 9.34533 46.8947 9.60014 47.0453 9.80591L47.8107 10.8516C47.7321 11.0069 47.6449 11.1575 47.5493 11.3032L46.2591 11.1628C46.0053 11.1353 45.7505 11.2039 45.5447 11.355C45.3538 11.4952 45.1466 11.6148 44.9287 11.7106C44.6953 11.8134 44.5087 11.9997 44.4059 12.233L43.8827 13.4198C43.7074 13.4299 43.5355 13.4299 43.3602 13.4198L42.8369 12.233C42.734 11.9997 42.5474 11.8133 42.314 11.7106C42.096 11.6148 41.8888 11.4952 41.6981 11.355C41.4924 11.2038 41.2379 11.1353 40.9836 11.1628L39.6934 11.3032C39.5979 11.1575 39.5107 11.0068 39.4321 10.8516L40.1974 9.80591C40.3481 9.60004 40.4163 9.34524 40.3884 9.0918C40.3749 8.96855 40.368 8.84725 40.368 8.73113C40.368 8.61569 40.3748 8.49556 40.388 8.37397C40.4156 8.12073 40.3474 7.86632 40.1969 7.66074L39.4321 6.61584C39.5107 6.46065 39.5979 6.30996 39.6934 6.16424L40.9775 6.3039C41.2321 6.33154 41.4875 6.26259 41.6933 6.11072C41.8861 5.96862 42.0957 5.84752 42.3162 5.75064C42.55 5.64799 42.7368 5.46146 42.8397 5.22794L43.3601 4.04759C43.5355 4.03753 43.7073 4.03753 43.8827 4.04759L44.4031 5.22794C44.506 5.46165 44.6928 5.64809 44.9266 5.75064C45.1472 5.84733 45.3568 5.96862 45.5494 6.11072C45.7553 6.26259 46.0107 6.33154 46.2653 6.3039L47.5493 6.16424C47.6448 6.30996 47.7321 6.46065 47.8107 6.61584L47.0458 7.66074C46.8952 7.86622 46.8272 8.12054 46.8547 8.37368Z" fill="white"/>
<path d="M43.6214 5.93045C42.0771 5.93045 40.8207 7.18689 40.8207 8.73134C40.8207 10.2758 42.0771 11.5322 43.6214 11.5322C45.1657 11.5322 46.4221 10.2758 46.4221 8.73134C46.4221 7.18689 45.1656 5.93045 43.6214 5.93045ZM43.6214 9.49155C43.2023 9.49155 42.8613 9.15051 42.8613 8.73134C42.8613 8.31217 43.2023 7.97113 43.6214 7.97113C44.0405 7.97113 44.3816 8.31217 44.3816 8.73134C44.3816 9.15051 44.0405 9.49155 43.6214 9.49155Z" fill="white"/>
<path d="M45.6601 49.9593H39.9997V43.0601C39.9997 41.0712 38.7994 39.182 37.0809 38.4659L30.5146 35.7298C30.2812 35.6325 30.1302 35.4062 30.1302 35.1531V33.5643L32.7972 32.035C32.8157 32.0243 32.834 32.013 32.852 32.0012C34.1873 31.1193 35.0642 29.5508 35.1975 27.8055C35.1996 27.7798 35.2005 27.7537 35.2005 27.7278V26.8807C36.5255 26.4497 37.4858 25.2028 37.4858 23.7358C37.4858 22.2688 36.5255 21.0219 35.2005 20.591V19.647C35.8962 19.1162 36.2816 18.2763 36.2189 17.3902L36.0627 14.0886C36.0627 14.0632 36.0617 14.0377 36.0598 14.0122L35.7284 9.7095C35.5622 7.56559 34.0418 5.80873 31.9448 5.33779L25.27 3.83827C25.1145 3.79852 24.949 3.79569 24.7918 3.83104L18.0873 5.33789C15.9892 5.80921 14.4687 7.56627 14.3036 9.71008L13.9724 14.0123C13.9717 14.0224 13.9709 14.0325 13.9705 14.0424L13.8121 17.39C13.75 18.2611 14.121 19.0878 14.7945 19.6201V20.5911C13.4695 21.0221 12.5092 22.269 12.5092 23.736C12.5092 25.203 13.4696 26.4499 14.7945 26.8809V27.728C14.7945 27.7539 14.7955 27.78 14.7975 27.8057C14.9314 29.5581 15.8021 31.1265 17.1267 32.0014C17.1449 32.0134 17.1636 32.0248 17.1826 32.0357L19.8648 33.5692V35.1532C19.8648 35.4062 19.7139 35.6325 19.4804 35.7298L12.914 38.4661C11.1955 39.1822 9.99534 41.0714 9.99534 43.0602V49.9594H8.93656V39.9578C11.867 39.5052 14.1737 37.137 14.5304 34.1761C15.2963 33.8115 15.827 33.0298 15.827 32.1264C15.827 30.8755 14.8093 29.8578 13.5586 29.8578H2.2739C1.02313 29.8578 0.0055542 30.8756 0.0055542 32.1265C0.0055542 33.0298 0.536118 33.8114 1.30213 34.1759C1.65847 37.1371 3.9654 39.5052 6.89604 39.9577V49.959H4.33434C3.77087 49.959 3.31403 50.4158 3.31403 50.9794C3.31403 51.543 3.77077 51.9998 4.33434 51.9998H45.6601C46.2236 51.9998 46.6804 51.543 46.6804 50.9794C46.6804 50.4158 46.2237 49.9593 45.6601 49.9593ZM3.40905 34.3923H6.11704C6.68052 34.3923 7.13735 33.9355 7.13735 33.3719C7.13735 32.8082 6.68062 32.3515 6.11704 32.3515H2.35857C2.33484 32.3515 2.3115 32.3534 2.28806 32.3551C2.28328 32.355 2.27869 32.3544 2.2739 32.3544C2.15046 32.3544 2.04617 32.2501 2.04617 32.1266C2.04617 32.0031 2.15046 31.8988 2.2739 31.8988H13.5588C13.6822 31.8988 13.7865 32.0031 13.7865 32.1267C13.7865 32.2501 13.6822 32.3544 13.5581 32.3544C12.9946 32.3544 12.5378 32.8112 12.5378 33.3748C12.5378 35.9232 10.4646 37.9966 7.91635 37.9966C5.71763 37.9966 3.87389 36.4527 3.40905 34.3923ZM16.3383 9.86654C16.4341 8.62211 17.3166 7.60231 18.5347 7.32876L25.0148 5.8724L31.4976 7.32876C32.7147 7.60222 33.5974 8.62221 33.6938 9.86664L33.9536 13.2405C31.1449 12.0337 28.089 11.3995 25.0155 11.3995C21.9423 11.3995 18.8869 12.0336 16.0784 13.24L16.3383 9.86654ZM15.8499 17.4999L15.9424 15.5463C18.7473 14.1672 21.8715 13.4401 25.0156 13.4401C28.1597 13.4401 31.2838 14.1672 34.0889 15.5463L34.1813 17.4998C34.1817 17.5099 34.1824 17.52 34.1833 17.53C34.2076 17.8451 34.001 18.0067 33.9109 18.0616C33.8219 18.1158 33.5859 18.2244 33.3211 18.0609C30.83 16.5204 27.958 15.7063 25.0157 15.7063C22.0733 15.7063 19.2013 16.5206 16.7109 18.0606C16.4449 18.2247 16.2089 18.116 16.1195 18.0615C16.0298 18.0067 15.8234 17.8452 15.8479 17.531C15.8487 17.5206 15.8493 17.5104 15.8499 17.4999ZM18.2265 30.2815C17.4468 29.7535 16.9293 28.7881 16.8353 27.6867V26.0213C16.8353 25.4578 16.3786 25.0009 15.815 25.0009C15.1175 25.0009 14.55 24.4333 14.55 23.7358C14.55 23.0383 15.1176 22.4707 15.815 22.4707C16.3785 22.4707 16.8353 22.0139 16.8353 21.4503V20.1515C17.1648 20.0971 17.4869 19.9798 17.7833 19.7968C22.1768 17.0802 27.8544 17.0801 32.2486 19.7971C32.5339 19.9732 32.8432 20.0883 33.16 20.1451V21.4502C33.16 22.0137 33.6167 22.4706 34.1803 22.4706C34.8778 22.4706 35.4453 23.0382 35.4453 23.7357C35.4453 24.4332 34.8777 25.0008 34.1803 25.0008C33.6168 25.0008 33.16 25.4576 33.16 26.0212V27.6864C33.0673 28.7655 32.5309 29.7542 31.7519 30.2817L26.2741 33.4229C26.2554 33.4337 26.2372 33.4449 26.2193 33.4567C25.4545 33.962 24.5413 33.962 23.7762 33.4567C23.758 33.4446 23.7394 33.4332 23.7203 33.4224L18.2265 30.2815ZM28.0897 34.7343V38.8183C28.0897 40.5155 26.7048 41.8964 25.0026 41.8964C23.2949 41.8964 21.9056 40.5155 21.9056 38.8183V34.7355L22.6808 35.1788C23.3969 35.644 24.1973 35.8765 24.9977 35.8765C25.7983 35.8765 26.5989 35.6438 27.3151 35.1784L28.0897 34.7343ZM12.0362 49.9593V43.0601C12.0362 41.91 12.7511 40.7448 13.6991 40.3496L14.1747 40.1515C14.385 40.6033 14.4946 41.0945 14.4946 41.6022V49.9593H12.0362ZM30.5121 49.9593H19.5189V47.6125H30.5121V49.9593ZM33.46 41.6022V49.9593H32.5527V46.5921C32.5527 46.0285 32.096 45.5717 31.5324 45.5717H18.4986C17.9351 45.5717 17.4783 46.0285 17.4783 46.5921V49.9593H16.5352V41.6022C16.5352 40.8206 16.3726 40.0643 16.0598 39.366L19.8649 37.7804V38.8185C19.8649 41.641 22.1697 43.9374 25.0025 43.9374C27.8299 43.9374 30.1302 41.641 30.1302 38.8185V37.7804L33.9354 39.366C33.6227 40.0643 33.46 40.8206 33.46 41.6022ZM37.9592 49.9593H37.9591H35.5005V41.6022C35.5005 41.0944 35.6101 40.6034 35.8205 40.1514L36.2962 40.3495C37.2442 40.7446 37.9592 41.9098 37.9592 43.06V49.9593Z" fill="white"/>
</g>
<defs>
<clipPath id="clip0_12_3">
<rect width="50" height="50" fill="white"/>
</clipPath>
</defs>
</svg>
