<svg width="24" height="24" viewBox="0 0 24 24" fill="#2E2D2D" xmlns="http://www.w3.org/2000/svg">
<g clip-path="url(#clip0_333_78)">
<rect x="3" y="3.75" width="18" height="17.25" rx="2" fill="white"/>
<path d="M20.5 2.04993H3.5C3.30542 2.04322 3.11148 2.07576 2.92974 2.14562C2.74801 2.21548 2.5822 2.32122 2.44222 2.45654C2.30223 2.59186 2.19093 2.75398 2.11496 2.93325C2.03898 3.11251 1.99988 3.30524 2 3.49993V20.5499C1.99988 20.7446 2.03898 20.9374 2.11496 21.1166C2.19093 21.2959 2.30223 21.458 2.44222 21.5933C2.5822 21.7286 2.74801 21.8344 2.92974 21.9042C3.11148 21.9741 3.30542 22.0066 3.5 21.9999H20.5C20.8846 21.9999 21.2534 21.8472 21.5253 21.5752C21.7972 21.3033 21.95 20.9345 21.95 20.5499V3.49993C21.95 3.11537 21.7972 2.74656 21.5253 2.47463C21.2534 2.2027 20.8846 2.04993 20.5 2.04993ZM7.95 19.0499H4.95V9.54993H7.95V19.0499ZM6.45 8.24993C5.99459 8.23692 5.56221 8.04681 5.24476 7.72002C4.92731 7.39324 4.74981 6.95553 4.75 6.49993C4.75 6.04907 4.92911 5.61666 5.24792 5.29785C5.56673 4.97904 5.99913 4.79993 6.45 4.79993C6.90087 4.79993 7.33327 4.97904 7.65208 5.29785C7.97089 5.61666 8.15 6.04907 8.15 6.49993C8.15019 6.95553 7.97269 7.39324 7.65524 7.72002C7.33779 8.04681 6.90541 8.23692 6.45 8.24993ZM19 19.0499H16.05V14.3999C16.05 13.2999 16.05 11.8999 14.5 11.8999C12.95 11.8999 12.75 13.0999 12.75 14.3499V19.0499H9.8V9.54993H12.6V10.8499H12.65C12.9316 10.3613 13.3411 9.95879 13.8345 9.68566C14.3279 9.41254 14.8864 9.27918 15.45 9.29993C18.45 9.29993 19 11.2499 19 13.8499V19.0499Z" />
</g>
<defs>
<clipPath id="clip0_333_78">
<rect width="24" height="24" fill="white"/>
</clipPath>
</defs>
</svg>
