<svg width="24" height="24" viewBox="0 0 24 24" fill="#2E2D2D" xmlns="http://www.w3.org/2000/svg">
<path d="M4.5 1.5H19.5C21.15 1.5 22.5 2.85 22.5 4.5V19.5C22.5 21.15 21.15 22.5 19.5 22.5H4.5C2.85 22.5 1.5 21.15 1.5 19.5V4.5C1.5 2.85 2.85 1.5 4.5 1.5Z" />
<path d="M15.9752 7.2749C15.5252 7.2749 15.0752 7.6499 15.0752 8.1749C15.0752 8.6999 15.4502 9.0749 15.9752 9.0749C16.5002 9.0749 16.8752 8.6999 16.8752 8.1749C16.8002 7.6499 16.4252 7.2749 15.9752 7.2749Z" fill="white"/>
<path d="M12.0002 8.3999C9.97519 8.3999 8.3252 10.0499 8.3252 12.0749C8.3252 14.0999 9.97519 15.7499 12.0002 15.7499C14.0252 15.7499 15.6752 14.0999 15.6752 12.0749C15.7502 10.0499 14.1002 8.3999 12.0002 8.3999ZM12.0002 14.4749C10.7252 14.4749 9.6002 13.4249 9.6002 12.0749C9.6002 10.7999 10.6502 9.6749 12.0002 9.6749C13.2752 9.6749 14.4002 10.7249 14.4002 12.0749C14.4002 13.4249 13.3502 14.4749 12.0002 14.4749Z" fill="white"/>
<path d="M15 4.5H9C6.525 4.5 4.5 6.525 4.5 9V15C4.5 17.475 6.525 19.5 9 19.5H15C17.475 19.5 19.5 17.475 19.5 15V9C19.5 6.525 17.475 4.5 15 4.5ZM18.075 15C18.075 16.725 16.65 18.075 15 18.075H9C7.275 18.075 5.925 16.65 5.925 15V9C5.925 7.275 7.35 5.925 9 5.925H15C16.725 5.925 18.075 7.35 18.075 9V15Z" fill="white"/>
</svg>
