<svg width="24" height="24" viewBox="0 0 24 24" fill="none" xmlns="http://www.w3.org/2000/svg">
<g clip-path="url(#clip0_335_120)">
<path d="M12 2C8.7 2 6 4.7 6 8C6 13.2 12 19.1 12 19.1C12 19.1 18 13.1 18 8C18 4.7 15.3 2 12 2ZM12 5.9C13.1 5.9 14.1 6.9 14.1 8C14.1 9.2 13.2 10.1 12 10.1C10.8 10.1 9.9 9.1 9.9 8C9.9 6.8 10.9 5.9 12 5.9ZM6.8 15.1C5.5 15.4 4.5 15.7 3.6 16.1C3.2 16.3 2.8 16.6 2.5 16.9C2.2 17.2 2 17.8 2 18.3C2 19.1 2.5 19.7 3.1 20.1C3.7 20.5 4.4 20.8 5.3 21.1C7.1 21.7 9.4 22 12 22C14.6 22 16.9 21.7 18.7 21.2C19.6 20.9 20.3 20.6 20.9 20.2C21.5 19.8 22 19.2 22 18.4C22 17.4 21.2 16.7 20.4 16.2C19.6 15.7 18.5 15.4 17.2 15.2L16.9 17.2C18 17.4 18.9 17.7 19.5 18C19.9 18.2 20 18.4 20.1 18.4C20.1 18.4 20 18.5 19.9 18.6C19.6 18.8 19 19.1 18.3 19.3C16.6 19.7 14.4 20 12 20C9.6 20 7.4 19.7 5.9 19.2C5.2 19 4.6 18.7 4.3 18.5C4.2 18.4 4.1 18.3 4.1 18.3C4.2 18.2 4.3 18.1 4.6 17.9C5.2 17.6 6.1 17.3 7.3 17.1L6.8 15.1Z" fill="white"/>
</g>
<defs>
<clipPath id="clip0_335_120">
<rect width="24" height="24" fill="white"/>
</clipPath>
</defs>
</svg>
