<svg width="60" height="60" viewBox="0 0 60 60" fill="none" xmlns="http://www.w3.org/2000/svg">
<g clip-path="url(#clip0_153_116)">
<path d="M12.3632 0.246071C11.9765 0.374977 11.4023 0.691383 11.0742 0.937477C10.7578 1.19529 8.37885 3.5156 5.78901 6.11716C1.78119 10.1367 1.04291 10.9453 0.749944 11.5429L0.4101 12.2461L0.374944 34.2773C0.351506 58.6054 0.292913 56.9179 1.08979 58.0781C1.62885 58.8633 2.48432 59.4961 3.39838 59.7656C4.14838 60 4.46479 60 24.3749 59.9765L44.5898 59.9414L45.3164 59.6015C46.1249 59.2383 47.0507 58.3476 47.4374 57.5859C47.8945 56.6836 48.0937 54.75 47.8007 54.0937C47.5312 53.4961 46.5937 53.4492 46.3007 54.0117C46.2304 54.1406 46.1718 54.5859 46.1718 55.0195C46.1718 56.2265 45.9843 56.789 45.3632 57.4336C44.9999 57.7969 44.6601 58.0312 44.3437 58.1133C43.9921 58.207 38.1445 58.2304 23.8828 58.2187L3.90229 58.1836L3.33979 57.832C2.91791 57.5742 2.67182 57.3047 2.43744 56.8476L2.10932 56.2265V34.5586V12.9023L6.48041 12.8672C10.3828 12.832 10.8867 12.8086 11.3085 12.6211C11.8476 12.375 12.4453 11.8359 12.8085 11.25C13.0546 10.8515 13.0664 10.7109 13.1249 6.3281L13.1835 1.81638L28.5234 1.78123C39.3632 1.76951 44.0039 1.79295 44.3437 1.8867C45.0117 2.06248 45.8554 2.9531 46.0312 3.66795C46.1249 4.04295 46.1718 6.05857 46.1718 10.3008C46.1718 16.2539 46.1835 16.4179 46.4062 16.6406C46.7578 16.9922 47.3789 16.957 47.6835 16.5703C47.9296 16.2656 47.9296 16.1484 47.9296 10.1836C47.9296 3.8906 47.8945 3.31638 47.4374 2.41404C47.0507 1.65232 46.1249 0.761696 45.3164 0.398415L44.5898 0.0585709L28.8281 0.0351334C13.1835 0.0116959 13.0664 0.0116959 12.3632 0.246071ZM11.1796 10.5117C10.8164 11.0859 10.4765 11.1328 6.77338 11.1328H3.33979L7.32416 7.14841L11.3085 3.16404L11.3437 6.69138C11.3671 9.7617 11.3437 10.2656 11.1796 10.5117Z" fill="white"/>
<path d="M19.4414 6.36328C19.2305 6.50391 18.9258 6.80859 18.7852 7.01953C18.5273 7.39453 18.5156 7.53516 18.5156 9.39844C18.5156 11.6836 18.6094 12.0117 19.3594 12.5156C19.7461 12.7617 19.9922 12.8203 20.8008 12.8672C21.9492 12.9258 22.2891 12.8672 22.6172 12.5156C22.9219 12.1875 22.9102 11.8359 22.6172 11.4492C22.3945 11.168 22.2891 11.1445 21.3516 11.1094L20.332 11.0742L20.2969 9.45703L20.2617 7.85156H29.4727H38.6836L38.6484 9.45703L38.6133 11.0742L32.1797 11.1094C25.7578 11.1328 25.7344 11.1328 25.4648 11.3906C25.0195 11.8008 25.125 12.4336 25.6758 12.7148C25.957 12.8672 27.0117 12.8906 32.3203 12.8906C36.7148 12.8906 38.7539 12.8555 39.0352 12.7617C39.5156 12.5977 40.125 12.0469 40.3125 11.6016C40.3945 11.3906 40.4297 10.5938 40.4062 9.28125C40.3711 7.10156 40.3242 6.96094 39.5625 6.39844C39.2461 6.15234 39.1289 6.15234 29.543 6.11719L19.8398 6.09375L19.4414 6.36328Z" fill="white"/>
<path d="M45.7267 19.5352C45.4454 19.6289 44.8829 20.0274 44.4259 20.4492C43.4884 21.3047 43.1837 21.3985 42.0938 21.211C40.6759 20.9531 39.2931 21.4805 38.5548 22.5703C38.1095 23.2149 37.9923 23.5313 37.8634 24.4336C37.7228 25.4063 37.5235 25.6758 36.586 26.168C35.1212 26.9414 34.4181 28.0078 34.4063 29.4258C34.4063 30.0703 34.4767 30.3281 34.8399 31.1016C35.3673 32.2031 35.379 32.6133 34.922 33.4922C33.8204 35.6133 34.4649 37.5703 36.6329 38.6485C37.5001 39.082 37.711 39.3985 37.8751 40.4063C38.0274 41.3789 38.3204 42.0352 38.8829 42.5977C39.3165 43.043 40.3126 43.5938 40.6993 43.5938C40.8868 43.5938 40.8985 43.875 40.8985 47.7774C40.8985 51.6211 40.922 52.0078 41.1212 52.4531C41.3673 53.0039 41.7071 53.2735 42.3399 53.4492C42.9845 53.625 43.3712 53.4727 45.2462 52.3125C46.1603 51.75 46.9571 51.293 47.0392 51.293C47.1095 51.293 47.8712 51.7266 48.7384 52.2656C50.6603 53.461 51.047 53.6133 51.7149 53.4258C52.2657 53.2852 52.6642 52.9688 52.9454 52.4414C53.1212 52.1367 53.1446 51.5274 53.1798 47.8594L53.2149 43.6406L53.7188 43.5C54.3517 43.336 55.1485 42.7383 55.5704 42.1289C55.8868 41.6602 55.9923 41.3086 56.2501 40.0664C56.4024 39.293 56.6954 38.9766 57.6798 38.5078C58.3946 38.168 58.9103 37.6641 59.3204 36.8789C59.5313 36.4805 59.5899 36.1875 59.5899 35.3789C59.5899 34.4649 59.5548 34.3125 59.1915 33.6211C58.6759 32.6367 58.6759 32.168 59.1915 31.1719C59.5548 30.4805 59.5899 30.3164 59.5899 29.4141C59.5899 28.5352 59.5548 28.3477 59.2501 27.8086C58.8165 27.0235 58.4532 26.6836 57.5274 26.2031C56.6603 25.7578 56.297 25.2891 56.1915 24.5156C55.9923 23.0508 55.336 22.0547 54.2228 21.5156C53.4024 21.1172 52.7813 21.0352 51.8673 21.211C50.8243 21.4102 50.4962 21.3047 49.711 20.543C48.797 19.6524 48.1056 19.336 47.0509 19.3477C46.6056 19.3477 46.0079 19.4297 45.7267 19.5352ZM48.4688 21.8086C49.4415 22.711 50.0978 23.0156 51.0938 23.0156C51.5157 23.0156 52.1251 22.9805 52.4415 22.9219C53.5079 22.7578 54.2813 23.4492 54.4337 24.6914C54.5978 26.1094 55.2774 27.0352 56.6134 27.7149C57.4923 28.1602 57.7853 28.5235 57.8673 29.2735C57.9142 29.7071 57.8556 29.9297 57.4688 30.668C57.0587 31.4649 57.0235 31.6289 57.0235 32.4258C57.0353 33.1875 57.0821 33.3867 57.4571 34.1133C58.2071 35.543 57.9962 36.3281 56.672 37.043C55.2423 37.8164 54.6095 38.6836 54.4337 40.1016C54.3282 40.9805 54.0235 41.4492 53.3556 41.7422C52.8634 41.9531 52.7579 41.9649 52.1368 41.836C50.7657 41.543 49.5118 41.918 48.5743 42.8906C47.9767 43.5117 47.5899 43.711 46.9923 43.711C46.3712 43.711 46.1251 43.5821 45.3868 42.8321C44.5431 41.9766 43.7228 41.6602 42.5978 41.7774C41.2618 41.918 40.7813 41.8828 40.4532 41.6367C39.9259 41.25 39.7149 40.8516 39.6095 40.043C39.4103 38.6485 38.754 37.7227 37.5704 37.1485C36.7384 36.7617 36.5274 36.5625 36.2696 35.9297C36.0353 35.3906 36.1056 35.0039 36.6095 34.0547C36.9259 33.4336 36.9728 33.2461 36.9728 32.4024C36.9728 31.5703 36.9259 31.3594 36.5978 30.6914C36.1056 29.6953 36.0587 29.5078 36.1993 28.9805C36.3517 28.418 36.7618 28.0313 37.6407 27.6094C38.754 27.0821 39.4103 26.1328 39.6095 24.7617C39.7149 23.9414 39.9259 23.5547 40.4767 23.1563C40.7462 22.9571 40.9337 22.9219 41.5196 22.9571C43.254 23.0625 43.7579 23.0274 44.3438 22.7344C44.672 22.5821 45.1642 22.2071 45.4571 21.9024C46.1603 21.1992 46.3478 21.1055 47.086 21.0938C47.6837 21.0938 47.7306 21.1172 48.4688 21.8086ZM43.5118 43.6172C43.6524 43.6875 44.0626 44.0156 44.4259 44.3555C45.4103 45.2578 45.797 45.4102 47.0509 45.4102C48.2931 45.4102 48.7618 45.211 49.5704 44.3555C50.1329 43.7696 50.6603 43.4766 51.1524 43.4766H51.4454V47.5664C51.4454 49.8281 51.4103 51.6914 51.3634 51.7149C51.3048 51.75 50.4845 51.2813 49.5118 50.6836C47.672 49.5352 47.0978 49.3242 46.4767 49.5703C46.2892 49.6406 45.422 50.1446 44.5313 50.6836C43.6524 51.2344 42.8673 51.6797 42.797 51.6797C42.6915 51.6797 42.6563 50.5899 42.6563 47.5781V43.4766H42.961C43.1251 43.4766 43.3712 43.5352 43.5118 43.6172Z" fill="white"/>
<path d="M45.2109 25.2656C43.8164 25.5937 42.1523 26.6836 41.2617 27.832C40.1836 29.2266 39.6914 30.668 39.6914 32.4023C39.6914 34.4531 40.3594 36.0351 41.8945 37.5703C42.9258 38.6133 43.9688 39.2226 45.3516 39.5625C46.3945 39.8203 48.293 39.7383 49.3359 39.3867C51.5742 38.625 53.2852 36.8437 54.0938 34.4531C54.3867 33.5976 54.3984 31.2773 54.1172 30.4101C53.2617 27.7734 51.3281 25.8867 48.8086 25.2539C47.9531 25.0312 46.1133 25.043 45.2109 25.2656ZM49.3711 27.3281C51.5156 28.3476 52.7461 30.457 52.582 32.8125C52.5 33.9375 52.1484 34.8633 51.4688 35.7773C49.5 38.3672 45.6914 38.7187 43.3008 36.5391C41.8828 35.2383 41.2617 33.5508 41.4961 31.6172C41.7422 29.5898 43.3242 27.7148 45.3281 27.0586C45.8438 26.8828 46.2773 26.8476 47.2266 26.8711C48.375 26.8945 48.5156 26.9297 49.3711 27.3281Z" fill="white"/>
<path d="M7.15998 21.6328C6.84358 22.0429 6.85529 22.3007 7.19514 22.6992L7.47639 23.0273L18.7147 23.0625C24.8905 23.0859 30.117 23.0625 30.328 23.0273C31.1014 22.8867 31.4412 22.0664 30.9373 21.5625C30.703 21.3281 30.5506 21.3281 19.0545 21.3281H7.39436L7.15998 21.6328Z" fill="white"/>
<path d="M7.41805 27.5625C6.85555 27.832 6.82039 28.7695 7.37117 29.0508C7.52352 29.1445 11.2266 29.1797 19.1368 29.1797H30.668L30.9141 28.9102C31.2774 28.5234 31.254 27.9727 30.8673 27.668C30.5509 27.4219 30.5157 27.4219 19.1134 27.4336C11.3555 27.4336 7.59383 27.4805 7.41805 27.5625Z" fill="white"/>
<path d="M7.34765 33.7617C6.80859 34.0781 6.8789 35.0625 7.46484 35.2852C7.6289 35.3438 12.5273 35.3906 19.1484 35.3906C30.5156 35.3906 30.5508 35.3906 30.8672 35.1445C31.2656 34.8281 31.2891 34.2422 30.9023 33.8906L30.6328 33.6328H19.0898C11.25 33.6445 7.48827 33.6797 7.34765 33.7617Z" fill="white"/>
<path d="M7.15998 40.1484C6.84358 40.5586 6.85529 40.8164 7.19514 41.2148L7.47639 41.543H19.1014H30.7264L30.949 41.2617C31.242 40.9102 31.2303 40.3711 30.9373 40.0781C30.703 39.8438 30.5506 39.8438 19.0545 39.8438H7.39436L7.15998 40.1484Z" fill="white"/>
<path d="M7.34745 48.9961C6.80839 49.3125 6.86699 50.2266 7.45292 50.4961C7.66386 50.5898 9.48027 50.625 13.5232 50.625C19.1951 50.625 19.3123 50.625 19.617 50.3789C20.0037 50.0742 20.0389 49.4531 19.6873 49.1016C19.4646 48.8789 19.3006 48.8672 13.5115 48.8672C9.57402 48.8789 7.48808 48.9141 7.34745 48.9961Z" fill="white"/>
</g>
<defs>
<clipPath id="clip0_153_116">
<rect width="60" height="60" fill="white"/>
</clipPath>
</defs>
</svg>
