<svg width="56" height="40" viewBox="0 0 56 40" fill="none" xmlns="http://www.w3.org/2000/svg">
<path d="M0.636597 0.453128C0.0858161 0.746097 0.109254 -0.0273406 0.109254 17.7266C0.109254 37.4375 -0.125121 35.0938 1.84363 35.1406L3.09753 35.1758L3.13269 37.1797C3.15613 39.043 3.17957 39.207 3.40222 39.4063C3.6366 39.6172 3.94128 39.6289 10.035 39.6289H16.4218L16.6444 39.3477C16.8436 39.1016 16.8671 38.8672 16.8671 37.0977V35.1172H27.9999H39.1327V37.0977C39.1327 38.8672 39.1561 39.1016 39.3553 39.3477L39.578 39.6289H45.9647C52.0585 39.6289 52.3632 39.6172 52.5975 39.4063C52.8202 39.207 52.8436 39.043 52.8671 37.1797L52.9022 35.1758L54.1561 35.1406C56.1249 35.0938 55.8905 37.4258 55.8905 17.7617C55.8905 8.5625 55.8553 0.945316 55.8202 0.839847C55.6093 0.289066 56.9452 0.312503 27.9764 0.312503C8.58191 0.324222 0.80066 0.359378 0.636597 0.453128ZM33.1327 17.7383L33.0975 33.3008L17.4882 33.3359L1.86707 33.3594V17.7734V2.1875H17.5116H33.1561L33.1327 17.7383ZM54.1327 17.7734V33.3594H44.5233H34.9139V17.7734V2.1875H44.5233H54.1327V17.7734ZM15.1093 36.4648V37.8125H10.0116H4.91394V36.4648V35.1172H10.0116H15.1093V36.4648ZM51.0858 36.4648V37.8125H45.9882H40.8905V36.4648V35.1172H45.9882H51.0858V36.4648Z" fill="white"/>
<path d="M15.9063 4.53125C10.8672 5.12891 6.50786 8.69141 4.89067 13.5547C4.35161 15.1367 4.26958 15.7344 4.2813 17.832C4.2813 19.5898 4.32817 19.9531 4.58598 20.9492C5.25395 23.4102 6.22661 25.1445 7.93755 26.9258C10.5391 29.6445 13.7618 31.0156 17.5118 31.0156C22.7032 31.0156 27.2149 28.168 29.4766 23.457C30.6719 20.9727 31.0469 18.4766 30.6368 15.7812C29.5704 8.67969 23.043 3.69922 15.9063 4.53125ZM19.879 6.51172C23.1954 7.20312 26.0547 9.35938 27.6368 12.3828C29.5938 16.1328 29.3946 20.5977 27.0977 24.0664C26.5 24.9805 25.0586 26.4805 24.1797 27.1016C21.3555 29.1172 17.5938 29.75 14.2657 28.7773C10.3165 27.6172 7.37505 24.5234 6.30864 20.3984C5.92192 18.8867 5.93364 16.5312 6.35552 14.9609C6.91802 12.8281 7.87895 11.1523 9.41411 9.61719C10.504 8.53906 11.0899 8.11719 12.379 7.47266C14.1133 6.61719 15.4141 6.3125 17.3946 6.30078C18.3438 6.28906 19.1524 6.35938 19.879 6.51172Z" fill="white"/>
<path d="M11.9336 10.1094C11.2422 10.3204 10.2812 11.1993 9.96484 11.9141C9.64844 12.6055 9.64844 13.4844 9.96484 14.3399C10.3281 15.3008 11.6758 16.6368 12.918 17.2461C13.4102 17.4922 13.8203 17.7266 13.8203 17.7735C13.8203 17.8086 13.5391 17.961 13.2109 18.1016C12.4375 18.4297 11.1367 19.3907 10.6445 20.0118C9.74219 21.1485 9.49609 22.5079 10 23.5743C10.2578 24.1368 11.0547 24.9805 11.5703 25.2618C12.3203 25.6602 13.5742 25.6016 14.5117 25.0977C15.4375 24.6172 16.75 23.0586 17.2656 21.8282C17.3594 21.5938 17.4648 21.4063 17.5 21.4063C17.5352 21.4063 17.7227 21.7461 17.9219 22.168C18.3086 22.9766 19.1523 24.1016 19.7617 24.6172C20.7578 25.461 22.2344 25.7657 23.2305 25.3321C23.8164 25.086 24.6836 24.2891 24.9648 23.7266C25.9258 21.8399 24.6367 19.5079 21.8711 18.1485L21.0391 17.7383L21.6367 17.4688C23.043 16.8477 24.3555 15.711 24.918 14.6094C25.1758 14.0821 25.2461 13.8126 25.2461 13.1446C25.2344 12.1954 25.0586 11.7618 24.3203 11.0001C23.6055 10.2501 23.0547 9.99224 22.1406 9.98052C20.5586 9.98052 19.0586 11.129 18.0039 13.168L17.4883 14.1641L17.0547 13.2969C16.2344 11.6329 15.0391 10.4727 13.75 10.086C13.0703 9.88677 12.6367 9.88677 11.9336 10.1094ZM13.6914 12.0313C14.2539 12.3126 14.9102 13.0626 15.332 13.8946L15.6484 14.5157L14.9453 15.2188L14.2422 15.9219L13.7734 15.6876C12.9297 15.2774 12.0859 14.5274 11.7578 13.8829C11.3711 13.1211 11.4414 12.6641 12.0156 12.1602C12.5078 11.7266 13.0234 11.6915 13.6914 12.0313ZM23.0195 12.1836C23.5937 12.7579 23.6406 13.0743 23.2539 13.8477C22.9258 14.5274 22.2344 15.1485 21.25 15.6524L20.7695 15.9102L20.0547 15.2071L19.3398 14.5157L19.6328 13.9297C20.2539 12.6758 21.2969 11.8086 22.1875 11.7969C22.5391 11.7969 22.7148 11.879 23.0195 12.1836ZM18.4141 16.1563C19.5156 16.7774 19.6445 18.3946 18.6719 19.168C17.8867 19.7891 16.8555 19.7188 16.1641 19.004C15.8242 18.6524 15.7656 18.5001 15.7187 17.8907C15.6719 17.2813 15.707 17.1172 15.9648 16.7422C16.5156 15.9102 17.5352 15.6641 18.4141 16.1563ZM14.9687 20.3399L15.6719 21.0196L15.3555 21.6055C14.6758 22.8477 13.6211 23.7501 12.8711 23.7501C12.4375 23.7501 11.8516 23.3282 11.6289 22.8711C11.3359 22.2501 11.5703 21.629 12.4023 20.8204C12.9531 20.2813 13.9023 19.6602 14.1836 19.6485C14.2305 19.6485 14.582 19.9532 14.9687 20.3399ZM21.4609 19.9532C22.2461 20.3516 23.2187 21.336 23.3945 21.9219C23.5586 22.4493 23.4414 22.836 22.9961 23.3047C22.0937 24.254 20.5937 23.4454 19.5977 21.4883C19.3164 20.9258 19.3164 20.8907 19.5273 20.7852C19.6445 20.7266 19.9492 20.4454 20.207 20.1641C20.4648 19.8829 20.7227 19.6485 20.7695 19.6485C20.8164 19.6485 21.1328 19.7891 21.4609 19.9532Z" fill="white"/>
<path d="M38.6758 5.1875C38.4414 5.48047 38.4297 5.64453 38.4297 8.04688C38.4297 10.3906 38.4531 10.625 38.6523 10.8711L38.875 11.1523L44.8164 11.1875L50.7461 11.2227L51.0977 10.8594L51.4492 10.5078L51.4141 7.91797C51.3789 5.36328 51.3789 5.32813 51.0977 5.10547C50.8398 4.89453 50.5586 4.88281 44.875 4.88281H38.9102L38.6758 5.1875ZM49.5625 7.98828V9.33594H44.875H40.1875V7.98828V6.64063H44.875H49.5625V7.98828Z" fill="white"/>
<path d="M38.9571 15.4531C38.418 15.7461 38.4297 15.582 38.4297 22.7188V29.5039L38.7227 29.7852L39.0039 30.0781H44.875H50.7578L51.0977 29.7383L51.4375 29.3984V22.6953V15.9922L51.0977 15.6523L50.7578 15.3125H44.9688C41.0196 15.3242 39.1211 15.3594 38.9571 15.4531ZM49.5625 22.7539V28.3203L44.9102 28.2969L40.2461 28.2617L40.211 22.7188L40.1875 17.1875H44.875H49.5625V22.7539Z" fill="white"/>
<path d="M42.2263 18.5235C41.6052 18.793 41.4997 19.5899 42.0271 20.0001C42.3318 20.2344 42.4372 20.2462 45.0271 20.211C47.6872 20.1758 47.7107 20.1758 47.9333 19.8946C48.238 19.5313 48.2146 19.1446 47.8747 18.7462L47.5935 18.418L45.0857 18.3946C43.1638 18.3712 42.5075 18.3946 42.2263 18.5235Z" fill="white"/>
<path d="M42.1798 21.9102C41.8048 22.0977 41.629 22.5898 41.7813 23.0117C41.9688 23.5742 42.2618 23.6328 44.8985 23.6328C47.5353 23.6328 47.8165 23.5742 48.0509 23.0352C48.2267 22.6016 48.0274 22.0742 47.6173 21.8867C47.1954 21.6992 42.5665 21.7109 42.1798 21.9102Z" fill="white"/>
<path d="M42.0156 25.4023C41.6289 25.707 41.5937 26.3281 41.9453 26.6797C42.1679 26.9023 42.332 26.9141 44.9218 26.9141H47.6757L47.9101 26.6094C48.2382 26.1992 48.2148 25.8008 47.8632 25.4492L47.582 25.1562H44.957C42.4726 25.1562 42.3085 25.168 42.0156 25.4023Z" fill="white"/>
</svg>
