<svg width="156" height="75" viewBox="0 0 156 75" fill="none" xmlns="http://www.w3.org/2000/svg">
<g clip-path="url(#clip0_149_49)">
<rect x="-3.12012" width="162.24" height="75" fill="#22264B"/>
<path d="M18 15.3636V9.10181L16.6869 9C14.2626 9 12.0067 9.59391 9.91918 10.7818C7.76431 12.0036 6.07239 13.6412 4.84343 15.6945C3.61448 17.7479 3 19.9794 3 22.3891L3.05051 37H8.95961L8.85857 23.3054C8.85857 21.8121 9.22897 20.4715 9.9697 19.2836C10.6768 18.0618 11.6448 17.0861 12.8737 16.3563C14.1027 15.6266 15.4242 15.2618 16.8384 15.2618C17.0067 15.2618 17.3939 15.2957 18 15.3636Z" fill="white"/>
<path d="M25.671 12.3911C23.4282 13.9852 21.8263 16.0775 20.8651 18.6679C20.2883 20.262 20 21.8561 20 23.4502C20 26.1735 20.7689 28.7141 22.3069 31.072C23.6846 33.1975 25.3426 34.7169 27.281 35.6302C29.2194 36.5435 31.1177 37 32.976 37C35.1867 37 37.2693 36.452 39.2237 35.3562C41.1781 34.2603 42.748 32.7658 43.9335 30.8728L38.6951 28.7805C37.9902 29.6108 37.1331 30.2501 36.1239 30.6984C35.1147 31.1468 34.0654 31.3709 32.976 31.3709C32.0148 31.3709 31.1177 31.2049 30.2847 30.8728C29.2594 30.4742 28.3623 29.8682 27.5934 29.0545C26.8244 28.2408 26.2477 27.2861 25.8632 26.1901L45.7598 25.6421V25.5923L45.8561 25.6421C45.952 24.9447 46 24.2307 46 23.5001C46 20.7768 45.2473 18.2362 43.7412 15.8782C42.3636 13.786 40.6977 12.2832 38.7431 11.3699C36.7887 10.4566 34.8984 10 33.0721 10C30.3808 10 27.9138 10.797 25.671 12.3911ZM25.8152 21.0093L25.9113 20.7104C26.488 19.1495 27.4332 17.9207 28.7468 17.024C30.0604 16.1273 31.5022 15.679 33.0721 15.679C34.0333 15.679 34.9304 15.845 35.7635 16.1771C36.7887 16.5757 37.6778 17.1651 38.4308 17.9456C39.1837 18.726 39.7362 19.631 40.0889 20.6605L25.8152 21.0093Z" fill="white"/>
<path d="M48 21.8781V37H53.4902V21.8781C53.4902 19.6488 53.8254 18.0518 54.4952 17.0869C55.1651 16.122 56.2845 15.6396 57.853 15.6396C58.6045 15.6396 59.4705 15.8725 60.4512 16.3383C61.3988 16.8374 62.1584 17.5693 62.7304 18.5342C63.3024 19.4991 63.5883 20.6137 63.5883 21.8781V37H69.0785L69.1764 21.8781C69.1764 20.4807 68.9476 19.1165 68.4903 17.7856C69.5361 16.5213 70.7776 15.8891 72.2156 15.8891C73.3596 15.8891 74.3727 16.2551 75.2548 16.9871C76.1373 17.7191 76.5783 18.6341 76.5783 19.732V36.9502H83V19.5324C83 17.7025 82.4773 16.0555 81.4315 14.5915C80.4184 13.1941 79.1357 12.0795 77.5833 11.2477C76.031 10.4159 74.5522 10 73.147 10C71.709 10 70.3447 10.2912 69.0539 10.8734C67.763 11.4556 66.644 12.2791 65.6961 13.3438C64.5851 12.2792 63.3433 11.4557 61.9708 10.8734C60.598 10.2912 59.2255 10 57.853 10C54.7483 10 52.33 11.0481 50.5982 13.1442C48.8659 15.2403 48 18.1516 48 21.8781Z" fill="white"/>
<path d="M132.312 21.8781V37H137.9L138 21.8781C138 19.549 137.418 17.4529 136.253 15.5897C135.056 13.8263 133.509 12.4538 131.613 11.4723C129.717 10.4908 127.671 10 125.475 10C123.346 10 121.317 10.4825 119.387 11.4473C117.425 12.4455 115.87 13.8512 114.722 15.6645C113.574 17.4779 113 19.549 113 21.8781V37H118.589V21.8781C118.589 19.9483 119.254 18.4261 120.585 17.3115C121.916 16.1969 123.546 15.6396 125.475 15.6396C127.372 15.6396 128.985 16.1969 130.316 17.3115C131.646 18.4261 132.312 19.9483 132.312 21.8781Z" fill="white"/>
<path d="M140 0V37H146.785V14.1411H151.394L153 8.26162H146.785V0H140Z" fill="white"/>
<path d="M10.7631 64.0382L5.87927 63.5112L4.23918 67.3887L9.96129 67.9912C12.464 68.0667 14.4624 67.6587 15.9567 66.7676C17.451 65.8765 18.4047 64.5529 18.8178 62.796C18.9393 62.1682 19 61.6412 19 61.2146C19 59.4827 18.1739 58.1401 16.5217 57.1861C15.574 56.6844 14.0068 56.1571 11.8201 55.6051C9.90055 55.0782 8.83145 54.7516 8.61276 54.6263C7.85952 54.325 7.48292 53.9487 7.48292 53.4968C7.48292 53.3462 7.49505 53.2082 7.51936 53.0825C7.73804 52.1791 8.62493 51.7399 10.18 51.7648L15.3918 52.2543L16.7039 48.6025C14.1283 48.2008 11.9051 48 10.0342 48C8.47911 48 7.26423 48.1633 6.38952 48.4894C5.34473 48.8662 4.51861 49.5814 3.91116 50.6353C3.30372 51.6897 3 52.8441 3 54.0993C3 55.128 3.26728 55.9815 3.80182 56.6591C4.33637 57.3367 5.0653 57.889 5.98861 58.3156C6.91193 58.7422 8.11465 59.1691 9.59682 59.5957L10.836 59.897C12.3667 60.2733 13.2293 60.5244 13.4237 60.6497C14.0797 60.9762 14.4077 61.4404 14.4077 62.0429C14.4077 62.2184 14.3956 62.3441 14.3713 62.4192C14.2499 62.9964 13.9097 63.4171 13.3508 63.6804C12.792 63.9441 11.9294 64.0634 10.7631 64.0382Z" fill="#CD1A76"/>
<path d="M20.0718 41L20 68H24.0239V56.8994C24.0239 55.4829 24.503 54.3657 25.4611 53.5475C26.4192 52.7292 27.5928 52.3203 28.982 52.3203C30.3473 52.3203 31.509 52.7292 32.4671 53.5475C33.4251 54.3657 33.9042 55.4829 33.9042 56.8994V68H37.9281L38 56.8994C38 55.1898 37.5808 53.6513 36.7425 52.2837C35.8802 50.9892 34.7665 49.9817 33.4012 49.2611C32.0359 48.5406 30.5628 48.1805 28.982 48.1805C27.1617 48.1805 25.509 48.6444 24.0239 49.5727V42.8316L20.0718 41Z" fill="#CD1A76"/>
<path d="M39 48V59.2221C39 60.9505 39.4222 62.4937 40.2667 63.8518C41.1111 65.1851 42.2208 66.2161 43.5962 66.9446C44.9715 67.6727 46.4552 68.0371 48.0476 68.0371C49.1576 68.0371 50.2313 67.8581 51.2688 67.5C52.3063 67.1421 53.2351 66.6171 54.0552 65.926C54.1278 66.2468 54.1639 66.5926 54.1639 66.9629C54.1639 67.8025 53.983 68.531 53.6212 69.1482C53.259 69.8148 52.7102 70.3582 51.9745 70.7778C51.2384 71.1975 50.4726 71.4075 49.6764 71.4075C49.0972 71.4075 48.5241 71.3025 47.9571 71.0925C47.3901 70.8828 46.8774 70.5802 46.4191 70.1851L43.1983 71.9998C44.0184 72.9628 44.9955 73.7037 46.1295 74.2221C47.2635 74.7406 48.4458 75 49.6764 75C51.0274 75 52.3785 74.6418 53.7295 73.9258C55.0809 73.1853 56.1302 72.1418 56.8781 70.7961C57.626 69.4504 58 67.9752 58 66.3705C58 64.9136 57.6743 63.5061 57.0229 62.148L56.8059 61.7407L56.7698 61.7777C57.0108 60.9629 57.1316 60.1111 57.1316 59.2221L57.059 48H53.0059V59.2221C53.0059 60.6545 52.5233 61.7839 51.5583 62.6112C50.5931 63.4384 49.4229 63.8518 48.0476 63.8518C46.6483 63.8518 45.466 63.4384 44.501 62.6112C43.5358 61.7839 43.0535 60.6545 43.0535 59.2221V48H39Z" fill="#CD1A76"/>
<path d="M59 56.7987V68H62.9217V56.7987C62.9217 55.1473 63.161 53.9644 63.6394 53.2497C64.1181 52.5346 64.9174 52.1775 66.0378 52.1775C66.5749 52.1775 67.1934 52.3499 67.8938 52.695C68.5707 53.0645 69.1134 53.6069 69.5219 54.3216C69.9304 55.0362 70.1344 55.862 70.1344 56.7987V68H74.0561L74.126 56.7987C74.126 55.7634 73.9627 54.7529 73.6358 53.7672C74.383 52.8305 75.2698 52.3623 76.2971 52.3623C77.1141 52.3623 77.8377 52.6333 78.4679 53.1756C79.0981 53.7179 79.4132 54.3957 79.4132 55.209V67.9631H84V55.0611C84 53.7055 83.6264 52.4853 82.8797 51.4011C82.1561 50.3661 81.2398 49.5404 80.1309 48.9243C79.0223 48.3082 77.966 48 76.9622 48C75.9353 48 74.9606 48.2158 74.0385 48.6471C73.1167 49.0781 72.317 49.6883 71.6401 50.4768C70.8466 49.6883 69.9594 49.0784 68.9792 48.6471C67.9986 48.2158 67.0183 48 66.0378 48C63.8203 48 62.0929 48.7764 60.856 50.3289C59.6188 51.8817 59 54.0382 59 56.7987Z" fill="#CD1A76"/>
<path d="M93.7911 57.318L101.164 48.1091H96.1094L90.5987 55.1814V41H86V68H90.5604C90.586 67.9509 90.5987 67.8406 90.5987 67.6685V61.7748L91.3965 60.1541L97.2875 68H102L93.7911 57.318Z" fill="#CD1A76"/>
<path d="M107.362 49.7712C105.637 50.9519 104.405 52.5019 103.665 54.4207C103.222 55.6014 103 56.7821 103 57.9632C103 59.9801 103.592 61.8621 104.774 63.6089C105.834 65.1833 107.11 66.3086 108.601 66.9852C110.092 67.6617 111.552 68 112.982 68C114.682 68 116.284 67.5939 117.788 66.7821C119.291 65.9703 120.498 64.8633 121.41 63.4613L117.381 61.9113C116.839 62.5263 116.179 62.9998 115.403 63.3319C114.627 63.664 113.82 63.8302 112.982 63.8302C112.242 63.8302 111.552 63.7074 110.911 63.4613C110.123 63.166 109.433 62.7169 108.841 62.1144C108.25 61.5115 107.806 60.8043 107.51 59.9925L122.815 59.5868V59.5496L122.889 59.5868C122.963 59.0699 123 58.5413 123 58C123 55.9827 122.421 54.1007 121.262 52.3542C120.203 50.8043 118.921 49.691 117.418 49.0145C115.914 48.3383 114.46 48 113.056 48C110.985 48 109.087 48.5902 107.362 49.7712ZM107.473 56.1548L107.547 55.9335C107.991 54.7772 108.718 53.867 109.728 53.2029C110.739 52.5387 111.848 52.2066 113.056 52.2066C113.795 52.2066 114.485 52.3295 115.126 52.5755C115.914 52.8708 116.598 53.3075 117.178 53.8856C117.757 54.4637 118.182 55.1341 118.453 55.8967L107.473 56.1548Z" fill="#CD1A76"/>
<path d="M137.904 56.7983V68H141.928L142 56.7983C142 55.0731 141.581 53.5207 140.743 52.1406C139.88 50.8343 138.766 49.8176 137.401 49.0905C136.036 48.3634 134.563 48 132.982 48C131.449 48 129.988 48.3572 128.599 49.0722C127.186 49.8114 126.066 50.8526 125.239 52.1957C124.413 53.5389 124 55.0731 124 56.7983V68H128.024V56.7983C128.024 55.3689 128.503 54.2416 129.461 53.4159C130.419 52.5902 131.593 52.1775 132.982 52.1775C134.347 52.1775 135.509 52.5902 136.467 53.4159C137.425 54.2416 137.904 55.3689 137.904 56.7983Z" fill="#CD1A76"/>
<path d="M144 41V68H148.697V51.3191H151.889L153 47.0289H148.697V41H144Z" fill="#CD1A76"/>
<path fill-rule="evenodd" clip-rule="evenodd" d="M93.2744 10C92.5027 10.2766 91.7534 10.6246 91.0259 11.044C88.856 12.3093 87.1425 14.0107 85.8857 16.148C84.6284 18.2854 84 20.6023 84 23.0987C84 25.6293 84.637 27.9377 85.9113 30.0238C87.1514 32.1782 88.8475 33.8796 90.9999 35.1278C93.1527 36.376 95.4861 37 98.0002 37C100.549 37 102.891 36.3675 105.026 35.1021C107.161 33.871 108.857 32.1868 110.115 30.0494C111.372 27.9121 112 25.5952 112 23.0987C112 20.6023 111.38 18.2768 110.14 16.1224C108.866 14.0021 107.144 12.3179 104.974 11.0696C104.304 10.6842 103.619 10.3582 102.92 10.0918V17.0972C103.66 17.6831 104.267 18.3926 104.742 19.2258C105.413 20.4056 105.749 21.6966 105.749 23.0987C105.749 24.4666 105.405 25.7491 104.716 26.946C104.027 28.1429 103.089 29.0833 101.901 29.7673C100.712 30.4512 99.4121 30.7932 98.0002 30.7932C96.6224 30.7932 95.331 30.4513 94.1254 29.7673C92.9201 29.0833 91.973 28.1515 91.2841 26.9716C90.5952 25.7918 90.2509 24.5008 90.2509 23.0987C90.2509 21.6966 90.5952 20.3971 91.2841 19.2002C91.8049 18.2954 92.4682 17.542 93.2744 16.9401V10Z" fill="white"/>
<path d="M101 10H96V21H101V10Z" fill="white"/>
</g>
<defs>
<clipPath id="clip0_149_49">
<rect width="156" height="75" fill="white"/>
</clipPath>
</defs>
</svg>
