<svg width="150" height="75" viewBox="0 0 150 75" fill="none" xmlns="http://www.w3.org/2000/svg">
<g clip-path="url(#clip0_149_49)">
<path d="M14.7712 15.6664V9.43025L13.4781 9.32886C11.0909 9.32886 8.86936 9.92034 6.81364 11.1034C4.69164 12.3202 3.02553 13.951 1.81532 15.996C0.605107 18.0409 0 20.2632 0 22.6631L0.0497354 37.2141H5.86871L5.76921 23.5757C5.76921 22.0885 6.13396 20.7534 6.86339 19.5703C7.55968 18.3535 8.51293 17.3818 9.72314 16.655C10.9334 15.9283 12.2347 15.565 13.6273 15.565C13.7931 15.565 14.1744 15.5988 14.7712 15.6664Z" fill="white"/>
<path d="M22.1319 12.0667C19.8109 13.6891 18.1531 15.8185 17.1584 18.4549C16.5616 20.0774 16.2632 21.6998 16.2632 23.3222C16.2632 26.0938 17.0589 28.6795 18.6505 31.0793C20.0762 33.2426 21.792 34.7889 23.798 35.7185C25.804 36.648 27.7685 37.1126 29.6916 37.1126C31.9794 37.1126 34.1345 36.5548 36.1571 35.4396C38.1796 34.3242 39.8042 32.8032 41.031 30.8766L35.61 28.7471C34.8806 29.5921 33.9936 30.2428 32.9492 30.6991C31.9048 31.1554 30.8189 31.3835 29.6916 31.3835C28.6969 31.3835 27.7685 31.2146 26.9064 30.8766C25.8454 30.4709 24.917 29.8541 24.1213 29.026C23.3255 28.1978 22.7287 27.2261 22.3308 26.1107L42.921 25.553V25.5023L43.0206 25.553C43.1199 24.8432 43.1696 24.1165 43.1696 23.3729C43.1696 20.6013 42.3906 18.0155 40.8321 15.6157C39.4064 13.4863 37.6824 11.9568 35.6597 11.0273C33.6372 10.0978 31.681 9.63306 29.791 9.63306C27.0059 9.63306 24.4528 10.4443 22.1319 12.0667ZM22.2811 20.8378L22.3805 20.5337C22.9774 18.945 23.9555 17.6944 25.3149 16.7818C26.6743 15.8692 28.1664 15.4129 29.791 15.4129C30.7857 15.4129 31.7141 15.5819 32.5762 15.9199C33.6372 16.3255 34.5573 16.9255 35.3365 17.7198C36.1156 18.5141 36.6874 19.4351 37.0524 20.4829L22.2811 20.8378Z" fill="white"/>
<path d="M44.6619 21.7505V37.1126H50.2322V21.7505C50.2322 19.4858 50.5722 17.8634 51.2519 16.8832C51.9315 15.903 53.0672 15.4129 54.6587 15.4129C55.4212 15.4129 56.2997 15.6495 57.2947 16.1227C58.2562 16.6297 59.0269 17.3733 59.6072 18.3535C60.1876 19.3337 60.4776 20.466 60.4776 21.7505V37.1126H66.0479L66.1472 21.7505C66.1472 20.3308 65.9151 18.945 65.4512 17.593C66.5122 16.3086 67.7719 15.6664 69.2308 15.6664C70.3915 15.6664 71.4194 16.0382 72.3144 16.7818C73.2097 17.5254 73.6572 18.4549 73.6572 19.5703V37.062H80.1726V19.3675C80.1726 17.5085 79.6422 15.8354 78.5811 14.3482C77.5533 12.9286 76.2519 11.7962 74.6769 10.9513C73.1019 10.1062 71.6015 9.68372 70.1758 9.68372C68.7169 9.68372 67.3326 9.97949 66.0229 10.571C64.7133 11.1625 63.5779 11.999 62.6161 13.0807C61.489 11.9991 60.229 11.1625 58.8365 10.571C57.4437 9.97949 56.0512 9.68372 54.6587 9.68372C51.5087 9.68372 49.0551 10.7484 47.2979 12.8779C45.5404 15.0073 44.6619 17.9648 44.6619 21.7505Z" fill="white"/>
<path d="M129.36 21.7505V37.1126H134.93L135.03 21.7505C135.03 19.3844 134.45 17.255 133.289 15.3622C132.095 13.5708 130.554 12.1765 128.664 11.1794C126.774 10.1823 124.735 9.68372 122.546 9.68372C120.424 9.68372 118.402 10.1738 116.479 11.154C114.523 12.168 112.973 13.5961 111.829 15.4382C110.685 17.2803 110.113 19.3844 110.113 21.7505V37.1126H115.683V21.7505C115.683 19.79 116.346 18.2437 117.673 17.1113C118.999 15.979 120.623 15.4129 122.546 15.4129C124.436 15.4129 126.044 15.979 127.371 17.1113C128.697 18.2437 129.36 19.79 129.36 21.7505Z" fill="white"/>
<path d="M137.516 0V37.0114H144.032V14.1454H148.458L150 8.26416H144.032V0H137.516Z" fill="white"/>
<path d="M7.70064 63.7332L2.85611 63.2173L1.22921 67.0132L6.90529 67.603C9.38782 67.6769 11.3702 67.2775 12.8525 66.4052C14.3348 65.5328 15.2808 64.2371 15.6905 62.5172C15.811 61.9026 15.8713 61.3867 15.8713 60.9691C15.8713 59.2736 15.0518 57.9593 13.4129 57.0254C12.4729 56.5343 10.9183 56.018 8.74911 55.4777C6.84504 54.9618 5.78454 54.6422 5.56761 54.5195C4.82043 54.2246 4.44686 53.8561 4.44686 53.4138C4.44686 53.2663 4.45889 53.1313 4.483 53.0082C4.69993 52.1239 5.57968 51.6939 7.12221 51.7183L12.2921 52.1974L13.5936 48.6225C11.0388 48.2293 8.83346 48.0327 6.97757 48.0327C5.43504 48.0327 4.22993 48.1925 3.36226 48.5118C2.32586 48.8807 1.50639 49.5808 0.903832 50.6126C0.301279 51.6447 0 52.7748 0 54.0036C0 55.0106 0.265126 55.8462 0.795371 56.5095C1.32562 57.1729 2.04869 57.7135 2.96457 58.1311C3.88046 58.5487 5.0735 58.9667 6.54375 59.3843L7.77296 59.6792C9.29139 60.0476 10.147 60.2934 10.3398 60.4161C10.9906 60.7357 11.316 61.1901 11.316 61.7799C11.316 61.9518 11.3039 62.0748 11.2798 62.1484C11.1594 62.7134 10.8219 63.1252 10.2675 63.383C9.71318 63.6411 8.85757 63.758 7.70064 63.7332Z" fill="#CD1A76"/>
<path d="M17.0281 40.7356L16.9558 67.898H21.005V56.7306C21.005 55.3056 21.487 54.1817 22.4511 53.3585C23.4152 52.5354 24.5962 52.1239 25.9941 52.1239C27.368 52.1239 28.5369 52.5354 29.501 53.3585C30.4651 54.1817 30.9471 55.3056 30.9471 56.7306V67.898H34.9963L35.0686 56.7306C35.0686 55.0107 34.6468 53.463 33.8032 52.0872C32.9356 50.7849 31.8148 49.7713 30.441 49.0464C29.0671 48.3215 27.5848 47.9593 25.9941 47.9593C24.1623 47.9593 22.4993 48.426 21.005 49.3599V42.5782L17.0281 40.7356Z" fill="#CD1A76"/>
<path d="M36.1533 47.9592V59.1262C36.1533 60.8461 36.5751 62.3818 37.4187 63.7333C38.2623 65.06 39.3708 66.0859 40.7447 66.8108C42.1187 67.5353 43.6008 67.8979 45.1915 67.8979C46.3005 67.8979 47.373 67.7199 48.4094 67.3635C49.4458 67.0074 50.3737 66.485 51.193 65.7972C51.2655 66.1165 51.3015 66.4606 51.3015 66.829C51.3015 67.6646 51.1208 68.3894 50.7594 69.0036C50.3976 69.667 49.8494 70.2076 49.1144 70.6252C48.379 71.0428 47.614 71.2518 46.8187 71.2518C46.2401 71.2518 45.6676 71.1473 45.1012 70.9384C44.5347 70.7297 44.0226 70.4286 43.5648 70.0354L40.3473 71.8413C41.1665 72.7995 42.1426 73.5368 43.2755 74.0527C44.4083 74.5686 45.5894 74.8267 46.8187 74.8267C48.1683 74.8267 49.518 74.4703 50.8676 73.7578C52.2176 73.0209 53.2658 71.9825 54.013 70.6435C54.7601 69.3044 55.1337 67.8364 55.1337 66.2396C55.1337 64.7898 54.8083 63.3892 54.1576 62.0377L53.9408 61.6325L53.9048 61.6693C54.1455 60.8585 54.2662 60.0109 54.2662 59.1262L54.1937 47.9592H50.1448V59.1262C50.1448 60.5516 49.6626 61.6755 48.6987 62.4987C47.7344 63.3218 46.5655 63.7333 45.1915 63.7333C43.7937 63.7333 42.6126 63.3218 41.6487 62.4987C40.6844 61.6755 40.2026 60.5516 40.2026 59.1262V47.9592H36.1533Z" fill="#CD1A76"/>
<path d="M55.5674 56.731V67.8979H59.6167V56.731C59.6167 55.0846 59.8638 53.9053 60.3577 53.1928C60.852 52.48 61.6774 52.1239 62.8342 52.1239C63.3888 52.1239 64.0274 52.2958 64.7506 52.6398C65.4495 53.0083 66.0099 53.5489 66.4317 54.2614C66.8535 54.9739 67.0642 55.7971 67.0642 56.731V67.8979H71.1135L71.1856 56.731C71.1856 55.6988 71.017 54.6914 70.6795 53.7087C71.451 52.7749 72.3667 52.3081 73.4274 52.3081C74.271 52.3081 75.0181 52.5783 75.6688 53.1189C76.3195 53.6596 76.6449 54.3353 76.6449 55.1461V67.8612H81.381V54.9987C81.381 53.6472 80.9952 52.4308 80.2242 51.3499C79.477 50.3181 78.531 49.4949 77.386 48.8807C76.2413 48.2665 75.1506 47.9592 74.1142 47.9592C73.0538 47.9592 72.0474 48.1744 71.0952 48.6044C70.1435 49.034 69.3177 49.6424 68.6188 50.4284C67.7995 49.6424 66.8835 49.0344 65.8713 48.6044C64.8588 48.1744 63.8467 47.9592 62.8342 47.9592C60.5445 47.9592 58.761 48.7333 57.4838 50.281C56.2063 51.829 55.5674 53.9789 55.5674 56.731Z" fill="#CD1A76"/>
<path d="M90.9617 57.2469L97.9753 48.0328H93.1671L87.9249 55.109V40.9198H83.5503V67.9347H87.8885C87.9128 67.8856 87.9249 67.7753 87.9249 67.6031V61.7061L88.6839 60.0845L94.2878 67.9347H98.7707L90.9617 57.2469Z" fill="#CD1A76"/>
<path d="M104.627 49.6915C102.94 50.8708 101.735 52.4188 101.012 54.3353C100.578 55.5146 100.361 56.6938 100.361 57.8735C100.361 59.8879 100.94 61.7676 102.097 63.5123C103.133 65.0847 104.381 66.2087 105.838 66.8844C107.297 67.5601 108.725 67.898 110.123 67.898C111.786 67.898 113.352 67.4924 114.823 66.6816C116.293 65.8708 117.474 64.7651 118.366 63.3648L114.425 61.8168C113.895 62.431 113.25 62.9039 112.491 63.2356C111.732 63.5673 110.942 63.7333 110.123 63.7333C109.4 63.7333 108.725 63.6106 108.098 63.3648C107.327 63.0699 106.652 62.6214 106.073 62.0196C105.495 61.4174 105.061 60.7111 104.772 59.9003L119.74 59.4951V59.4579L119.812 59.4951C119.884 58.9788 119.92 58.4509 119.92 57.9102C119.92 55.8954 119.354 54.0157 118.221 52.2714C117.185 50.7233 115.931 49.6114 114.461 48.9357C112.991 48.2604 111.569 47.9225 110.195 47.9225C108.171 47.9225 106.315 48.5119 104.627 49.6915ZM104.736 56.0673L104.808 55.8463C105.242 54.6914 105.953 53.7823 106.941 53.119C107.93 52.4556 109.014 52.1239 110.195 52.1239C110.918 52.1239 111.593 52.2466 112.22 52.4924C112.991 52.7873 113.66 53.2235 114.226 53.8009C114.793 54.3783 115.208 55.0478 115.473 55.8095L104.736 56.0673Z" fill="#CD1A76"/>
<path d="M134.996 56.7306V67.8979H139.045L139.118 56.7306C139.118 55.0107 138.696 53.463 137.852 52.0871C136.985 50.7848 135.864 49.7712 134.49 49.0464C133.116 48.3215 131.634 47.9592 130.043 47.9592C128.501 47.9592 127.031 48.3153 125.632 49.0282C124.211 49.7651 123.084 50.803 122.252 52.1421C121.421 53.4812 121.005 55.0107 121.005 56.7306V67.8979H125.054V56.7306C125.054 55.3056 125.536 54.1817 126.5 53.3585C127.464 52.5353 128.645 52.1239 130.043 52.1239C131.417 52.1239 132.586 52.5353 133.55 53.3585C134.514 54.1817 134.996 55.3056 134.996 56.7306Z" fill="#CD1A76"/>
<path d="M140.925 40.9198V67.8244H145.661V51.2024H148.879L150 46.9274H145.661V40.9198H140.925Z" fill="#CD1A76"/>
<path fill-rule="evenodd" clip-rule="evenodd" d="M90.7142 10.149C89.9714 10.4224 89.2499 10.7663 88.5496 11.1809C86.4606 12.4315 84.811 14.1131 83.601 16.2256C82.3906 18.3381 81.7856 20.6281 81.7856 23.0955C81.7856 25.5967 82.3989 27.8782 83.6256 29.9401C84.8196 32.0695 86.4524 33.7511 88.5246 34.9848C90.5971 36.2185 92.8435 36.8352 95.2639 36.8352C97.7174 36.8352 99.9721 36.21 102.028 34.9594C104.084 33.7426 105.716 32.078 106.927 29.9654C108.137 27.8529 108.742 25.5629 108.742 23.0955C108.742 20.6281 108.145 18.3297 106.951 16.2002C105.725 14.1046 104.067 12.44 101.978 11.2063C101.333 10.8252 100.674 10.5031 99.9999 10.2397V17.1638C100.713 17.7428 101.297 18.4441 101.754 19.2676C102.401 20.4337 102.724 21.7097 102.724 23.0955C102.724 24.4475 102.392 25.715 101.729 26.898C101.066 28.0811 100.163 29.0106 99.0189 29.6866C97.8749 30.3626 96.6231 30.7006 95.2639 30.7006C93.9374 30.7006 92.6942 30.3626 91.5335 29.6866C90.3731 29.0106 89.4614 28.0895 88.7981 26.9234C88.1349 25.7573 87.8035 24.4813 87.8035 23.0955C87.8035 21.7097 88.1349 20.4253 88.7981 19.2423C89.2996 18.348 89.9381 17.6034 90.7142 17.0085V10.149Z" fill="white"/>
<path d="M97.8572 9.83008H92.8572V21.4806H97.8572V9.83008Z" fill="white"/>
</g>
<defs>
<clipPath id="clip0_149_49">
<rect width="150" height="75" fill="white"/>
</clipPath>
</defs>
</svg>
