<svg width="350" height="150" viewBox="0 0 350 150" fill="none" xmlns="http://www.w3.org/2000/svg">
<path d="M47.6898 37.027V25.9525L44.9646 25.7724C39.9333 25.7724 35.2515 26.8228 30.9191 28.9237C26.4469 31.0846 22.9355 33.9808 20.3849 37.6123C17.8344 41.2438 16.5591 45.1904 16.5591 49.4521L16.6639 75.2928H28.9275L28.7179 51.0728C28.7179 48.4317 29.4866 46.0607 31.0239 43.9599C32.4913 41.799 34.5003 40.0733 37.0509 38.7828C39.6014 37.4922 42.3441 36.847 45.279 36.847C45.6284 36.847 46.432 36.907 47.6898 37.027Z" fill="white"/>
<path d="M63.2027 30.6344C58.3112 33.5156 54.8173 37.2971 52.7209 41.9791C51.4631 44.8603 50.8342 47.7414 50.8342 50.6226C50.8342 55.5446 52.5113 60.1365 55.8655 64.3983C58.8702 68.2399 62.4864 70.986 66.714 72.6367C70.9417 74.2874 75.082 75.1127 79.1349 75.1127C83.9565 75.1127 88.4986 74.1223 92.7612 72.1415C97.0237 70.1607 100.448 67.4596 103.033 64.0381L91.6082 60.2566C90.0708 61.7572 88.2016 62.9127 86.0004 63.723C83.7993 64.5333 81.5107 64.9385 79.1349 64.9385C77.0385 64.9385 75.082 64.6384 73.2651 64.0381C71.029 63.3179 69.0724 62.2224 67.3954 60.7518C65.7183 59.2812 64.4605 57.5555 63.6219 55.5747L107.016 54.5843V54.4942L107.226 54.5843C107.436 53.3238 107.54 52.0332 107.54 50.7127C107.54 45.7906 105.898 41.1988 102.614 36.937C99.6092 33.1554 95.9755 30.4393 91.713 28.7886C87.4504 27.138 83.3276 26.3126 79.3445 26.3126C73.4748 26.3126 68.0941 27.7532 63.2027 30.6344ZM63.5171 46.2108L63.7268 45.6706C64.9846 42.8494 67.046 40.6285 69.911 39.0078C72.776 37.3872 75.9205 36.5768 79.3445 36.5768C81.4409 36.5768 83.3975 36.877 85.2143 37.4772C87.4504 38.1975 89.3895 39.263 91.0317 40.6735C92.6738 42.0841 93.8792 43.7198 94.6479 45.5805L63.5171 46.2108Z" fill="white"/>
<path d="M110.685 47.8315V75.1127H122.425V47.8315C122.425 43.8098 123.141 40.9286 124.573 39.1879C126.006 37.4472 128.399 36.5768 131.753 36.5768C133.361 36.5768 135.212 36.997 137.309 37.8374C139.335 38.7377 140.96 40.0583 142.183 41.799C143.406 43.5396 144.017 45.5505 144.017 47.8315V75.1127H155.757L155.966 47.8315C155.966 45.3104 155.477 42.8494 154.499 40.4484C156.735 38.1675 159.39 37.027 162.465 37.027C164.911 37.027 167.077 37.6873 168.963 39.0078C170.85 40.3284 171.794 41.9791 171.794 43.9599V75.0227H185.525V43.5997C185.525 40.2984 184.407 37.3271 182.17 34.6861C180.005 32.165 177.262 30.1542 173.942 28.6536C170.623 27.153 167.461 26.4026 164.456 26.4026C161.382 26.4026 158.464 26.9279 155.704 27.9783C152.944 29.0286 150.551 30.5143 148.524 32.4351C146.148 30.5143 143.493 29.0287 140.558 27.9783C137.623 26.9279 134.688 26.4026 131.753 26.4026C125.115 26.4026 119.944 28.2934 116.24 32.075C112.537 35.8565 110.685 41.1087 110.685 47.8315Z" fill="white"/>
<path d="M202.872 71.8263C207.239 74.0172 211.974 75.1127 217.075 75.1127C222.246 75.1127 226.997 74.0022 231.33 71.7813C235.662 69.6204 239.104 66.6642 241.654 62.9127C244.205 59.1611 245.48 55.0945 245.48 50.7126C245.48 46.3308 244.222 42.2492 241.707 38.4676C239.121 34.7461 235.627 31.7899 231.225 29.599C226.823 27.4081 222.106 26.3126 217.075 26.3126C211.974 26.3126 207.257 27.3931 202.924 29.554C198.522 31.7749 195.046 34.7611 192.495 38.5126C189.944 42.2642 188.669 46.3309 188.669 50.7126C188.669 55.1545 189.962 59.2061 192.547 62.8677C195.063 66.6492 198.505 69.6354 202.872 71.8263ZM224.988 62.4175C222.578 63.618 219.94 64.2182 217.075 64.2182C214.28 64.2182 211.659 63.618 209.213 62.4175C206.768 61.217 204.846 59.5813 203.448 57.5104C202.051 55.4396 201.352 53.1737 201.352 50.7126C201.352 48.2516 202.051 45.9707 203.448 43.8698C204.846 41.769 206.75 40.1333 209.161 38.9628C211.572 37.7923 214.21 37.2071 217.075 37.2071C219.94 37.2071 222.595 37.8073 225.041 39.0078C227.487 40.2083 229.391 41.844 230.753 43.9149C232.116 45.9857 232.797 48.2516 232.797 50.7127C232.797 53.1136 232.098 55.3646 230.701 57.4654C229.303 59.5663 227.399 61.217 224.988 62.4175Z" fill="white"/>
<path d="M289.189 47.8315V75.1127H300.928L301.138 47.8315C301.138 43.6297 299.915 39.8482 297.469 36.4868C294.954 33.3055 291.704 30.8295 287.721 29.0587C283.738 27.288 279.441 26.4026 274.829 26.4026C270.357 26.4026 266.094 27.273 262.041 29.0137C257.918 30.8145 254.651 33.3505 252.241 36.6218C249.83 39.8932 248.625 43.6297 248.625 47.8315V75.1127H260.364V47.8315C260.364 44.35 261.762 41.6039 264.557 39.5931C267.352 37.5822 270.776 36.5768 274.829 36.5768C278.812 36.5768 282.201 37.5822 284.996 39.5931C287.791 41.6039 289.189 44.35 289.189 47.8315Z" fill="white"/>
<path d="M306.379 9.20557V74.9326H320.11V34.3259H329.439L332.688 23.8816H320.11V9.20557H306.379Z" fill="white"/>
<path d="M32.7884 122.387L22.5784 121.471L19.1497 128.212L31.1122 129.259C36.3441 129.39 40.5221 128.681 43.6461 127.132C46.77 125.583 48.7638 123.282 49.6273 120.227C49.8813 119.136 50.0083 118.22 50.0083 117.478C50.0083 114.468 48.2812 112.133 44.8271 110.475C42.846 109.602 39.5697 108.686 34.998 107.726C30.9852 106.81 28.7501 106.243 28.293 106.025C26.7183 105.501 25.931 104.846 25.931 104.061C25.931 103.799 25.9563 103.559 26.0071 103.341C26.4643 101.77 28.3184 101.007 31.5693 101.05L42.4651 101.901L45.208 95.5526C39.8237 94.8544 35.1758 94.5054 31.2645 94.5054C28.0136 94.5054 25.4738 94.789 23.6451 95.3562C21.4609 96.0107 19.7338 97.2543 18.4639 99.0869C17.194 100.919 16.5591 102.927 16.5591 105.108C16.5591 106.897 17.1178 108.381 18.2354 109.559C19.3529 110.737 20.8767 111.697 22.807 112.439C24.7372 113.18 27.2516 113.922 30.3502 114.664L32.9408 115.188C36.1409 115.842 37.9442 116.278 38.3506 116.497C39.7221 117.064 40.4078 117.871 40.4078 118.918C40.4078 119.224 40.3824 119.442 40.3316 119.573C40.0777 120.576 39.3666 121.307 38.1982 121.765C37.0299 122.223 35.2266 122.431 32.7884 122.387Z" fill="#CD1A76"/>
<path d="M52.4466 81.5463L52.2942 129.783H60.8279V109.952C60.8279 107.421 61.8438 105.425 63.8757 103.963C65.9075 102.501 68.3965 101.77 71.3427 101.77C74.2381 101.77 76.7017 102.501 78.7335 103.963C80.7653 105.425 81.7813 107.421 81.7813 109.952V129.783H90.315L90.4674 109.952C90.4674 106.897 89.5785 104.148 87.8006 101.705C85.9719 99.3923 83.6099 97.5925 80.7146 96.3053C77.8192 95.0181 74.6952 94.3745 71.3427 94.3745C67.4822 94.3745 63.9773 95.2035 60.8279 96.8616V84.8188L52.4466 81.5463Z" fill="#CD1A76"/>
<path d="M92.7532 94.3745V114.206C92.7532 117.26 93.6421 119.987 95.42 122.387C97.1978 124.743 99.5344 126.565 102.43 127.852C105.325 129.139 108.449 129.783 111.802 129.783C114.138 129.783 116.399 129.467 118.583 128.834C120.767 128.201 122.723 127.274 124.45 126.052C124.602 126.62 124.678 127.23 124.678 127.885C124.678 129.368 124.297 130.656 123.536 131.746C122.774 132.925 121.618 133.884 120.069 134.626C118.519 135.368 116.907 135.739 115.23 135.739C114.011 135.739 112.805 135.553 111.611 135.183C110.418 134.812 109.338 134.277 108.373 133.579L101.592 136.786C103.319 138.488 105.376 139.797 107.763 140.713C110.151 141.629 112.64 142.088 115.23 142.088C118.075 142.088 120.92 141.455 123.764 140.189C126.609 138.88 128.818 137.037 130.393 134.659C131.968 132.281 132.755 129.674 132.755 126.838C132.755 124.263 132.069 121.776 130.698 119.376L130.241 118.656L130.164 118.722C130.672 117.282 130.926 115.777 130.926 114.206L130.774 94.3745H122.24V114.206C122.24 116.737 121.224 118.733 119.192 120.194C117.161 121.656 114.697 122.387 111.802 122.387C108.856 122.387 106.366 121.656 104.335 120.194C102.303 118.733 101.287 116.737 101.287 114.206V94.3745H92.7532Z" fill="#CD1A76"/>
<path d="M133.669 109.952V129.783H142.203V109.952C142.203 107.028 142.724 104.934 143.765 103.668C144.806 102.403 146.546 101.77 148.984 101.77C150.153 101.77 151.499 102.076 153.022 102.687C154.496 103.341 155.677 104.301 156.566 105.566C157.454 106.832 157.899 108.293 157.899 109.952V129.783H166.433L166.585 109.952C166.585 108.119 166.229 106.33 165.518 104.585C167.144 102.927 169.074 102.098 171.309 102.098C173.087 102.098 174.662 102.578 176.033 103.537C177.405 104.497 178.09 105.697 178.09 107.137V129.717H188.072V106.875C188.072 104.476 187.259 102.316 185.634 100.396C184.059 98.5633 182.065 97.1016 179.652 96.0108C177.24 94.9199 174.941 94.3745 172.757 94.3745C170.522 94.3745 168.401 94.7563 166.395 95.5199C164.388 96.2834 162.648 97.3633 161.175 98.7597C159.448 97.3634 157.518 96.2835 155.385 95.5199C153.251 94.7563 151.118 94.3745 148.984 94.3745C144.159 94.3745 140.4 95.749 137.707 98.4979C135.015 101.247 133.669 105.065 133.669 109.952Z" fill="#CD1A76"/>
<path d="M208.263 110.868L223.045 94.5054H212.911L201.863 107.072V81.8735H192.644V129.848H201.787C201.838 129.761 201.863 129.565 201.863 129.259V118.787L203.463 115.907L215.273 129.848H224.721L208.263 110.868Z" fill="#CD1A76"/>
<path d="M237.065 97.4506C233.509 99.545 230.969 102.294 229.445 105.697C228.531 107.792 228.074 109.886 228.074 111.98C228.074 115.558 229.293 118.896 231.731 121.994C233.915 124.787 236.544 126.783 239.617 127.983C242.69 129.183 245.7 129.783 248.646 129.783C252.151 129.783 255.453 129.063 258.551 127.623C261.65 126.183 264.139 124.22 266.018 121.733L257.713 118.984C256.596 120.074 255.237 120.914 253.637 121.503C252.037 122.093 250.373 122.387 248.646 122.387C247.122 122.387 245.7 122.169 244.379 121.733C242.754 121.209 241.331 120.413 240.112 119.344C238.893 118.275 237.979 117.02 237.369 115.58L268.914 114.86V114.795L269.066 114.86C269.219 113.944 269.295 113.006 269.295 112.046C269.295 108.468 268.101 105.13 265.714 102.032C263.529 99.2832 260.888 97.3088 257.789 96.1089C254.691 94.909 251.694 94.309 248.798 94.309C244.532 94.309 240.62 95.3562 237.065 97.4506ZM237.293 108.773L237.446 108.381C238.36 106.33 239.858 104.716 241.941 103.537C244.024 102.359 246.309 101.77 248.798 101.77C250.322 101.77 251.745 101.988 253.065 102.425C254.691 102.948 256.1 103.723 257.294 104.748C258.488 105.774 259.364 106.963 259.923 108.315L237.293 108.773Z" fill="#CD1A76"/>
<path d="M301.068 109.952V129.783H309.601L309.754 109.952C309.754 106.897 308.865 104.148 307.087 101.705C305.258 99.3923 302.896 97.5925 300.001 96.3053C297.106 95.0181 293.982 94.3745 290.629 94.3745C287.378 94.3745 284.28 95.0072 281.333 96.2726C278.336 97.5816 275.962 99.4251 274.209 101.803C272.457 104.181 271.581 106.897 271.581 109.952V129.783H280.114V109.952C280.114 107.421 281.13 105.425 283.162 103.963C285.194 102.501 287.683 101.77 290.629 101.77C293.524 101.77 295.988 102.501 298.02 103.963C300.052 105.425 301.068 107.421 301.068 109.952Z" fill="#CD1A76"/>
<path d="M313.563 81.8735V129.652H323.545V100.134H330.326L332.688 92.5419H323.545V81.8735H313.563Z" fill="#CD1A76"/>
</svg>
