<svg width="300" height="300" viewBox="0 0 300 300" fill="none" xmlns="http://www.w3.org/2000/svg">
<g clip-path="url(#clip0_151_77)">
<path d="M135 0C126.78 0 120 6.78 120 15V34.65C109.32 37.4 99.12 41.6 89.6 47.15L76.8 34.35C70.98 28.55 61.4 28.55 55.57 34.35L34.37 55.57C28.54 61.39 28.54 70.97 34.37 76.8L47.19 89.63C41.59 99.13 37.35 109.33 34.56 120H15C6.78 120 0 126.78 0 135V165C0 173.22 6.78 180 15 180H34.65C37.4 190.68 41.6 200.88 47.15 210.4L34.35 223.2C28.55 229.02 28.55 238.6 34.35 244.43L55.57 265.63C61.39 271.46 70.97 271.46 76.8 265.63L89.63 252.81C99.13 258.41 109.33 262.65 120 265.44V285C120 293.22 126.78 300 135 300H165C173.22 300 180 293.22 180 285V265.35C190.68 262.6 200.88 258.4 210.4 252.85L223.2 265.65C229.02 271.45 238.6 271.45 244.43 265.65L265.63 244.43C271.46 238.61 271.46 229.03 265.63 223.2L252.81 210.37C258.41 200.87 262.65 190.67 265.44 180H285C293.22 180 300 173.22 300 165V135C300 126.78 293.22 120 285 120H265.35C262.6 109.32 258.4 99.12 252.85 89.6L265.65 76.8C271.45 70.98 271.45 61.4 265.65 55.57L244.43 34.37C238.61 28.54 229.03 28.54 223.2 34.37L210.37 47.19C200.87 41.59 190.67 37.35 180 34.56V15C180 6.78 173.22 0 165 0H135ZM135 10H165C167.86 10 170 12.14 170 15V37.83C169.999 38.9654 170.385 40.0671 171.094 40.954C171.803 41.8409 172.792 42.4602 173.9 42.71C186.33 45.51 198.18 50.41 208.93 57.26C209.89 57.8635 211.026 58.1229 212.153 57.9957C213.279 57.8685 214.329 57.3623 215.13 56.56L230.27 41.44C232.29 39.42 235.35 39.42 237.37 41.44L258.57 62.64C260.59 64.66 260.59 67.72 258.57 69.74L243.5 84.8C242.693 85.6023 242.184 86.656 242.056 87.7869C241.929 88.9178 242.191 90.0583 242.8 91.02C249.6 101.78 254.47 113.64 257.2 126.07C257.445 127.186 258.064 128.185 258.956 128.9C259.847 129.616 260.957 130.004 262.1 130H285C287.86 130 290 132.14 290 135V165C290 167.86 287.86 170 285 170H262.17C261.035 169.999 259.933 170.385 259.046 171.094C258.159 171.803 257.54 172.792 257.29 173.9C254.49 186.33 249.59 198.18 242.74 208.93C242.137 209.89 241.877 211.026 242.004 212.153C242.131 213.279 242.638 214.329 243.44 215.13L258.56 230.27C260.58 232.29 260.58 235.35 258.56 237.37L237.36 258.57C235.34 260.59 232.28 260.59 230.26 258.57L215.2 243.5C214.398 242.693 213.344 242.184 212.213 242.056C211.082 241.929 209.942 242.191 208.98 242.8C198.22 249.6 186.36 254.47 173.93 257.2C172.814 257.445 171.815 258.064 171.1 258.956C170.384 259.847 169.996 260.957 170 262.1V285C170 287.86 167.86 290 165 290H135C132.14 290 130 287.86 130 285V262.17C130.001 261.035 129.615 259.933 128.906 259.046C128.197 258.159 127.208 257.54 126.1 257.29C113.67 254.49 101.82 249.59 91.07 242.74C90.1103 242.137 88.974 241.877 87.8474 242.004C86.7209 242.131 85.671 242.638 84.87 243.44L69.73 258.56C67.71 260.58 64.65 260.58 62.63 258.56L41.43 237.36C39.41 235.34 39.41 232.28 41.43 230.26L56.5 215.2C57.3071 214.398 57.8164 213.344 57.9437 212.213C58.071 211.082 57.8086 209.942 57.2 208.98C50.4 198.22 45.53 186.36 42.8 173.93C42.5554 172.814 41.9357 171.815 41.0442 171.1C40.1526 170.384 39.0429 169.996 37.9 170H15C12.14 170 10 167.86 10 165V135C10 132.14 12.14 130 15 130H37.83C38.9654 130.001 40.0671 129.615 40.954 128.906C41.8409 128.197 42.4602 127.208 42.71 126.1C45.51 113.67 50.41 101.82 57.26 91.07C57.8635 90.1103 58.1229 88.974 57.9957 87.8474C57.8685 86.7209 57.3623 85.671 56.56 84.87L41.44 69.72C39.42 67.7 39.42 64.64 41.44 62.62L62.64 41.42C64.66 39.4 67.72 39.4 69.74 41.42L84.8 56.5C85.6023 57.3071 86.656 57.8164 87.7869 57.9437C88.9178 58.071 90.0583 57.8086 91.02 57.2C101.78 50.4 113.64 45.53 126.07 42.8C127.186 42.5554 128.185 41.9357 128.9 41.0442C129.616 40.1526 130.004 39.0429 130 37.9V15C130 12.14 132.14 10 135 10ZM150 100C122.44 100 100 122.44 100 150C100 177.56 122.44 200 150 200C177.56 200 200 177.56 200 150C200 122.44 177.56 100 150 100ZM150 110C172.15 110 190 127.85 190 150C190 172.15 172.15 190 150 190C127.85 190 110 172.15 110 150C110 127.85 127.85 110 150 110Z" fill="white"/>
</g>
<defs>
<clipPath id="clip0_151_77">
<rect width="300" height="300" fill="white"/>
</clipPath>
</defs>
</svg>
