<svg width="60" height="60" viewBox="0 0 60 60" fill="none" xmlns="http://www.w3.org/2000/svg">
<g clip-path="url(#clip0_153_100)">
<path d="M29.0743 1.64063C28.4649 1.78125 27.7618 2.34375 27.4571 2.92969C27.1876 3.4336 27.1759 3.55079 27.211 5.28516C27.2462 7.04297 27.2579 7.125 27.5626 7.59375C27.7384 7.85157 28.1368 8.22657 28.4415 8.40235C28.9806 8.71875 29.0626 8.73047 30.9142 8.76563L32.8243 8.8125L32.7892 10.1133L32.754 11.4141L31.336 11.7305C30.5509 11.9063 29.4259 12.2109 28.8165 12.4219C27.6446 12.8203 25.0431 14.0274 24.0938 14.6133L23.5196 14.9766L22.8165 14.1563L22.1251 13.3477L22.8399 12.7031C23.8126 11.8125 23.8126 11.5664 22.8282 10.4063C21.129 8.39063 20.8829 8.25 20.1446 8.8711C17.2267 11.2969 13.629 14.4961 13.5235 14.7422C13.4298 14.9414 13.4181 15.1524 13.4884 15.3281C13.6642 15.7734 15.6915 18.0352 15.9962 18.1172C16.3243 18.1992 16.6407 18.0352 17.3907 17.4141L17.9532 16.9336L18.6329 17.6836L19.3126 18.4336L18.5274 19.3359C18.1056 19.8281 17.3907 20.7422 16.9454 21.3633L16.1485 22.5H13.1368C10.3595 22.5 10.1017 22.5117 9.92587 22.7109C9.64462 23.0274 9.66806 23.707 9.97275 23.9766C10.1954 24.1758 10.4532 24.1992 12.7267 24.2344L15.2345 24.2695L14.9532 24.8203C14.8126 25.125 14.5313 25.7578 14.3556 26.2149L14.0274 27.0703H9.41025H4.79306L4.51181 27.3633C4.13681 27.7266 4.12509 28.2305 4.48837 28.5703C4.75791 28.8281 4.80478 28.8281 9.11728 28.8281C11.5196 28.8281 13.4767 28.8516 13.4767 28.875C13.4767 28.9102 13.3946 29.2852 13.2892 29.7305C13.1954 30.1641 13.0431 30.9961 12.961 31.582L12.8204 32.6367L6.67978 32.6719C0.562593 32.6953 0.539155 32.6953 0.269624 32.9531C-0.175688 33.3633 -0.0702196 33.9961 0.480562 34.2774C0.750093 34.4297 1.76962 34.4531 6.77353 34.4531H12.7384L12.8087 36.1289C12.8438 37.043 12.9142 37.8867 12.9493 38.0039C13.0313 38.1914 12.7735 38.2031 8.51962 38.2031C4.13681 38.2031 4.00791 38.2148 3.70322 38.4492C3.28134 38.7773 3.28134 39.3867 3.70322 39.7148C4.00791 39.9492 4.13681 39.9609 8.67197 39.9609H13.3243L13.4649 40.6172C13.547 40.9922 13.7227 41.5781 13.8399 41.9297C13.9571 42.2813 14.0626 42.6445 14.0626 42.7383C14.0626 42.8555 13.5938 42.8906 11.6837 42.8906C9.48056 42.8906 9.28134 42.9141 9.09384 43.1133C8.80087 43.4297 8.81259 44.0273 9.129 44.332C9.37509 44.5781 9.48056 44.5898 12.129 44.625L14.8829 44.6602L15.3048 45.5039C16.336 47.5547 17.6602 49.3945 19.3829 51.1875C25.6876 57.7383 35.1095 60.082 43.7813 57.2461C46.0196 56.5195 49.6642 54.5859 50.2735 53.8242C50.5665 53.4492 50.5665 53.0742 50.2853 52.7227C49.9103 52.2539 49.4181 52.3594 48.1993 53.168C42.9142 56.6602 35.8829 57.5977 29.7774 55.6406C24.0938 53.8242 19.5118 49.8867 16.8165 44.5195C13.7579 38.4492 13.7579 31.1602 16.8165 25.0899C20.1329 18.4922 26.2735 14.1211 33.6212 13.125C34.9806 12.9375 38.1563 12.9727 39.5157 13.1719C42.9142 13.6992 46.2188 15.0234 48.9845 16.957C50.7188 18.1758 53.2853 20.8242 54.4571 22.582C56.4962 25.6641 57.6446 28.7578 58.0665 32.3438C58.4415 35.5195 58.1251 38.6719 57.1056 41.7188C56.1212 44.6836 54.7384 46.9922 52.3009 49.793C51.4806 50.7305 51.3985 51.0469 51.8556 51.5039C52.4532 52.1016 52.9103 51.832 54.4571 49.9922C59.6954 43.7461 61.3478 35.2149 58.8165 27.4922C57.8087 24.4102 56.1563 21.5625 53.8712 18.9375L53.297 18.293L53.8712 17.6367C54.1759 17.2852 54.4806 16.9922 54.5274 16.9922C54.586 16.9922 54.9024 17.2266 55.2306 17.5195C55.8985 18.1055 56.1798 18.2227 56.5665 18.082C56.836 17.9766 58.7696 15.8203 58.9688 15.3867C59.2267 14.8359 59.0157 14.6016 55.4649 11.543C51.8087 8.39063 51.6563 8.29688 51.1173 8.75391C50.7188 9.10547 49.0782 11.0391 48.961 11.3203C48.7618 11.7539 48.9376 12.1289 49.629 12.7031C49.9806 13.0078 50.2735 13.3008 50.2735 13.3594C50.2735 13.4063 50.004 13.7695 49.6759 14.168L49.0665 14.8828L48.586 14.5781C46.7462 13.4297 43.2306 12.0703 41.0392 11.6484L39.961 11.4375V10.1133V8.78907H41.6368C43.5938 8.78907 44.0274 8.6836 44.672 8.10938C45.4454 7.40625 45.586 6.98438 45.586 5.17969C45.586 3.41016 45.4806 3.01172 44.7892 2.3086C44.0157 1.52344 44.0392 1.52344 36.3399 1.53516C32.5665 1.54688 29.297 1.59375 29.0743 1.64063ZM30.7032 5.15625V7.03125H30.129C29.7306 7.03125 29.4727 6.96094 29.2501 6.78516C28.9571 6.55079 28.9454 6.51563 28.9454 5.16797C28.9454 3.9961 28.9806 3.76172 29.1563 3.60938C29.4376 3.36329 29.6251 3.30469 30.211 3.29297L30.7032 3.28125V5.15625ZM33.8673 5.15625V7.03125H33.1642H32.461V5.15625V3.28125H33.1642H33.8673V5.15625ZM37.0313 5.15625V7.03125H36.3282H35.6251V5.23829C35.6251 4.24219 35.6602 3.39844 35.7071 3.36329C35.7423 3.31641 36.0587 3.28125 36.4102 3.28125H37.0313V5.15625ZM40.2892 5.17969L40.3243 7.03125H39.6095H38.9063V5.15625V3.26954L39.586 3.30469L40.254 3.33985L40.2892 5.17969ZM43.6173 3.63282C43.7931 3.84375 43.8282 4.10157 43.8282 5.17969C43.8282 6.375 43.8165 6.46875 43.5352 6.73829C43.3126 6.97266 43.1368 7.03125 42.6563 7.03125H42.0704V5.14454V3.25782L42.7384 3.30469C43.2423 3.35157 43.4532 3.42188 43.6173 3.63282ZM38.2032 9.9961V11.1914H36.3868H34.5704V9.9961V8.78907H36.3868H38.2032V9.9961ZM54.586 13.1133L56.9649 15.1641L56.5548 15.5625L56.1563 15.9727L53.5782 13.7578L51.0118 11.543L51.3751 11.1211C51.7149 10.7109 51.7384 10.6992 51.9728 10.875C52.1017 10.9922 53.2853 11.9883 54.586 13.1133ZM21.1524 11.1563L21.4571 11.5195L21.1876 11.7891C20.6134 12.3516 16.3595 15.9375 16.2774 15.9375C16.2306 15.9375 16.0431 15.75 15.8673 15.5274L15.5626 15.1172L15.8907 14.8359C16.0782 14.6836 17.2032 13.7109 18.3985 12.6797C19.5938 11.6484 20.6251 10.793 20.7071 10.793C20.7774 10.7813 20.9767 10.9453 21.1524 11.1563ZM21.4337 15.2578L22.0548 15.9844L21.6095 16.3828C21.3517 16.5938 21.0118 16.8633 20.8477 16.9922L20.5431 17.2149L19.9337 16.4883L19.3243 15.7617L20.004 15.1524C20.379 14.8125 20.7188 14.5313 20.754 14.5313C20.7892 14.5313 21.1056 14.8594 21.4337 15.2578ZM52.5938 15.2461C52.8634 15.4805 53.086 15.7031 53.086 15.75C53.086 15.7969 52.8399 16.125 52.547 16.4766L52.0079 17.0977L51.3517 16.5469C50.9767 16.2422 50.6603 15.9492 50.6368 15.9024C50.6134 15.8438 50.8478 15.5156 51.1524 15.1641C51.7618 14.4609 51.6798 14.4492 52.5938 15.2461Z" fill="white"/>
<path d="M34.5117 16.2891C33.1523 16.4414 31.7461 16.7461 31.4297 16.9453C30.8554 17.3203 30.8672 18.1523 31.4648 18.4219C31.7109 18.5273 31.9922 18.5156 32.8476 18.3516C33.4453 18.2344 34.2773 18.1172 34.7109 18.082L35.5078 18.0117V19.3711C35.5078 20.6953 35.5195 20.7305 35.8125 20.9648C36.2226 21.293 36.6211 21.2695 36.9726 20.918C37.2539 20.6484 37.2656 20.5547 37.2656 19.3242V18.0117L38.2031 18.0938C40.2539 18.2578 43.0195 19.1836 44.9883 20.3555C46.0547 21 47.5664 22.1484 47.5781 22.3242C47.5781 22.3945 47.1797 22.8398 46.6992 23.3203C45.9726 24.0469 45.8203 24.2578 45.8203 24.5742C45.8203 24.832 45.914 25.0195 46.125 25.1836C46.664 25.6055 46.9336 25.5117 47.9531 24.5156L48.8906 23.6133L49.3594 24.1406C50.4492 25.3594 51.7265 27.6445 52.3242 29.4492C52.664 30.4805 53.0273 32.1562 53.1445 33.2461L53.2148 33.9844H51.914C50.7773 33.9844 50.6015 34.0078 50.3906 34.2188C50.039 34.5703 50.0742 35.1914 50.4609 35.4961C50.7304 35.707 50.9414 35.7422 51.9844 35.7422H53.1914L53.1328 36.3516C53.0156 37.3945 52.6172 39.2695 52.3125 40.1953C51.7031 42 50.4375 44.25 49.3594 45.4688L48.8906 45.9961L48.0117 45.1406C47.3203 44.4727 47.0625 44.2969 46.7812 44.2969C46.289 44.2969 45.9258 44.625 45.914 45.0938C45.9023 45.4336 46.0312 45.6094 46.7695 46.3594L47.625 47.2266L47.2851 47.5781C46.2539 48.6562 43.1484 50.3555 41.1914 50.918C40.0312 51.2578 38.3906 51.5625 37.7812 51.5625H37.3828V50.4023C37.3828 49.3477 37.3594 49.1953 37.1133 48.9141C36.75 48.5039 36.1523 48.4688 35.8359 48.8555C35.6601 49.0781 35.625 49.3359 35.625 50.3438V51.5625H35.0742C34.2304 51.5625 32.5547 51.2344 31.289 50.8359C29.2734 50.1914 27.5508 49.2773 25.8633 47.9531L25.1953 47.4258L26.1328 46.4648C26.6484 45.9258 27.0703 45.4102 27.0703 45.3164C27.0703 44.7305 26.4726 44.2148 25.9687 44.3672C25.8398 44.4023 25.3242 44.8359 24.832 45.3164L23.9297 46.1953L23.039 45.0469C21.1992 42.6445 19.9687 39.6094 19.6172 36.5391L19.5469 35.8828L20.9179 35.8359C22.1953 35.8008 22.3008 35.7773 22.5117 35.5195C22.8164 35.1445 22.7929 34.6641 22.4648 34.3594C22.2187 34.125 22.0664 34.1016 20.8594 34.1016H19.5351L19.6172 33.1875C19.7929 31.2539 20.3906 29.1914 21.2929 27.3633C21.832 26.2852 22.8164 24.75 23.4375 24.0234L23.789 23.625L24.6445 24.457C25.1015 24.9141 25.6054 25.3477 25.7461 25.418C26.3086 25.6992 26.9531 25.2539 26.9531 24.5859C26.9531 24.3281 26.7304 24.0234 26.0156 23.2734L25.0781 22.3008L25.9687 21.5859C26.4609 21.1992 27.3047 20.625 27.832 20.3203C28.7695 19.7695 29.0625 19.4531 29.0625 19.0078C29.0508 18.7266 28.8047 18.4219 28.4531 18.293C28.0664 18.1523 27.3164 18.4922 25.9219 19.4414C21.914 22.1953 19.1836 26.2852 18.1523 31.0781C17.9883 31.8398 17.8945 32.8125 17.8476 34.2773C17.789 36.082 17.8242 36.5977 18.0351 37.8398C19.2187 44.7891 24.1289 50.4375 30.7969 52.5469C32.6367 53.1211 34.2304 53.3555 36.3281 53.3672C39.0937 53.3672 41.2617 52.9336 43.6172 51.9141C50.2734 49.043 54.6094 42.7734 54.9258 35.5664C55.3242 26.3672 48.7851 18.1641 39.7383 16.5352C38.2031 16.2539 35.8125 16.1484 34.5117 16.2891Z" fill="white"/>
<path d="M35.7658 26.9883C35.5197 27.2578 35.508 27.3516 35.508 30V32.7305L35.051 33.1172C34.0432 33.9844 33.926 35.3438 34.7814 36.2461C35.3674 36.8672 36.0822 37.0664 36.9728 36.8672C37.3127 36.7969 37.465 36.9375 40.3713 39.8438C43.1018 42.5859 43.4533 42.8906 43.7932 42.8906C44.2971 42.8906 44.6486 42.5391 44.6486 42.0469C44.6486 41.6953 44.3322 41.3438 41.5783 38.5898L38.508 35.5195L38.4963 34.8164C38.4846 34.2773 38.426 34.0313 38.1682 33.6445C37.9924 33.375 37.7111 33.0938 37.5588 33.0234L37.2658 32.8945V30.0938V27.293L36.9728 27.0117C36.6096 26.6367 36.1057 26.625 35.7658 26.9883ZM36.6682 34.6172C36.8674 34.8516 36.6916 35.1563 36.3752 35.1563C36.0705 35.1563 35.9064 34.9219 36.0236 34.6289C36.1057 34.4063 36.4924 34.3945 36.6682 34.6172Z" fill="white"/>
</g>
<defs>
<clipPath id="clip0_153_100">
<rect width="60" height="60" fill="white"/>
</clipPath>
</defs>
</svg>
