<svg width="34" height="40" viewBox="0 0 34 40" fill="none" xmlns="http://www.w3.org/2000/svg">
<path d="M12.2344 0.89838C11.086 1.24213 10.0235 1.67182 8.88283 2.27338C7.87502 2.79682 7.62502 2.99213 7.62502 3.24213C7.62502 3.33588 7.70314 3.68744 7.78908 4.03119C8.02346 4.89838 8.02346 5.97651 7.78908 6.57026C7.56252 7.15619 7.09377 7.67182 6.54689 7.94526C5.92971 8.24213 4.88283 8.28901 4.03127 8.04682C3.07814 7.77338 3.06252 7.77338 2.79689 8.02338C2.21096 8.55463 1.03908 11.1249 0.609394 12.8046C0.304706 13.9609 0.328144 14.0156 1.14846 14.4531C1.48439 14.6406 1.97658 14.9765 2.23439 15.2109C3.55471 16.4062 3.55471 18.1015 2.23439 19.3281C1.97658 19.5624 1.49221 19.9062 1.16408 20.0937C0.828144 20.2812 0.515644 20.5156 0.468769 20.6171C0.125019 21.2968 2.28908 26.5156 2.98439 26.6874C3.08596 26.7109 3.46096 26.6562 3.81252 26.5624C4.17189 26.4687 4.73439 26.3671 5.07033 26.3437L5.67971 26.3046L5.33596 26.8046C4.68752 27.7343 4.32814 28.6249 4.00783 30.0781C3.71877 31.3906 3.57814 32.6093 3.40627 35.5468C3.21096 38.7656 3.21096 38.5624 3.42971 38.7812C3.61721 38.9687 3.62502 38.9687 6.18752 39.0078C7.60158 39.0312 9.51564 39.1093 10.4375 39.1718C14.2344 39.4453 20.2891 39.414 24.8906 39.0937C25.8125 39.0312 27.4219 38.9843 28.4531 38.9921C30.4531 38.9999 30.6328 38.9687 30.7188 38.6406C30.7813 38.3906 30.461 33.1718 30.3125 31.9921C30.0391 29.8437 29.5235 28.1953 28.7578 27.0312L28.336 26.3906L29.0547 26.4218C29.5156 26.4453 29.9766 26.5234 30.336 26.6406C30.8672 26.8124 30.8985 26.8203 31.0938 26.6874C31.6875 26.3046 32.9297 23.6093 33.4453 21.6093C33.6875 20.6562 33.6406 20.5546 32.8828 20.1718C32.5547 20.0078 32.0703 19.6796 31.7969 19.4296C30.4453 18.1874 30.4297 16.5234 31.7656 15.2812C32.0235 15.0468 32.5078 14.7031 32.836 14.5156C33.1719 14.3281 33.4844 14.0937 33.5313 13.9921C33.875 13.3124 31.711 8.09369 31.0156 7.92182C30.8985 7.89057 30.5703 7.94526 30.2188 8.05463C29.75 8.20307 29.4375 8.24213 28.7969 8.24213C28.0235 8.24213 27.9453 8.22651 27.4531 7.98432C26.4141 7.47651 25.9063 6.48432 26.0078 5.16401C26.0313 4.83588 26.125 4.34369 26.211 4.06244C26.4453 3.33588 26.4297 3.17963 26.0938 2.90619C25.3438 2.28901 23.2344 1.32026 21.6485 0.86713C20.3516 0.49213 20.2735 0.515568 19.836 1.35151C19.4453 2.08588 18.6797 2.89838 18.1094 3.17963C17.7266 3.36713 17.5703 3.39838 17 3.39838C16.4297 3.39838 16.2735 3.36713 15.8906 3.17963C15.3203 2.89838 14.5547 2.08588 14.1641 1.35151C13.7266 0.507755 13.6328 0.484318 12.2344 0.89838ZM13.4375 2.49213C14.1953 3.63276 15.3125 4.41401 16.461 4.60932C17.9375 4.85932 19.5313 4.03901 20.5625 2.49213C20.7578 2.19526 20.961 1.95307 21.0156 1.95307C21.4141 1.95307 24.3281 3.14838 24.9531 3.57807C25.0313 3.63276 25.0313 3.74213 24.9297 4.14838C24.7813 4.78119 24.7813 6.07807 24.9297 6.64057C25.2656 7.90619 26.2188 8.91401 27.461 9.30463C28.2422 9.54682 29.5391 9.53119 30.4453 9.24994C30.6797 9.17963 31.7422 11.4453 32.1406 12.8593L32.2969 13.414L31.875 13.664C31.2813 14.0156 30.5391 14.7187 30.1875 15.2656C29.3672 16.5312 29.3672 18.1562 30.1875 19.4218C30.5469 19.9765 31.3203 20.7031 31.8906 21.0234L32.3047 21.2578L32.1797 21.6562C31.9141 22.5624 31.5781 23.4453 31.1797 24.2578C30.586 25.4999 30.6719 25.4296 29.8985 25.2812C29.086 25.1249 28.4297 25.1249 27.7891 25.2734L27.2969 25.3906L26.6953 25.0937C26.3672 24.9296 25.8672 24.7265 25.5781 24.6562L25.0625 24.5156L25.586 23.8203C26.5313 22.5781 27.25 20.9687 27.6016 19.2968C27.7969 18.3515 27.7969 16.1718 27.5938 15.1953C27.1563 13.0781 26.1953 11.2421 24.7344 9.74213C22.5625 7.49213 20 6.39838 16.9219 6.39838C15.6641 6.39057 14.6953 6.54682 13.5781 6.92182C10.3438 7.99213 7.83596 10.4609 6.70314 13.6874C6.13283 15.2968 5.95314 17.4531 6.25002 19.1406C6.57033 20.9218 7.51564 22.9765 8.57814 24.1796C8.71096 24.3359 8.80471 24.4687 8.78908 24.4843C8.77346 24.4999 8.51564 24.5859 8.21096 24.6874C7.91408 24.7812 7.46096 24.9687 7.21096 25.1015C6.78127 25.3281 6.74221 25.3359 6.36721 25.2499C5.82033 25.1171 4.55471 25.1328 3.96096 25.2734C3.37502 25.414 3.47658 25.4999 2.92189 24.414C2.47658 23.5312 2.09377 22.5703 1.85939 21.7421L1.70314 21.1796L2.11721 20.9453C2.34377 20.8203 2.74221 20.5156 3.00002 20.2734C5.19533 18.2421 4.82033 15.2499 2.16408 13.6328L1.70314 13.3515L1.83596 12.8671C2.10158 11.9609 2.32814 11.3749 2.87502 10.2499C3.32033 9.32026 3.43752 9.13276 3.54689 9.17963C3.79689 9.28119 4.85158 9.44526 5.24221 9.44526C7.07814 9.45307 8.61721 8.28119 9.07033 6.52338C9.25002 5.82807 9.21877 4.69526 8.99221 3.82026C8.94533 3.63276 8.98439 3.59369 9.43752 3.33588C10.3281 2.84369 12.5625 1.96869 12.9531 1.95307C13.0313 1.95307 13.2266 2.17182 13.4375 2.49213ZM19.3047 7.88276C25.2735 9.40619 28.3125 16.164 25.4922 21.6718C25.0703 22.4999 24.3985 23.4531 23.8985 23.9218L23.5938 24.2187L22.3906 24.0703C21.7266 23.9843 20.836 23.8906 20.4219 23.8671L19.6563 23.8124V23.0781V22.3515L20.1485 22.0937C20.836 21.7343 21.8985 20.664 22.2188 19.9999C22.7578 18.8906 22.8828 17.789 22.6641 16.0937C22.375 13.7656 21.9141 12.7031 20.6953 11.5546C18.2578 9.25776 14.0469 9.85151 12.3516 12.7421C11.4063 14.3593 10.9688 17.2578 11.4141 18.9921C11.7188 20.1718 12.6328 21.3437 13.7813 22.0234L14.3438 22.3593V23.0859V23.8124L13.9141 23.8671C13.6797 23.8906 13.25 23.9296 12.961 23.9453C12.6719 23.9609 11.9453 24.0312 11.3516 24.1015L10.2735 24.2343L10.0703 24.0546C9.73439 23.7421 8.91408 22.6484 8.58596 22.0703C8.15627 21.3281 7.73439 20.2343 7.53127 19.3593C7.30471 18.3671 7.28127 16.2968 7.50002 15.3124C8.34377 11.3671 11.5 8.33588 15.4375 7.68744C16.5313 7.50776 18.1563 7.59369 19.3047 7.88276ZM18.3281 11.5468C19.0625 11.8046 19.4375 12.0312 19.9766 12.5546C20.336 12.8984 20.5938 13.2343 20.7969 13.6406C20.9531 13.9531 21.0703 14.2343 21.0547 14.2499C21.0391 14.2734 20.6953 14.0781 20.2969 13.8203C19.375 13.2265 19.2656 13.2265 18.6406 13.7812C17.3828 14.9062 15.9375 15.4921 14.7735 15.3515C13.8281 15.2343 12.8594 14.9218 12.8594 14.7187C12.8594 14.4843 13.2344 13.6015 13.5156 13.1796C14.0938 12.3124 15.0156 11.6796 16.0625 11.4453C16.711 11.2968 17.75 11.3437 18.3281 11.5468ZM20.5235 15.414C21.4297 16.0156 21.4297 16.0156 21.4844 16.3749C21.5625 16.9453 21.5391 18.1562 21.4453 18.6093C21.1719 19.9296 19.9141 21.1015 18.3281 21.5312C17.711 21.6953 16.4453 21.7187 15.8281 21.5703C14.1797 21.1796 12.8125 19.8984 12.5469 18.5078C12.461 18.0624 12.4453 16.7578 12.5156 16.3124L12.5625 16.0234L12.9375 16.1718C13.9766 16.5781 15.4922 16.664 16.5703 16.3749C17.25 16.1874 18.2031 15.6874 18.836 15.1953C19.1406 14.9609 19.4375 14.7734 19.5 14.789C19.5625 14.8046 20.0235 15.0859 20.5235 15.414ZM17 22.8515C17.4922 22.8515 18.0235 22.8359 18.1719 22.8124L18.4453 22.7734V23.2578C18.4453 23.7968 18.3125 24.0468 17.8594 24.3515C17.6485 24.4999 17.4922 24.5312 17 24.5312C16.5078 24.5312 16.3516 24.4999 16.1406 24.3515C15.711 24.0624 15.5625 23.8046 15.5313 23.2421L15.5 22.7421L15.7969 22.7968C15.9688 22.8281 16.5078 22.8515 17 22.8515ZM20.0391 25.0468L20.6875 25.1015L20.6328 25.9687C20.6016 26.4453 20.5547 26.9921 20.5235 27.1796L20.4766 27.5156L19.4063 26.5234L18.336 25.5234L18.6328 25.3046C18.8047 25.1874 18.961 25.0468 18.9922 24.9999C19.0235 24.9531 19.125 24.9296 19.2188 24.9531C19.3047 24.9687 19.6797 25.0156 20.0391 25.0468ZM15.2813 25.2421L15.5547 25.4765L14.5 26.4843C13.9219 27.039 13.4219 27.4921 13.3985 27.4921C13.336 27.4999 13.2735 26.9765 13.2031 25.9218L13.1485 25.1718L13.6094 25.1171C13.8672 25.0937 14.1406 25.0624 14.2266 25.0468C14.7578 24.9609 15.0156 25.0078 15.2813 25.2421ZM11.9531 25.4062C11.9766 25.5078 12 25.7812 12 26.0156C12 26.2499 12.0703 27.039 12.1485 27.7734C12.2891 29.0234 12.3047 29.1015 12.5 29.2734C12.875 29.5937 13.0156 29.5312 14.0938 28.5156L15.086 27.5703L15.6953 28.2187C16.0235 28.5703 16.2969 28.9062 16.2969 28.9609C16.2969 29.0234 16.1797 29.3046 16.0313 29.5937C15.6641 30.3203 13.75 34.4609 13.6875 34.664C13.6172 34.8984 13.7031 35.0468 14.875 36.6796L15.8906 38.0859L14.8985 38.1093C13.9688 38.1328 10.8828 38.0234 9.55471 37.914L8.95314 37.8671L8.99221 37.6249C9.00783 37.4921 9.10158 36.1406 9.19533 34.6249C9.38283 31.6718 9.37502 31.5703 9.00002 31.3984C8.89064 31.3437 8.71877 31.3281 8.60939 31.3593C8.20314 31.4609 8.17971 31.5781 7.97658 34.6249C7.86721 36.1796 7.78127 37.5312 7.78127 37.6171C7.78127 37.7656 7.73439 37.7734 6.16408 37.7499C5.27346 37.7343 4.53127 37.7109 4.51564 37.7031C4.46877 37.6562 4.74221 33.4765 4.85939 32.4218C5.25783 28.8671 6.15627 26.9999 7.91408 26.1093C8.54689 25.7812 9.71877 25.5234 11.8516 25.2421C11.8828 25.2343 11.9219 25.3124 11.9531 25.4062ZM23.711 25.4765C25.7969 25.8203 26.7735 26.3203 27.5938 27.4765C28.4531 28.6718 28.9063 30.2265 29.1875 32.8515C29.25 33.4609 29.5 37.3124 29.5 37.664C29.5 37.7031 28.8438 37.7343 27.9844 37.7343C26.6016 37.7343 26.461 37.7187 26.4219 37.5937C26.4063 37.5234 26.2188 36.1796 26.0235 34.6093C25.8047 32.8984 25.6094 31.6874 25.5469 31.5859C25.3985 31.3515 25.0703 31.2734 24.8203 31.414C24.4063 31.6484 24.4063 31.6796 24.8281 34.8671C25.0469 36.4921 25.211 37.8359 25.1953 37.8437C25.125 37.9062 22.1172 38.0546 20.1641 38.1015L18.0547 38.1484L18.2578 37.8828C18.7422 37.2343 20.1875 35.1796 20.2735 35.0156C20.3281 34.9218 20.3438 34.7578 20.3125 34.6718C20.2813 34.5781 19.7031 33.2499 19.0235 31.7343C17.9766 29.3984 17.7969 28.9453 17.875 28.8359C18.1563 28.4765 18.8203 27.7343 18.8672 27.7343C18.8985 27.7343 19.336 28.1171 19.8438 28.5937C20.586 29.289 20.8047 29.4531 20.9922 29.4531C21.2735 29.4531 21.6094 29.1484 21.6094 28.8906C21.6094 28.6718 21.8203 26.2187 21.8906 25.6406L21.9375 25.2187L22.336 25.2734C22.5625 25.2968 23.1797 25.3906 23.711 25.4765ZM17.5156 27.3828L17.0625 27.8984L16.5235 27.3281L15.9844 26.7578L16.4766 26.3046L16.961 25.8593L17.461 26.3593L17.9688 26.8671L17.5156 27.3828ZM18.0547 32.539C18.6016 33.7578 19 34.7499 18.9688 34.8046C18.7735 35.1328 17.0391 37.4999 17 37.4999C16.961 37.4999 15.2266 35.1328 15.0313 34.8046C14.9766 34.7109 16.9844 30.2734 17.0469 30.3359C17.0625 30.3515 17.5156 31.3437 18.0547 32.539Z" fill="white"/>
</svg>
