<svg version="1.1" id="Layer_1" xmlns="http://www.w3.org/2000/svg" xmlns:xlink="http://www.w3.org/1999/xlink" x="0px" y="0px"
	 width="100%" viewBox="0 0 1925 316" enable-background="new 0 0 1925 316" xml:space="preserve">
<path fill="#FFFFFF" opacity="1.000000" stroke="none" 
	d="
M1.000000,315.000000 
	C1.000000,210.350235 1.000000,105.700478 1.000000,1.025360 
	C642.546082,1.025360 1284.092163,1.025360 1926.000000,1.025360 
	C1926.000000,105.362419 1926.000000,209.725266 1925.556396,314.543701 
	C1283.741821,314.999542 642.370911,314.999756 1.000000,315.000000 
M208.107391,287.633484 
	C208.107391,287.633484 208.531784,287.851776 208.531784,287.851776 
	C208.531784,287.851776 209.006042,287.798492 209.609558,288.201050 
	C217.415558,290.999420 225.108276,294.206055 233.077240,296.417084 
	C236.839447,297.460876 241.361954,297.466522 245.147903,296.463135 
	C289.915649,284.598541 322.098755,257.183105 342.995300,216.190872 
	C362.165009,178.586105 364.028687,138.010513 363.522644,96.307983 
	C363.559875,92.829971 363.597137,89.351967 363.892426,85.004555 
	C363.884827,81.030510 363.877258,77.056473 364.019684,72.145172 
	C364.019684,54.371990 364.019684,36.598804 364.019684,18.592716 
	C280.802917,13.565698 197.157974,13.333992 113.011429,18.662855 
	C113.011429,20.608580 112.986740,22.397196 113.015167,24.184967 
	C113.396538,48.172596 113.433022,72.172432 114.272171,96.144150 
	C115.098175,119.740486 114.589767,143.397751 118.794289,166.850082 
	C124.703400,199.810501 137.734085,229.123016 160.834045,253.596176 
	C173.727432,267.256042 188.228363,278.833740 206.103714,286.711853 
	C206.687622,286.883972 207.271545,287.056091 208.107391,287.633484 
M1246.341919,92.839241 
	C1242.721069,105.400139 1239.100220,117.961037 1235.479370,130.521927 
	C1235.100342,130.434998 1234.721313,130.348068 1234.342285,130.261139 
	C1228.019653,109.513626 1221.697021,88.766113 1215.449341,68.264420 
	C1201.070801,68.264420 1187.298950,68.264420 1173.357422,68.264420 
	C1173.357422,101.565292 1173.357422,134.616425 1173.357422,167.634033 
	C1182.333984,167.634033 1191.037231,167.634033 1199.813110,167.634033 
	C1198.938232,142.340057 1198.077148,117.444923 1197.216064,92.549789 
	C1197.572388,92.501015 1197.928589,92.452240 1198.284912,92.403465 
	C1206.683472,117.530586 1215.082153,142.657700 1223.500488,167.844269 
	C1231.377930,167.844269 1239.003784,167.844269 1246.672729,167.844269 
	C1255.074097,142.489639 1263.424316,117.289062 1271.774658,92.088486 
	C1272.138428,92.194389 1272.502319,92.300285 1272.866089,92.406189 
	C1271.993652,117.458221 1271.121338,142.510254 1270.244629,167.686523 
	C1279.336426,167.686523 1288.041382,167.686523 1296.593018,167.686523 
	C1296.593018,134.288925 1296.593018,101.235847 1296.593018,68.326584 
	C1281.966919,68.326584 1267.699829,68.326584 1253.445190,68.326584 
	C1251.133545,76.444839 1248.904785,84.272118 1246.341919,92.839241 
M967.499756,168.028366 
	C972.831055,167.994125 978.171265,168.146103 983.492004,167.891586 
	C1001.169556,167.045975 1011.908386,158.895660 1013.602600,142.601151 
	C1015.127563,127.934395 1015.520386,112.936096 1014.326965,98.253540 
	C1012.762817,79.009193 1004.138489,70.823898 984.729797,68.841179 
	C972.517883,67.593651 960.113892,68.184586 947.795044,68.040337 
	C940.016846,67.949257 932.236755,68.023338 924.335815,68.023338 
	C924.335815,101.577774 924.335815,134.632584 924.335815,168.028366 
	C938.570068,168.028366 952.534973,168.028366 967.499756,168.028366 
M600.421143,168.029922 
	C602.519714,168.029922 604.618286,168.029922 607.158508,168.029922 
	C607.158508,158.871017 607.158508,150.294250 607.158508,141.552109 
	C613.432800,141.552109 619.255554,141.528946 625.078064,141.557220 
	C635.347595,141.607101 638.328613,144.584091 638.494141,155.007889 
	C638.561829,159.271896 638.505371,163.537888 638.505371,167.730591 
	C647.728149,167.730591 656.310242,167.730591 665.052734,167.730591 
	C665.052734,160.128708 665.257751,152.818100 664.995483,145.524292 
	C664.729370,138.122971 660.062500,132.808273 652.814209,130.995804 
	C651.053101,130.555435 649.261292,130.237610 646.465332,129.649094 
	C649.038269,128.774643 650.700317,128.224808 652.352112,127.645828 
	C660.119995,124.923050 665.105530,119.799599 665.538757,111.309753 
	C665.885803,104.508530 666.340149,97.617035 665.647644,90.878548 
	C664.226318,77.047279 657.341492,69.767403 643.517822,69.124512 
	C622.762268,68.159241 601.949097,68.428749 581.160156,68.202225 
	C580.915222,68.199554 580.666138,68.583519 580.402466,68.800591 
	C580.402466,101.699684 580.402466,134.605118 580.402466,168.030289 
	C586.884521,168.030289 593.160400,168.030289 600.421143,168.029922 
M1137.167480,146.510773 
	C1137.433594,145.552048 1137.916870,144.597015 1137.933228,143.634079 
	C1138.199951,127.854256 1139.414551,112.004730 1138.343872,96.312271 
	C1137.284790,80.791565 1128.699585,72.260544 1114.125732,69.189613 
	C1101.305176,66.488106 1088.291382,66.294647 1075.404785,68.467216 
	C1055.965820,71.744476 1047.559204,81.085327 1046.734131,100.718300 
	C1046.210938,113.170982 1046.337280,125.690491 1046.951660,138.141586 
	C1047.743286,154.184601 1056.583130,163.865829 1072.256592,167.039032 
	C1084.792969,169.577087 1097.428467,169.577988 1110.003540,167.694962 
	C1122.561279,165.814514 1132.795776,160.437469 1137.167480,146.510773 
M716.503662,168.027237 
	C735.909485,168.027237 755.315308,168.027237 774.580444,168.027237 
	C774.580444,160.307846 774.580444,153.380386 774.580444,145.927734 
	C759.056213,145.927734 743.833313,145.927734 728.612061,145.927734 
	C728.612061,139.298462 728.612061,133.209595 728.612061,126.669052 
	C742.839600,126.669052 756.767944,126.669052 770.742554,126.669052 
	C770.742554,120.295158 770.742554,114.385406 770.742554,108.013306 
	C756.550476,108.013306 742.641174,108.013306 728.585693,108.013306 
	C728.585693,101.801971 728.585693,96.059441 728.585693,89.848724 
	C743.769897,89.848724 758.681580,89.848724 773.571899,89.848724 
	C773.571899,82.317024 773.571899,75.262398 773.571899,68.351799 
	C749.465027,68.351799 725.712952,68.351799 701.975830,68.351799 
	C701.975830,101.636269 701.975830,134.589050 701.975830,168.027237 
	C706.595093,168.027237 711.050720,168.027237 716.503662,168.027237 
M861.500000,126.791084 
	C868.601562,126.791084 875.703186,126.791084 882.690308,126.791084 
	C882.690308,120.203804 882.690308,114.291122 882.690308,107.918419 
	C868.454773,107.918419 854.549927,107.918419 840.613037,107.918419 
	C840.613037,101.698753 840.613037,95.955223 840.613037,89.750977 
	C855.838501,89.750977 870.753967,89.750977 885.686890,89.750977 
	C885.686890,82.345627 885.686890,75.412590 885.686890,68.250717 
	C861.719788,68.250717 837.980042,68.250717 814.028137,68.250717 
	C814.028137,101.516586 814.028137,134.573593 814.028137,167.758636 
	C838.334412,167.758636 862.403259,167.758636 886.517151,167.758636 
	C886.517151,160.435654 886.517151,153.388336 886.517151,146.011032 
	C871.041992,146.011032 855.926025,146.011032 840.668091,146.011032 
	C840.668091,139.465988 840.668091,133.266693 840.668091,126.791061 
	C847.524414,126.791061 854.012329,126.791061 861.500000,126.791084 
M503.031616,108.450912 
	C503.031616,102.358650 503.031616,96.266388 503.031616,89.799202 
	C517.995728,89.799202 532.407959,89.799202 546.791016,89.799202 
	C546.791016,82.351685 546.791016,75.301125 546.791016,68.427124 
	C523.090454,68.427124 499.727081,68.427124 476.419861,68.427124 
	C476.419861,101.749596 476.419861,134.664322 476.419861,167.687378 
	C485.371033,167.687378 494.072235,167.687378 503.200867,167.687378 
	C503.200867,155.447098 503.200867,143.545044 503.200867,131.217010 
	C516.876404,131.217010 530.125793,131.217010 543.600952,131.217010 
	C543.600952,123.869484 543.600952,116.963257 543.600952,109.314400 
	C530.093689,109.314400 516.814819,109.314400 503.031616,108.450912 
M1489.798340,193.288544 
	C1496.866211,184.409805 1496.706177,174.169861 1495.088989,163.789764 
	C1493.501343,153.598785 1488.356445,148.522461 1478.131592,147.030273 
	C1473.378906,146.336685 1468.525024,146.161743 1463.712158,146.090836 
	C1454.266968,145.951675 1444.818237,146.049911 1435.222656,146.049911 
	C1435.222656,134.742310 1435.222656,124.025314 1435.222656,112.714935 
	C1452.960205,112.714935 1470.358398,112.714935 1487.611206,112.714935 
	C1487.611206,109.206848 1487.611206,106.318016 1487.611206,103.460014 
	C1466.265869,103.460014 1445.348633,103.460014 1424.403564,103.460014 
	C1424.403564,135.827423 1424.403564,167.864487 1424.403564,199.962570 
	C1441.144775,199.962570 1457.492065,200.452972 1473.779297,199.679642 
	C1479.029785,199.430374 1484.122192,195.855652 1489.798340,193.288544 
M1527.341431,146.218887 
	C1528.101440,142.095856 1531.006714,140.247101 1534.773071,140.095367 
	C1541.082275,139.841217 1547.421509,139.796082 1553.725098,140.114288 
	C1558.310059,140.345718 1561.690674,142.732468 1562.150391,147.713181 
	C1562.678345,153.433563 1562.926636,159.179764 1563.287231,164.772156 
	C1559.825195,163.029556 1556.941650,160.587601 1553.804443,160.200363 
	C1546.753784,159.330063 1539.500122,158.693024 1532.468506,159.382919 
	C1519.283325,160.676544 1513.489624,168.007889 1514.322632,180.774582 
	C1514.463135,182.927795 1514.665894,185.105484 1515.144043,187.202499 
	C1516.351440,192.498276 1518.905884,197.458328 1524.343628,198.722961 
	C1537.882324,201.871597 1551.703369,205.026611 1563.716919,193.591019 
	C1563.865723,195.686523 1564.009888,197.714722 1564.157593,199.794601 
	C1567.252930,199.794601 1569.986694,199.794601 1572.867920,199.794601 
	C1572.867920,182.196960 1573.317139,164.913315 1572.681885,147.669601 
	C1572.355469,138.806656 1566.471191,133.031006 1557.721191,132.242813 
	C1548.848633,131.443588 1539.794556,131.302490 1530.932129,132.107178 
	C1520.822510,133.025101 1516.143799,140.017380 1517.415894,150.892349 
	C1519.284180,150.892349 1521.253540,150.702042 1523.171387,150.935577 
	C1526.286621,151.314941 1527.459229,149.990341 1527.341431,146.218887 
M1358.434326,104.499931 
	C1358.432373,166.160797 1358.427979,227.821655 1358.432861,289.482513 
	C1358.433350,295.015015 1358.493408,295.043793 1363.516602,293.974731 
	C1363.516602,199.768646 1363.516602,105.546814 1363.516602,11.003278 
	C1361.716309,11.096134 1360.291626,11.169618 1358.435303,11.265368 
	C1358.435303,42.228729 1358.435303,72.864319 1358.434326,104.499931 
M1603.262573,132.259186 
	C1600.982178,132.259186 1598.701660,132.259186 1596.181152,132.259186 
	C1596.181152,155.098785 1596.181152,177.328537 1596.181152,199.820709 
	C1599.497925,199.820709 1602.549316,199.820709 1606.090210,199.820709 
	C1606.090210,190.738312 1606.301147,181.943756 1605.996582,173.167099 
	C1605.854980,169.082993 1607.276489,168.041000 1611.132568,168.157303 
	C1619.453369,168.408279 1627.796997,168.478104 1636.111572,168.138992 
	C1640.654541,167.953720 1642.202026,169.241638 1641.991577,173.944092 
	C1641.607666,182.525375 1641.882446,191.136124 1641.882446,199.726044 
	C1645.639526,199.726044 1648.687744,199.726044 1651.698242,199.726044 
	C1651.698242,177.111984 1651.698242,154.894089 1651.698242,132.672485 
	C1648.274292,132.672485 1645.232910,132.672485 1641.607666,132.672485 
	C1641.607666,141.985184 1641.607666,150.881317 1641.607666,159.552872 
	C1629.452515,159.552872 1617.895508,159.552872 1606.092285,159.552872 
	C1606.092285,151.629379 1606.194336,144.142578 1606.005005,136.663193 
	C1605.967896,135.192368 1604.805420,133.750046 1603.262573,132.259186 
M1685.023193,157.979172 
	C1685.023193,149.551834 1685.023193,141.124496 1685.023193,132.617493 
	C1681.277832,132.617493 1678.221436,132.617493 1675.118042,132.617493 
	C1675.118042,155.215942 1675.118042,177.436005 1675.118042,199.777649 
	C1678.521484,199.777649 1681.572144,199.777649 1685.077393,199.777649 
	C1685.077393,189.176346 1685.077393,178.919281 1685.077393,167.116318 
	C1687.879639,168.855286 1689.996460,169.635788 1691.368042,171.109894 
	C1698.395752,178.663483 1705.828369,185.953033 1711.948364,194.203506 
	C1716.993896,201.005371 1722.960938,200.521332 1730.659790,199.707001 
	C1719.128540,187.286423 1708.216553,175.532959 1697.141968,163.604263 
	C1706.656982,153.244064 1715.819336,143.268036 1725.636475,132.578873 
	C1718.712891,132.101242 1713.329712,131.158997 1708.862671,137.280472 
	C1703.589600,144.506302 1697.103394,150.849869 1691.100952,157.538055 
	C1689.461304,159.365158 1687.786987,161.595535 1685.023193,157.979172 
M638.293823,260.490326 
	C648.847534,262.610992 659.469543,265.261353 668.710327,256.529236 
	C668.876404,258.099518 669.038391,259.630737 669.191711,261.080414 
	C671.635376,261.080414 673.753662,261.080414 675.995605,261.080414 
	C675.995605,247.870407 676.284729,234.898010 675.887207,221.946686 
	C675.648315,214.162201 671.318115,209.690018 663.373108,208.976593 
	C656.480774,208.357697 649.427917,208.365173 642.548645,209.081390 
	C635.390930,209.826630 631.920593,215.779144 633.311890,223.165283 
	C635.590149,223.165283 637.868469,223.165283 640.087708,223.165283 
	C641.936890,215.330536 643.016785,214.316849 649.637634,214.016647 
	C666.765564,213.240021 669.413513,216.029037 668.014465,233.387192 
	C668.005981,233.491592 667.820984,233.581772 667.565918,233.822678 
	C660.952454,228.237686 652.976196,229.773376 645.328796,230.027908 
	C637.311707,230.294724 633.008362,233.551468 631.341675,239.729965 
	C629.032898,248.289307 631.363892,255.886429 638.293823,260.490326 
M873.357361,256.002228 
	C859.318481,256.010437 854.636841,250.651062 856.964355,236.788864 
	C863.031494,236.788864 869.166199,236.788879 875.300903,236.788879 
	C881.408936,236.788879 887.516907,236.788864 893.550049,236.788864 
	C896.178345,215.020615 885.106812,204.665070 864.137451,208.669159 
	C863.973999,208.700348 863.811890,208.739609 863.647583,208.764786 
	C856.241760,209.899231 851.700562,214.227768 849.928101,221.396790 
	C847.654846,230.590790 847.853455,239.836899 849.699829,249.089813 
	C851.140381,256.309631 855.544922,260.899780 862.719727,261.562836 
	C869.440918,262.183960 876.377075,262.187592 883.044678,261.239655 
	C891.133484,260.089661 894.755493,253.887421 893.392090,245.642365 
	C891.008362,245.642365 888.624634,245.642365 886.286926,245.642365 
	C885.437134,254.451218 884.084778,255.577286 873.357361,256.002228 
M595.029358,222.095276 
	C595.029358,235.025421 595.029358,247.955566 595.029358,261.018616 
	C598.329590,261.018616 600.725220,261.018616 603.091431,261.018616 
	C603.091431,247.578461 603.356995,234.443146 602.988892,221.325607 
	C602.777893,213.806641 599.167480,210.077866 591.851257,208.790009 
	C582.964966,207.225800 574.274353,207.260345 566.761719,214.281738 
	C566.458313,212.324341 566.216492,210.764465 565.989319,209.298645 
	C563.565247,209.298645 561.329590,209.298645 559.099182,209.298645 
	C559.099182,226.717514 559.099182,243.817612 559.099182,261.080994 
	C561.747192,261.080994 564.175537,261.080994 566.965210,261.080994 
	C566.965210,249.854248 566.842163,238.883743 567.006042,227.917511 
	C567.125977,219.891830 571.216980,215.631027 579.164856,214.931168 
	C581.803040,214.698853 584.482971,214.845856 587.139648,214.938660 
	C591.274780,215.083160 594.097961,216.946304 595.029358,222.095276 
M741.891968,237.512177 
	C741.891968,245.306107 741.891968,253.100037 741.891968,261.093475 
	C744.689575,261.093475 747.120972,261.093475 749.933777,261.093475 
	C749.933777,255.246078 750.031860,249.623230 749.910583,244.005112 
	C749.731384,235.704926 749.700623,227.383163 749.023682,219.118347 
	C748.549622,213.331299 744.699097,209.910172 739.009521,208.893707 
	C729.823242,207.252563 720.865784,207.117432 713.137512,214.258835 
	C712.921448,212.245972 712.756226,210.706238 712.604126,209.289139 
	C709.950745,209.289139 707.704102,209.289139 705.339844,209.289139 
	C705.339844,226.670975 705.339844,243.744888 705.339844,261.076935 
	C707.957458,261.076935 710.381165,261.076935 713.200806,261.076935 
	C713.200806,250.594315 713.106445,240.305786 713.224854,230.019684 
	C713.371887,217.241943 726.405212,209.762009 737.672119,216.092743 
	C739.282837,216.997803 740.833435,219.294067 741.067749,221.119049 
	C741.720703,226.203568 741.666809,231.378845 741.891968,237.512177 
M802.215881,255.888702 
	C800.550537,255.862259 798.872864,255.957153 797.222046,255.788254 
	C790.348267,255.085037 787.250488,252.941742 786.664978,246.080353 
	C785.992065,238.194473 786.450562,230.170410 787.013489,222.248749 
	C787.162415,220.153183 789.314453,216.664932 790.870911,216.475128 
	C796.994568,215.728485 803.442078,215.127075 809.362488,216.385651 
	C811.945374,216.934738 813.546631,222.101868 816.010010,225.796036 
	C816.973511,225.796036 819.242737,225.796036 821.494385,225.796036 
	C821.985352,215.771759 817.937927,210.172409 808.451904,208.945862 
	C802.923706,208.231049 797.179871,208.420486 791.610779,208.978668 
	C784.720703,209.669250 779.844849,214.047867 779.217590,220.756836 
	C778.343262,230.106476 778.139160,239.670258 779.094666,248.994156 
	C779.939636,257.238647 785.408142,261.276276 793.806946,261.971130 
	C797.776184,262.299530 801.801941,262.271149 805.783813,262.059906 
	C817.680420,261.428711 823.287292,254.667130 822.029419,242.533539 
	C819.785706,242.533539 817.526855,242.533539 815.313171,242.533539 
	C813.201599,253.963257 812.560181,254.651703 802.215881,255.888702 
M477.805603,233.501953 
	C477.805603,242.625076 477.805603,251.748215 477.805603,261.062653 
	C480.610138,261.062653 483.035065,261.062653 485.921387,261.062653 
	C485.921387,245.760345 485.921387,230.706757 485.921387,215.144302 
	C490.596649,215.144302 494.830688,215.144302 499.178711,215.144302 
	C499.178711,212.857178 499.178711,211.094421 499.178711,208.879883 
	C494.717438,208.879883 490.469360,208.879883 486.276794,208.879883 
	C484.842102,190.839539 486.702759,192.208710 499.085693,191.693588 
	C499.085693,189.811813 499.085693,187.928986 499.085693,184.571777 
	C493.266541,185.812195 487.377594,185.762100 482.972168,188.293640 
	C475.163818,192.780655 478.907745,201.792236 477.291290,209.025787 
	C474.808258,209.025787 472.529419,209.025787 470.131805,209.025787 
	C470.131805,211.230026 470.131805,213.111908 470.131805,214.975647 
	C472.835663,215.183899 475.232849,215.368515 477.805573,215.566666 
	C477.805573,221.538345 477.805573,227.020706 477.805603,233.501953 
M529.837097,237.500031 
	C529.837097,228.082321 529.837097,218.664597 529.837097,209.297028 
	C526.808838,209.297028 524.407715,209.297028 521.976685,209.297028 
	C521.976685,226.695969 521.976685,243.779587 521.976685,261.082672 
	C524.579102,261.082672 526.999146,261.082672 529.837097,261.082672 
	C529.837097,253.386124 529.837097,245.943054 529.837097,237.500031 
M525.633789,186.390579 
	C518.020813,186.404434 523.538330,191.999771 521.534790,194.649277 
	C524.660339,194.649277 527.185913,194.649277 530.382446,194.649277 
	C528.275818,191.764542 533.005737,186.756668 525.633789,186.390579 
z"/>
<path fill="#E4E4E4" opacity="1.000000" stroke="none" 
	d="
M1926.000000,316.000000 
	C1925.833252,316.333313 1925.684082,316.943756 1925.497192,316.955505 
	C1924.169067,317.038940 1922.833374,317.000000 1921.500000,317.000000 
	C1281.333374,317.000000 641.166687,317.000000 1.443604,316.500000 
	C643.258118,316.000000 1284.629028,316.000000 1926.000000,316.000000 
z"/>
<path fill="#6B6B69" opacity="1.000000" stroke="none" 
	d="
M1926.000000,315.750000 
	C1284.629028,316.000000 643.258118,316.000000 1.443604,316.000000 
	C1.000000,316.000000 1.000000,315.500000 1.000000,315.250000 
	C642.370911,314.999756 1283.741821,314.999542 1925.556396,314.999634 
	C1926.000000,315.000000 1926.000000,315.500000 1926.000000,315.750000 
z"/>
<path fill="#5BB24B" opacity="1.000000" stroke="none" 
	d="
M205.719482,286.233215 
	C188.228363,278.833740 173.727432,267.256042 160.834045,253.596176 
	C137.734085,229.123016 124.703400,199.810501 118.794289,166.850082 
	C114.589767,143.397751 115.098175,119.740486 114.272171,96.144150 
	C113.433022,72.172432 113.396538,48.172596 113.015167,24.184967 
	C112.986740,22.397196 113.011429,20.608580 113.011429,18.662855 
	C197.157974,13.333992 280.802917,13.565698 364.019684,18.592716 
	C364.019684,36.598804 364.019684,54.371990 363.681030,72.912628 
	C363.439728,77.744705 363.537079,81.809326 363.634399,85.873955 
	C363.597137,89.351967 363.559875,92.829971 363.023926,96.651810 
	C362.337769,96.969055 362.150330,96.942474 361.663849,96.633774 
	C360.550812,96.235184 359.736786,96.017052 358.922729,96.016792 
	C310.212555,96.001434 261.502411,95.997360 212.792282,96.042664 
	C211.555679,96.043816 210.319580,96.606682 208.844299,96.947075 
	C208.605362,96.986572 208.122025,97.017899 207.789581,97.281250 
	C207.308319,107.322609 207.136810,117.100441 207.058380,126.879013 
	C207.052750,127.579826 207.727951,128.286102 208.325073,129.007965 
	C208.563568,129.026077 209.038315,129.084793 209.335327,129.367599 
	C211.446274,129.768661 213.260117,129.989182 215.074112,129.990173 
	C256.032745,130.012589 296.991516,130.056732 337.949829,129.938461 
	C341.777100,129.927399 343.123749,130.829742 343.088135,134.911606 
	C342.893524,157.220703 343.015869,179.532455 342.956970,201.843109 
	C342.953278,203.241913 342.336334,204.639114 341.535614,206.028076 
	C298.797668,206.012924 256.528809,205.995850 214.259995,206.039566 
	C212.524582,206.041367 210.789764,206.614227 208.811707,207.046204 
	C208.355896,207.461609 208.143066,207.751816 207.641266,208.335297 
	C207.232101,210.434067 207.009109,212.239502 207.007401,214.045120 
	C206.986298,236.262268 207.027832,258.479584 206.944901,280.696442 
	C206.937988,282.543549 206.146469,284.387695 205.719482,286.233215 
z"/>
<path fill="#028745" opacity="1.000000" stroke="none" 
	d="
M209.038315,129.084793 
	C209.038315,129.084793 208.563568,129.026077 208.298462,128.540543 
	C208.062912,117.709305 208.092468,107.363602 208.122025,97.017899 
	C208.122025,97.017899 208.605362,96.986572 209.303314,96.977692 
	C260.655151,96.951172 311.308990,96.933533 361.962860,96.915901 
	C362.150330,96.942474 362.337769,96.969055 362.809052,96.991882 
	C364.028687,138.010513 362.165009,178.586105 342.995300,216.190872 
	C322.098755,257.183105 289.915649,284.598541 245.147903,296.463135 
	C241.361954,297.466522 236.839447,297.460876 233.077240,296.417084 
	C225.108276,294.206055 217.415558,290.999420 209.306946,287.544312 
	C209.002686,262.424652 209.109024,237.960800 208.899384,213.499664 
	C208.861877,209.123001 210.007111,207.880539 214.453217,207.899170 
	C255.390442,208.070816 296.328674,208.011627 337.266541,207.961121 
	C339.179779,207.958771 341.092377,207.403122 343.301758,206.796417 
	C343.724457,206.009933 343.960541,205.532288 343.961060,205.054367 
	C343.988556,180.940491 343.948608,156.826385 344.060181,132.712967 
	C344.075623,129.376022 342.471313,128.967529 339.751923,128.972092 
	C296.180786,129.045197 252.609543,129.058151 209.038315,129.084793 
z"/>
<path fill="#2C2B29" opacity="1.000000" stroke="none" 
	d="
M1246.508911,92.469315 
	C1248.904785,84.272118 1251.133545,76.444839 1253.445190,68.326584 
	C1267.699829,68.326584 1281.966919,68.326584 1296.593018,68.326584 
	C1296.593018,101.235847 1296.593018,134.288925 1296.593018,167.686523 
	C1288.041382,167.686523 1279.336426,167.686523 1270.244629,167.686523 
	C1271.121338,142.510254 1271.993652,117.458221 1272.866089,92.406189 
	C1272.502319,92.300285 1272.138428,92.194389 1271.774658,92.088486 
	C1263.424316,117.289062 1255.074097,142.489639 1246.672729,167.844269 
	C1239.003784,167.844269 1231.377930,167.844269 1223.500488,167.844269 
	C1215.082153,142.657700 1206.683472,117.530586 1198.284912,92.403465 
	C1197.928589,92.452240 1197.572388,92.501015 1197.216064,92.549789 
	C1198.077148,117.444923 1198.938232,142.340057 1199.813110,167.634033 
	C1191.037231,167.634033 1182.333984,167.634033 1173.357422,167.634033 
	C1173.357422,134.616425 1173.357422,101.565292 1173.357422,68.264420 
	C1187.298950,68.264420 1201.070801,68.264420 1215.449341,68.264420 
	C1221.697021,88.766113 1228.019653,109.513626 1234.342285,130.261139 
	C1234.721313,130.348068 1235.100342,130.434998 1235.479370,130.521927 
	C1239.100220,117.961037 1242.721069,105.400139 1246.508911,92.469315 
z"/>
<path fill="#2C2B29" opacity="1.000000" stroke="none" 
	d="
M966.999817,168.028366 
	C952.534973,168.028366 938.570068,168.028366 924.335815,168.028366 
	C924.335815,134.632584 924.335815,101.577774 924.335815,68.023338 
	C932.236755,68.023338 940.016846,67.949257 947.795044,68.040337 
	C960.113892,68.184586 972.517883,67.593651 984.729797,68.841179 
	C1004.138489,70.823898 1012.762817,79.009193 1014.326965,98.253540 
	C1015.520386,112.936096 1015.127563,127.934395 1013.602600,142.601151 
	C1011.908386,158.895660 1001.169556,167.045975 983.492004,167.891586 
	C978.171265,168.146103 972.831055,167.994125 966.999817,168.028366 
M966.470642,144.913971 
	C968.137207,144.913223 969.803772,144.916519 971.470337,144.911057 
	C982.332031,144.875488 986.666931,141.414444 987.259338,130.721085 
	C987.792542,121.098938 987.561462,111.402176 987.085632,101.767067 
	C986.734192,94.651787 983.830383,91.748238 976.782227,91.385117 
	C968.345154,90.950424 959.868652,91.282509 951.201477,91.282509 
	C951.201477,109.279411 951.201477,126.970123 951.201477,144.913879 
	C956.193665,144.913879 960.838257,144.913879 966.470642,144.913971 
z"/>
<path fill="#2C2B2A" opacity="1.000000" stroke="none" 
	d="
M599.928711,168.030106 
	C593.160400,168.030289 586.884521,168.030289 580.402466,168.030289 
	C580.402466,134.605118 580.402466,101.699684 580.402466,68.800591 
	C580.666138,68.583519 580.915222,68.199554 581.160156,68.202225 
	C601.949097,68.428749 622.762268,68.159241 643.517822,69.124512 
	C657.341492,69.767403 664.226318,77.047279 665.647644,90.878548 
	C666.340149,97.617035 665.885803,104.508530 665.538757,111.309753 
	C665.105530,119.799599 660.119995,124.923050 652.352112,127.645828 
	C650.700317,128.224808 649.038269,128.774643 646.465332,129.649094 
	C649.261292,130.237610 651.053101,130.555435 652.814209,130.995804 
	C660.062500,132.808273 664.729370,138.122971 664.995483,145.524292 
	C665.257751,152.818100 665.052734,160.128708 665.052734,167.730591 
	C656.310242,167.730591 647.728149,167.730591 638.505371,167.730591 
	C638.505371,163.537888 638.561829,159.271896 638.494141,155.007889 
	C638.328613,144.584091 635.347595,141.607101 625.078064,141.557220 
	C619.255554,141.528946 613.432800,141.552109 607.158508,141.552109 
	C607.158508,150.294250 607.158508,158.871017 607.158508,168.029922 
	C604.618286,168.029922 602.519714,168.029922 599.928711,168.030106 
M611.580933,118.228622 
	C618.051819,118.172966 624.533020,118.322044 630.990479,117.998741 
	C636.440857,117.725868 637.917847,115.589706 638.577698,108.417747 
	C639.542297,97.933655 638.078491,93.424232 633.228577,91.945892 
	C633.070618,91.897736 632.903687,91.850700 632.740906,91.850616 
	C624.215515,91.846016 615.690186,91.846558 606.972107,91.846558 
	C606.972107,99.692871 607.140442,107.493111 606.891174,115.279984 
	C606.788208,118.495911 608.526978,118.310287 611.580933,118.228622 
z"/>
<path fill="#2C2B29" opacity="1.000000" stroke="none" 
	d="
M1137.080078,146.901810 
	C1132.795776,160.437469 1122.561279,165.814514 1110.003540,167.694962 
	C1097.428467,169.577988 1084.792969,169.577087 1072.256592,167.039032 
	C1056.583130,163.865829 1047.743286,154.184601 1046.951660,138.141586 
	C1046.337280,125.690491 1046.210938,113.170982 1046.734131,100.718300 
	C1047.559204,81.085327 1055.965820,71.744476 1075.404785,68.467216 
	C1088.291382,66.294647 1101.305176,66.488106 1114.125732,69.189613 
	C1128.699585,72.260544 1137.284790,80.791565 1138.343872,96.312271 
	C1139.414551,112.004730 1138.199951,127.854256 1137.933228,143.634079 
	C1137.916870,144.597015 1137.433594,145.552048 1137.080078,146.901810 
M1082.120728,144.825729 
	C1088.582031,144.907333 1095.062622,145.331406 1101.499146,144.970123 
	C1107.429443,144.637268 1110.695312,141.721756 1110.899414,135.953598 
	C1111.322144,124.008331 1111.320312,112.028008 1110.910767,100.082069 
	C1110.716919,94.426270 1107.249146,91.470169 1101.469727,91.012650 
	C1096.517456,90.620605 1091.500366,90.538399 1086.542603,90.832939 
	C1077.884399,91.347336 1074.718384,94.085831 1074.289551,102.688370 
	C1073.776978,112.973801 1073.962036,123.312721 1074.300781,133.613480 
	C1074.456665,138.355270 1075.999390,142.864944 1082.120728,144.825729 
z"/>
<path fill="#2C2B29" opacity="1.000000" stroke="none" 
	d="
M716.005005,168.027237 
	C711.050720,168.027237 706.595093,168.027237 701.975830,168.027237 
	C701.975830,134.589050 701.975830,101.636269 701.975830,68.351799 
	C725.712952,68.351799 749.465027,68.351799 773.571899,68.351799 
	C773.571899,75.262398 773.571899,82.317024 773.571899,89.848724 
	C758.681580,89.848724 743.769897,89.848724 728.585693,89.848724 
	C728.585693,96.059441 728.585693,101.801971 728.585693,108.013306 
	C742.641174,108.013306 756.550476,108.013306 770.742554,108.013306 
	C770.742554,114.385406 770.742554,120.295158 770.742554,126.669052 
	C756.767944,126.669052 742.839600,126.669052 728.612061,126.669052 
	C728.612061,133.209595 728.612061,139.298462 728.612061,145.927734 
	C743.833313,145.927734 759.056213,145.927734 774.580444,145.927734 
	C774.580444,153.380386 774.580444,160.307846 774.580444,168.027237 
	C755.315308,168.027237 735.909485,168.027237 716.005005,168.027237 
z"/>
<path fill="#2C2B29" opacity="1.000000" stroke="none" 
	d="
M861.000122,126.791077 
	C854.012329,126.791061 847.524414,126.791061 840.668091,126.791061 
	C840.668091,133.266693 840.668091,139.465988 840.668091,146.011032 
	C855.926025,146.011032 871.041992,146.011032 886.517151,146.011032 
	C886.517151,153.388336 886.517151,160.435654 886.517151,167.758636 
	C862.403259,167.758636 838.334412,167.758636 814.028137,167.758636 
	C814.028137,134.573593 814.028137,101.516586 814.028137,68.250717 
	C837.980042,68.250717 861.719788,68.250717 885.686890,68.250717 
	C885.686890,75.412590 885.686890,82.345627 885.686890,89.750977 
	C870.753967,89.750977 855.838501,89.750977 840.613037,89.750977 
	C840.613037,95.955223 840.613037,101.698753 840.613037,107.918419 
	C854.549927,107.918419 868.454773,107.918419 882.690308,107.918419 
	C882.690308,114.291122 882.690308,120.203804 882.690308,126.791084 
	C875.703186,126.791084 868.601562,126.791084 861.000122,126.791077 
z"/>
<path fill="#2C2B29" opacity="1.000000" stroke="none" 
	d="
M503.283813,108.882660 
	C516.814819,109.314400 530.093689,109.314400 543.600952,109.314400 
	C543.600952,116.963257 543.600952,123.869484 543.600952,131.217010 
	C530.125793,131.217010 516.876404,131.217010 503.200867,131.217010 
	C503.200867,143.545044 503.200867,155.447098 503.200867,167.687378 
	C494.072235,167.687378 485.371033,167.687378 476.419861,167.687378 
	C476.419861,134.664322 476.419861,101.749596 476.419861,68.427124 
	C499.727081,68.427124 523.090454,68.427124 546.791016,68.427124 
	C546.791016,75.301125 546.791016,82.351685 546.791016,89.799202 
	C532.407959,89.799202 517.995728,89.799202 503.031616,89.799202 
	C503.031616,96.266388 503.031616,102.358650 503.283813,108.882660 
z"/>
<path fill="#8C8C8C" opacity="1.000000" stroke="none" 
	d="
M1489.542725,193.545380 
	C1484.122192,195.855652 1479.029785,199.430374 1473.779297,199.679642 
	C1457.492065,200.452972 1441.144775,199.962570 1424.403564,199.962570 
	C1424.403564,167.864487 1424.403564,135.827423 1424.403564,103.460014 
	C1445.348633,103.460014 1466.265869,103.460014 1487.611206,103.460014 
	C1487.611206,106.318016 1487.611206,109.206848 1487.611206,112.714935 
	C1470.358398,112.714935 1452.960205,112.714935 1435.222656,112.714935 
	C1435.222656,124.025314 1435.222656,134.742310 1435.222656,146.049911 
	C1444.818237,146.049911 1454.266968,145.951675 1463.712158,146.090836 
	C1468.525024,146.161743 1473.378906,146.336685 1478.131592,147.030273 
	C1488.356445,148.522461 1493.501343,153.598785 1495.088989,163.789764 
	C1496.706177,174.169861 1496.866211,184.409805 1489.542725,193.545380 
M1434.871460,178.488251 
	C1434.871460,182.430176 1434.871460,186.372101 1434.871460,190.881638 
	C1445.011353,190.881638 1454.599365,190.894455 1464.187378,190.878845 
	C1481.677002,190.850388 1486.021362,186.217560 1484.975952,168.747070 
	C1484.966064,168.581238 1484.965820,168.414719 1484.952148,168.249252 
	C1484.269287,159.887680 1480.762695,156.207916 1472.309326,155.999115 
	C1460.521240,155.707932 1448.722168,155.841187 1436.927856,155.832565 
	C1436.334106,155.832138 1435.740234,156.207855 1434.871216,156.501373 
	C1434.871216,163.573685 1434.871216,170.532440 1434.871460,178.488251 
z"/>
<path fill="#8C8C8C" opacity="1.000000" stroke="none" 
	d="
M1527.262939,146.625137 
	C1527.459229,149.990341 1526.286621,151.314941 1523.171387,150.935577 
	C1521.253540,150.702042 1519.284180,150.892349 1517.415894,150.892349 
	C1516.143799,140.017380 1520.822510,133.025101 1530.932129,132.107178 
	C1539.794556,131.302490 1548.848633,131.443588 1557.721191,132.242813 
	C1566.471191,133.031006 1572.355469,138.806656 1572.681885,147.669601 
	C1573.317139,164.913315 1572.867920,182.196960 1572.867920,199.794601 
	C1569.986694,199.794601 1567.252930,199.794601 1564.157593,199.794601 
	C1564.009888,197.714722 1563.865723,195.686523 1563.716919,193.591019 
	C1551.703369,205.026611 1537.882324,201.871597 1524.343628,198.722961 
	C1518.905884,197.458328 1516.351440,192.498276 1515.144043,187.202499 
	C1514.665894,185.105484 1514.463135,182.927795 1514.322632,180.774582 
	C1513.489624,168.007889 1519.283325,160.676544 1532.468506,159.382919 
	C1539.500122,158.693024 1546.753784,159.330063 1553.804443,160.200363 
	C1556.941650,160.587601 1559.825195,163.029556 1563.287231,164.772156 
	C1562.926636,159.179764 1562.678345,153.433563 1562.150391,147.713181 
	C1561.690674,142.732468 1558.310059,140.345718 1553.725098,140.114288 
	C1547.421509,139.796082 1541.082275,139.841217 1534.773071,140.095367 
	C1531.006714,140.247101 1528.101440,142.095856 1527.262939,146.625137 
M1527.524658,170.061325 
	C1526.870483,171.202988 1526.018555,172.275986 1525.594116,173.497482 
	C1522.890747,181.280502 1525.773071,190.876541 1531.973145,191.561462 
	C1539.897949,192.436905 1548.109131,191.980164 1556.052979,190.967529 
	C1561.100464,190.324142 1562.878540,185.599030 1562.959595,180.705627 
	C1563.038086,175.969193 1563.121826,170.506073 1557.734619,168.886581 
	C1547.944336,165.943481 1537.891479,165.204346 1527.524658,170.061325 
z"/>
<path fill="#909090" opacity="1.000000" stroke="none" 
	d="
M1358.434814,103.999916 
	C1358.435303,72.864319 1358.435303,42.228729 1358.435303,11.265368 
	C1360.291626,11.169618 1361.716309,11.096134 1363.516602,11.003278 
	C1363.516602,105.546814 1363.516602,199.768646 1363.516602,293.974731 
	C1358.493408,295.043793 1358.433350,295.015015 1358.432861,289.482513 
	C1358.427979,227.821655 1358.432373,166.160797 1358.434814,103.999916 
z"/>
<path fill="#8A8A8A" opacity="1.000000" stroke="none" 
	d="
M1603.712280,132.276886 
	C1604.805420,133.750046 1605.967896,135.192368 1606.005005,136.663193 
	C1606.194336,144.142578 1606.092285,151.629379 1606.092285,159.552872 
	C1617.895508,159.552872 1629.452515,159.552872 1641.607666,159.552872 
	C1641.607666,150.881317 1641.607666,141.985184 1641.607666,132.672485 
	C1645.232910,132.672485 1648.274292,132.672485 1651.698242,132.672485 
	C1651.698242,154.894089 1651.698242,177.111984 1651.698242,199.726044 
	C1648.687744,199.726044 1645.639526,199.726044 1641.882446,199.726044 
	C1641.882446,191.136124 1641.607666,182.525375 1641.991577,173.944092 
	C1642.202026,169.241638 1640.654541,167.953720 1636.111572,168.138992 
	C1627.796997,168.478104 1619.453369,168.408279 1611.132568,168.157303 
	C1607.276489,168.041000 1605.854980,169.082993 1605.996582,173.167099 
	C1606.301147,181.943756 1606.090210,190.738312 1606.090210,199.820709 
	C1602.549316,199.820709 1599.497925,199.820709 1596.181152,199.820709 
	C1596.181152,177.328537 1596.181152,155.098785 1596.181152,132.259186 
	C1598.701660,132.259186 1600.982178,132.259186 1603.712280,132.276886 
z"/>
<path fill="#8C8C8C" opacity="1.000000" stroke="none" 
	d="
M1685.057373,158.416473 
	C1687.786987,161.595535 1689.461304,159.365158 1691.100952,157.538055 
	C1697.103394,150.849869 1703.589600,144.506302 1708.862671,137.280472 
	C1713.329712,131.158997 1718.712891,132.101242 1725.636475,132.578873 
	C1715.819336,143.268036 1706.656982,153.244064 1697.141968,163.604263 
	C1708.216553,175.532959 1719.128540,187.286423 1730.659790,199.707001 
	C1722.960938,200.521332 1716.993896,201.005371 1711.948364,194.203506 
	C1705.828369,185.953033 1698.395752,178.663483 1691.368042,171.109894 
	C1689.996460,169.635788 1687.879639,168.855286 1685.077393,167.116318 
	C1685.077393,178.919281 1685.077393,189.176346 1685.077393,199.777649 
	C1681.572144,199.777649 1678.521484,199.777649 1675.118042,199.777649 
	C1675.118042,177.436005 1675.118042,155.215942 1675.118042,132.617493 
	C1678.221436,132.617493 1681.277832,132.617493 1685.023193,132.617493 
	C1685.023193,141.124496 1685.023193,149.551834 1685.057373,158.416473 
z"/>
<path fill="#302F2E" opacity="1.000000" stroke="none" 
	d="
M637.948975,260.315399 
	C631.363892,255.886429 629.032898,248.289307 631.341675,239.729965 
	C633.008362,233.551468 637.311707,230.294724 645.328796,230.027908 
	C652.976196,229.773376 660.952454,228.237686 667.565918,233.822678 
	C667.820984,233.581772 668.005981,233.491592 668.014465,233.387192 
	C669.413513,216.029037 666.765564,213.240021 649.637634,214.016647 
	C643.016785,214.316849 641.936890,215.330536 640.087708,223.165283 
	C637.868469,223.165283 635.590149,223.165283 633.310425,223.163483 
	C631.920593,215.779144 635.390930,209.826630 642.548645,209.081390 
	C649.427917,208.365173 656.480774,208.357697 663.373108,208.976593 
	C671.318115,209.690018 675.648315,214.162201 675.887207,221.946686 
	C676.284729,234.898010 675.995605,247.870407 675.995605,261.080414 
	C673.753662,261.080414 671.635376,261.080414 669.191711,261.080414 
	C669.038391,259.630737 668.876404,258.099518 668.710327,256.529236 
	C659.469543,265.261353 648.847534,262.610992 637.948975,260.315399 
M644.613525,255.343079 
	C650.363892,255.330551 656.192322,255.896271 661.841614,255.134506 
	C666.963928,254.443787 668.394714,250.970215 668.231812,244.493179 
	C668.105286,239.462036 665.657532,236.680435 660.815857,236.259949 
	C656.695068,235.902069 652.530457,235.933914 648.387329,235.981339 
	C644.423950,236.026688 640.616089,236.721207 639.179199,241.188507 
	C637.432800,246.617889 639.365479,252.150177 644.613525,255.343079 
z"/>
<path fill="#333230" opacity="1.000000" stroke="none" 
	d="
M873.808594,255.994568 
	C884.084778,255.577286 885.437134,254.451218 886.286926,245.642365 
	C888.624634,245.642365 891.008362,245.642365 893.398193,245.642441 
	C894.755493,253.887421 891.133484,260.089661 883.044678,261.239655 
	C876.377075,262.187592 869.440918,262.183960 862.719727,261.562836 
	C855.544922,260.899780 851.140381,256.309631 849.699829,249.089813 
	C847.853455,239.836899 847.654846,230.590790 849.928101,221.396790 
	C851.700562,214.227768 856.241760,209.899231 863.647583,208.764786 
	C863.811890,208.739609 863.973999,208.700348 864.137451,208.669159 
	C885.106812,204.665070 896.178345,215.020615 893.550049,236.788864 
	C887.516907,236.788864 881.408936,236.788879 875.300903,236.788879 
	C869.166199,236.788879 863.031494,236.788864 856.964355,236.788864 
	C854.636841,250.651062 859.318481,256.010437 873.808594,255.994568 
M856.450012,229.283417 
	C857.065125,229.727249 857.676758,230.551987 858.295898,230.557648 
	C867.391052,230.640793 876.487183,230.614899 885.527527,230.614899 
	C886.471252,222.880844 884.481628,218.026779 879.674255,215.809204 
	C867.888977,210.372849 858.048584,215.733475 856.450012,229.283417 
z"/>
<path fill="#31302F" opacity="1.000000" stroke="none" 
	d="
M594.980164,221.661407 
	C594.097961,216.946304 591.274780,215.083160 587.139648,214.938660 
	C584.482971,214.845856 581.803040,214.698853 579.164856,214.931168 
	C571.216980,215.631027 567.125977,219.891830 567.006042,227.917511 
	C566.842163,238.883743 566.965210,249.854248 566.965210,261.080994 
	C564.175537,261.080994 561.747192,261.080994 559.099182,261.080994 
	C559.099182,243.817612 559.099182,226.717514 559.099182,209.298645 
	C561.329590,209.298645 563.565247,209.298645 565.989319,209.298645 
	C566.216492,210.764465 566.458313,212.324341 566.761719,214.281738 
	C574.274353,207.260345 582.964966,207.225800 591.851257,208.790009 
	C599.167480,210.077866 602.777893,213.806641 602.988892,221.325607 
	C603.356995,234.443146 603.091431,247.578461 603.091431,261.018616 
	C600.725220,261.018616 598.329590,261.018616 595.029358,261.018616 
	C595.029358,247.955566 595.029358,235.025421 594.980164,221.661407 
z"/>
<path fill="#31302F" opacity="1.000000" stroke="none" 
	d="
M741.891968,237.015228 
	C741.666809,231.378845 741.720703,226.203568 741.067749,221.119049 
	C740.833435,219.294067 739.282837,216.997803 737.672119,216.092743 
	C726.405212,209.762009 713.371887,217.241943 713.224854,230.019684 
	C713.106445,240.305786 713.200806,250.594315 713.200806,261.076935 
	C710.381165,261.076935 707.957458,261.076935 705.339844,261.076935 
	C705.339844,243.744888 705.339844,226.670975 705.339844,209.289139 
	C707.704102,209.289139 709.950745,209.289139 712.604126,209.289139 
	C712.756226,210.706238 712.921448,212.245972 713.137512,214.258835 
	C720.865784,207.117432 729.823242,207.252563 739.009521,208.893707 
	C744.699097,209.910172 748.549622,213.331299 749.023682,219.118347 
	C749.700623,227.383163 749.731384,235.704926 749.910583,244.005112 
	C750.031860,249.623230 749.933777,255.246078 749.933777,261.093475 
	C747.120972,261.093475 744.689575,261.093475 741.891968,261.093475 
	C741.891968,253.100037 741.891968,245.306107 741.891968,237.015228 
z"/>
<path fill="#31302F" opacity="1.000000" stroke="none" 
	d="
M802.644348,255.875031 
	C812.560181,254.651703 813.201599,253.963257 815.313171,242.533539 
	C817.526855,242.533539 819.785706,242.533539 822.029419,242.533539 
	C823.287292,254.667130 817.680420,261.428711 805.783813,262.059906 
	C801.801941,262.271149 797.776184,262.299530 793.806946,261.971130 
	C785.408142,261.276276 779.939636,257.238647 779.094666,248.994156 
	C778.139160,239.670258 778.343262,230.106476 779.217590,220.756836 
	C779.844849,214.047867 784.720703,209.669250 791.610779,208.978668 
	C797.179871,208.420486 802.923706,208.231049 808.451904,208.945862 
	C817.937927,210.172409 821.985352,215.771759 821.494385,225.796036 
	C819.242737,225.796036 816.973511,225.796036 816.010010,225.796036 
	C813.546631,222.101868 811.945374,216.934738 809.362488,216.385651 
	C803.442078,215.127075 796.994568,215.728485 790.870911,216.475128 
	C789.314453,216.664932 787.162415,220.153183 787.013489,222.248749 
	C786.450562,230.170410 785.992065,238.194473 786.664978,246.080353 
	C787.250488,252.941742 790.348267,255.085037 797.222046,255.788254 
	C798.872864,255.957153 800.550537,255.862259 802.644348,255.875031 
z"/>
<path fill="#2F2E2D" opacity="1.000000" stroke="none" 
	d="
M477.805603,233.002518 
	C477.805573,227.020706 477.805573,221.538345 477.805573,215.566666 
	C475.232849,215.368515 472.835663,215.183899 470.131805,214.975647 
	C470.131805,213.111908 470.131805,211.230026 470.131805,209.025787 
	C472.529419,209.025787 474.808258,209.025787 477.291290,209.025787 
	C478.907745,201.792236 475.163818,192.780655 482.972168,188.293640 
	C487.377594,185.762100 493.266541,185.812195 499.085693,184.571777 
	C499.085693,187.928986 499.085693,189.811813 499.085693,191.693588 
	C486.702759,192.208710 484.842102,190.839539 486.276794,208.879883 
	C490.469360,208.879883 494.717438,208.879883 499.178711,208.879883 
	C499.178711,211.094421 499.178711,212.857178 499.178711,215.144302 
	C494.830688,215.144302 490.596649,215.144302 485.921387,215.144302 
	C485.921387,230.706757 485.921387,245.760345 485.921387,261.062653 
	C483.035065,261.062653 480.610138,261.062653 477.805603,261.062653 
	C477.805603,251.748215 477.805603,242.625076 477.805603,233.002518 
z"/>
<path fill="#31302F" opacity="1.000000" stroke="none" 
	d="
M529.837097,238.000015 
	C529.837097,245.943054 529.837097,253.386124 529.837097,261.082672 
	C526.999146,261.082672 524.579102,261.082672 521.976685,261.082672 
	C521.976685,243.779587 521.976685,226.695969 521.976685,209.297028 
	C524.407715,209.297028 526.808838,209.297028 529.837097,209.297028 
	C529.837097,218.664597 529.837097,228.082321 529.837097,238.000015 
z"/>
<path fill="#11803B" opacity="1.000000" stroke="none" 
	d="
M343.005249,207.105133 
	C341.092377,207.403122 339.179779,207.958771 337.266541,207.961121 
	C296.328674,208.011627 255.390442,208.070816 214.453217,207.899170 
	C210.007111,207.880539 208.861877,209.123001 208.899384,213.499664 
	C209.109024,237.960800 209.002686,262.424652 209.005188,287.343018 
	C209.006042,287.798492 208.531784,287.851776 208.531784,287.851776 
	C208.531784,287.851776 208.107391,287.633484 208.031555,286.947998 
	C207.947205,260.189026 207.938721,234.115524 207.930237,208.042023 
	C208.143066,207.751816 208.355896,207.461609 209.273926,207.074966 
	C253.976639,206.948181 297.974152,206.917831 342.230164,206.941422 
	C342.660858,207.031937 342.833038,207.068527 343.005249,207.105133 
z"/>
<path fill="#56BC6A" opacity="1.000000" stroke="none" 
	d="
M207.641266,208.335297 
	C207.938721,234.115524 207.947205,260.189026 207.905579,286.745361 
	C207.271545,287.056091 206.687622,286.883972 205.911606,286.472534 
	C206.146469,284.387695 206.937988,282.543549 206.944901,280.696442 
	C207.027832,258.479584 206.986298,236.262268 207.007401,214.045120 
	C207.009109,212.239502 207.232101,210.434067 207.641266,208.335297 
z"/>
<path fill="#333230" opacity="1.000000" stroke="none" 
	d="
M526.049561,186.390839 
	C533.005737,186.756668 528.275818,191.764542 530.382446,194.649277 
	C527.185913,194.649277 524.660339,194.649277 521.534790,194.649277 
	C523.538330,191.999771 518.020813,186.404434 526.049561,186.390839 
z"/>
<path fill="#59BD7C" opacity="1.000000" stroke="none" 
	d="
M363.763428,85.439255 
	C363.537079,81.809326 363.439728,77.744705 363.606018,73.381256 
	C363.877258,77.056473 363.884827,81.030510 363.763428,85.439255 
z"/>
<path fill="#41B16F" opacity="1.000000" stroke="none" 
	d="
M343.301758,206.796417 
	C342.833038,207.068527 342.660858,207.031937 342.241272,206.729309 
	C341.993927,206.463242 342.004700,206.037064 342.004700,206.037064 
	C342.336334,204.639114 342.953278,203.241913 342.956970,201.843109 
	C343.015869,179.532455 342.893524,157.220703 343.088135,134.911606 
	C343.123749,130.829742 341.777100,129.927399 337.949829,129.938461 
	C296.991516,130.056732 256.032745,130.012589 215.074112,129.990173 
	C213.260117,129.989182 211.446274,129.768661 209.335327,129.367599 
	C252.609543,129.058151 296.180786,129.045197 339.751923,128.972092 
	C342.471313,128.967529 344.075623,129.376022 344.060181,132.712967 
	C343.948608,156.826385 343.988556,180.940491 343.961060,205.054367 
	C343.960541,205.532288 343.724457,206.009933 343.301758,206.796417 
z"/>
<path fill="#59BD7C" opacity="1.000000" stroke="none" 
	d="
M361.663849,96.633774 
	C311.308990,96.933533 260.655151,96.951172 209.542267,96.938194 
	C210.319580,96.606682 211.555679,96.043816 212.792282,96.042664 
	C261.502411,95.997360 310.212555,96.001434 358.922729,96.016792 
	C359.736786,96.017052 360.550812,96.235184 361.663849,96.633774 
z"/>
<path fill="#4EBC7C" opacity="1.000000" stroke="none" 
	d="
M341.535614,206.028076 
	C342.004700,206.037064 341.993927,206.463242 341.982788,206.675354 
	C297.974152,206.917831 253.976639,206.948181 209.516907,206.949768 
	C210.789764,206.614227 212.524582,206.041367 214.259995,206.039566 
	C256.528809,205.995850 298.797668,206.012924 341.535614,206.028076 
z"/>
<path fill="#56BC6A" opacity="1.000000" stroke="none" 
	d="
M207.789581,97.281250 
	C208.092468,107.363602 208.062912,117.709305 208.059967,128.522430 
	C207.727951,128.286102 207.052750,127.579826 207.058380,126.879013 
	C207.136810,117.100441 207.308319,107.322609 207.789581,97.281250 
z"/>
<path fill="#FCFCFC" opacity="1.000000" stroke="none" 
	d="
M965.976685,144.913925 
	C960.838257,144.913879 956.193665,144.913879 951.201477,144.913879 
	C951.201477,126.970123 951.201477,109.279411 951.201477,91.282509 
	C959.868652,91.282509 968.345154,90.950424 976.782227,91.385117 
	C983.830383,91.748238 986.734192,94.651787 987.085632,101.767067 
	C987.561462,111.402176 987.792542,121.098938 987.259338,130.721085 
	C986.666931,141.414444 982.332031,144.875488 971.470337,144.911057 
	C969.803772,144.916519 968.137207,144.913223 965.976685,144.913925 
z"/>
<path fill="#FCFCFB" opacity="1.000000" stroke="none" 
	d="
M611.090637,118.228104 
	C608.526978,118.310287 606.788208,118.495911 606.891174,115.279984 
	C607.140442,107.493111 606.972107,99.692871 606.972107,91.846558 
	C615.690186,91.846558 624.215515,91.846016 632.740906,91.850616 
	C632.903687,91.850700 633.070618,91.897736 633.228577,91.945892 
	C638.078491,93.424232 639.542297,97.933655 638.577698,108.417747 
	C637.917847,115.589706 636.440857,117.725868 630.990479,117.998741 
	C624.533020,118.322044 618.051819,118.172966 611.090637,118.228104 
z"/>
<path fill="#FCFCFB" opacity="1.000000" stroke="none" 
	d="
M1081.729736,144.715179 
	C1075.999390,142.864944 1074.456665,138.355270 1074.300781,133.613480 
	C1073.962036,123.312721 1073.776978,112.973801 1074.289551,102.688370 
	C1074.718384,94.085831 1077.884399,91.347336 1086.542603,90.832939 
	C1091.500366,90.538399 1096.517456,90.620605 1101.469727,91.012650 
	C1107.249146,91.470169 1110.716919,94.426270 1110.910767,100.082069 
	C1111.320312,112.028008 1111.322144,124.008331 1110.899414,135.953598 
	C1110.695312,141.721756 1107.429443,144.637268 1101.499146,144.970123 
	C1095.062622,145.331406 1088.582031,144.907333 1081.729736,144.715179 
z"/>
<path fill="#FEFEFE" opacity="1.000000" stroke="none" 
	d="
M1434.871338,177.989716 
	C1434.871216,170.532440 1434.871216,163.573685 1434.871216,156.501373 
	C1435.740234,156.207855 1436.334106,155.832138 1436.927856,155.832565 
	C1448.722168,155.841187 1460.521240,155.707932 1472.309326,155.999115 
	C1480.762695,156.207916 1484.269287,159.887680 1484.952148,168.249252 
	C1484.965820,168.414719 1484.966064,168.581238 1484.975952,168.747070 
	C1486.021362,186.217560 1481.677002,190.850388 1464.187378,190.878845 
	C1454.599365,190.894455 1445.011353,190.881638 1434.871460,190.881638 
	C1434.871460,186.372101 1434.871460,182.430176 1434.871338,177.989716 
z"/>
<path fill="#FDFDFD" opacity="1.000000" stroke="none" 
	d="
M1527.816895,169.792328 
	C1537.891479,165.204346 1547.944336,165.943481 1557.734619,168.886581 
	C1563.121826,170.506073 1563.038086,175.969193 1562.959595,180.705627 
	C1562.878540,185.599030 1561.100464,190.324142 1556.052979,190.967529 
	C1548.109131,191.980164 1539.897949,192.436905 1531.973145,191.561462 
	C1525.773071,190.876541 1522.890747,181.280502 1525.594116,173.497482 
	C1526.018555,172.275986 1526.870483,171.202988 1527.816895,169.792328 
z"/>
<path fill="#FCFCFB" opacity="1.000000" stroke="none" 
	d="
M644.222839,255.206482 
	C639.365479,252.150177 637.432800,246.617889 639.179199,241.188507 
	C640.616089,236.721207 644.423950,236.026688 648.387329,235.981339 
	C652.530457,235.933914 656.695068,235.902069 660.815857,236.259949 
	C665.657532,236.680435 668.105286,239.462036 668.231812,244.493179 
	C668.394714,250.970215 666.963928,254.443787 661.841614,255.134506 
	C656.192322,255.896271 650.363892,255.330551 644.222839,255.206482 
z"/>
<path fill="#F5F5F5" opacity="1.000000" stroke="none" 
	d="
M856.441162,228.876968 
	C858.048584,215.733475 867.888977,210.372849 879.674255,215.809204 
	C884.481628,218.026779 886.471252,222.880844 885.527527,230.614899 
	C876.487183,230.614899 867.391052,230.640793 858.295898,230.557648 
	C857.676758,230.551987 857.065125,229.727249 856.441162,228.876968 
z"/>
</svg>