<svg width="220" height="51" viewBox="0 0 220 51" fill="none" xmlns="http://www.w3.org/2000/svg">
<path d="M6.18526 0.743195C3.54188 1.05175 1.40633 2.66855 0.351583 5.1493L0 5.98856V25.6741V45.3597L0.351583 46.1989C1.25007 48.3341 2.79964 49.7041 5.07843 50.3952L5.98994 50.6667H26.3036C45.6537 50.6667 46.6564 50.6544 47.3986 50.4446C49.7295 49.7534 51.4484 48.2354 52.2687 46.1249L52.6073 45.2363V25.6741V6.11198L52.2687 5.22336C51.4614 3.14989 49.8076 1.65651 47.4637 0.915983C46.7866 0.693826 45.836 0.681484 26.8896 0.669142C15.9645 0.6568 6.65404 0.693826 6.18526 0.743195ZM37.2809 19.7746L37.2418 30.5492L36.9423 31.117C36.2912 32.3758 35.9917 32.5733 32.0852 34.437L28.4522 36.1649V25.6988C28.4522 16.504 28.4782 15.1464 28.6605 14.5663C28.8949 13.8011 29.2986 13.1716 29.8716 12.6533C30.2231 12.3447 36.9032 9.03705 37.2157 9.01236C37.2678 9.01236 37.2939 13.8628 37.2809 19.7746ZM24.129 32.7091L24.09 36.5968L23.7123 37.362C23.1264 38.5839 22.6185 38.9295 18.8292 40.7314C16.9541 41.6077 15.4046 42.3359 15.3655 42.3359C15.3264 42.3359 15.3004 40.139 15.3004 37.4608C15.3004 31.9192 15.3134 31.8205 16.3682 30.6973C16.863 30.1666 17.3578 29.8951 20.509 28.3894L24.09 26.6862L24.129 27.7599C24.1551 28.34 24.1551 30.5739 24.129 32.7091Z" fill="#FE5000"/>
<path d="M134.318 8.77778C129.148 9.2838 125.672 11.0611 124.174 13.9861C123.458 15.3808 123.315 16.1213 123.328 18.5157C123.328 20.3299 123.38 20.836 123.614 21.6629C124.174 23.5759 125.125 24.9212 126.674 25.9702C128.732 27.3526 129.851 27.6734 137.951 29.1915C140.711 29.6975 141.61 29.9691 142.261 30.4751C142.99 31.0305 143.225 31.5242 143.238 32.5239C143.238 34.0049 142.6 35.017 141.376 35.5106C140.034 36.0414 136.753 36.2141 134.865 35.8439C134.318 35.7451 133.576 35.4983 133.211 35.3132C132.365 34.8689 131.87 34.0049 131.753 32.7954L131.674 31.9685H127.442H123.21L123.289 33.5359C123.328 34.4122 123.445 35.4489 123.562 35.8562C124.838 40.3487 129.63 42.7061 137.495 42.7061C145.295 42.7061 150.178 40.2994 151.376 35.8439C151.728 34.548 151.845 32.5362 151.637 31.0305C151.168 27.5007 149.748 25.5876 146.493 24.1189C145.1 23.4895 144.006 23.218 138.81 22.2183C134.279 21.3543 133.511 21.1322 132.755 20.5274C132.065 19.9597 131.844 19.4783 131.844 18.491C131.857 17.2568 132.352 16.4422 133.406 15.9238C134.995 15.1463 139.5 15.0969 141.376 15.8374C142.548 16.3064 143.173 17.2814 143.173 18.6638V19.3796H147.496H151.806L151.728 17.9232C151.572 15.3314 150.946 13.7146 149.488 12.2336C147.587 10.2959 144.618 9.14804 140.516 8.77778C138.875 8.61733 135.92 8.62968 134.318 8.77778Z" fill="#FE5000"/>
<path d="M91.3861 20.2684L91.4251 31.5367L91.7637 32.956C92.5059 36.1156 93.73 38.1274 96.0999 40.0897C98.0922 41.7312 101.465 42.6445 105.606 42.6322C108.666 42.6199 111.478 42.0892 113.367 41.1512C115.919 39.8799 118.106 37.214 119.005 34.2643C119.76 31.7959 119.773 31.6108 119.825 19.8364L119.877 9.01248H115.515H111.14V19.8982C111.14 31.8082 111.14 31.7342 110.372 33.1659C109.59 34.6346 108.223 35.5726 106.452 35.8317C104.069 36.1773 101.712 35.0665 100.723 33.1412C100.058 31.8576 100.071 32.0551 100.071 20.145V9.01248H95.7092H91.334L91.3861 20.2684Z" fill="#FE5000"/>
<path d="M165.765 9.22249C165.726 9.34591 162.601 16.7758 158.838 25.7361C155.074 34.6965 151.962 42.1017 151.936 42.1881C151.884 42.2992 152.848 42.3362 156.494 42.3362H161.129L162.067 40.0529L163.004 37.7696H170.505H178.005L178.956 40.0529L179.906 42.3362H184.542C188.188 42.3362 189.152 42.2992 189.1 42.1757C189.074 42.1017 186.157 35.1655 182.628 26.7852C179.112 18.405 175.987 10.9751 175.7 10.2716L175.193 9.01267H170.518C166.195 9.01267 165.856 9.02501 165.765 9.22249ZM172.966 25.7608C174.268 28.871 175.362 31.5122 175.414 31.6233C175.492 31.8331 175.206 31.8454 170.518 31.8454C165.83 31.8454 165.544 31.8331 165.622 31.6233C166.377 29.7103 170.453 20.1205 170.518 20.1205C170.57 20.1205 171.664 22.663 172.966 25.7608Z" fill="#FE5000"/>
<path d="M191.483 25.6744V42.3362H195.845H200.207V32.9315C200.207 27.7602 200.246 23.5763 200.312 23.6256C200.364 23.675 202.838 27.896 205.82 32.9933L211.25 42.2745L215.625 42.3115L220 42.3362V25.6744V9.01267H215.638H211.276V18.4173C211.276 23.5886 211.237 27.7726 211.185 27.7232C211.119 27.6738 208.645 23.4529 205.663 18.3556L200.233 9.07438L195.858 9.03736L191.483 9.01267V25.6744Z" fill="#FE5000"/>
<path d="M84.3541 10.7159C80.8383 12.4067 80.3304 12.74 79.6794 13.8754L79.3017 14.5049L79.2236 23.1443C79.1585 31.5863 79.1455 31.7961 78.872 32.586C78.5204 33.598 77.8303 34.3756 76.9709 34.7582C76.3068 35.0544 76.2937 35.0544 71.1372 35.0544H65.9546V38.6953V42.3362H71.6581C78.872 42.3362 80.4346 42.1634 82.6873 41.176C84.6406 40.3121 85.8907 39.1396 86.8152 37.3253C87.8179 35.3506 87.7918 35.6468 87.909 21.6016C87.9871 10.9627 87.9741 9.13609 87.8179 9.13609C87.7137 9.14843 86.1511 9.85193 84.3541 10.7159Z" fill="#FE5000"/>
</svg>
