<svg width="100" height="33" viewBox="0 0 100 33" fill="none" xmlns="http://www.w3.org/2000/svg">
<g clip-path="url(#clip0_157_381)">
<path fill-rule="evenodd" clip-rule="evenodd" d="M11.2731 -0.00390625C11.7133 -0.00390625 12.1535 -0.00390625 12.5938 -0.00390625C15.8983 0.0176144 19.2 0.168106 22.4988 0.447567C22.9542 0.485505 23.4091 0.527951 23.8635 0.574906C23.8656 0.603203 23.8677 0.6315 23.8698 0.659798C23.8309 3.62716 23.7911 6.59325 23.7503 9.55807C18.824 9.55807 13.8976 9.55807 8.97135 9.55807C8.97135 10.942 8.97135 12.3261 8.97135 13.7101C13.0591 13.7101 17.1469 13.7101 21.2347 13.7101C21.2347 16.4858 21.2347 19.2615 21.2347 22.0373C17.1469 22.0373 13.0591 22.0373 8.97135 22.0373C8.97864 25.2838 8.98286 28.5302 8.98393 31.7767C8.56232 31.5605 8.15568 31.3097 7.76388 31.0243C5.38586 29.2869 3.54216 26.924 2.23278 23.9358C2.12255 23.6755 2.01564 23.4131 1.91204 23.1486C1.78627 22.8038 1.66049 22.4592 1.53471 22.1144C1.20284 21.1319 0.942904 20.1209 0.754884 19.0815C0.42224 17.2384 0.231476 15.3734 0.182593 13.4863C0.145152 11.5286 0.107419 9.57096 0.0693928 7.61326C0.047315 5.41762 0.0232074 3.22328 -0.00292969 1.03024C-0.00292969 0.878458 -0.00292969 0.726683 -0.00292969 0.574906C3.75087 0.212219 7.50955 0.0192816 11.2731 -0.00390625Z" fill="#78B41C"/>
<path opacity="0.998" fill-rule="evenodd" clip-rule="evenodd" d="M82.1993 2.85922C82.8011 2.83726 83.4005 2.86941 83.9979 2.95569C84.506 3.02127 84.9859 3.19877 85.4381 3.4882C85.8311 3.75445 86.1361 4.12875 86.3531 4.6111C86.5235 5.0038 86.6342 5.42054 86.6864 5.86133C86.7109 6.06357 86.7279 6.2668 86.7367 6.47101C86.7436 7.12307 86.7468 7.77519 86.7462 8.4274C86.7468 9.0796 86.7436 9.73173 86.7367 10.3838C86.7216 10.9022 86.6399 11.4038 86.4915 11.8887C86.2462 12.6349 85.8236 13.1713 85.2242 13.4978C84.9123 13.6676 84.5872 13.7859 84.2495 13.8528C83.7055 13.9563 83.1583 14.0064 82.608 14.0033C82.0012 14.0096 81.3999 13.9466 80.8031 13.8142C80.3484 13.7055 79.929 13.4945 79.5453 13.1814C79.1749 12.8454 78.9039 12.4144 78.7309 11.8887C78.6039 11.4835 78.5259 11.0642 78.4982 10.6307C78.4894 10.51 78.4831 10.3891 78.4794 10.268C78.475 9.04094 78.475 7.81386 78.4794 6.58677C78.4882 6.04281 78.5674 5.51545 78.7184 5.00469C78.9705 4.21386 79.4164 3.65434 80.0547 3.32613C80.4302 3.13508 80.8201 3.0116 81.2245 2.95569C81.549 2.90595 81.8741 2.87379 82.1993 2.85922ZM82.4257 5.406C82.7112 5.40184 82.9961 5.41341 83.281 5.44073C83.5067 5.45264 83.7143 5.53239 83.9036 5.67997C84.0142 5.7828 84.0973 5.9127 84.152 6.0697C84.2136 6.25815 84.2513 6.45365 84.2652 6.65623C84.2752 6.77683 84.2815 6.89773 84.284 7.01895C84.2884 7.95277 84.2884 8.88659 84.284 9.8204C84.2828 10.1119 84.2495 10.3974 84.1834 10.677C84.0859 11.0306 83.8904 11.2531 83.5954 11.3446C83.4608 11.3826 83.3244 11.4083 83.1866 11.4218C82.803 11.4577 82.4194 11.4577 82.0358 11.4218C81.8458 11.407 81.6616 11.3607 81.4823 11.2829C81.2981 11.1752 81.1654 11.0067 81.083 10.7774C81.0226 10.5805 80.9824 10.3773 80.9635 10.1677C80.9515 10.0394 80.9427 9.91085 80.9383 9.78182C80.9339 8.8737 80.9339 7.96566 80.9383 7.05754C80.944 6.74122 80.9861 6.43252 81.0641 6.13144C81.1748 5.77971 81.3811 5.56748 81.6836 5.49475C81.9301 5.44066 82.1773 5.41108 82.4257 5.406Z" fill="black"/>
<path opacity="0.997" fill-rule="evenodd" clip-rule="evenodd" d="M32.2842 2.94434C34.3973 2.94434 36.5103 2.94434 38.6234 2.94434C38.6234 3.74696 38.6234 4.54957 38.6234 5.35219C37.3069 5.35219 35.9904 5.35219 34.674 5.35219C34.674 6.06477 34.674 6.77736 34.674 7.48994C35.8877 7.48994 37.1015 7.48994 38.3152 7.48994C38.3152 8.29256 38.3152 9.09518 38.3152 9.8978C37.1015 9.8978 35.8877 9.8978 34.674 9.8978C34.674 11.2355 34.674 12.5732 34.674 13.9109C33.8773 13.9109 33.0808 13.9109 32.2842 13.9109C32.2842 10.2553 32.2842 6.59986 32.2842 2.94434Z" fill="black"/>
<path opacity="0.997" fill-rule="evenodd" clip-rule="evenodd" d="M40.6924 2.94433C42.2688 2.94304 43.8452 2.94433 45.4216 2.94819C45.8017 2.95714 46.179 3.00088 46.5536 3.07939C47.5888 3.27435 48.1747 4.0088 48.3114 5.28273C48.3607 5.75165 48.3775 6.22241 48.3617 6.69503C48.3584 7.06926 48.3395 7.44227 48.3051 7.81407C48.2627 8.33608 48.0772 8.76185 47.7485 9.09131C47.5079 9.30324 47.2438 9.45759 46.9561 9.55436C46.8643 9.58639 46.7721 9.61595 46.6794 9.64311C46.6794 9.67916 46.6794 9.71512 46.6794 9.75116C46.9973 9.75926 47.2971 9.85318 47.5787 10.0328C47.9885 10.3331 48.218 10.7769 48.2674 11.3641C48.2728 11.4257 48.2769 11.4874 48.28 11.5493C48.2831 12.3365 48.2842 13.1237 48.2831 13.9109C47.4865 13.9109 46.6899 13.9109 45.8933 13.9109C45.8944 13.3552 45.8933 12.7996 45.8902 12.2439C45.887 11.976 45.8346 11.724 45.7329 11.4876C45.6146 11.25 45.4438 11.102 45.2204 11.0438C45.1685 11.0294 45.1161 11.0191 45.0632 11.013C44.4029 11.0017 43.7426 10.9978 43.0822 11.0014C43.0822 11.9713 43.0822 12.941 43.0822 13.9109C42.2856 13.9109 41.489 13.9109 40.6924 13.9109C40.6924 10.2553 40.6924 6.59985 40.6924 2.94433ZM43.0822 5.49882C43.7572 5.49753 44.4322 5.49882 45.1072 5.50268C45.2792 5.51043 45.4427 5.5593 45.5977 5.64931C45.7287 5.7485 45.8114 5.89127 45.8461 6.07763C45.8966 6.33115 45.9165 6.5884 45.9059 6.84938C45.9095 7.15415 45.8958 7.45771 45.865 7.76005C45.8182 8.13651 45.6411 8.35391 45.3336 8.41217C45.2317 8.43432 45.129 8.44713 45.0254 8.45076C44.3777 8.45462 43.7299 8.45593 43.0822 8.45462C43.0822 7.46935 43.0822 6.48409 43.0822 5.49882Z" fill="black"/>
<path opacity="0.998" fill-rule="evenodd" clip-rule="evenodd" d="M50.6226 2.94434C52.7713 2.94434 54.92 2.94434 57.0687 2.94434C57.0687 3.74696 57.0687 4.54957 57.0687 5.35219C55.7166 5.35219 54.3645 5.35219 53.0123 5.35219C53.0123 6.0159 53.0123 6.6796 53.0123 7.34331C54.2827 7.34331 55.5531 7.34331 56.8234 7.34331C56.8234 8.02245 56.8234 8.70159 56.8234 9.38072C55.5531 9.38072 54.2827 9.38072 53.0123 9.38072C53.0123 10.0907 53.0123 10.8007 53.0123 11.5108C54.3938 11.5108 55.7753 11.5108 57.1567 11.5108C57.1567 12.3108 57.1567 13.1108 57.1567 13.9109C54.9787 13.9109 52.8006 13.9109 50.6226 13.9109C50.6226 10.2553 50.6226 6.59986 50.6226 2.94434Z" fill="black"/>
<path opacity="0.999" fill-rule="evenodd" clip-rule="evenodd" d="M59.5278 2.94434C61.6766 2.94434 63.825 2.94434 65.974 2.94434C65.974 3.74696 65.974 4.54957 65.974 5.35219C64.62 5.35219 63.2653 5.35219 61.9113 5.35219C61.9113 6.0159 61.9113 6.6796 61.9113 7.34331C63.1817 7.34331 64.4521 7.34331 65.7224 7.34331C65.7224 8.02245 65.7224 8.70159 65.7224 9.38072C64.4521 9.38072 63.1817 9.38072 61.9113 9.38072C61.9113 10.0907 61.9113 10.8007 61.9113 11.5108C63.293 11.5108 64.674 11.5108 66.0557 11.5108C66.0557 12.3108 66.0557 13.1108 66.0557 13.9109C63.8798 13.9109 61.7038 13.9109 59.5278 13.9109C59.5278 10.2553 59.5278 6.59986 59.5278 2.94434Z" fill="black"/>
<path opacity="0.999" fill-rule="evenodd" clip-rule="evenodd" d="M68.3511 2.94433C69.9466 2.94304 71.5414 2.94433 73.1369 2.94819C73.6193 2.95723 74.0929 3.03955 74.5582 3.19515C74.9664 3.33111 75.3248 3.57292 75.6336 3.92059C75.9632 4.33183 76.1864 4.81931 76.3034 5.38306C76.4128 5.90436 76.4694 6.4343 76.4732 6.97286C76.4776 7.89641 76.4776 8.81989 76.4732 9.74344C76.4688 10.3004 76.4185 10.8509 76.3223 11.395C76.2525 11.7828 76.1374 12.1481 75.9764 12.4909C75.7066 13.0097 75.3368 13.3788 74.8664 13.5983C74.484 13.7657 74.0897 13.8635 73.6841 13.8916C73.5979 13.8982 73.5124 13.9034 73.4262 13.907C71.7345 13.9109 70.0428 13.9122 68.3511 13.9109C68.3511 10.2553 68.3511 6.59985 68.3511 2.94433ZM70.7346 5.49882C71.4911 5.49753 72.2483 5.49882 73.0049 5.50268C73.1759 5.51151 73.3413 5.55267 73.5017 5.62616C73.6476 5.70508 73.7602 5.82985 73.8382 6.00046C73.9092 6.16523 73.9558 6.34016 73.9765 6.52525C74.0004 6.71966 74.013 6.91517 74.0142 7.11178C74.0186 7.93238 74.0186 8.75306 74.0142 9.57366C74.0136 9.87101 73.9784 10.1617 73.9073 10.4457C73.7545 10.998 73.4413 11.3003 72.9671 11.3525C72.2232 11.3638 71.4786 11.3677 70.7346 11.3641C70.7346 9.40904 70.7346 7.45392 70.7346 5.49882Z" fill="black"/>
<path opacity="0.997" fill-rule="evenodd" clip-rule="evenodd" d="M99.9968 2.94434C99.9968 6.59986 99.9968 10.2553 99.9968 13.9109C99.2 13.9109 98.4038 13.9109 97.607 13.9109C97.6857 11.1094 97.7655 8.30792 97.846 5.50654C97.819 5.50654 97.7913 5.50654 97.7643 5.50654C97.0146 8.30344 96.2631 11.0997 95.5097 13.8955C95.1651 13.9057 94.8192 13.9109 94.472 13.9109C94.1249 13.9109 93.779 13.9057 93.4343 13.8955C92.6728 11.0997 91.9124 8.30344 91.1546 5.50654C91.1313 5.50654 91.1087 5.50654 91.0854 5.50654C91.1666 8.30792 91.2458 11.1094 91.3244 13.9109C90.5301 13.9109 89.7352 13.9109 88.9409 13.9109C88.9409 10.2553 88.9409 6.59986 88.9409 2.94434C90.2006 2.94434 91.4609 2.94434 92.7206 2.94434C93.2866 5.239 93.8526 7.53367 94.4186 9.82834C94.4456 9.82834 94.4733 9.82834 94.5003 9.82834C95.0393 7.53367 95.5776 5.239 96.1166 2.94434C97.4102 2.94434 98.7032 2.94434 99.9968 2.94434Z" fill="black"/>
<path opacity="0.999" fill-rule="evenodd" clip-rule="evenodd" d="M23.7501 9.55811C23.7266 10.8776 23.7046 12.1973 23.6841 13.5172C23.6539 15.3495 23.4694 17.158 23.1307 18.9426C22.719 21.0995 22.0461 23.1214 21.1119 25.0085C20.0719 27.0798 18.7418 28.8227 17.1216 30.2371C15.5561 31.5816 13.835 32.5012 11.9584 32.9961C11.9438 32.9961 11.9291 32.9961 11.9144 32.9961C10.9009 32.7215 9.92402 32.3151 8.98377 31.7768C8.9827 28.5302 8.97849 25.2838 8.97119 22.0373C13.059 22.0373 17.1468 22.0373 21.2346 22.0373C21.2346 19.2615 21.2346 16.4859 21.2346 13.7101C17.1468 13.7101 13.059 13.7101 8.97119 13.7101C8.97119 12.3261 8.97119 10.9421 8.97119 9.55811C13.8975 9.55811 18.8238 9.55811 23.7501 9.55811Z" fill="#377A1F"/>
<path opacity="0.994" fill-rule="evenodd" clip-rule="evenodd" d="M34.4792 17.4609C34.741 17.4631 35.002 17.4785 35.2621 17.5072C35.2673 17.8263 35.2663 18.1452 35.259 18.4642C35.1445 18.4411 35.0292 18.427 34.9131 18.4218C34.7178 18.413 34.5229 18.4182 34.3282 18.4372C34.1767 18.4563 34.0384 18.518 33.9132 18.6224C33.7866 18.7617 33.708 18.9354 33.6773 19.1434C33.6552 19.2732 33.6426 19.4044 33.6396 19.5369C33.6364 19.9846 33.6354 20.4322 33.6364 20.8798C34.1794 20.8798 34.7223 20.8798 35.2653 20.8798C35.2653 21.1937 35.2653 21.5075 35.2653 21.8213C34.7223 21.8213 34.1794 21.8213 33.6364 21.8213C33.6364 24.0671 33.6364 26.3129 33.6364 28.5587C33.3157 28.5587 32.995 28.5587 32.6742 28.5587C32.6742 26.3129 32.6742 24.0671 32.6742 21.8213C32.3577 21.8213 32.0411 21.8213 31.7246 21.8213C31.7246 21.5075 31.7246 21.1937 31.7246 20.8798C32.0411 20.8798 32.3577 20.8798 32.6742 20.8798C32.6732 20.4836 32.6742 20.0874 32.6774 19.6913C32.6756 19.3641 32.7091 19.0425 32.778 18.7266C32.9135 18.1462 33.2185 17.7744 33.693 17.6114C33.9511 17.5234 34.2131 17.4732 34.4792 17.4609Z" fill="black"/>
<path opacity="0.994" fill-rule="evenodd" clip-rule="evenodd" d="M36.5356 17.592C36.8543 17.592 37.1729 17.592 37.4916 17.592C37.4916 18.014 37.4916 18.4358 37.4916 18.8577C37.1729 18.8577 36.8543 18.8577 36.5356 18.8577C36.5356 18.4358 36.5356 18.014 36.5356 17.592Z" fill="black"/>
<path opacity="0.996" fill-rule="evenodd" clip-rule="evenodd" d="M42.1009 20.7639C42.4144 20.7522 42.7267 20.7688 43.038 20.8141C43.274 20.8511 43.5025 20.9231 43.7235 21.0301C43.9775 21.1567 44.1777 21.3612 44.3241 21.6437C44.4437 21.9038 44.5233 22.1817 44.563 22.4772C44.5994 22.7299 44.6203 22.9846 44.6259 23.2412C44.6291 25.0137 44.6301 26.7861 44.6291 28.5586C44.3104 28.5586 43.9918 28.5586 43.6732 28.5586C43.6742 26.8813 43.6732 25.204 43.67 23.5267C43.6724 23.2007 43.643 22.8791 43.582 22.5621C43.5108 22.1712 43.3169 21.9281 43.0002 21.8328C42.7255 21.7507 42.4468 21.7134 42.1638 21.7209C41.8278 21.7097 41.5008 21.7702 41.1827 21.9022C40.7249 22.1111 40.443 22.5085 40.3369 23.0946C40.3005 23.2928 40.2795 23.4934 40.274 23.6965C40.2709 25.3172 40.2698 26.9379 40.2709 28.5586C39.9522 28.5586 39.6336 28.5586 39.3149 28.5586C39.3149 26.0041 39.3149 23.4496 39.3149 20.8951C39.6147 20.8951 39.9145 20.8951 40.2143 20.8951C40.2132 21.214 40.2143 21.5331 40.2174 21.8521C40.5241 21.2925 40.9507 20.9567 41.4972 20.8449C41.6981 20.803 41.8993 20.776 42.1009 20.7639Z" fill="black"/>
<path opacity="0.993" fill-rule="evenodd" clip-rule="evenodd" d="M48.5914 20.764C48.9715 20.7542 49.3509 20.7683 49.7297 20.8065C50.0327 20.8377 50.3283 20.9122 50.6165 21.0303C50.9732 21.1903 51.2342 21.4797 51.3994 21.8985C51.5108 22.2007 51.58 22.5171 51.607 22.8478C51.6198 22.9837 51.6282 23.12 51.6321 23.2568C51.6353 25.0241 51.6363 26.7914 51.6353 28.5587C51.3355 28.5587 51.0357 28.5587 50.7359 28.5587C50.7489 28.2475 50.7583 27.9362 50.7642 27.6249C50.6483 27.8899 50.4984 28.1227 50.3146 28.3233C50.1558 28.4767 49.9755 28.5719 49.7737 28.6089C49.4155 28.6787 49.055 28.7109 48.692 28.7053C48.2876 28.7125 47.8873 28.6674 47.4909 28.5703C47.2972 28.5185 47.1127 28.4361 46.9374 28.3233C46.6646 28.1157 46.4728 27.8263 46.362 27.4551C46.2861 27.1927 46.24 26.9226 46.2236 26.6448C46.1994 26.2857 46.2099 25.9281 46.2551 25.572C46.3011 25.2071 46.4185 24.8829 46.6073 24.5996C46.7911 24.3626 47.0123 24.1992 47.2708 24.1096C47.5668 24.007 47.8687 23.9478 48.1764 23.9321C48.5876 23.9115 48.9985 23.9193 49.409 23.9552C49.6229 23.9733 49.8325 24.0196 50.0379 24.0941C50.3236 24.2262 50.5365 24.4589 50.6762 24.7926C50.6813 24.3115 50.6792 23.8304 50.6699 23.3494C50.6625 23.1027 50.6394 22.8583 50.6007 22.6162C50.5709 22.4292 50.5164 22.2542 50.4372 22.0914C50.3711 21.9795 50.2862 21.8959 50.1825 21.8406C49.9722 21.7396 49.7541 21.6779 49.5285 21.6554C49.1452 21.6157 48.7615 21.6106 48.3776 21.64C48.1864 21.6546 47.9998 21.6984 47.8179 21.7712C47.6131 21.8632 47.4842 22.0394 47.4311 22.2998C47.3881 22.531 47.3724 22.765 47.384 23.0021C47.0653 23.0021 46.7467 23.0021 46.428 23.0021C46.4171 22.594 46.4726 22.2004 46.5947 21.8213C46.7598 21.3744 47.0355 21.085 47.4217 20.9531C47.6382 20.8801 47.8583 20.8313 48.082 20.8065C48.2526 20.7877 48.4224 20.7736 48.5914 20.764ZM48.4908 24.8157C48.8669 24.8118 49.2421 24.8311 49.6165 24.8736C49.8256 24.8961 50.0289 24.9502 50.2265 25.0357C50.3649 25.1102 50.4687 25.2298 50.5378 25.3945C50.6012 25.5612 50.641 25.7361 50.6573 25.9193C50.6876 26.1796 50.6856 26.4395 50.651 26.6988C50.5648 27.2806 50.2828 27.6138 49.8052 27.6982C49.6698 27.727 49.5335 27.7476 49.3964 27.7599C49.1462 27.78 48.8957 27.7916 48.6449 27.7947C48.3975 27.7979 48.1532 27.7657 47.9122 27.6982C47.725 27.6458 47.5646 27.5364 47.4311 27.3702C47.3152 27.1828 47.2418 26.9719 47.211 26.7374C47.1685 26.4352 47.1601 26.1316 47.1859 25.8267C47.206 25.5926 47.2752 25.3843 47.3934 25.2016C47.5234 25.0362 47.6817 24.9346 47.8682 24.8968C48.0749 24.8486 48.2824 24.8216 48.4908 24.8157Z" fill="black"/>
<path opacity="0.993" fill-rule="evenodd" clip-rule="evenodd" d="M56.2386 20.764C56.6055 20.748 56.9703 20.775 57.3328 20.845C57.6177 20.9006 57.8818 21.0215 58.1252 21.2078C58.3391 21.3982 58.4911 21.6465 58.5812 21.9525C58.6711 22.257 58.7256 22.5708 58.7447 22.894C58.7551 23.0378 58.7614 23.1819 58.7636 23.3262C58.7667 25.0704 58.7678 26.8145 58.7667 28.5587C58.446 28.5587 58.1252 28.5587 57.8045 28.5587C57.8056 26.8222 57.8045 25.0858 57.8014 23.3494C57.7968 23.0776 57.7674 22.8101 57.7133 22.5468C57.6807 22.392 57.6262 22.2506 57.5498 22.1223C57.4281 21.9723 57.2824 21.8732 57.1127 21.8252C56.8449 21.7492 56.5734 21.7145 56.2983 21.721C55.9634 21.7103 55.6374 21.7707 55.3204 21.9023C54.8824 22.0977 54.6046 22.472 54.4871 23.0252C54.4445 23.2278 54.4193 23.4336 54.4116 23.6426C54.4085 25.2813 54.4074 26.92 54.4085 28.5587C54.0878 28.5587 53.767 28.5587 53.4463 28.5587C53.4463 26.0042 53.4463 23.4497 53.4463 20.8952C53.7461 20.8952 54.0458 20.8952 54.3456 20.8952C54.3445 21.2168 54.3456 21.5383 54.3487 21.8599C54.6343 21.3313 55.0315 21.0008 55.5405 20.8682C55.7719 20.8111 56.0046 20.7764 56.2386 20.764Z" fill="black"/>
<path opacity="0.993" fill-rule="evenodd" clip-rule="evenodd" d="M62.8418 20.7638C63.2166 20.7515 63.5895 20.7733 63.9612 20.8294C64.2235 20.8693 64.4769 20.9491 64.7222 21.0687C65.2083 21.3287 65.5095 21.7776 65.6246 22.4154C65.6787 22.7414 65.6988 23.0707 65.6844 23.4032C65.3806 23.4032 65.0762 23.4032 64.7725 23.4032C64.78 23.1014 64.7492 22.8056 64.6813 22.5157C64.5951 22.1861 64.4159 21.9739 64.1436 21.879C63.9386 21.8028 63.7285 21.7565 63.5147 21.7401C63.2424 21.7149 62.9694 21.7149 62.6971 21.7401C62.4378 21.7611 62.1926 21.8434 61.9613 21.9871C61.7668 22.1258 61.6358 22.3277 61.5683 22.5929C61.4898 22.8971 61.4395 23.2084 61.4173 23.5267C61.3761 24.1278 61.3656 24.7298 61.3859 25.3326C61.3962 25.7656 61.4423 26.1926 61.5243 26.6137C61.5684 26.833 61.6439 27.0337 61.7507 27.2157C61.8821 27.3922 62.0404 27.5196 62.2255 27.5977C62.4238 27.6764 62.6272 27.7227 62.8355 27.7366C63.1914 27.7608 63.5455 27.7401 63.8983 27.6749C64.104 27.6387 64.2951 27.5538 64.4706 27.4202C64.5945 27.3011 64.6825 27.1493 64.7347 26.9648C64.8039 26.7184 64.8448 26.465 64.8574 26.2047C64.863 26.063 64.8687 25.9215 64.8731 25.7802C65.1794 25.7725 65.485 25.7699 65.7913 25.7725C65.7988 26.2219 65.7579 26.6643 65.6686 27.0999C65.602 27.4229 65.4825 27.711 65.3102 27.9643C65.1787 28.1382 65.0247 28.2733 64.8479 28.3694C64.592 28.5014 64.3253 28.5889 64.0493 28.6318C63.4669 28.7254 62.8839 28.7279 62.3009 28.6395C61.9998 28.5902 61.7125 28.4848 61.4394 28.3231C61.1138 28.114 60.8801 27.8014 60.7381 27.3855C60.6171 27.0178 60.5354 26.637 60.4929 26.2433C60.4051 25.3754 60.3925 24.506 60.4551 23.6347C60.484 23.1901 60.5532 22.7554 60.6627 22.3305C60.7544 21.9702 60.9105 21.6602 61.1312 21.4005C61.3086 21.2193 61.5078 21.083 61.7286 20.9915C62.0918 20.8521 62.4629 20.7762 62.8418 20.7638Z" fill="black"/>
<path opacity="0.994" fill-rule="evenodd" clip-rule="evenodd" d="M69.747 20.764C70.1225 20.7469 70.496 20.7765 70.8665 20.8527C71.1803 20.9184 71.4733 21.0496 71.7469 21.2463C72.0519 21.4866 72.2752 21.8121 72.4167 22.2226C72.5292 22.56 72.6047 22.9099 72.6431 23.2721C72.6632 23.4567 72.6783 23.6419 72.6871 23.8278C72.6959 24.2007 72.699 24.5737 72.6965 24.9468C71.2042 24.9468 69.7112 24.9468 68.2188 24.9468C68.2194 25.3547 68.2389 25.7612 68.2786 26.1662C68.305 26.4307 68.3553 26.6879 68.4295 26.938C68.4987 27.1716 68.6194 27.3529 68.7911 27.482C68.9508 27.5902 69.1206 27.6649 69.3005 27.7058C69.5835 27.7653 69.8684 27.7885 70.1558 27.7753C70.4734 27.7758 70.7878 27.7399 71.0991 27.6673C71.223 27.6362 71.3387 27.5797 71.445 27.4975C71.5689 27.3735 71.6494 27.2153 71.6872 27.0228C71.7161 26.8888 71.7331 26.7525 71.7375 26.6138C71.7406 26.4801 71.7419 26.3463 71.7406 26.2125C72.0595 26.2125 72.3777 26.2125 72.6965 26.2125C72.7047 26.5988 72.6638 26.977 72.5739 27.347C72.4412 27.8779 72.1632 28.2419 71.7406 28.439C71.4174 28.5677 71.0866 28.6448 70.747 28.6705C70.3218 28.7118 69.8961 28.7144 69.4703 28.6782C69.1024 28.6487 68.7483 28.5484 68.4075 28.3773C68.0081 28.1629 67.7283 27.8066 67.5679 27.3084C67.4522 26.9424 67.3742 26.5642 67.3352 26.1739C67.2547 25.3627 67.2421 24.5497 67.2975 23.7352C67.3277 23.2842 67.4006 22.8443 67.5176 22.4155C67.6962 21.762 68.0452 21.3053 68.5647 21.0456C68.8037 20.9298 69.0515 20.8526 69.3068 20.8141C69.454 20.7915 69.6011 20.7748 69.747 20.764ZM69.8162 21.6901C70.1036 21.6776 70.3891 21.7046 70.6715 21.7711C70.8979 21.824 71.1017 21.9372 71.2815 22.1107C71.4501 22.3112 71.5639 22.5518 71.6243 22.8322C71.7079 23.2321 71.7469 23.6385 71.7406 24.0516C70.5665 24.0516 69.393 24.0516 68.2188 24.0516C68.2182 23.6823 68.2484 23.3171 68.31 22.9557C68.3553 22.6956 68.4414 22.459 68.5679 22.2457C68.727 22.0282 68.9225 21.8828 69.1559 21.8097C69.3735 21.7405 69.5936 21.7006 69.8162 21.6901Z" fill="black"/>
<path opacity="0.998" fill-rule="evenodd" clip-rule="evenodd" d="M36.5356 20.895C36.8543 20.895 37.1729 20.895 37.4916 20.895C37.4916 23.4495 37.4916 26.004 37.4916 28.5585C37.1729 28.5585 36.8543 28.5585 36.5356 28.5585C36.5356 26.004 36.5356 23.4495 36.5356 20.895Z" fill="black"/>
</g>
<defs>
<clipPath id="clip0_157_381">
<rect width="100" height="33" fill="white"/>
</clipPath>
</defs>
</svg>
