<svg width="140" height="50" viewBox="0 0 140 50" fill="none" xmlns="http://www.w3.org/2000/svg">
<path d="M24.6437 0.16226C23.9844 0.248964 22.6058 0.509077 21.5469 0.734508C16.1923 1.94837 12.1963 3.90789 8.34021 7.25467C3.08552 11.8153 0.328301 17.2083 0.0286033 23.5724C-0.251114 29.2429 1.52709 34.844 5.0835 39.5607C6.16241 41 9.89863 44.2948 11.0175 44.7977C11.6569 45.0924 11.7967 45.1098 11.9566 44.9017C12.5759 44.0173 13.2353 39.8555 13.0554 37.9654C12.8556 35.9885 12.3362 32.8671 12.0365 31.8614C11.8766 31.3238 11.7568 30.4047 11.7568 29.8498C11.7568 27.5261 12.476 22.2025 13.3751 17.9193C13.6349 16.6708 14.2942 15.613 15.5529 14.4165C16.6718 13.3587 16.7717 13.0465 16.6119 10.9656C16.512 9.47431 16.5319 9.35292 17.0314 8.58992C17.9505 7.23733 20.0684 6.05815 21.5868 6.04081C23.445 6.04081 23.6847 8.13906 22.0264 10.22C21.7666 10.5494 21.3671 11.2778 21.1273 11.8327L20.7277 12.8384L21.2272 13.376C21.5069 13.6881 22.1463 14.3124 22.6458 14.798C23.8645 15.9425 24.424 16.7748 25.1432 18.5436C26.362 21.4742 27.2811 22.636 28.9993 23.4164C30.8974 24.3007 35.0332 23.5378 37.6506 21.821C38.0102 21.5782 38.0502 21.3528 38.0502 19.2199C38.0502 17.2257 38.1101 16.7401 38.4898 15.9251C38.9893 14.8153 39.7285 14.0696 40.6476 13.7402C41.3868 13.48 43.4647 13.4107 43.9043 13.6535C44.2839 13.8615 44.4038 15.1448 44.1041 15.8037C43.9642 16.1159 43.5447 16.9135 43.185 17.6072C42.8254 18.3008 42.4657 19.1679 42.4058 19.5667C42.246 20.4164 42.4058 20.4337 44.3438 19.8441C46.0821 19.3239 46.9412 18.6823 48.5196 16.7922C49.4986 15.6303 50.0381 15.1621 50.6575 14.8847C51.9362 14.3644 52.2559 14.4165 52.5156 15.2141C52.9951 16.7922 52.2559 18.0754 49.2789 20.7632C45.8623 23.8499 45.0232 25.3932 45.0431 28.5839C45.0431 31.1677 45.5426 32.8151 47.2209 35.9538C48.2599 37.896 50.3178 40.896 50.5775 40.896C50.9372 40.8786 52.136 39.8728 53.1549 38.6937C56.2918 35.1214 58.07 28.1678 57.3307 22.3586C57.031 20.0176 56.3118 17.1737 55.7323 15.9945C54.0341 12.5957 51.9562 9.73442 49.5786 7.54947C48.3398 6.40497 45.7225 4.48014 45.4028 4.48014C45.2629 4.48014 45.1231 4.41077 45.0831 4.34141C44.9432 4.04661 43.0252 3.0235 41.267 2.31253C38.7895 1.30676 35.9323 0.543759 33.5348 0.231623C31.3769 -0.0458309 26.6217 -0.0805126 24.6437 0.16226Z" fill="#E54432"/>
<path d="M70.4173 3.97725C69.9778 5.41655 69.8579 7.51479 69.9977 11.1911L70.1576 14.5378H71.3963H72.6551L72.735 13.0118C72.8149 11.4338 73.4742 9.6824 73.9937 9.6824C74.1136 9.6824 74.5332 9.94251 74.9128 10.2546C75.5921 10.8269 75.9118 11.3645 76.5911 13.0465C76.8508 13.6881 77.0906 13.9309 77.5701 14.1043C78.4092 14.3991 80.4871 14.6072 80.4871 14.3991C80.4871 14.2257 79.9877 13.3933 78.2095 10.5494C76.2714 7.48011 76.3713 7.6882 76.7509 7.04659C76.9307 6.73445 77.3903 6.14486 77.7499 5.74602C79.0086 4.32407 79.688 3.45703 79.688 3.24894C79.688 2.9368 77.2304 3.12755 76.8308 3.47437C76.651 3.6131 76.0516 4.27205 75.4922 4.931C74.1935 6.43966 73.2944 7.25468 72.9548 7.25468C72.735 7.25468 72.695 6.85584 72.715 5.50325C72.735 3.52639 72.6351 3.3183 71.4363 3.14489L70.717 3.05819L70.4173 3.97725Z" fill="#E54432"/>
<path d="M96.9705 3.24892C95.4121 3.59573 94.4331 4.39341 94.0335 5.62461C93.7338 6.56102 94.3132 7.98297 95.2922 8.71129C96.1313 9.31822 96.9705 9.59567 98.6288 9.78642C99.9275 9.92515 100.527 10.4627 100.427 11.3991C100.367 12.0928 99.6878 12.5263 98.3291 12.717C97.6498 12.8211 97.2902 12.7517 96.3511 12.3529L95.2123 11.8673L94.453 12.6303C94.0135 13.0465 93.6738 13.4453 93.6738 13.4974C93.6738 13.6534 95.452 14.1563 96.7507 14.3644C100.227 14.8846 102.465 14.0696 103.024 12.0407C103.244 11.3124 103.064 9.97717 102.685 9.37024C102.145 8.5032 101.366 8.1217 99.8076 7.96563C96.9505 7.68818 95.7317 6.509 97.1503 5.3645C97.8296 4.80959 98.7887 4.74023 100.127 5.13907L101.306 5.46855L101.886 4.77491C102.205 4.39341 102.465 4.02926 102.465 3.95989C102.465 3.56105 98.0694 2.9888 96.9705 3.24892Z" fill="#E54432"/>
<path d="M105.862 8.81536V14.5378H107.121H108.359L108.439 12.4916C108.459 11.3818 108.539 10.4107 108.579 10.3587C108.619 10.3067 109.298 10.2026 110.098 10.1506C110.897 10.0986 112.056 9.89049 112.675 9.69974C115.152 8.88472 115.752 7.35872 114.613 4.70557C114.313 3.97725 114.113 3.76916 113.594 3.63044C112.675 3.37032 109.638 3.09287 107.62 3.09287H105.862V8.81536ZM111.816 5.55527C112.855 6.00614 113.095 6.47434 112.595 7.15063C112.155 7.72288 109.978 8.24311 108.519 8.13906C108.239 8.12172 108.14 5.32984 108.419 5.10441C108.679 4.86164 110.837 5.15643 111.816 5.55527Z" fill="#E54432"/>
<path d="M118.11 3.21429L117.45 3.28365L117.51 8.86741L117.55 14.4512H118.749H119.948L120.008 8.85007C120.048 3.43972 120.048 3.26631 119.668 3.26631C119.448 3.26631 119.168 3.23163 119.009 3.21429C118.869 3.17961 118.449 3.17961 118.11 3.21429Z" fill="#E54432"/>
<path d="M86.2215 3.82139C85.5822 4.56704 84.9029 5.76356 84.0238 7.6884C83.1646 9.59589 81.4863 13.9831 81.4863 14.33C81.4863 14.5207 81.6861 14.5554 82.4054 14.4513C83.8439 14.2779 84.2635 14.0352 84.4833 13.3068C84.6631 12.7346 84.783 12.6305 85.4224 12.5265C85.802 12.4571 86.8209 12.4571 87.6601 12.5092C88.9788 12.5959 89.2385 12.6652 89.6381 13.0641C89.8779 13.3068 90.0776 13.6537 90.0776 13.8271C90.0776 14.2086 90.3374 14.3126 91.676 14.4687C92.4952 14.5554 92.675 14.538 92.675 14.33C92.675 13.9831 92.0756 12.3878 91.1765 10.3762C90.7769 9.47451 90.1975 7.98319 89.8978 7.08147C89.2385 5.10461 88.6791 4.11618 87.9598 3.63064C87.2205 3.12775 86.781 3.17977 86.2215 3.82139ZM87.9398 8.50342C88.2395 9.3011 88.4793 10.1161 88.4793 10.3242C88.4793 10.7057 88.3993 10.7231 87.0807 10.7231C86.1017 10.7231 85.6821 10.6537 85.6821 10.515C85.6821 10.1855 87.1206 7.08147 87.2805 7.08147C87.3604 7.08147 87.6601 7.72308 87.9398 8.50342Z" fill="#E54432"/>
<path d="M120.947 21.3875C119.848 21.5089 118.889 21.5609 118.809 21.5262C118.709 21.4916 118.649 27.1447 118.649 34.1157V46.7745L119.408 46.9133C119.808 46.9826 122.585 47.0347 125.542 47.052C130.117 47.052 131.136 47 132.235 46.7399C135.892 45.8728 138.169 43.9653 139.028 41.0694C139.148 40.6359 139.348 40.0116 139.448 39.6821C139.987 37.8787 140.167 33.9943 139.828 31.2198C139.248 26.4337 137.53 23.6071 134.393 22.2892C132.275 21.4049 130.337 21.1274 126.441 21.1447C124.523 21.1621 122.045 21.2661 120.947 21.3875ZM129.358 26.0002C131.716 26.2776 132.875 26.9193 133.534 28.2892C134.033 29.347 134.293 32.3816 134.173 35.8671C134.033 39.6821 133.774 40.6185 132.595 41.4856C131.516 42.3006 130.717 42.4567 127.3 42.5781L124.243 42.6821V37.9134C124.243 35.2949 124.303 31.4972 124.383 29.4857L124.503 25.8094H126.161C127.06 25.8094 128.519 25.8961 129.358 26.0002Z" fill="#E54432"/>
<path d="M72.0161 21.4222L70.0381 21.4916L70.158 26.7112C70.2379 29.5898 70.2978 35.3123 70.2978 39.4567V46.9653H72.9951H75.6924L75.7323 41.9712L75.7923 36.9943H77.5905C80.4076 36.9943 80.048 36.5955 84.4835 44.6763L85.7622 46.9653H88.919C90.6573 46.9653 92.0758 46.896 92.0758 46.8093C92.0758 46.7226 90.7372 44.2775 89.0789 41.3642C87.4405 38.451 86.0819 35.9886 86.0819 35.8845C86.0819 35.7805 86.4815 35.5377 86.981 35.3296C88.939 34.5319 90.6173 32.5377 91.1168 30.4221C91.4165 29.1736 91.1168 27.2661 90.4175 25.9135C89.7781 24.717 88.2197 23.243 86.9011 22.6361C84.9031 21.6823 83.2248 21.4396 78.3896 21.3876C75.9721 21.3702 73.095 21.3876 72.0161 21.4222ZM83.5844 26.5378C84.8431 27.11 85.4825 28.0291 85.4825 29.3297C85.4825 30.4742 84.9231 31.3065 83.8441 31.7574C82.8451 32.1736 76.4116 32.4163 76.2718 32.0348C76.2318 31.8961 76.2118 30.5088 76.2518 28.9482L76.3117 26.1043L79.7483 26.243C81.6264 26.3124 83.3646 26.4337 83.5844 26.5378Z" fill="#E54432"/>
<path d="M97.9298 21.4224L95.2925 21.4917L95.4124 34.0118C95.4523 40.8962 95.5322 46.636 95.5922 46.7574C95.6521 46.9308 97.6501 46.9655 105.103 46.9308L114.553 46.8788L114.613 44.7458L114.673 42.6303H112.395C111.136 42.6303 108.08 42.5782 105.582 42.5089L101.067 42.4048L101.107 39.3528L101.167 36.3008L106.941 36.2488L112.715 36.2141L112.595 34.7748C112.515 33.9945 112.455 33.0234 112.455 32.6072V31.8789H108.719C106.641 31.8789 104.084 31.8269 103.025 31.7575L101.067 31.6535V29.3818C101.067 28.1333 101.127 26.8327 101.187 26.4859L101.306 25.8443L105.143 25.7402C107.24 25.6882 110.277 25.5842 111.916 25.5322L114.853 25.4108V23.642C114.853 22.116 114.793 21.8386 114.513 21.7518C113.354 21.3703 107.101 21.249 97.9298 21.4224Z" fill="#E54432"/>
<path d="M27.8803 27.0234C26.6016 27.3702 26.0821 27.7863 25.5426 28.8615C24.7235 30.4915 24.6436 31.3412 24.6436 38.6417C24.6436 46.4451 24.6835 46.7746 25.9822 48.4567C27.0811 49.8613 27.5406 50 31.0371 50C34.2938 49.9827 34.8532 49.8613 36.1319 48.9422C37.2908 48.0925 37.6105 47.1734 37.5905 44.7631C37.5505 42.422 36.8912 36.6822 36.4117 34.6533C36.072 33.2487 35.093 30.5782 34.6335 29.8152C34.4936 29.5551 34.0141 28.9482 33.5745 28.48C32.1759 26.9366 30.118 26.4164 27.8803 27.0234Z" fill="#E54432"/>
<path d="M17.5511 36.4915C17.5511 36.5782 17.4512 37.1504 17.3513 37.7747C16.7519 41.3816 16.692 45.4567 17.2514 46.7399C17.671 47.7284 18.1905 48.2659 18.9497 48.5087C19.4892 48.6648 19.5091 48.6474 19.7689 47.8671C20.1685 46.7053 20.1085 41.6244 19.689 39.5608C19.3093 37.7227 18.8298 36.5608 18.4502 36.5608C18.3104 36.5608 18.0506 36.5088 17.8708 36.4568C17.691 36.4048 17.5511 36.4221 17.5511 36.4915Z" fill="#E54432"/>
<path d="M41.4868 37.8093C41.327 38.2775 41.2471 39.3526 41.2471 40.6359C41.287 42.3006 41.4069 43.0983 41.8465 44.6243C42.4059 46.445 42.4459 46.5317 42.9254 46.4797C43.8245 46.3757 45.0033 45.8034 45.8424 45.0925L46.6616 44.3988L46.4818 43.1156C46.1221 40.4104 44.7036 38.1908 42.8654 37.4278C42.4059 37.237 41.9863 37.081 41.9064 37.081C41.8065 37.081 41.6267 37.4105 41.4868 37.8093Z" fill="#E54432"/>
</svg>
