<svg width="100" height="37" viewBox="0 0 100 37" fill="none" xmlns="http://www.w3.org/2000/svg">
<path d="M17.6027 0.120041C17.1317 0.184202 16.147 0.376686 15.3906 0.543505C11.5659 1.44176 8.71165 2.89181 5.95729 5.36843C2.20394 8.74331 0.2345 12.7341 0.0204309 17.4436C-0.179367 21.6397 1.09078 25.7845 3.63107 29.2749C4.40172 30.34 7.07045 32.7781 7.86965 33.1502C8.32633 33.3684 8.42623 33.3812 8.5404 33.2272C8.98281 32.5728 9.45376 29.493 9.32532 28.0943C9.1826 26.6315 8.81155 24.3217 8.59748 23.5774C8.48331 23.1796 8.39768 22.4995 8.39768 22.0888C8.39768 20.3693 8.91145 16.4298 9.55366 13.2603C9.73919 12.3363 10.2101 11.5536 11.1092 10.6681C11.9084 9.88538 11.9798 9.6544 11.8656 8.11453C11.7943 7.01096 11.8085 6.92113 12.1653 6.35651C12.8218 5.3556 14.3345 4.483 15.4192 4.47017C16.7464 4.47017 16.9176 6.02287 15.7331 7.56274C15.5476 7.80656 15.2622 8.34551 15.0909 8.75614L14.8055 9.50041L15.1623 9.89821C15.3621 10.1292 15.8188 10.5912 16.1755 10.9505C17.0461 11.7974 17.4457 12.4133 17.9595 13.7222C18.83 15.8909 19.4865 16.7506 20.7138 17.3281C22.0696 17.9825 25.0237 17.4179 26.8933 16.1475C27.1502 15.9679 27.1787 15.801 27.1787 14.2227C27.1787 12.747 27.2215 12.3877 27.4927 11.7846C27.8495 10.9633 28.3775 10.4115 29.034 10.1677C29.562 9.9752 31.0462 9.92388 31.3602 10.1035C31.6314 10.2575 31.717 11.2071 31.5029 11.6947C31.403 11.9257 31.1033 12.516 30.8464 13.0293C30.5896 13.5426 30.3327 14.1842 30.2899 14.4793C30.1757 15.1081 30.2899 15.1209 31.6742 14.6846C32.9158 14.2997 33.5294 13.8249 34.6569 12.4262C35.3562 11.5664 35.7415 11.2199 36.1839 11.0146C37.0973 10.6296 37.3256 10.6681 37.5111 11.2584C37.8536 12.4262 37.3256 13.3757 35.1992 15.3647C32.7588 17.6489 32.1594 18.791 32.1737 21.1521C32.1737 23.0641 32.5305 24.2832 33.7292 26.6058C34.4713 28.043 35.9413 30.263 36.1268 30.263C36.3837 30.2501 37.24 29.5059 37.9678 28.6333C40.2084 25.9898 41.4786 20.8441 40.9505 16.5453C40.7364 14.813 40.2227 12.7085 39.8088 11.8359C38.5958 9.32076 37.1115 7.20344 35.4133 5.58658C34.5284 4.73965 32.6589 3.31527 32.4306 3.31527C32.3307 3.31527 32.2308 3.26394 32.2022 3.21261C32.1023 2.99446 30.7323 2.23736 29.4764 1.71124C27.7068 0.966969 25.666 0.402351 23.9534 0.17137C22.4121 -0.0339457 19.0155 -0.0596102 17.6027 0.120041Z" fill="#E54432"/>
<path d="M50.2982 2.94322C49.9843 4.0083 49.8986 5.561 49.9985 8.28143L50.1127 10.7581H50.9975H51.8966L51.9537 9.62882C52.0108 8.46109 52.4817 7.16503 52.8528 7.16503C52.9384 7.16503 53.2381 7.35751 53.5093 7.58849C53.9945 8.01196 54.2228 8.40976 54.7081 9.65448C54.8936 10.1293 55.0648 10.3089 55.4074 10.4373C56.0067 10.6554 57.491 10.8094 57.491 10.6554C57.491 10.5271 57.1342 9.91113 55.864 7.80664C54.4797 5.53533 54.5511 5.68932 54.8222 5.21453C54.9507 4.98355 55.2789 4.54725 55.5358 4.25211C56.4349 3.19987 56.9201 2.55825 56.9201 2.40427C56.9201 2.17329 55.1647 2.31444 54.8793 2.57109C54.7509 2.67374 54.3227 3.16137 53.9231 3.649C52.9955 4.7654 52.3533 5.36852 52.1107 5.36852C51.9537 5.36852 51.9252 5.07337 51.9394 4.07246C51.9537 2.60958 51.8823 2.4556 51.0261 2.32727L50.5123 2.26311L50.2982 2.94322Z" fill="#E54432"/>
<path d="M69.2649 2.40429C68.1518 2.66094 67.4525 3.25122 67.167 4.16231C66.953 4.85525 67.3668 5.90749 68.0661 6.44645C68.6655 6.89557 69.2649 7.10089 70.4494 7.24204C71.3771 7.3447 71.8052 7.7425 71.7339 8.43544C71.691 8.94873 71.2058 9.26954 70.2354 9.41069C69.7501 9.48769 69.4933 9.43636 68.8225 9.14122L68.009 8.78191L67.4667 9.34653C67.1528 9.65451 66.9102 9.94965 66.9102 9.98814C66.9102 10.1036 68.1803 10.4758 69.1079 10.6298C71.5911 11.0147 73.1895 10.4116 73.5891 8.91024C73.7461 8.37128 73.6177 7.3832 73.3465 6.93407C72.9612 6.29246 72.4046 6.01015 71.2914 5.89466C69.2506 5.68934 68.3801 4.81675 69.3934 3.96982C69.8786 3.55919 70.5636 3.50786 71.5198 3.803L72.3618 4.04682L72.7757 3.53353C73.004 3.25122 73.1895 2.98174 73.1895 2.93041C73.1895 2.63527 70.0498 2.21181 69.2649 2.40429Z" fill="#E54432"/>
<path d="M75.6157 6.52342V10.7581H76.5148H77.3996L77.4567 9.24385C77.471 8.42259 77.5281 7.70398 77.5566 7.66549C77.5852 7.62699 78.0704 7.55 78.6412 7.5115C79.2121 7.473 80.0398 7.31902 80.4822 7.17786C82.2519 6.57475 82.68 5.44551 81.8666 3.48218C81.6525 2.94322 81.5098 2.78923 81.1387 2.68658C80.4822 2.49409 78.313 2.28878 76.8716 2.28878H75.6157V6.52342ZM79.8686 4.11096C80.6107 4.44459 80.7819 4.79106 80.4251 5.29152C80.1112 5.71499 78.5556 6.09995 77.5138 6.02296C77.314 6.01013 77.2427 3.94414 77.4424 3.77732C77.628 3.59767 79.1693 3.81581 79.8686 4.11096Z" fill="#E54432"/>
<path d="M84.364 2.37856L83.8931 2.42988L83.9359 6.56187L83.9644 10.6938H84.8207H85.677L85.7198 6.54903C85.7483 2.54537 85.7483 2.41705 85.4772 2.41705C85.3202 2.41705 85.1204 2.39139 85.0062 2.37856C84.9063 2.35289 84.6066 2.35289 84.364 2.37856Z" fill="#E54432"/>
<path d="M61.5869 2.8278C61.1302 3.37959 60.645 4.26501 60.017 5.68939C59.4034 7.10094 58.2046 10.3475 58.2046 10.6041C58.2046 10.7453 58.3473 10.771 58.8611 10.694C59.8886 10.5656 60.1883 10.386 60.3453 9.84704C60.4737 9.42357 60.5594 9.34658 61.016 9.26959C61.2872 9.21826 62.015 9.21826 62.6144 9.25675C63.5563 9.32092 63.7419 9.37224 64.0273 9.66739C64.1985 9.84704 64.3412 10.1037 64.3412 10.232C64.3412 10.5143 64.5268 10.5913 65.483 10.7068C66.0681 10.771 66.1965 10.7581 66.1965 10.6041C66.1965 10.3475 65.7684 9.16693 65.1262 7.67839C64.8407 7.01111 64.4269 5.90754 64.2128 5.24026C63.7419 3.77739 63.3423 3.04595 62.8285 2.68665C62.3005 2.31451 61.9865 2.35301 61.5869 2.8278ZM62.8142 6.29251C63.0283 6.88279 63.1995 7.4859 63.1995 7.63989C63.1995 7.9222 63.1425 7.93503 62.2006 7.93503C61.5013 7.93503 61.2016 7.8837 61.2016 7.78105C61.2016 7.53723 62.2291 5.24026 62.3433 5.24026C62.4004 5.24026 62.6144 5.71506 62.8142 6.29251Z" fill="#E54432"/>
<path d="M86.3902 15.8269C85.6053 15.9167 84.9203 15.9552 84.8632 15.9295C84.7918 15.9039 84.749 20.0872 84.749 25.2458V34.6133L85.2913 34.7159C85.5768 34.7673 87.5605 34.8058 89.6726 34.8186C92.9407 34.8186 93.6686 34.7801 94.4535 34.5876C97.0652 33.946 98.6921 32.5345 99.3057 30.3915C99.3914 30.0707 99.5341 29.6087 99.6054 29.3649C99.9908 28.0303 100.119 25.1559 99.8766 23.1028C99.4627 19.5611 98.2354 17.4694 95.9948 16.4942C94.482 15.8397 93.0977 15.6344 90.3148 15.6472C88.9448 15.6601 87.1751 15.7371 86.3902 15.8269ZM92.3984 19.2403C94.0825 19.4456 94.9102 19.9204 95.3811 20.9341C95.7379 21.7169 95.9235 23.9625 95.8378 26.5418C95.7379 29.3649 95.5524 30.0578 94.7104 30.6995C93.9397 31.3026 93.3689 31.4181 90.9285 31.5079L88.745 31.5849V28.056C88.745 26.1183 88.7878 23.3081 88.8449 21.8195L88.9305 19.0991H90.115C90.7572 19.0991 91.799 19.1633 92.3984 19.2403Z" fill="#E54432"/>
<path d="M51.4397 15.8525L50.0269 15.9038L50.1125 19.7663C50.1696 21.8965 50.2124 26.1311 50.2124 29.198V34.7544H52.139H54.0656L54.0942 31.0587L54.137 27.3759H55.4214C57.4337 27.3759 57.1768 27.0807 60.345 33.0605L61.2584 34.7544H63.5132C64.7548 34.7544 65.7681 34.7031 65.7681 34.6389C65.7681 34.5747 64.8119 32.7654 63.6274 30.6096C62.4572 28.4538 61.4867 26.6316 61.4867 26.5546C61.4867 26.4776 61.7721 26.2979 62.1289 26.144C63.5275 25.5537 64.7263 24.078 65.0831 22.5124C65.2971 21.5885 65.0831 20.177 64.5836 19.1761C64.1269 18.2906 63.0137 17.1999 62.0718 16.7508C60.6447 16.045 59.4459 15.8653 55.9923 15.8268C54.2654 15.814 52.2104 15.8268 51.4397 15.8525ZM59.7028 19.638C60.6019 20.0615 61.0586 20.7416 61.0586 21.704C61.0586 22.5509 60.659 23.1669 59.8883 23.5005C59.1748 23.8085 54.5794 23.9881 54.4795 23.7058C54.451 23.6032 54.4367 22.5766 54.4652 21.4217L54.508 19.3172L56.9627 19.4199C58.3042 19.4712 59.5458 19.561 59.7028 19.638Z" fill="#E54432"/>
<path d="M69.9497 15.8524L68.0659 15.9037L68.1515 25.1686C68.1801 30.263 68.2372 34.5105 68.28 34.6003C68.3228 34.7286 69.7499 34.7543 75.0731 34.7286L81.8234 34.6901L81.8663 33.1117L81.9091 31.5462H80.2821C79.3831 31.5462 77.1995 31.5077 75.4156 31.4564L72.1903 31.3794L72.2189 29.1209L72.2617 26.8624L76.3861 26.8239L80.5105 26.7983L80.4249 25.7332C80.3678 25.1558 80.325 24.4371 80.325 24.1292V23.5902H77.6562C76.172 23.5902 74.3453 23.5517 73.5889 23.5004L72.1903 23.4234V21.7424C72.1903 20.8185 72.2331 19.856 72.276 19.5994L72.3616 19.1246L75.1017 19.0476C76.6002 19.0091 78.7694 18.9321 79.9396 18.8936L82.0375 18.8038V17.4949C82.0375 16.3657 81.9947 16.1604 81.7949 16.0962C80.9672 15.8139 76.5003 15.7241 69.9497 15.8524Z" fill="#E54432"/>
<path d="M19.9145 19.9973C19.0011 20.2539 18.6301 20.5619 18.2447 21.3575C17.6596 22.5637 17.6025 23.1925 17.6025 28.5949C17.6025 34.3694 17.6311 34.6132 18.5587 35.8579C19.3436 36.8973 19.6719 37 22.1694 37C24.4956 36.9872 24.8952 36.8973 25.8085 36.2172C26.6363 35.5885 26.8646 34.9083 26.8503 33.1247C26.8218 31.3923 26.3508 27.1448 26.0083 25.6435C25.7657 24.6041 25.0664 22.6279 24.7382 22.0633C24.6383 21.8708 24.2958 21.4217 23.9818 21.0752C22.9828 19.9331 21.5129 19.5482 19.9145 19.9973Z" fill="#E54432"/>
<path d="M12.5362 27.0036C12.5362 27.0678 12.4648 27.4912 12.3935 27.9532C11.9653 30.6223 11.9225 33.6379 12.3221 34.5875C12.6218 35.3189 12.9928 35.7167 13.5352 35.8963C13.9205 36.0118 13.9348 35.999 14.1203 35.4215C14.4057 34.5618 14.3629 30.8019 14.0632 29.2749C13.792 27.9147 13.4495 27.0549 13.1784 27.0549C13.0785 27.0549 12.8929 27.0164 12.7645 26.9779C12.6361 26.9394 12.5362 26.9523 12.5362 27.0036Z" fill="#E54432"/>
<path d="M29.6332 27.9791C29.519 28.3255 29.4619 29.1211 29.4619 30.0707C29.4905 31.3026 29.5761 31.8929 29.8901 33.0221C30.2896 34.3695 30.3182 34.4337 30.6607 34.3952C31.3029 34.3182 32.1449 33.8947 32.7443 33.3686L33.3294 32.8553L33.201 31.9057C32.9441 29.9039 31.9308 28.2614 30.6179 27.6967C30.2896 27.5556 29.99 27.4401 29.9329 27.4401C29.8615 27.4401 29.7331 27.6839 29.6332 27.9791Z" fill="#E54432"/>
</svg>
