<svg width="100" height="50" viewBox="0 0 100 50" fill="none" xmlns="http://www.w3.org/2000/svg">
<path d="M38.6532 0.0416764C37.1197 0.209977 35.8808 1.09187 35.2689 2.44501L35.0649 2.90279V13.6404V24.3779L35.2689 24.8357C35.7902 26.0004 36.6891 26.7476 38.0111 27.1246L38.5399 27.2727H50.3247C61.5504 27.2727 62.1321 27.266 62.5627 27.1515C63.9149 26.7745 64.9121 25.9465 65.388 24.7953L65.5844 24.3106V13.6404V2.97011L65.388 2.4854C64.9196 1.35442 63.9602 0.539846 62.6005 0.135925C62.2076 0.0147483 61.6562 0.00801629 50.6646 0.00128426C44.3265 -0.00544776 38.9252 0.0147483 38.6532 0.0416764ZM56.693 10.4225L56.6703 16.2995L56.4966 16.6092C56.1189 17.2958 55.9451 17.4036 53.6788 18.4201L51.5711 19.3626V13.6538C51.5711 8.63847 51.5863 7.89795 51.692 7.58154C51.828 7.16416 52.0622 6.82082 52.3946 6.53808C52.5985 6.36978 56.4739 4.5656 56.6552 4.55213C56.6854 4.55213 56.7005 7.19782 56.693 10.4225ZM49.0631 17.4776L49.0404 19.5982L48.8214 20.0156C48.4814 20.6821 48.1868 20.8706 45.9885 21.8534C44.9007 22.3314 44.0017 22.7286 43.979 22.7286C43.9564 22.7286 43.9413 21.5303 43.9413 20.0694C43.9413 17.0468 43.9488 16.9929 44.5607 16.3803C44.8478 16.0908 45.1349 15.9427 46.963 15.1214L49.0404 14.1924L49.0631 14.7781C49.0782 15.0945 49.0782 16.313 49.0631 17.4776Z" fill="#FE5000"/>
<path d="M44.3278 29.2914C40.9235 29.6003 38.6339 30.6851 37.6477 32.4704C37.1761 33.3217 37.0818 33.7736 37.0904 35.2351C37.0904 36.3424 37.1247 36.6513 37.279 37.156C37.6477 38.3237 38.2737 39.1448 39.2942 39.7851C40.6491 40.6288 41.3865 40.8246 46.7203 41.7512C48.5383 42.0601 49.13 42.2258 49.5587 42.5347C50.0389 42.8737 50.1933 43.175 50.2019 43.7852C50.2019 44.6891 49.7817 45.3069 48.9756 45.6082C48.0924 45.9321 45.9314 46.0376 44.688 45.8116C44.3278 45.7513 43.8391 45.6007 43.5989 45.4877C43.0416 45.2165 42.7157 44.6891 42.6385 43.9509L42.5871 43.4462H39.8001H37.0132L37.0646 44.4029C37.0904 44.9377 37.1675 45.5705 37.2447 45.8191C38.0851 48.5612 41.2408 50 46.4202 50C51.5567 50 54.7725 48.531 55.5614 45.8116C55.7929 45.0206 55.8701 43.7927 55.7329 42.8737C55.4242 40.7192 54.4895 39.5516 52.3457 38.6551C51.4281 38.2709 50.7078 38.1052 47.2863 37.495C44.3021 36.9677 43.7962 36.8321 43.2988 36.463C42.8443 36.1164 42.6986 35.8227 42.6986 35.22C42.7071 34.4667 43.033 33.9695 43.7276 33.6531C44.7738 33.1785 47.7408 33.1484 48.9756 33.6004C49.7474 33.8866 50.159 34.4818 50.159 35.3255V35.7624H53.006H55.8444L55.7929 34.8735C55.69 33.2915 55.2784 32.3047 54.318 31.4007C53.066 30.218 51.1108 29.5174 48.4096 29.2914C47.3292 29.1935 45.3826 29.201 44.3278 29.2914Z" fill="#FE5000"/>
<path d="M16.2678 36.1777L16.2935 43.1422L16.5169 44.0194C17.0066 45.9722 17.8141 47.2156 19.3777 48.4285C20.6921 49.4431 22.9171 50.0076 25.649 49.9999C27.6678 49.9923 29.5235 49.6643 30.7691 49.0845C32.4529 48.2988 33.8962 46.6512 34.489 44.828C34.9873 43.3024 34.9958 43.188 35.0302 35.9107L35.0646 29.2208H32.1866H29.3001V35.9488C29.3001 43.31 29.3001 43.2642 28.7932 44.1491C28.2778 45.0569 27.3757 45.6366 26.2074 45.7968C24.6353 46.0104 23.0803 45.3239 22.4274 44.1339C21.9893 43.3405 21.9979 43.4626 21.9979 36.1014V29.2208H19.1199H16.2334L16.2678 36.1777Z" fill="#FE5000"/>
<path d="M64.7844 29.3516C64.7591 29.4286 62.7389 34.0616 60.3063 39.6489C57.8736 45.2362 55.8619 49.8538 55.845 49.9076C55.8114 49.9769 56.4342 50 58.7911 50H61.7878L62.3938 48.5762L62.9999 47.1525H67.8483H72.6968L73.3113 48.5762L73.9257 50H76.9223C79.2792 50 79.9021 49.9769 79.8684 49.9C79.8516 49.8538 77.9661 45.5286 75.685 40.303C73.4123 35.0774 71.3921 30.4444 71.2069 30.0058L70.8786 29.2208H67.8567C65.0621 29.2208 64.8433 29.2285 64.7844 29.3516ZM69.4392 39.6643C70.281 41.6037 70.988 43.2506 71.0217 43.3199C71.0722 43.4507 70.887 43.4584 67.8567 43.4584C64.8265 43.4584 64.6413 43.4507 64.6918 43.3199C65.18 42.127 67.8147 36.1472 67.8567 36.1472C67.8904 36.1472 68.5975 37.7326 69.4392 39.6643Z" fill="#FE5000"/>
<path d="M81.1685 39.6104V50H84.049H86.9296V44.1356C86.9296 40.911 86.9554 38.3021 86.9984 38.3329C87.0328 38.3636 88.6665 40.9957 90.6356 44.1741L94.2213 49.9615L97.1105 49.9846L99.9996 50V39.6104V29.2208H97.1191H94.2385V35.0851C94.2385 38.3098 94.2127 40.9187 94.1783 40.8879C94.1353 40.8571 92.5016 38.2251 90.5324 35.0467L86.9468 29.2593L84.0576 29.2362L81.1685 29.2208V39.6104Z" fill="#FE5000"/>
<path d="M11.9471 30.2095C9.66423 31.2678 9.33448 31.4764 8.91172 32.187L8.66652 32.581L8.61579 37.9882C8.57351 43.2719 8.56506 43.4032 8.3875 43.8976C8.15921 44.531 7.71109 45.0176 7.15305 45.2571C6.72184 45.4425 6.71338 45.4425 3.36515 45.4425H0V47.7212V50H3.70335C8.3875 50 9.40212 49.8919 10.8649 49.2739C12.1331 48.7332 12.9448 47.9993 13.5451 46.8638C14.1962 45.6279 14.1793 45.8133 14.2554 37.0226C14.3061 30.364 14.2976 29.2208 14.1962 29.2208C14.1285 29.2285 13.1139 29.6688 11.9471 30.2095Z" fill="#FE5000"/>
</svg>
