<svg width="100" height="40" viewBox="0 0 100 40" fill="none" xmlns="http://www.w3.org/2000/svg">
<path d="M32.4317 0.099079C26.4415 0.867843 21.8098 5.11305 21.0944 10.4944C20.9644 11.44 21.0366 13.2429 21.2317 14.1069C21.5135 15.3655 22.0338 16.6377 22.6769 17.6718L22.9804 18.1616H26.1525H29.3318L28.7466 17.6378C27.0702 16.1275 26.2248 14.2838 26.2248 12.1408C26.2248 10.0046 27.0629 8.16089 28.7249 6.67099C29.7798 5.71854 30.8782 5.14707 32.3595 4.77969C32.9592 4.63002 33.2049 4.60281 34.2093 4.60281C35.7339 4.60281 36.6154 4.7865 37.8583 5.37157C40.5969 6.67099 42.266 9.2358 42.266 12.1408C42.266 14.2566 41.435 16.1002 39.8165 17.5629L39.1661 18.1616H42.3383H45.5104L45.7705 17.7602C46.4136 16.7602 46.97 15.4131 47.2663 14.1273C47.4108 13.5218 47.4325 13.2361 47.4325 11.9027C47.4325 10.6849 47.4036 10.2427 47.3024 9.75965C46.3052 5.14026 42.5334 1.51415 37.5331 0.364405C35.9723 0.003834 33.9708 -0.0982143 32.4317 0.099079Z" fill="#C70F2D"/>
<path d="M1.07861 9.4535V18.1616H3.39087H5.70312V14.8961V11.6305H9.46053H13.2179V14.8961V18.1616H15.4941H17.7702V9.4535V0.745382H15.4941H13.2179V4.24904V7.7527H9.46053H5.70312V4.24904V0.745382H3.39087H1.07861V9.4535Z" fill="#C70F2D"/>
<path d="M50.7202 9.4535V18.1616H52.9963H55.2725L55.2869 13.794L55.3086 9.42629L57.3679 12.4333L59.4273 15.4403H60.6918H61.9563L63.9723 12.5149C65.0851 10.9026 66.0172 9.56916 66.0533 9.54875C66.0822 9.52834 66.1112 11.4605 66.1112 13.8348V18.1616H68.3873H70.6634V9.4535V0.745382H68.9581H67.2601L64.0012 5.37157C62.2092 7.91597 60.7207 9.99776 60.699 9.99776C60.6774 9.99776 59.1961 7.91597 57.4041 5.37157L54.1525 0.752186H52.44L50.7202 0.745382V9.4535Z" fill="#C70F2D"/>
<path d="M74.4932 9.4535V18.1616H81.5022H88.5112V16.2907V14.4199H83.8144H79.1177V12.8891V11.3584H83.2364H87.3551V9.52153V7.68466H83.2364H79.1177V6.08591V4.48715H83.8144H88.5112V2.61627V0.745382H81.5022H74.4932V9.4535Z" fill="#C70F2D"/>
<path d="M29.9102 13.8483C29.9102 13.8755 30.0258 14.1137 30.1558 14.379C31.1024 16.2022 33.2846 17.1683 35.344 16.6717C36.0087 16.5084 36.4495 16.3043 37.042 15.8893C37.6562 15.4539 38.3354 14.5763 38.5377 13.9572L38.5883 13.8075H34.2529C31.8611 13.8075 29.9102 13.8279 29.9102 13.8483Z" fill="#C70F2D"/>
<path d="M8.81052 21.9442C5.37827 22.332 2.78421 23.8423 1.24512 26.3595C-0.0482962 28.4685 -0.366231 31.4211 0.443057 33.8022C0.934411 35.2649 1.59196 36.2786 2.73363 37.3535C3.60073 38.1698 4.48227 38.7481 5.51556 39.1767C8.69491 40.4829 12.5824 40.2176 15.2776 38.5032C16.4265 37.7753 17.4742 36.6459 18.0884 35.4826C18.3919 34.8975 18.8544 33.7069 18.8544 33.496C18.8544 33.4144 18.4714 33.4008 16.441 33.4008H14.0203L13.7602 33.8634C12.9364 35.3465 11.1156 36.1493 9.11401 35.9248C7.96511 35.7887 7.05466 35.4009 6.26704 34.7002C5.12537 33.6933 4.5184 32.1354 4.65569 30.557C4.82911 28.4549 6.0575 26.8765 8.00846 26.237C8.81775 25.9649 10.075 25.9036 10.9349 26.0873C12.1272 26.3322 13.2399 27.1078 13.7819 28.0739L14.0203 28.5025H16.441C17.9801 28.5025 18.8544 28.4753 18.8544 28.4344C18.8544 28.4004 18.7532 28.0671 18.6304 27.7065C17.6188 24.7199 15.1114 22.6857 11.7008 22.0802C11.1011 21.9714 9.31633 21.8897 8.81052 21.9442Z" fill="#C70F2D"/>
<path d="M21.5278 30.9447V39.6597H23.804H26.0801V37.1425V34.6253L27.8649 34.6389L29.6496 34.6593L31.3838 37.1561L33.1252 39.6597H35.7771C37.2439 39.6597 38.4362 39.6461 38.4362 39.6257C38.4362 39.6052 37.4752 38.2446 36.3046 36.605C35.134 34.9586 34.173 33.6048 34.173 33.5912C34.173 33.5708 34.3319 33.4619 34.5343 33.3395C35.7482 32.5979 36.6659 31.3733 37.0705 29.9311C37.3017 29.1147 37.309 27.7064 37.0777 26.856C36.8032 25.8083 36.3841 25.0872 35.6253 24.3252C34.686 23.3932 33.4721 22.8081 31.7017 22.4339C31.0659 22.2979 30.7841 22.2842 26.2824 22.2638L21.5278 22.2366V30.9447ZM30.271 26.1213C30.9358 26.2233 31.7017 26.5907 32.1064 27.0057C32.5327 27.4547 32.6845 27.8901 32.6411 28.5296C32.5688 29.6181 31.7596 30.3665 30.365 30.6454C30.0109 30.7202 29.3534 30.7475 27.9805 30.7475H26.0801V28.4003V26.0532H27.9443C28.9632 26.0532 30.0109 26.0872 30.271 26.1213Z" fill="#C70F2D"/>
<path d="M40.7485 30.9515V39.6597H47.7576H54.7666V37.7888V35.9179H50.0698H45.373V34.3872V32.8564H49.4917H53.6104V31.0196V29.1827H49.4917H45.373V27.584V25.9852H50.0698H54.7666V24.1143V22.2434H47.7576H40.7485V30.9515Z" fill="#C70F2D"/>
<path d="M57.8018 30.9584V39.6665L62.3757 39.6393C66.7906 39.6189 66.9641 39.6121 67.665 39.4624C69.7099 39.0338 71.2995 38.2718 72.5496 37.1289C74.3271 35.5097 75.2376 33.4075 75.2376 30.9176C75.2376 29.8359 75.1003 29.0195 74.7824 28.101C73.6624 24.8627 70.5986 22.7129 66.5305 22.3115C66.162 22.2775 64.0448 22.2435 61.8337 22.2435H57.8018V30.9584ZM66.0175 26.1961C67.2748 26.3594 68.337 26.8492 69.1896 27.652C70.6564 29.0535 71.0105 31.2101 70.0856 33.0266C69.5653 34.047 68.8355 34.7274 67.7372 35.2376C66.7473 35.7002 66.5233 35.7342 64.3628 35.7683L62.4263 35.7955V30.9584V26.1213H63.9365C64.7674 26.1213 65.7068 26.1553 66.0175 26.1961Z" fill="#C70F2D"/>
<path d="M77.8169 30.9515V39.6597H80.093H82.3691V30.9515V22.2434H80.093H77.8169V30.9515Z" fill="#C70F2D"/>
<path d="M84.8257 24.1823V26.1213H87.4631H90.1005V32.8905V39.6597H92.4128H94.725V32.8905V26.1213H97.3624H99.9998V24.1823V22.2434H92.4128H84.8257V24.1823Z" fill="#C70F2D"/>
</svg>
