<svg width="100" height="50" viewBox="0 0 100 50" fill="none" xmlns="http://www.w3.org/2000/svg">
<path d="M47.7191 0.0108504C42.0782 0.191772 37.932 0.864574 34.7989 2.0971C32.3912 3.04694 30.6152 4.39255 29.7271 5.94169C28.8266 7.5191 28.7328 8.7177 29.2769 11.6238C31.0029 20.8564 38.1196 30.7788 46.3495 35.4376C47.2813 35.969 47.4314 36.0312 48.1318 36.1952C49.8203 36.5796 51.8653 36.4157 53.066 35.7881C56.1991 34.1542 59.6824 31.299 62.4028 28.1385C66.3614 23.542 69.2756 18.0408 70.5139 12.8393C70.9016 11.2054 71.0642 10.0294 71.0705 8.85339C71.0705 7.8866 71.0579 7.76221 70.9016 7.24206C70.7015 6.58057 70.1199 5.47242 69.7071 4.98054C67.312 2.11972 62.384 0.525346 54.5982 0.0900036C53.5413 0.0278118 48.7822 -0.0230724 47.7191 0.0108504ZM57.3936 9.02301C59.1634 9.42443 60.6205 9.758 60.633 9.758C60.6518 9.758 63.0344 12.3135 63.4222 12.7545C63.9225 13.3199 64.0725 13.8231 63.8912 14.315C63.7599 14.6712 63.3971 15.1008 62.5279 15.9489C62.1401 16.3221 59.1509 19.2225 55.8864 22.3886L49.9454 28.1498L49.6265 27.8445C47.4877 25.8035 37.094 15.638 36.8439 15.3327C36.3498 14.7447 36.1247 14.2867 36.0997 13.7948C36.0809 13.4782 36.0997 13.3369 36.1997 13.1446C36.2685 13.0089 36.9689 12.1948 37.7632 11.3411L39.2078 9.78627L42.4159 9.03997L45.6241 8.29367H49.9016L54.1792 8.28801L57.3936 9.02301Z" fill="#DC1567"/>
<path d="M39.6767 10.7587C39.7893 10.9736 39.9019 11.1941 39.9269 11.2563C39.9581 11.3637 39.6892 11.8499 38.7262 13.3764L38.5698 13.6309L38.8137 13.433C38.945 13.3256 39.4704 12.8732 39.9707 12.4323L40.8837 11.6238H41.1901C41.359 11.6238 41.9468 11.6633 42.4972 11.7086C43.948 11.8273 43.9855 11.8103 42.8411 11.539C41.5716 11.2393 40.7274 10.9623 40.0394 10.6343C39.7455 10.493 39.5016 10.3799 39.4891 10.3799C39.4766 10.3799 39.5579 10.5495 39.6767 10.7587Z" fill="#DC1567"/>
<path d="M59.6947 10.6965C58.988 11.0301 57.9311 11.375 56.8179 11.6181C56.4052 11.7142 56.1113 11.7877 56.1613 11.7934C56.2113 11.7934 56.8054 11.7538 57.4746 11.7029C58.6565 11.6124 58.7003 11.6124 58.9567 11.7142C59.1193 11.7821 59.6259 12.1722 60.2637 12.7262C60.8391 13.2238 61.2706 13.563 61.2268 13.4895C61.183 13.4104 60.8829 12.9241 60.5577 12.4096C60.2387 11.8895 59.9761 11.4146 59.9761 11.3467C59.9761 11.2789 60.0761 11.0471 60.195 10.8322C60.3138 10.6174 60.4138 10.4251 60.4138 10.4082C60.4138 10.3573 60.3325 10.3912 59.6947 10.6965Z" fill="#DC1567"/>
<path d="M47.5499 12.517C48.4629 12.7714 48.9632 12.9353 49.057 13.0202C49.1758 13.1219 49.2696 13.4272 49.5636 14.6484C49.7637 15.4739 49.9388 16.141 49.945 16.1297C49.9575 16.1184 50.0764 15.6435 50.2139 15.0668C50.5829 13.5064 50.7205 13.2237 51.2333 12.9127C51.4709 12.7657 52.5528 12.4208 53.3283 12.2456C53.5097 12.2003 53.6472 12.1608 53.6347 12.1495C53.6222 12.1382 53.2095 12.1721 52.7154 12.2286C51.4772 12.3643 48.3691 12.3643 47.1684 12.2286C46.7056 12.1777 46.2991 12.1325 46.2616 12.1382C46.2178 12.1382 46.7994 12.3078 47.5499 12.517Z" fill="#DC1567"/>
<path d="M43.9665 14.4564C43.6413 15.0501 43.3161 15.5815 43.2473 15.6381C43.0034 15.8473 42.5156 15.9943 41.9966 16.0225C41.5713 16.0452 41.3024 16.0112 40.2893 15.8077C39.6264 15.6777 39.0698 15.5815 39.0511 15.5928C39.0386 15.6098 39.4138 15.8586 39.8891 16.1469C41.365 17.0572 41.909 17.4416 42.672 18.1201C44.3918 19.641 45.5862 21.0714 47.2872 23.6608C48.0502 24.8142 48.2566 25.1252 48.194 24.9951C48.1815 24.9612 47.4748 23.5138 46.6243 21.7725C45.7301 19.9406 45.0672 18.5102 45.0484 18.3802C45.0171 18.0749 45.1297 17.8939 45.4674 17.7413C45.8239 17.583 46.3117 17.5773 47.5874 17.7356C48.1127 17.7978 48.5755 17.8374 48.613 17.8261C48.6505 17.8148 47.9501 17.5886 47.0558 17.3116C44.9483 16.6727 44.9421 16.6671 44.7482 16.5314C44.6607 16.4692 44.5356 16.3222 44.4668 16.1978C44.2604 15.836 44.2542 15.4232 44.4293 14.366C44.5168 13.8402 44.5794 13.4048 44.5731 13.3935C44.5606 13.3879 44.2917 13.8628 43.9665 14.4564Z" fill="#DC1567"/>
<path d="M55.661 13.5856C55.661 13.6478 55.7173 14.0266 55.7861 14.428C55.9362 15.3043 55.9424 15.6379 55.8174 16.0224C55.6548 16.503 55.4672 16.6047 53.7161 17.1418C51.1396 17.9277 51.1771 17.9051 52.628 17.7298C54.1852 17.5376 54.7292 17.5885 55.0357 17.9447C55.2608 18.2047 55.2045 18.4366 54.6042 19.6691C53.0282 22.8917 52.0839 24.8367 52.0526 24.9102C52.0089 25.0345 52.1965 24.7632 52.9094 23.6663C54.3165 21.5122 55.6923 19.8161 57.1181 18.4818C58.0249 17.6394 58.5127 17.2775 60.0261 16.3333C60.6515 15.9432 61.1518 15.6097 61.1393 15.5983C61.1268 15.5814 60.589 15.6775 59.9448 15.8019C58.6878 16.0506 58.1312 16.0902 57.6372 15.9545C57.0243 15.7849 56.9305 15.6888 56.2927 14.558C55.9675 13.987 55.6986 13.5064 55.686 13.4951C55.6735 13.4838 55.661 13.5234 55.661 13.5856Z" fill="#DC1567"/>
<path d="M41.4462 39.5818C41.1085 39.661 40.7458 39.9324 40.6145 40.2151C40.5082 40.4356 40.5019 40.8426 40.5957 41.0631C40.7583 41.4589 41.2774 41.7585 41.7965 41.7585C42.6219 41.7585 43.2223 41.0971 43.0284 40.4073C42.8471 39.7571 42.1779 39.4122 41.4462 39.5818Z" fill="#304081"/>
<path d="M0.597173 39.7062C0.353278 39.7401 0.253219 39.8193 0.253219 39.9719C0.253219 40.1472 0.37204 40.232 0.628442 40.232C0.747263 40.232 0.966143 40.2829 1.11623 40.3451C1.61653 40.5486 1.59777 40.379 1.59777 44.5289C1.59777 48.4696 1.57901 48.6845 1.27883 48.9445C1.17252 49.035 0.966143 49.1028 0.615935 49.165C0.0718612 49.2611 -0.0844817 49.3629 0.0405926 49.5438C0.0781149 49.5947 0.190682 49.6626 0.290741 49.6965C0.791039 49.8435 8.45184 49.7756 8.65821 49.6173C8.77703 49.5325 8.83957 49.3346 9.07721 48.317C9.25232 47.5707 9.25232 47.548 9.13975 47.4124C9.00842 47.2484 8.7958 47.2032 8.65821 47.3049C8.60818 47.3445 8.4581 47.582 8.32051 47.8307C8.00157 48.4413 7.67638 48.7636 7.18234 48.9728C6.80711 49.1255 6.73832 49.1368 5.75649 49.1537C4.61206 49.1763 4.31813 49.1255 4.11802 48.8767C3.92415 48.6392 3.86161 47.9382 3.91164 46.5134L3.95542 45.2413L4.13678 45.0773L4.32439 44.9134L5.30622 44.936C6.06918 44.9529 6.33183 44.9756 6.48192 45.0491C6.69455 45.1508 6.83838 45.4109 6.91343 45.8123C6.96971 46.1233 7.13856 46.2646 7.36995 46.1911L7.5388 46.1402L7.55756 44.5628C7.57007 43.449 7.55131 42.9628 7.50128 42.9119C7.40122 42.7988 7.08853 42.8102 7.01974 42.9289C6.98847 42.9854 6.92593 43.172 6.88216 43.3416C6.70705 44.0257 6.607 44.0766 5.35625 44.1218C4.39318 44.1501 4.15554 44.0992 4.0117 43.8165C3.92415 43.6413 3.9179 40.4695 4.00545 40.3451C4.05548 40.2773 4.24309 40.2603 5.04982 40.2603C5.93159 40.2603 6.08794 40.2773 6.50694 40.396C7.10104 40.5769 7.41998 40.8483 7.63886 41.3684C7.83272 41.8207 8.02659 41.9451 8.28924 41.7925L8.46435 41.6907L8.42057 40.9444C8.36429 40.0002 8.32677 39.7967 8.20169 39.7401C8.09538 39.6949 0.916113 39.661 0.597173 39.7062Z" fill="#304081"/>
<path d="M65.2666 39.7174C64.9414 39.7627 64.7851 39.887 64.8351 40.0623C64.8664 40.1754 64.9227 40.198 65.3229 40.2602C65.7482 40.3224 65.9608 40.4468 66.0859 40.7012C66.1922 40.9217 66.1984 41.1818 66.2172 44.0652C66.236 47.1918 66.1859 48.4639 66.0296 48.7522C65.9045 48.984 65.6606 49.1084 65.1916 49.1819C64.9539 49.2215 64.7226 49.2724 64.685 49.295C64.5475 49.3741 64.5975 49.555 64.7726 49.6568C64.9289 49.7473 65.1791 49.7586 67.543 49.7755C70.8512 49.7982 71.5203 49.736 72.5272 49.3006C73.6529 48.8144 74.297 47.9381 74.297 46.8864C74.297 45.6652 73.6341 44.902 72.2083 44.4666C71.6267 44.2914 71.5454 44.1839 71.8956 44.0482C72.2145 43.9295 72.8649 43.4998 73.1088 43.2511C73.4715 42.8779 73.6278 42.4821 73.6278 41.962C73.6278 41.7076 73.5966 41.4023 73.5591 41.2779C73.3902 40.7238 72.8586 40.2376 72.1707 40.0001C71.4015 39.7344 71.1076 39.7118 68.2622 39.6948C66.7863 39.6835 65.4355 39.6948 65.2666 39.7174ZM70.0257 40.3959C70.526 40.5712 70.8262 40.8143 71.0513 41.2213C71.2389 41.5719 71.2577 41.6454 71.2577 42.1486C71.2577 42.8157 71.1264 43.2058 70.7824 43.545C70.4572 43.8617 70.0132 44.0313 69.4066 44.0652C68.9376 44.0878 68.9188 44.0878 68.7312 43.9182L68.5436 43.7486V42.0807C68.5436 40.8199 68.5623 40.4015 68.6249 40.3563C68.8125 40.215 69.5754 40.2376 70.0257 40.3959ZM70.1008 44.9189C70.8324 45.1225 71.3577 45.5126 71.6329 46.0497C71.7455 46.2702 71.7642 46.4115 71.7642 47.0165C71.7642 47.661 71.7517 47.7515 71.6016 48.0398C71.364 48.4865 71.0513 48.7805 70.5948 48.9727C70.2508 49.114 70.1258 49.1367 69.6255 49.1367C69.1439 49.1367 69.0251 49.1197 68.875 49.0179C68.5248 48.7805 68.5123 48.7183 68.5123 46.9599C68.5123 46.0723 68.5311 45.2751 68.5623 45.1903C68.6749 44.8285 69.3441 44.7041 70.1008 44.9189Z" fill="#304081"/>
<path d="M93.34 39.7853C93.0335 39.8475 92.4582 39.9493 92.0642 40.0058C91.6702 40.068 91.3138 40.1471 91.2637 40.1811C91.0449 40.3507 91.2575 40.5825 91.6953 40.6503C91.8391 40.6729 91.9767 40.7464 92.058 40.8369C92.183 40.9782 92.183 41.0404 92.183 45.3147C92.183 47.695 92.2081 49.6794 92.2331 49.719C92.2768 49.7699 92.527 49.7869 93.2837 49.7756L94.278 49.7586L94.3093 48.3056C94.3343 47.0843 94.3593 46.8356 94.4406 46.7621C94.4969 46.7112 94.5845 46.6886 94.647 46.7112C94.7033 46.7282 95.2036 47.3218 95.7602 48.0285C96.3167 48.7296 96.8421 49.3798 96.9296 49.4703C97.2173 49.7586 97.3861 49.7869 98.6744 49.7869C99.9189 49.7869 100 49.7699 100 49.5211C100 49.3854 99.8814 49.3176 99.5562 49.2554C99.1309 49.1763 98.5806 48.6335 97.0234 46.7734C96.4981 46.1515 96.1854 45.7218 96.1854 45.637C96.1854 45.4391 96.4543 45.1451 97.3611 44.3423C97.9177 43.856 98.2742 43.579 98.493 43.4942C98.887 43.3246 98.9996 43.2398 98.9996 43.1097C98.9996 42.8723 98.787 42.8327 97.605 42.8327C96.9546 42.8327 96.4418 42.8553 96.3668 42.8892C96.2917 42.9288 96.248 43.008 96.248 43.1154C96.248 43.2567 96.2855 43.2963 96.4668 43.3641C96.7357 43.4659 96.7983 43.596 96.6732 43.7938C96.4856 44.0878 94.9159 45.8914 94.7721 45.9762C94.6658 46.044 94.6032 46.0497 94.5032 45.9988C94.3718 45.9366 94.3718 45.914 94.3718 42.8892C94.3718 41.2157 94.3531 39.8079 94.3343 39.757C94.2843 39.6383 94.0592 39.6496 93.34 39.7853Z" fill="#304081"/>
<path d="M27.8823 42.7478C27.4196 42.8553 26.8692 43.104 26.5378 43.3641C26.1813 43.6411 25.8937 44.1782 25.8937 44.5514C25.8937 44.8963 26 45.0546 26.3314 45.2072C26.8067 45.4277 27.2257 45.3034 27.332 44.9076C27.6197 43.8616 27.701 43.6977 28.0699 43.4715C28.1888 43.4037 28.4014 43.3302 28.5515 43.3132C29.3582 43.2001 29.796 43.6581 29.8022 44.6192C29.8022 45.0037 29.7835 45.1055 29.6772 45.2072C29.5083 45.3769 29.0268 45.5917 27.8948 45.9988C26.6378 46.4511 26.4065 46.5642 26.1063 46.8582C25.7373 47.22 25.6185 47.5366 25.656 48.0737C25.6935 48.5939 25.8311 48.8822 26.2501 49.2836C26.6253 49.6455 27.0694 49.8377 27.6259 49.8829C28.1638 49.9225 28.4264 49.8547 28.9392 49.5267C29.1518 49.3854 29.4082 49.261 29.5083 49.2441C29.7147 49.2045 29.9836 49.3119 30.1775 49.5041C30.4339 49.7586 30.7653 49.8716 31.3031 49.8716C31.7346 49.8716 31.8534 49.849 32.1786 49.702C32.5288 49.5437 32.5539 49.5154 32.5726 49.3176C32.5914 49.1197 32.5789 49.0971 32.3725 49.0236C31.9222 48.8539 31.9347 48.8992 31.8972 46.338C31.866 44.0991 31.866 44.0426 31.7221 43.7655C31.4657 43.2623 31.053 42.9683 30.3651 42.7931C29.9023 42.6743 28.3264 42.6461 27.8823 42.7478ZM29.7084 46.1684C29.821 46.2702 29.8335 46.355 29.8335 47.056C29.8335 47.9606 29.771 48.2151 29.4958 48.4638C28.9705 48.9388 28.12 48.8087 27.7885 48.2038C27.6197 47.9098 27.6134 47.7571 27.7385 47.3726C27.8698 46.9825 28.2451 46.6263 28.8642 46.3097C29.427 46.027 29.5271 46.0044 29.7084 46.1684Z" fill="#304081"/>
<path d="M35.7805 42.7479C34.88 42.9289 34.1045 43.4151 33.8293 43.9805C33.623 44.4102 33.6292 44.9586 33.8544 45.3939C34.142 45.9649 34.9175 46.5416 35.8493 46.8865C36.7811 47.2257 37.1626 47.4689 37.3439 47.8364C37.7567 48.6505 37.05 49.3912 36.0119 49.2272C35.2552 49.1085 34.7424 48.7127 34.3421 47.9551C34.117 47.5197 33.9607 47.418 33.7355 47.5537C33.6292 47.6159 33.5854 47.695 33.5854 47.825C33.5854 48.1699 33.7731 49.1311 33.8669 49.2555C34.1295 49.6173 35.4053 49.9339 36.3684 49.883C37.3314 49.8265 38.0756 49.5664 38.6697 49.0576C39.1325 48.6675 39.2951 48.3395 39.3264 47.712C39.3889 46.5699 38.8573 45.9932 37.2876 45.49C35.9744 45.0716 35.4741 44.7381 35.4178 44.2349C35.3865 43.9126 35.5866 43.5904 35.9306 43.432C36.3183 43.2511 37.025 43.2624 37.4002 43.4603C37.7567 43.6525 37.888 43.7826 38.1194 44.1783C38.282 44.4554 38.3383 44.5006 38.5071 44.5176C38.8073 44.5458 38.8636 44.4045 38.7448 43.8843C38.5759 43.138 38.5196 43.0419 38.2007 42.9345C37.4315 42.6744 36.5184 42.6066 35.7805 42.7479Z" fill="#304081"/>
<path d="M46.7619 42.7537C45.5799 43.0081 44.7794 43.7431 44.7794 44.5629C44.7794 44.9021 44.7919 44.9247 45.0108 45.0887C45.386 45.3657 45.8301 45.3884 46.0865 45.1452C46.1553 45.0774 46.2366 44.8682 46.2803 44.6534C46.4617 43.6979 46.987 43.223 47.7625 43.3021C48.3128 43.3586 48.5629 43.6526 48.663 44.3763C48.7255 44.8117 48.7255 44.8795 48.6192 45.0774C48.4691 45.3488 48.2252 45.4675 46.6806 46.0329C45.1547 46.5926 44.8482 46.7905 44.6168 47.3728C44.3542 48.0343 44.5856 48.8146 45.1922 49.3347C45.6737 49.7474 45.9989 49.8662 46.6556 49.8718C47.2309 49.8718 47.4498 49.804 47.9313 49.4534C48.3441 49.1538 48.7318 49.1708 49.0632 49.5043C49.3196 49.7588 49.6511 49.8718 50.1889 49.8718C50.6204 49.8718 50.7392 49.8492 51.0644 49.7022C51.3771 49.5609 51.4459 49.5043 51.4584 49.3743C51.4834 49.1877 51.3458 49.0238 51.127 48.9729C51.0457 48.9559 50.9393 48.8598 50.8831 48.7467C50.7955 48.5828 50.783 48.2775 50.783 46.553C50.783 44.5007 50.7392 43.9919 50.5329 43.63C50.2702 43.1664 49.6761 42.8442 48.8318 42.7198C48.2815 42.6406 47.1934 42.6576 46.7619 42.7537ZM48.5692 46.1347C48.6755 46.2082 48.688 46.293 48.688 47.141C48.688 48.0061 48.6818 48.0739 48.5442 48.2718C48.2815 48.6506 47.75 48.8428 47.3122 48.7128C46.4242 48.4471 46.2803 47.4124 47.0433 46.7509C47.2809 46.5417 48.194 46.0555 48.3441 46.0555C48.4003 46.0555 48.5004 46.0894 48.5692 46.1347Z" fill="#304081"/>
<path d="M23.1918 42.8949C22.998 42.9911 22.6915 43.1833 22.5164 43.319C22.0224 43.7034 21.8285 43.6299 21.8285 43.0646C21.8285 42.7875 21.8223 42.7762 21.6597 42.7762C21.5721 42.7762 20.9718 42.8667 20.3339 42.9741C18.5703 43.2737 18.7329 43.2285 18.7142 43.4377C18.6892 43.6412 18.7267 43.6639 19.2457 43.7882C19.4021 43.8278 19.5459 43.907 19.5897 43.9805C19.6522 44.0709 19.6773 44.7381 19.7023 46.6264L19.7335 49.148L19.9086 49.3516C20.2151 49.7134 20.3589 49.753 21.5158 49.7756C22.4727 49.7982 22.5602 49.7869 22.7041 49.6852C22.9292 49.5212 22.8166 49.3346 22.4539 49.2555C22.0912 49.1763 21.9161 48.9445 21.8598 48.4696C21.8348 48.2774 21.8285 47.4293 21.841 46.5925C21.8598 45.2356 21.8723 45.0434 21.9786 44.8512C22.26 44.3423 22.9042 44.2292 23.5233 44.5798C23.9485 44.8229 24.1924 44.8285 24.5051 44.6024C24.9741 44.2632 25.1743 43.7882 25.0242 43.3868C24.9429 43.1607 24.6239 42.8667 24.3738 42.7819C24.0298 42.6631 23.5733 42.7084 23.1918 42.8949Z" fill="#304081"/>
<path d="M56.5366 42.8498C56.3115 42.9233 56.0176 43.0476 55.88 43.1211C55.2233 43.4943 54.9607 43.4773 54.8356 43.0703C54.7293 42.7536 54.7418 42.7536 53.6599 42.9346C53.2659 43.0024 52.6718 43.0985 52.3466 43.1494C51.69 43.2455 51.5962 43.2908 51.5962 43.4886C51.5962 43.6526 51.765 43.7374 52.0965 43.7374C52.2841 43.7374 52.3904 43.7713 52.503 43.8788L52.6593 44.0144V46.8131C52.6593 49.329 52.6718 49.6174 52.7594 49.7022C52.8469 49.7813 52.997 49.7926 53.7975 49.7757C54.5417 49.7644 54.7418 49.7417 54.7856 49.6739C54.8231 49.623 54.8481 48.5827 54.8481 47.141C54.8481 45.1509 54.8669 44.6646 54.9357 44.5402C55.2046 44.0766 56.0613 43.76 56.668 43.907C57.0119 43.9918 57.3746 44.3141 57.4684 44.6137C57.5122 44.7607 57.5372 45.5749 57.5372 46.9035C57.5372 48.9389 57.5372 48.9785 57.6811 49.2216C57.8437 49.5099 58.05 49.6682 58.3565 49.7191C58.4753 49.7417 59.0194 49.7474 59.5634 49.7304C60.4202 49.7078 60.564 49.6909 60.6266 49.6004C60.7266 49.4534 60.6015 49.3177 60.3201 49.2668C60.0325 49.2103 59.9387 49.1481 59.8011 48.9163C59.7073 48.7636 59.6885 48.4527 59.6635 46.4173L59.6322 44.0936L59.4133 43.7035C59.0319 43.0307 58.4127 42.7197 57.4497 42.7197C57.0807 42.7197 56.8306 42.7593 56.5366 42.8498Z" fill="#304081"/>
<path d="M77.8304 42.7762C76.4796 42.9402 75.5228 43.6752 75.4352 44.625C75.4102 44.9642 75.4164 44.9868 75.5978 45.1395C75.8667 45.3656 76.2982 45.4731 76.5484 45.377C76.786 45.2865 76.836 45.2017 76.9549 44.7042C77.1737 43.7543 77.549 43.3981 78.3119 43.3981C79.0061 43.3981 79.325 43.8052 79.3313 44.6759C79.3313 45.4222 79.3813 45.3826 77.3739 46.1176C76.711 46.3607 76.0481 46.6378 75.9042 46.7339C74.9599 47.3614 74.9287 48.6053 75.8292 49.4194C76.1606 49.7191 76.4608 49.8661 76.9486 49.9565C77.5677 50.0696 77.9492 49.9735 78.6371 49.5325C79.0373 49.2724 79.2625 49.2724 79.6252 49.5325C80.113 49.8887 80.3506 49.9735 80.8322 49.9735C81.1386 49.9735 81.3825 49.9339 81.6326 49.8491C82.2518 49.6286 82.3331 49.3007 81.8202 49.0745C81.445 48.9049 81.4325 48.8371 81.4325 46.4964C81.4263 45.2582 81.4012 44.3084 81.3575 44.1388C81.2199 43.5451 80.7321 43.1098 80.0067 42.9176C79.8191 42.8667 79.3813 42.8045 79.0311 42.7762C78.3182 42.7197 78.3494 42.7197 77.8304 42.7762ZM79.25 46.2646C79.35 46.3438 79.3625 46.4512 79.3625 47.2088C79.3625 48.1812 79.2875 48.4244 78.9185 48.6618C78.6058 48.8597 78.0305 48.8823 77.7366 48.7014C77.0674 48.2943 77.0236 47.5367 77.624 46.9318C77.9179 46.6434 78.7434 46.1798 78.9811 46.1741C79.0686 46.1685 79.1874 46.2081 79.25 46.2646Z" fill="#304081"/>
<path d="M87.6803 42.7762C87.3363 42.8327 86.8985 42.9853 86.367 43.2511C86.1418 43.3641 85.9167 43.4546 85.8604 43.4546C85.6853 43.4546 85.5352 43.3076 85.4977 43.0815C85.4602 42.8723 85.4414 42.861 85.2413 42.861C84.9099 42.8666 82.4084 43.285 82.3208 43.3528C82.2145 43.432 82.2208 43.596 82.3271 43.6751C82.3771 43.7147 82.5209 43.7543 82.6585 43.7712C83.1025 43.8278 83.1713 43.8504 83.2526 43.9804C83.3152 44.0765 83.3402 44.7833 83.3652 46.9317L83.3965 49.7586H84.4283H85.4602L85.4915 47.2144C85.5102 45.4391 85.5415 44.6363 85.5978 44.5571C85.7166 44.3705 85.948 44.2009 86.2544 44.0765C87.0611 43.7543 87.8116 43.9408 88.093 44.5401C88.1931 44.755 88.2118 45.032 88.2431 47.0165C88.2806 49.5211 88.2618 49.4137 88.7496 49.6681C88.956 49.7756 89.0811 49.7869 90.0754 49.7869C90.9635 49.7869 91.1823 49.7699 91.2449 49.7021C91.3574 49.5777 91.2699 49.3346 91.1135 49.3346C90.8947 49.3346 90.582 49.1706 90.4882 49.0066C90.4194 48.8879 90.3944 48.3508 90.3694 46.5642C90.3318 44.3649 90.3256 44.2631 90.1942 43.9578C89.9066 43.2963 89.3125 42.8836 88.512 42.7762C88.043 42.714 88.068 42.714 87.6803 42.7762Z" fill="#304081"/>
<path d="M11.3225 42.8609C10.9973 42.9005 10.4657 42.957 10.1531 42.974C9.5402 43.0192 9.42138 43.0701 9.4589 43.2962C9.47766 43.4263 9.50267 43.4376 10.0467 43.562C10.2406 43.6072 10.3219 43.6637 10.3782 43.7825C10.422 43.8786 10.447 44.721 10.4595 46.1684C10.4783 48.3055 10.4845 48.4129 10.6158 48.7013C10.941 49.4193 11.5852 49.8264 12.492 49.8829C13.0735 49.9225 13.4925 49.8264 14.1679 49.5211C15.2186 49.0348 15.1248 49.0462 15.5375 49.3854C15.7251 49.5437 15.9878 49.6907 16.1191 49.7246C16.4193 49.8038 18.1078 49.8038 18.2579 49.7303C18.533 49.6002 18.4517 49.278 18.1391 49.278C17.8827 49.278 17.5825 49.0235 17.5137 48.7408C17.4824 48.6165 17.4511 47.2369 17.4511 45.6708C17.4511 43.1662 17.4386 42.827 17.3573 42.793C17.2635 42.7648 15.6751 42.9174 15.4375 42.9796C15.3311 43.0079 15.3249 43.1719 15.3249 45.4051C15.3249 46.9542 15.2999 47.8589 15.2561 47.9606C15.0872 48.3734 14.4369 48.7126 13.8177 48.7126C13.4425 48.7126 13.1611 48.6108 12.936 48.396C12.6108 48.0794 12.6108 48.068 12.5732 45.3486L12.542 42.8044L12.2293 42.793C12.0604 42.793 11.6477 42.8213 11.3225 42.8609Z" fill="#304081"/>
<path d="M41.4963 42.9798C40.9147 43.0816 40.3269 43.1834 40.2018 43.2003C39.7891 43.2569 39.7453 43.6357 40.1393 43.7148C40.5458 43.794 40.7209 43.8675 40.7959 43.9806C40.8522 44.071 40.8772 44.7664 40.9022 46.6322C40.9335 49.069 40.9397 49.1651 41.0648 49.3121C41.2399 49.5326 41.4776 49.6796 41.7089 49.7248C41.8153 49.7418 42.3531 49.7531 42.9034 49.7418C43.8227 49.7248 43.9103 49.7135 43.9665 49.6174C44.0666 49.4421 43.9478 49.3008 43.6664 49.2612C43.3724 49.216 43.1598 49.0238 43.0848 48.7298C43.0535 48.611 43.0285 47.2258 43.0285 45.6428V42.7763L42.7971 42.782C42.6658 42.7876 42.0842 42.8724 41.4963 42.9798Z" fill="#304081"/>
</svg>
