<svg width="170" height="50" viewBox="0 0 170 50" fill="none" xmlns="http://www.w3.org/2000/svg">
<g clip-path="url(#clip0_157_381)">
<path fill-rule="evenodd" clip-rule="evenodd" d="M19.1639 -0.00585938C19.9122 -0.00585938 20.6606 -0.00585938 21.409 -0.00585938C27.0268 0.0267477 32.6396 0.254765 38.2476 0.678191C39.0217 0.735672 39.795 0.799985 40.5676 0.871128C40.5711 0.914004 40.5747 0.956878 40.5782 0.999753C40.5122 5.49575 40.4445 9.98984 40.3751 14.482C32.0004 14.482 23.6256 14.482 15.2509 14.482C15.2509 16.5789 15.2509 18.676 15.2509 20.7729C22.2002 20.7729 29.1494 20.7729 36.0986 20.7729C36.0986 24.9786 36.0986 29.1842 36.0986 33.3898C29.1494 33.3898 22.2002 33.3898 15.2509 33.3898C15.2633 38.3088 15.2705 43.2277 15.2723 48.1466C14.5556 47.819 13.8643 47.4389 13.1982 47.0065C9.15558 44.3742 6.02128 40.7941 3.79533 36.2664C3.60795 35.8721 3.4262 35.4745 3.25008 35.0737C3.03626 34.5513 2.82244 34.0291 2.60862 33.5068C2.04444 32.0181 1.60255 30.4863 1.28291 28.9114C0.717417 26.1188 0.393119 23.293 0.310018 20.4338C0.246368 17.4676 0.182221 14.5015 0.117577 11.5353C0.0800448 8.20857 0.039062 4.88382 -0.00537109 1.56103C-0.00537109 1.33106 -0.00537109 1.10109 -0.00537109 0.871128C6.37608 0.321603 12.7659 0.0292737 19.1639 -0.00585938Z" fill="#78B41C"/>
<path opacity="0.998" fill-rule="evenodd" clip-rule="evenodd" d="M139.739 4.3324C140.762 4.29912 141.781 4.34783 142.796 4.47856C143.66 4.57792 144.476 4.84686 145.245 5.28539C145.913 5.6888 146.431 6.25592 146.8 6.98675C147.09 7.58175 147.278 8.21318 147.367 8.88104C147.408 9.18747 147.437 9.49539 147.452 9.8048C147.464 10.7928 147.469 11.7808 147.468 12.769C147.469 13.7572 147.464 14.7453 147.452 15.7332C147.427 16.5187 147.288 17.2787 147.035 18.0134C146.618 19.144 145.9 19.9567 144.881 20.4514C144.351 20.7087 143.798 20.8879 143.224 20.9893C142.299 21.1461 141.369 21.2221 140.434 21.2173C139.402 21.2269 138.38 21.1315 137.365 20.9309C136.592 20.7661 135.879 20.4465 135.227 19.972C134.597 19.4629 134.136 18.8099 133.842 18.0134C133.626 17.3995 133.494 16.7642 133.447 16.1074C133.432 15.9245 133.421 15.7413 133.415 15.5578C133.407 13.6986 133.407 11.8394 133.415 9.9802C133.43 9.15602 133.564 8.35697 133.821 7.5831C134.25 6.38487 135.008 5.53712 136.093 5.03983C136.731 4.75036 137.394 4.56327 138.081 4.47856C138.633 4.40319 139.186 4.35446 139.739 4.3324ZM140.123 8.19114C140.609 8.18484 141.093 8.20238 141.577 8.24376C141.961 8.26182 142.314 8.38265 142.636 8.60625C142.824 8.76205 142.965 8.95888 143.058 9.19675C143.163 9.48228 143.227 9.7785 143.251 10.0854C143.268 10.2682 143.278 10.4513 143.283 10.635C143.29 12.0499 143.29 13.4648 143.283 14.8796C143.281 15.3213 143.224 15.7539 143.112 16.1776C142.946 16.7132 142.613 17.0504 142.112 17.189C141.883 17.2466 141.651 17.2855 141.417 17.306C140.765 17.3605 140.113 17.3605 139.461 17.306C139.138 17.2836 138.825 17.2135 138.52 17.0955C138.207 16.9324 137.981 16.6771 137.841 16.3296C137.738 16.0313 137.67 15.7234 137.638 15.4058C137.617 15.2115 137.603 15.0167 137.595 14.8212C137.588 13.4452 137.588 12.0694 137.595 10.6935C137.605 10.2142 137.676 9.74647 137.809 9.2903C137.997 8.75737 138.348 8.43581 138.862 8.32561C139.281 8.24366 139.701 8.19884 140.123 8.19114Z" fill="black"/>
<path opacity="0.997" fill-rule="evenodd" clip-rule="evenodd" d="M54.8828 4.46094C58.475 4.46094 62.0673 4.46094 65.6595 4.46094C65.6595 5.67703 65.6595 6.89312 65.6595 8.10921C63.4215 8.10921 61.1834 8.10921 58.9454 8.10921C58.9454 9.18887 58.9454 10.2685 58.9454 11.3482C61.0088 11.3482 63.0722 11.3482 65.1356 11.3482C65.1356 12.5643 65.1356 13.7804 65.1356 14.9965C63.0722 14.9965 61.0088 14.9965 58.9454 14.9965C58.9454 17.0233 58.9454 19.0502 58.9454 21.0769C57.5912 21.0769 56.2371 21.0769 54.8828 21.0769C54.8828 15.5382 54.8828 9.99961 54.8828 4.46094Z" fill="black"/>
<path opacity="0.997" fill-rule="evenodd" clip-rule="evenodd" d="M69.1772 4.46094C71.8572 4.45898 74.537 4.46094 77.217 4.46678C77.8631 4.48035 78.5045 4.54661 79.1414 4.66557C80.9012 4.96096 81.8971 6.07376 82.1296 8.00397C82.2134 8.71445 82.2419 9.42773 82.2151 10.1438C82.2094 10.7108 82.1774 11.276 82.1189 11.8393C82.0468 12.6303 81.7314 13.2754 81.1727 13.7745C80.7637 14.0956 80.3146 14.3295 79.8256 14.4761C79.6695 14.5247 79.5127 14.5694 79.3552 14.6106C79.3552 14.6652 79.3552 14.7197 79.3552 14.7743C79.8957 14.7866 80.4053 14.9289 80.8841 15.2011C81.5806 15.6561 81.9708 16.3285 82.0547 17.2182C82.0639 17.3115 82.071 17.405 82.0761 17.4988C82.0815 18.6915 82.0833 19.8842 82.0815 21.0769C80.7272 21.0769 79.3731 21.0769 78.0188 21.0769C78.0206 20.235 78.0188 19.3931 78.0135 18.5512C78.008 18.1453 77.919 17.7634 77.7462 17.4053C77.545 17.0452 77.2546 16.8211 76.8749 16.7329C76.7867 16.7111 76.6976 16.6954 76.6076 16.6861C75.4851 16.6691 74.3626 16.6632 73.2399 16.6686C73.2399 18.1381 73.2399 19.6075 73.2399 21.0769C71.8856 21.0769 70.5315 21.0769 69.1772 21.0769C69.1772 15.5382 69.1772 9.99961 69.1772 4.46094ZM73.2399 8.33138C74.3874 8.32942 75.535 8.33138 76.6824 8.33722C76.9748 8.34896 77.2528 8.42302 77.5163 8.55939C77.7389 8.70967 77.8796 8.926 77.9386 9.20836C78.0244 9.59249 78.0582 9.98225 78.0402 10.3777C78.0463 10.8395 78.0231 11.2994 77.9707 11.7575C77.8911 12.3279 77.59 12.6573 77.0673 12.7455C76.894 12.7791 76.7194 12.7985 76.5434 12.804C75.4423 12.8099 74.3411 12.8118 73.2399 12.8099C73.2399 11.317 73.2399 9.82421 73.2399 8.33138Z" fill="black"/>
<path opacity="0.998" fill-rule="evenodd" clip-rule="evenodd" d="M86.0586 4.46094C89.7114 4.46094 93.3642 4.46094 97.017 4.46094C97.017 5.67703 97.017 6.89312 97.017 8.10921C94.7184 8.10921 92.4198 8.10921 90.1212 8.10921C90.1212 9.11482 90.1212 10.1204 90.1212 11.126C92.2808 11.126 94.4405 11.126 96.6001 11.126C96.6001 12.155 96.6001 13.184 96.6001 14.213C94.4405 14.213 92.2808 14.213 90.1212 14.213C90.1212 15.2888 90.1212 16.3646 90.1212 17.4404C92.4698 17.4404 94.8182 17.4404 97.1667 17.4404C97.1667 18.6526 97.1667 19.8647 97.1667 21.0769C93.464 21.0769 89.7613 21.0769 86.0586 21.0769C86.0586 15.5382 86.0586 9.99961 86.0586 4.46094Z" fill="black"/>
<path opacity="0.999" fill-rule="evenodd" clip-rule="evenodd" d="M101.197 4.46094C104.85 4.46094 108.503 4.46094 112.156 4.46094C112.156 5.67703 112.156 6.89312 112.156 8.10921C109.854 8.10921 107.551 8.10921 105.249 8.10921C105.249 9.11482 105.249 10.1204 105.249 11.126C107.409 11.126 109.568 11.126 111.728 11.126C111.728 12.155 111.728 13.184 111.728 14.213C109.568 14.213 107.409 14.213 105.249 14.213C105.249 15.2888 105.249 16.3646 105.249 17.4404C107.598 17.4404 109.946 17.4404 112.295 17.4404C112.295 18.6526 112.295 19.8647 112.295 21.0769C108.596 21.0769 104.896 21.0769 101.197 21.0769C101.197 15.5382 101.197 9.99961 101.197 4.46094Z" fill="black"/>
<path opacity="0.999" fill-rule="evenodd" clip-rule="evenodd" d="M116.197 4.46094C118.909 4.45898 121.62 4.46094 124.333 4.46678C125.153 4.48048 125.958 4.60521 126.749 4.84097C127.443 5.04696 128.052 5.41335 128.577 5.94012C129.137 6.56321 129.517 7.30182 129.716 8.15598C129.902 8.94583 129.998 9.74876 130.004 10.5648C130.012 11.9641 130.012 13.3633 130.004 14.7626C129.997 15.6065 129.911 16.4406 129.748 17.265C129.629 17.8525 129.433 18.4061 129.16 18.9254C128.701 19.7115 128.073 20.2708 127.273 20.6034C126.623 20.857 125.952 21.0051 125.263 21.0477C125.116 21.0578 124.971 21.0656 124.825 21.0711C121.949 21.0769 119.073 21.0789 116.197 21.0769C116.197 15.5382 116.197 9.99961 116.197 4.46094ZM120.249 8.33138C121.535 8.32942 122.822 8.33138 124.108 8.33722C124.399 8.3506 124.68 8.41296 124.953 8.52431C125.201 8.64389 125.392 8.83293 125.525 9.09143C125.646 9.34109 125.725 9.60613 125.76 9.88657C125.801 10.1811 125.822 10.4774 125.824 10.7752C125.832 12.0186 125.832 13.262 125.824 14.5054C125.823 14.9559 125.763 15.3963 125.642 15.8267C125.383 16.6635 124.85 17.1215 124.044 17.2006C122.779 17.2177 121.513 17.2236 120.249 17.2182C120.249 14.256 120.249 11.2936 120.249 8.33138Z" fill="black"/>
<path opacity="0.997" fill-rule="evenodd" clip-rule="evenodd" d="M169.995 4.46094C169.995 9.99961 169.995 15.5382 169.995 21.0769C168.64 21.0769 167.287 21.0769 165.932 21.0769C166.066 16.8322 166.202 12.5876 166.338 8.34307C166.292 8.34307 166.245 8.34307 166.199 8.34307C164.925 12.5808 163.647 16.8176 162.367 21.0535C161.781 21.0691 161.193 21.0769 160.603 21.0769C160.012 21.0769 159.424 21.0691 158.839 21.0535C157.544 16.8176 156.251 12.5808 154.963 8.34307C154.923 8.34307 154.885 8.34307 154.845 8.34307C154.983 12.5876 155.118 16.8322 155.252 21.0769C153.901 21.0769 152.55 21.0769 151.2 21.0769C151.2 15.5382 151.2 9.99961 151.2 4.46094C153.341 4.46094 155.484 4.46094 157.625 4.46094C158.587 7.9377 159.549 11.4145 160.512 14.8912C160.558 14.8912 160.605 14.8912 160.651 14.8912C161.567 11.4145 162.482 7.9377 163.398 4.46094C165.597 4.46094 167.796 4.46094 169.995 4.46094Z" fill="black"/>
<path opacity="0.999" fill-rule="evenodd" clip-rule="evenodd" d="M40.3752 14.4819C40.3352 16.4812 40.2978 18.4808 40.2629 20.4805C40.2116 23.2568 39.8979 25.9969 39.3221 28.7008C38.6223 31.9688 37.4783 35.0324 35.8902 37.8917C34.1222 41.03 31.8611 43.6708 29.1067 45.8138C26.4454 47.8509 23.5195 49.2442 20.3293 49.9941C20.3044 49.9941 20.2793 49.9941 20.2544 49.9941C18.5316 49.5781 16.8708 48.9622 15.2724 48.1466C15.2705 43.2276 15.2634 38.3088 15.251 33.3898C22.2002 33.3898 29.1495 33.3898 36.0987 33.3898C36.0987 29.1841 36.0987 24.9785 36.0987 20.7729C29.1495 20.7729 22.2002 20.7729 15.251 20.7729C15.251 18.6759 15.251 16.5789 15.251 14.4819C23.6257 14.4819 32.0005 14.4819 40.3752 14.4819Z" fill="#377A1F"/>
<path opacity="0.994" fill-rule="evenodd" clip-rule="evenodd" d="M58.6144 26.4558C59.0594 26.4591 59.5031 26.4825 59.9454 26.526C59.9543 27.0094 59.9526 27.4926 59.9401 27.9759C59.7455 27.941 59.5495 27.9196 59.3521 27.9116C59.0201 27.8984 58.6887 27.9062 58.3578 27.935C58.1002 27.9639 57.865 28.0574 57.6522 28.2156C57.4371 28.4267 57.3034 28.6898 57.2512 29.0049C57.2136 29.2016 57.1922 29.4004 57.1871 29.6013C57.1818 30.2795 57.1799 30.9577 57.1818 31.6359C58.1047 31.6359 59.0278 31.6359 59.9508 31.6359C59.9508 32.1114 59.9508 32.5869 59.9508 33.0625C59.0278 33.0625 58.1047 33.0625 57.1818 33.0625C57.1818 36.4652 57.1818 39.8679 57.1818 43.2706C56.6365 43.2706 56.0913 43.2706 55.546 43.2706C55.546 39.8679 55.546 36.4652 55.546 33.0625C55.0079 33.0625 54.4697 33.0625 53.9316 33.0625C53.9316 32.5869 53.9316 32.1114 53.9316 31.6359C54.4697 31.6359 55.0079 31.6359 55.546 31.6359C55.5442 31.0357 55.546 30.4353 55.5514 29.8351C55.5482 29.3393 55.6052 28.8521 55.7224 28.3735C55.9528 27.494 56.4713 26.9308 57.278 26.6838C57.7167 26.5504 58.1621 26.4744 58.6144 26.4558Z" fill="black"/>
<path opacity="0.994" fill-rule="evenodd" clip-rule="evenodd" d="M62.1104 26.6545C62.6521 26.6545 63.1937 26.6545 63.7354 26.6545C63.7354 27.2938 63.7354 27.933 63.7354 28.5722C63.1937 28.5722 62.6521 28.5722 62.1104 28.5722C62.1104 27.933 62.1104 27.2938 62.1104 26.6545Z" fill="black"/>
<path opacity="0.996" fill-rule="evenodd" clip-rule="evenodd" d="M71.5721 31.4606C72.105 31.4428 72.6359 31.4681 73.1651 31.5366C73.5663 31.5927 73.9547 31.7018 74.3304 31.864C74.7622 32.0558 75.1025 32.3656 75.3514 32.7936C75.5548 33.1878 75.6901 33.6087 75.7577 34.0565C75.8195 34.4394 75.8551 34.8253 75.8646 35.2141C75.87 37.8997 75.8718 40.5851 75.87 43.2707C75.3282 43.2707 74.7866 43.2707 74.2449 43.2707C74.2467 40.7294 74.2449 38.188 74.2396 35.6467C74.2436 35.1527 74.1937 34.6654 74.0899 34.1851C73.9689 33.5928 73.6393 33.2245 73.101 33.0801C72.634 32.9558 72.16 32.8992 71.679 32.9105C71.1078 32.8937 70.5519 32.9853 70.0112 33.1853C69.2329 33.5017 68.7536 34.1039 68.5732 34.9919C68.5113 35.2922 68.4756 35.5962 68.4663 35.904C68.461 38.3596 68.4592 40.8151 68.461 43.2707C67.9193 43.2707 67.3777 43.2707 66.8359 43.2707C66.8359 39.4002 66.8359 35.5298 66.8359 31.6594C67.3456 31.6594 67.8551 31.6594 68.3648 31.6594C68.363 32.1426 68.3648 32.626 68.3701 33.1093C68.8915 32.2614 69.6167 31.7528 70.5458 31.5834C70.8872 31.5199 71.2294 31.4789 71.5721 31.4606Z" fill="black"/>
<path opacity="0.993" fill-rule="evenodd" clip-rule="evenodd" d="M82.6054 31.4604C83.2516 31.4455 83.8966 31.4669 84.5405 31.5247C85.0556 31.572 85.5581 31.6849 86.048 31.8638C86.6545 32.1062 87.0982 32.5447 87.379 33.1793C87.5684 33.6372 87.686 34.1167 87.7318 34.6176C87.7536 34.8235 87.768 35.0301 87.7746 35.2373C87.7799 37.9151 87.7818 40.5928 87.7799 43.2705C87.2703 43.2705 86.7608 43.2705 86.2511 43.2705C86.2731 42.7991 86.2892 42.3274 86.2992 41.8557C86.1022 42.2572 85.8473 42.6099 85.5348 42.9139C85.2648 43.1464 84.9583 43.2905 84.6154 43.3465C84.0064 43.4524 83.3935 43.5011 82.7765 43.4927C82.0889 43.5036 81.4083 43.4353 80.7345 43.2881C80.4052 43.2096 80.0916 43.0848 79.7936 42.9139C79.3298 42.5993 79.0037 42.1609 78.8154 41.5984C78.6864 41.2008 78.608 40.7916 78.5802 40.3706C78.5389 39.8265 78.5568 39.2848 78.6337 38.7453C78.7119 38.1923 78.9115 37.7012 79.2324 37.2719C79.5449 36.9128 79.9209 36.6653 80.3603 36.5294C80.8636 36.374 81.3768 36.2843 81.8998 36.2605C82.5989 36.2294 83.2975 36.2411 83.9953 36.2956C84.3589 36.3229 84.7153 36.3931 85.0644 36.506C85.5502 36.7061 85.912 37.0588 86.1495 37.5643C86.1582 36.8353 86.1546 36.1065 86.1388 35.3776C86.1262 35.0039 86.087 34.6336 86.0212 34.2668C85.9706 33.9833 85.8779 33.7183 85.7433 33.4717C85.6309 33.302 85.4866 33.1754 85.3103 33.0916C84.9527 32.9386 84.582 32.845 84.1984 32.811C83.5468 32.7509 82.8946 32.7431 82.2419 32.7876C81.9169 32.8098 81.5997 32.8761 81.2904 32.9864C80.9423 33.1259 80.7231 33.3928 80.6329 33.7874C80.5598 34.1376 80.533 34.4922 80.5527 34.8514C80.011 34.8514 79.4694 34.8514 78.9277 34.8514C78.9091 34.2331 79.0035 33.6368 79.211 33.0624C79.4917 32.3852 79.9603 31.9467 80.6169 31.7469C80.985 31.6363 81.3592 31.5623 81.7394 31.5247C82.0294 31.4963 82.318 31.4749 82.6054 31.4604ZM82.4344 37.5993C83.0737 37.5934 83.7116 37.6226 84.3481 37.687C84.7035 37.7212 85.0492 37.803 85.3851 37.9326C85.6203 38.0456 85.7967 38.2268 85.9143 38.4763C86.022 38.7289 86.0897 38.9939 86.1175 39.2715C86.169 39.6659 86.1655 40.0596 86.1068 40.4525C85.9601 41.334 85.4807 41.8388 84.6688 41.9667C84.4386 42.0104 84.207 42.0416 83.9739 42.0603C83.5485 42.0907 83.1227 42.1082 82.6963 42.1129C82.2757 42.1178 81.8605 42.0691 81.4508 41.9667C81.1325 41.8873 80.8599 41.7217 80.6329 41.4698C80.4358 41.1859 80.311 40.8663 80.2587 40.5109C80.1864 40.0532 80.1721 39.5931 80.2159 39.1311C80.2503 38.7765 80.3679 38.4608 80.5688 38.184C80.7898 37.9334 81.0589 37.7795 81.3759 37.7221C81.7272 37.6492 82.0801 37.6082 82.4344 37.5993Z" fill="black"/>
<path opacity="0.993" fill-rule="evenodd" clip-rule="evenodd" d="M95.6058 31.4604C96.2296 31.4361 96.8497 31.477 97.466 31.5832C97.9502 31.6674 98.3992 31.8506 98.8131 32.1328C99.1766 32.4214 99.435 32.7975 99.5882 33.2612C99.741 33.7225 99.8337 34.1979 99.8662 34.6877C99.8839 34.9056 99.8946 35.1239 99.8983 35.3425C99.9036 37.9852 99.9054 40.6279 99.9036 43.2705C99.3584 43.2705 98.8131 43.2705 98.2679 43.2705C98.2697 40.6396 98.2679 38.0086 98.2625 35.3776C98.2547 34.9659 98.2048 34.5606 98.1128 34.1615C98.0573 33.9271 97.9647 33.7128 97.8349 33.5184C97.6279 33.2912 97.3803 33.1411 97.0918 33.0682C96.6365 32.9532 96.175 32.9005 95.7073 32.9104C95.1379 32.8941 94.5838 32.9857 94.0448 33.1852C93.3002 33.4812 92.828 34.0483 92.6283 34.8865C92.5558 35.1935 92.513 35.5052 92.5 35.822C92.4946 38.3048 92.4928 40.7877 92.4946 43.2705C91.9494 43.2705 91.4041 43.2705 90.8589 43.2705C90.8589 39.4001 90.8589 35.5296 90.8589 31.6592C91.3685 31.6592 91.8781 31.6592 92.3877 31.6592C92.3859 32.1465 92.3877 32.6336 92.3931 33.1208C92.8784 32.32 93.5538 31.8192 94.419 31.6183C94.8125 31.5317 95.208 31.4791 95.6058 31.4604Z" fill="black"/>
<path opacity="0.993" fill-rule="evenodd" clip-rule="evenodd" d="M106.831 31.4604C107.469 31.4417 108.102 31.4748 108.734 31.5598C109.18 31.6202 109.611 31.741 110.028 31.9223C110.854 32.3162 111.367 32.9964 111.562 33.9627C111.654 34.4566 111.688 34.9556 111.664 35.4595C111.147 35.4595 110.63 35.4595 110.114 35.4595C110.126 35.0021 110.074 34.5539 109.958 34.1147C109.812 33.6153 109.507 33.2938 109.044 33.1501C108.696 33.0345 108.339 32.9644 107.975 32.9396C107.512 32.9013 107.048 32.9013 106.585 32.9396C106.145 32.9714 105.728 33.0961 105.335 33.3138C105.004 33.524 104.781 33.8299 104.666 34.2317C104.533 34.6926 104.447 35.1642 104.41 35.6465C104.34 36.5573 104.322 37.4694 104.356 38.3827C104.374 39.0389 104.452 39.6858 104.592 40.3238C104.667 40.6561 104.795 40.9602 104.976 41.2359C105.2 41.5034 105.469 41.6964 105.784 41.8147C106.121 41.934 106.467 42.0041 106.821 42.0252C107.426 42.0618 108.028 42.0305 108.627 41.9316C108.977 41.8769 109.302 41.7483 109.6 41.5457C109.811 41.3653 109.961 41.1353 110.049 40.8559C110.167 40.4825 110.236 40.0985 110.258 39.7041C110.267 39.4894 110.277 39.2751 110.285 39.061C110.805 39.0493 111.325 39.0454 111.845 39.0493C111.858 39.7302 111.789 40.4005 111.637 41.0605C111.524 41.5498 111.321 41.9863 111.028 42.3701C110.804 42.6337 110.542 42.8383 110.242 42.984C109.807 43.184 109.353 43.3166 108.884 43.3816C107.894 43.5233 106.903 43.5272 105.912 43.3933C105.4 43.3186 104.912 43.1588 104.447 42.9139C103.894 42.597 103.496 42.1234 103.255 41.4931C103.049 40.9361 102.91 40.3591 102.838 39.7625C102.689 38.4476 102.668 37.1303 102.774 35.8102C102.823 35.1366 102.941 34.4779 103.127 33.8341C103.283 33.2881 103.548 32.8184 103.923 32.4251C104.225 32.1505 104.564 31.944 104.939 31.8053C105.556 31.594 106.187 31.4791 106.831 31.4604Z" fill="black"/>
<path opacity="0.994" fill-rule="evenodd" clip-rule="evenodd" d="M118.57 31.4605C119.209 31.4346 119.844 31.4794 120.473 31.5949C121.007 31.6944 121.505 31.8932 121.97 32.1913C122.489 32.5554 122.868 33.0485 123.109 33.6705C123.3 34.1818 123.428 34.7119 123.494 35.2607C123.528 35.5403 123.553 35.821 123.568 36.1026C123.583 36.6677 123.589 37.2328 123.584 37.7982C121.047 37.7982 118.509 37.7982 115.972 37.7982C115.973 38.4161 116.007 39.032 116.074 39.6457C116.119 40.0464 116.204 40.4361 116.331 40.815C116.448 41.1689 116.653 41.4437 116.945 41.6394C117.217 41.8033 117.505 41.9164 117.811 41.9785C118.292 42.0686 118.777 42.1037 119.265 42.0837C119.805 42.0845 120.34 42.03 120.869 41.92C121.08 41.873 121.276 41.7873 121.457 41.6628C121.668 41.475 121.804 41.2352 121.869 40.9436C121.918 40.7405 121.947 40.534 121.954 40.3239C121.959 40.1212 121.962 39.9186 121.959 39.7158C122.501 39.7158 123.042 39.7158 123.584 39.7158C123.598 40.3012 123.529 40.8742 123.376 41.4347C123.15 42.2391 122.678 42.7907 121.959 43.0893C121.41 43.2842 120.848 43.4012 120.27 43.4401C119.548 43.5027 118.824 43.5066 118.1 43.4518C117.474 43.407 116.873 43.255 116.293 42.9958C115.614 42.6709 115.138 42.1311 114.866 41.3763C114.669 40.8217 114.537 40.2487 114.47 39.6574C114.333 38.4282 114.312 37.1964 114.406 35.9623C114.457 35.279 114.581 34.6125 114.78 33.9628C115.084 32.9726 115.677 32.2807 116.56 31.8873C116.967 31.7117 117.388 31.5948 117.822 31.5365C118.072 31.5022 118.322 31.4768 118.57 31.4605ZM118.688 32.8636C119.177 32.8448 119.662 32.8857 120.142 32.9864C120.527 33.0666 120.873 33.2382 121.179 33.5009C121.465 33.8048 121.659 34.1693 121.762 34.5942C121.904 35.2001 121.97 35.8158 121.959 36.4418C119.963 36.4418 117.968 36.4418 115.972 36.4418C115.971 35.8822 116.023 35.3288 116.127 34.7813C116.204 34.3873 116.351 34.0286 116.566 33.7055C116.836 33.3759 117.169 33.1557 117.565 33.0449C117.935 32.9401 118.309 32.8797 118.688 32.8636Z" fill="black"/>
<path opacity="0.998" fill-rule="evenodd" clip-rule="evenodd" d="M62.1104 31.6592C62.6521 31.6592 63.1937 31.6592 63.7354 31.6592C63.7354 35.5296 63.7354 39.4001 63.7354 43.2705C63.1937 43.2705 62.6521 43.2705 62.1104 43.2705C62.1104 39.4001 62.1104 35.5296 62.1104 31.6592Z" fill="black"/>
</g>
<defs>
<clipPath id="clip0_157_381">
<rect width="170" height="50" fill="white"/>
</clipPath>
</defs>
</svg>
