<svg width="100" height="33" viewBox="0 0 100 33" fill="none" xmlns="http://www.w3.org/2000/svg">
<rect x="6.97803" y="6.70874" width="21.0627" height="19.5824" fill="#FCAF17"/>
<rect width="23.5701" height="23.179" transform="matrix(0.72715 -0.686478 0.72715 0.686478 0.44873 16.6343)" fill="#FCAF17"/>
<path d="M14.554 2.73993L11.6517 5.47985H8.73239H5.80452V8.2359V11L2.90226 13.7399L0 16.4799L2.90226 19.2198L5.80452 21.9597V24.7158V27.4799H8.72386H11.6517L14.5711 30.2359L17.4989 33L20.4268 30.2359L23.3461 27.4799H26.2313H29.108V24.7641V22.0403L32.0529 19.2601L34.9979 16.4799L32.0529 13.6996L29.108 10.9194V8.20366V5.47985H26.2228H23.3461L20.4439 2.73993C18.8476 1.23297 17.5245 -1.84681e-06 17.4989 -1.84681e-06C17.4733 -1.84681e-06 16.1502 1.23297 14.554 2.73993ZM20.7 3.86813L23.8583 6.84982H25.796H27.7422V8.68718V10.5165L30.8579 13.4579C32.5736 15.0777 33.9735 16.4315 33.9735 16.4799C33.9735 16.5282 32.5736 17.8821 30.8579 19.5018L27.7422 22.4432V24.2725V26.1099H25.8045H23.8583L20.6829 29.1077L17.4989 32.1136L14.315 29.1077L11.1396 26.1099H9.19334H7.25566V24.2725V22.4432L4.09731 19.4615L0.938967 16.4799L4.09731 13.4982L7.25566 10.5165V8.67912V6.84982H9.20188H11.1396L14.2979 3.86813C16.0307 2.22417 17.4733 0.886445 17.4989 0.886445C17.5245 0.886445 18.9671 2.22417 20.7 3.86813Z" fill="#008060"/>
<path d="M10.2601 9.69441L3.07275 16.4798L5.15555 18.4461L7.23835 20.4043L8.08342 19.6146C9.13336 18.6233 10.243 17.8658 11.5661 17.2453C13.3929 16.3911 14.6733 16.0768 17.1146 15.9157C18.8559 15.7948 19.2657 15.7061 20.2559 15.2146C21.0412 14.8277 22.1509 13.7479 22.5521 12.9743C23.0301 12.0636 23.1752 11.4673 23.1666 10.4358C23.1581 9.71052 23.1154 9.42847 22.9362 8.90466C22.5435 7.7684 22.2789 7.45411 19.7693 5.08488L17.456 2.901L10.2601 9.69441Z" fill="#008060"/>
<path d="M26.752 13.4498C25.2838 14.8036 23.5766 15.8029 21.7243 16.3912C20.5805 16.7619 19.6586 16.9231 18.1818 17.0117C16.4917 17.1165 15.8259 17.2373 15.0747 17.5678C12.0273 18.9297 10.8579 22.4674 12.5651 25.2073C12.7529 25.5135 13.6321 26.4161 15.1515 27.8667L17.4563 30.0586L24.6522 23.2732L31.8395 16.4798L29.7738 14.5297L27.6995 12.5795L26.752 13.4498Z" fill="#008060"/>
<path d="M35.5952 10.6777V15.8755H37.0463H38.4975V13.6997V11.5238H42.5948H46.6921V13.6997V15.8755H48.1006H49.509V10.6777V5.47988H48.1006H46.6921L46.675 7.67183L46.6494 9.87183L42.5777 9.896L38.4975 9.91212V7.696V5.47988H37.0463H35.5952V10.6777Z" fill="#008060"/>
<path d="M53.5382 10.6777L50.7896 15.8755H52.2407H53.6918L54.1186 15.0696L54.5454 14.2638H57.7464H60.9475L61.3743 15.0696L61.8011 15.8755H63.2522H64.7033L61.9547 10.6777L59.1976 5.47988H57.7464H56.2953L53.5382 10.6777ZM58.933 10.452L60.0939 12.652H57.7464H55.399L56.5685 10.4359C57.2172 9.22714 57.7464 8.23593 57.755 8.24399C57.7635 8.25205 58.2928 9.25131 58.933 10.452Z" fill="#008060"/>
<path d="M65.8984 10.6777V15.8755H71.4469H76.9953V15.0696V14.2638H72.898H68.8007V9.87183V5.47988H67.3496H65.8984V10.6777Z" fill="#008060"/>
<path d="M72.7271 5.52018C72.7271 5.54435 73.9562 6.90626 75.4586 8.55021L78.1901 11.5319V13.6997V15.8755H79.6413H81.0924V13.6755V11.4835L83.7215 8.61468C85.1641 7.04325 86.3933 5.68941 86.4616 5.61688C86.564 5.48794 86.4701 5.47988 85.1385 5.47988H83.6959L81.6899 7.65571C80.5888 8.84838 79.6583 9.83153 79.6242 9.83153C79.59 9.83153 78.6596 8.84838 77.5499 7.65571L75.5354 5.47988H74.127C73.3587 5.47988 72.7271 5.496 72.7271 5.52018Z" fill="#008060"/>
<path d="M87.4946 10.6777V15.8755H88.9458H90.3969L90.414 13.6997L90.4396 11.5238L93.615 13.6997L96.7819 15.8755L98.3354 15.8594L99.8805 15.8352L96.2526 13.3129C94.2552 11.9187 92.5992 10.7583 92.5736 10.726C92.5565 10.6938 93.7174 9.84765 95.16 8.84032C96.6026 7.84106 98.2757 6.68062 98.8903 6.25351L100 5.47988H98.4123H96.8331L93.6662 7.65571C91.9163 8.84838 90.4737 9.83153 90.4481 9.83153C90.4225 9.83153 90.3969 8.84838 90.3969 7.65571V5.47988H88.9458H87.4946V10.6777Z" fill="#008060"/>
<path d="M35.5952 22.2819V27.4878L41.5534 27.4636C47.4433 27.4394 47.503 27.4394 47.9042 27.2622C48.4335 27.0285 48.9968 26.5288 49.2529 26.0534C49.4407 25.7149 49.4663 25.5618 49.4663 24.8607C49.4663 24.1757 49.4322 23.9984 49.27 23.7083C48.8944 23.0394 48.2457 22.5559 47.4603 22.3625L47.0762 22.2658L47.4603 22.1691C48.3396 21.9435 49.1249 21.2665 49.3895 20.5332C49.5773 19.9772 49.5261 18.9457 49.27 18.4863C48.9968 17.9867 48.3566 17.4306 47.8274 17.2453C47.3835 17.0922 47.1787 17.0841 41.4851 17.0841H35.5952V22.2819ZM45.83 18.8167C46.1714 18.9779 46.4958 19.3728 46.6153 19.7435C46.7433 20.1383 46.6238 20.5816 46.2909 20.9603C45.8641 21.4358 45.8385 21.4358 41.9973 21.4358H38.4975V20.0658V18.6959H42.0399C44.9934 18.6959 45.6336 18.712 45.83 18.8167ZM45.608 23.1361C46.2653 23.3054 46.7775 24.079 46.658 24.6995C46.5726 25.1024 46.2568 25.4893 45.8385 25.6827C45.4629 25.868 45.4202 25.868 41.9802 25.868H38.4975V24.4578V23.0475H41.8948C43.9862 23.0475 45.4032 23.0797 45.608 23.1361Z" fill="#008060"/>
<path d="M53.5211 22.2416C52.0187 25.0783 50.7896 27.4153 50.7896 27.4394C50.7896 27.4636 51.4298 27.4797 52.2236 27.4797H53.6491L54.1015 26.6336L54.5454 25.7874H57.7464H60.9475L61.3913 26.6336L61.8438 27.4797H63.2693H64.7033L61.9547 22.2819L59.1976 17.0841H57.7294H56.2526L53.5211 22.2416ZM58.9415 21.9999L60.0939 24.1757H57.7464H55.399L56.5514 21.9999C57.1831 20.7992 57.7208 19.8241 57.7464 19.8241C57.7721 19.8241 58.3098 20.7992 58.9415 21.9999Z" fill="#008060"/>
<path d="M65.8984 22.2819V27.4797H67.3496H68.8007V23.6519C68.8007 21.5486 68.8263 19.8241 68.869 19.8241C68.9031 19.8241 70.7555 21.5486 72.9834 23.6519L77.038 27.4797H78.4635H79.8976V22.2819V17.0841H78.4465H76.9953V20.9281V24.7801L72.9151 20.9281L68.8434 17.0841H67.3666H65.8984V22.2819Z" fill="#008060"/>
<path d="M81.0928 22.2819V27.4797H82.5439H83.995V25.3039C83.995 24.1032 84.0121 23.1281 84.0377 23.1281C84.0548 23.1281 85.4974 24.1112 87.2387 25.3039L90.4056 27.4797L91.9677 27.4636L93.5213 27.4394L89.8252 24.8687C87.7936 23.4585 86.1291 22.2819 86.1376 22.2497C86.1376 22.2255 87.785 21.057 89.8081 19.6629C91.8226 18.2687 93.4701 17.1164 93.4701 17.1002C93.4701 17.0922 92.7701 17.0841 91.9165 17.0841H90.3544L87.1961 19.26L84.0377 21.4277L84.0121 19.2519L83.995 17.0841H82.5439H81.0928V22.2819Z" fill="#008060"/>
</svg>
