<svg width="140" height="50" viewBox="0 0 140 50" fill="none" xmlns="http://www.w3.org/2000/svg">
<path d="M45.4045 0.12397C37.0182 1.08492 30.5338 6.39143 29.5323 13.1181C29.3502 14.3002 29.4514 16.5537 29.7245 17.6338C30.1191 19.207 30.8474 20.7972 31.7477 22.0899L32.1726 22.7021H36.6136H41.0647L40.2453 22.0473C37.8983 20.1594 36.7148 17.8549 36.7148 15.1761C36.7148 12.5058 37.8882 10.2012 40.2149 8.33886C41.6919 7.14829 43.2295 6.43395 45.3033 5.97474C46.143 5.78765 46.4869 5.75363 47.8931 5.75363C50.0276 5.75363 51.2617 5.98324 53.0017 6.71459C56.8357 8.33886 59.1725 11.5449 59.1725 15.1761C59.1725 17.8208 58.0092 20.1254 55.7432 21.9538L54.8327 22.7021H59.2737H63.7146L64.0788 22.2004C64.9792 20.9503 65.7581 19.2665 66.1729 17.6593C66.3752 16.9024 66.4055 16.5452 66.4055 14.8784C66.4055 13.3562 66.3651 12.8035 66.2234 12.1997C64.8274 6.42545 59.5468 1.89281 52.5465 0.455627C50.3614 0.00491395 47.5592 -0.122646 45.4045 0.12397Z" fill="#C70F2D"/>
<path d="M1.51025 11.817V22.7021H4.74741H7.98456V18.6202V14.5383H13.2449H18.5053V18.6202V22.7021H21.6919H24.8785V11.817V0.93185H21.6919H18.5053V5.31142V9.69099H13.2449H7.98456V5.31142V0.93185H4.74741H1.51025V11.817Z" fill="#C70F2D"/>
<path d="M71.0083 11.817V22.7021H74.1949H77.3814L77.4017 17.2426L77.432 11.783L80.3151 15.5418L83.1982 19.3005H84.9685H86.7388L89.5612 15.6438C91.1191 13.6284 92.4241 11.9616 92.4747 11.9361C92.5151 11.9105 92.5556 14.3257 92.5556 17.2936V22.7021H95.7422H98.9288V11.817V0.93185H96.5414H94.1641L89.6017 6.71459C87.0929 9.89509 85.009 12.4973 84.9786 12.4973C84.9483 12.4973 82.8745 9.89509 80.3657 6.71459L75.8135 0.940354H73.4159L71.0083 0.93185V11.817Z" fill="#C70F2D"/>
<path d="M104.291 11.817V22.7021H114.103H123.916V20.3635V18.0249H117.34H110.765V16.1115V14.1981H116.531H122.297V11.902V9.60595H116.531H110.765V7.60751V5.60906H117.34H123.916V3.27046V0.93185H114.103H104.291V11.817Z" fill="#C70F2D"/>
<path d="M41.874 17.3103C41.874 17.3443 42.0359 17.642 42.218 17.9736C43.5432 20.2527 46.5982 21.4603 49.4813 20.8395C50.412 20.6354 51.0291 20.3802 51.8586 19.8615C52.7185 19.3172 53.6694 18.2202 53.9527 17.4464L54.0235 17.2593H47.9538C44.6054 17.2593 41.874 17.2848 41.874 17.3103Z" fill="#C70F2D"/>
<path d="M12.3347 27.4302C7.52958 27.9149 3.8979 29.8028 1.74317 32.9493C-0.0676147 35.5856 -0.512723 39.2763 0.62028 42.2527C1.30818 44.0811 2.22874 45.3482 3.82709 46.6918C5.04102 47.7123 6.27518 48.4352 7.72179 48.9709C12.1729 50.6037 17.6153 50.272 21.3886 48.129C22.9971 47.2191 24.4639 45.8074 25.3238 44.3532C25.7487 43.6219 26.3961 42.1337 26.3961 41.87C26.3961 41.768 25.86 41.751 23.0173 41.751H19.6284L19.2643 42.3293C18.111 44.1831 15.5618 45.1866 12.7596 44.906C11.1511 44.7359 9.87652 44.2512 8.77386 43.3753C7.17552 42.1167 6.32576 40.1692 6.51797 38.1963C6.76076 35.5686 8.4805 33.5956 11.2118 32.7963C12.3448 32.4561 14.1051 32.3796 15.3089 32.6092C16.978 32.9153 18.5359 33.8848 19.2946 35.0923L19.6284 35.6281H23.0173C25.1721 35.6281 26.3961 35.5941 26.3961 35.5431C26.3961 35.5005 26.2545 35.0838 26.0825 34.6331C24.6663 30.8999 21.156 28.3572 16.3812 27.6003C15.5415 27.4642 13.0429 27.3622 12.3347 27.4302Z" fill="#C70F2D"/>
<path d="M30.1392 38.6811V49.5747H33.3257H36.5123V46.4282V43.2817L39.011 43.2987L41.5097 43.3243L43.9375 46.4452L46.3755 49.5747H50.0881C52.1417 49.5747 53.8109 49.5577 53.8109 49.5322C53.8109 49.5067 52.4654 47.8059 50.8266 45.7564C49.1878 43.6984 47.8423 42.0061 47.8423 41.9891C47.8423 41.9636 48.0649 41.8275 48.3482 41.6745C50.0477 40.7475 51.3324 39.2168 51.8989 37.414C52.2226 36.3935 52.2327 34.6331 51.909 33.5701C51.5246 32.2605 50.9379 31.3591 49.8757 30.4066C48.5606 29.2416 46.8611 28.5102 44.3826 28.0425C43.4924 27.8724 43.0979 27.8554 36.7956 27.8299L30.1392 27.7959V38.6811ZM42.3797 32.6517C43.3103 32.7793 44.3826 33.2385 44.9491 33.7572C45.546 34.3185 45.7584 34.8627 45.6977 35.6621C45.5966 37.0228 44.4636 37.9582 42.5112 38.3069C42.0155 38.4004 41.0949 38.4344 39.1728 38.4344H36.5123V35.5006V32.5667H39.1223C40.5486 32.5667 42.0155 32.6092 42.3797 32.6517Z" fill="#C70F2D"/>
<path d="M57.0479 38.6896V49.5747H66.8605H76.6731V47.2361V44.8975H70.0976H63.5222V42.9841V41.0707H69.2883H75.0545V38.7746V36.4785H69.2883H63.5222V34.4801V32.4816H70.0976H76.6731V30.143V27.8044H66.8605H57.0479V38.6896Z" fill="#C70F2D"/>
<path d="M80.9219 38.6979V49.583L87.3254 49.549C93.5063 49.5235 93.7491 49.515 94.7304 49.3279C97.5932 48.7921 99.8188 47.8397 101.569 46.411C104.057 44.3871 105.332 41.7593 105.332 38.6468C105.332 37.2947 105.14 36.2742 104.695 35.1262C103.127 31.0783 98.8375 28.391 93.1421 27.8892C92.6262 27.8467 89.6622 27.8042 86.5667 27.8042H80.9219V38.6979ZM92.4239 32.745C94.1841 32.9491 95.6712 33.5614 96.8649 34.5649C98.9184 36.3167 99.4141 39.0125 98.1193 41.2831C97.3909 42.5587 96.3692 43.4091 94.8315 44.0469C93.4456 44.6252 93.132 44.6677 90.1073 44.7102L87.3962 44.7442V38.6979V32.6515H89.5104C90.6738 32.6515 91.9889 32.694 92.4239 32.745Z" fill="#C70F2D"/>
<path d="M108.943 38.6896V49.5747H112.13H115.317V38.6896V27.8044H112.13H108.943V38.6896Z" fill="#C70F2D"/>
<path d="M118.756 30.2281V32.6517H122.448H126.141V41.1132V49.5747H129.378H132.615V41.1132V32.6517H136.307H140V30.2281V27.8044H129.378H118.756V30.2281Z" fill="#C70F2D"/>
</svg>
