<svg width="160" height="50" viewBox="0 0 160 50" fill="none" xmlns="http://www.w3.org/2000/svg">
<rect x="11.165" y="10.1648" width="33.7004" height="29.6703" fill="#FCAF17"/>
<rect width="36.7833" height="36.173" transform="matrix(0.745513 -0.66649 0.745513 0.66649 0.717773 25.2034)" fill="#FCAF17"/>
<path d="M23.2864 4.1514L18.6428 8.30281H13.9718H9.28724V12.4786V16.6667L4.64362 20.8181L0 24.9695L4.64362 29.1209L9.28724 33.2723V37.4481V41.6361H13.9582H18.6428L23.3137 45.812L27.9983 50L32.6829 45.812L37.3538 41.6361H41.9701H46.5728V37.5214V33.3944L51.2847 29.1819L55.9966 24.9695L51.2847 20.757L46.5728 16.5446V12.4298V8.30281H41.9565H37.3538L32.7102 4.1514C30.1562 1.86813 28.0393 -8.33534e-07 27.9983 -8.33534e-07C27.9573 -8.33534e-07 25.8404 1.86813 23.2864 4.1514ZM33.1199 5.86081L38.1733 10.3785H41.2736H44.3875V13.1624V15.9341L49.3726 20.3907C52.1178 22.8449 54.3577 24.8962 54.3577 24.9695C54.3577 25.0427 52.1178 27.094 49.3726 29.5482L44.3875 34.0049V36.7766V39.5604H41.2872H38.1733L33.0926 44.1026L27.9983 48.6569L22.904 44.1026L17.8233 39.5604H14.7093H11.609V36.7766V34.0049L6.5557 29.4872L1.50235 24.9695L6.5557 20.4518L11.609 15.9341V13.1502V10.3785H14.723H17.8233L22.8767 5.86081C25.6492 3.36996 27.9573 1.3431 27.9983 1.3431C28.0393 1.3431 30.3474 3.36996 33.1199 5.86081Z" fill="#008060"/>
<path d="M16.4168 14.6887L4.91699 24.9695L8.24947 27.9487L11.582 30.9158L12.9341 29.7192C14.614 28.2174 16.3895 27.0696 18.5064 26.1294C21.4292 24.8352 23.4778 24.359 27.3839 24.1148C30.1701 23.9316 30.8257 23.7973 32.4099 23.0525C33.6665 22.4664 35.442 20.8303 36.0839 19.6581C36.8487 18.2784 37.0809 17.3749 37.0672 15.812C37.0536 14.7131 36.9853 14.2857 36.6985 13.4921C36.0702 11.7705 35.6468 11.2943 31.6315 7.70454L27.9302 4.39562L16.4168 14.6887Z" fill="#008060"/>
<path d="M42.8031 20.3786C40.4539 22.4299 37.7224 23.9439 34.7587 24.8353C32.9285 25.3969 31.4535 25.6411 29.0907 25.7754C26.3865 25.9342 25.3212 26.1173 24.1193 26.6179C19.2435 28.6814 17.3724 34.0416 20.1039 38.193C20.4044 38.657 21.8112 40.0245 24.2422 42.2223L27.9298 45.5435L39.4433 35.2626L50.943 24.9696L47.6379 22.0148L44.3191 19.0599L42.8031 20.3786Z" fill="#008060"/>
<path d="M56.9526 16.1783V24.0537H59.2744H61.5963V20.757V17.4603H68.152H74.7077V20.757V24.0537H76.9612H79.2147V16.1783V8.30279H76.9612H74.7077L74.6803 11.6239L74.6394 14.9573L68.1246 14.9939L61.5963 15.0183V11.6605V8.30279H59.2744H56.9526V16.1783Z" fill="#008060"/>
<path d="M85.661 16.1783L81.2632 24.0537H83.585H85.9068L86.5897 22.8327L87.2726 21.6117H92.3942H97.5159L98.1987 22.8327L98.8816 24.0537H101.203H103.525L99.1275 16.1783L94.716 8.30279H92.3942H90.0724L85.661 16.1783ZM94.2926 15.8364L96.1501 19.1697H92.3942H88.6383L90.5094 15.812C91.5474 13.9805 92.3942 12.4786 92.4079 12.4908C92.4215 12.503 93.2683 14.0171 94.2926 15.8364Z" fill="#008060"/>
<path d="M105.438 16.1783V24.0537H114.315H123.193V22.8327V21.6117H116.637H110.081V14.9573V8.30279H107.759H105.438V16.1783Z" fill="#008060"/>
<path d="M116.364 8.36384C116.364 8.40048 118.33 10.464 120.734 12.9548L125.105 17.4725V20.757V24.0537H127.427H129.748V20.7204V17.3993L133.955 13.0525C136.263 10.6715 138.23 8.62026 138.339 8.51037C138.503 8.315 138.353 8.30279 136.222 8.30279H133.914L130.704 11.5995C128.943 13.4066 127.454 14.8962 127.399 14.8962C127.345 14.8962 125.856 13.4066 124.08 11.5995L120.857 8.30279H118.604C117.374 8.30279 116.364 8.32721 116.364 8.36384Z" fill="#008060"/>
<path d="M139.992 16.1783V24.0537H142.314H144.635L144.663 20.757L144.704 17.4603L149.784 20.757L154.851 24.0537L157.337 24.0293L159.809 23.9927L154.005 20.1709C150.809 18.0586 148.159 16.3004 148.118 16.2515C148.091 16.2027 149.948 14.9206 152.256 13.3944C154.564 11.8803 157.241 10.1221 158.225 9.47496L160 8.30279H157.46H154.933L149.866 11.5995C147.066 13.4066 144.758 14.8962 144.717 14.8962C144.676 14.8962 144.635 13.4066 144.635 11.5995V8.30279H142.314H139.992V16.1783Z" fill="#008060"/>
<path d="M56.9526 33.7608V41.6484L66.4857 41.6118C75.9095 41.5752 76.0051 41.5752 76.647 41.3066C77.4938 40.9525 78.3952 40.1954 78.805 39.4751C79.1054 38.9622 79.1464 38.7302 79.1464 37.668C79.1464 36.6301 79.0918 36.3615 78.8323 35.9219C78.2313 34.9085 77.1934 34.1759 75.9368 33.8829L75.3222 33.7363L75.9368 33.5898C77.3436 33.2479 78.6001 32.2223 79.0235 31.1112C79.324 30.2687 79.242 28.7058 78.8323 28.0099C78.3952 27.2528 77.3709 26.4103 76.5241 26.1295C75.8139 25.8975 75.4861 25.8853 66.3765 25.8853H56.9526V33.7608ZM73.3282 28.5105C73.8745 28.7547 74.3935 29.353 74.5847 29.9146C74.7896 30.5129 74.5984 31.1845 74.0657 31.7583C73.3829 32.4787 73.3419 32.4787 67.1959 32.4787H61.5963V30.403V28.3273H67.2642C71.9898 28.3273 73.0141 28.3517 73.3282 28.5105ZM72.9731 35.055C74.0248 35.3114 74.8442 36.4836 74.653 37.4238C74.5164 38.0343 74.0111 38.6204 73.3419 38.9134C72.7409 39.1942 72.6727 39.1942 67.1686 39.1942H61.5963V37.0575V34.9207H67.032C70.3782 34.9207 72.6453 34.9696 72.9731 35.055Z" fill="#008060"/>
<path d="M85.6336 33.6997C83.2299 37.9976 81.2632 41.5386 81.2632 41.5752C81.2632 41.6118 82.2875 41.6362 83.5577 41.6362H85.8385L86.5624 40.3542L87.2726 39.0721H92.3942H97.5159L98.2261 40.3542L98.9499 41.6362H101.231H103.525L99.1275 33.7608L94.716 25.8853H92.3669H90.0041L85.6336 33.6997ZM94.3063 33.3334L96.1501 36.6301H92.3942H88.6383L90.4821 33.3334C91.4928 31.5141 92.3532 30.0367 92.3942 30.0367C92.4352 30.0367 93.2956 31.5141 94.3063 33.3334Z" fill="#008060"/>
<path d="M105.438 33.7608V41.6362H107.759H110.081V35.8365C110.081 32.6497 110.122 30.0367 110.19 30.0367C110.245 30.0367 113.209 32.6497 116.773 35.8365L123.261 41.6362H125.542H127.836V33.7608V25.8853H125.514H123.193V31.7095V37.5459L116.664 31.7095L110.149 25.8853H107.787H105.438V33.7608Z" fill="#008060"/>
<path d="M129.748 33.7608V41.6362H132.07H134.392V38.3395C134.392 36.5202 134.419 35.0428 134.46 35.0428C134.487 35.0428 136.795 36.5324 139.582 38.3395L144.649 41.6362L147.148 41.6118L149.634 41.5752L143.72 37.6802C140.469 35.5434 137.806 33.7608 137.82 33.7119C137.82 33.6753 140.456 31.9049 143.693 29.7925C146.916 27.6802 149.552 25.9342 149.552 25.9097C149.552 25.8975 148.432 25.8853 147.066 25.8853H144.567L139.513 29.182L134.46 32.4665L134.419 29.1698L134.392 25.8853H132.07H129.748V33.7608Z" fill="#008060"/>
</svg>
