<svg width="80" height="80" viewBox="0 0 80 80" fill="none" xmlns="http://www.w3.org/2000/svg">
<g clip-path="url(#clip0_160_808)">
<path opacity="0.981" fill-rule="evenodd" clip-rule="evenodd" d="M36.7968 -0.078125C38.9323 -0.078125 41.0676 -0.078125 43.2031 -0.078125C43.7382 0.653922 43.9465 1.48725 43.8281 2.42188C51.6248 2.91891 56.7029 6.87723 59.0624 14.2969C59.5362 17.193 59.7185 20.1097 59.6093 23.0469C60.9742 22.9881 62.3284 23.0662 63.6718 23.2812C64.1802 23.8803 64.3885 24.5834 64.2968 25.3906C64.2813 26.4633 64.099 27.505 63.7499 28.5156C63.1192 29.3284 62.416 30.0577 61.6406 30.7031C62.1076 34.1453 60.7795 36.5933 57.6562 38.0469C58.024 40.9472 57.451 43.6555 55.9374 46.1719C53.352 49.8514 50.279 53.0806 46.7187 55.8594C45.8995 57.5975 45.8213 59.3684 46.4843 61.1719C53.2938 62.3675 60.0646 63.7477 66.7968 65.3125C71.5217 67.6236 73.7612 71.4258 73.5156 76.7188C73.4895 77.5261 73.4635 78.3333 73.4374 79.1406C73.2817 79.4255 73.0993 79.6859 72.8906 79.9219C65.1823 79.9219 57.4738 79.9219 49.7656 79.9219C49.3601 79.6853 49.1517 79.3206 49.1406 78.8281C49.3704 77.7473 50.0476 77.3306 51.1718 77.5781C52.1613 77.5781 53.151 77.5781 54.1406 77.5781C54.1406 76.4323 54.1406 75.2864 54.1406 74.1406C44.6093 74.1406 35.0781 74.1406 25.5468 74.1406C25.496 75.3155 25.5481 76.4613 25.7031 77.5781C32.2137 77.552 38.7242 77.5781 45.2343 77.6562C45.7482 77.8766 46.0087 78.2672 46.0156 78.8281C46.0702 79.2895 45.914 79.6542 45.5468 79.9219C32.6823 79.9219 19.8176 79.9219 6.95306 79.9219C6.74429 79.6859 6.56201 79.4255 6.40618 79.1406C5.79334 75.3483 6.52251 71.8587 8.59368 68.6719C10.1487 66.7875 12.1018 65.5114 14.4531 64.8438C20.6954 63.5692 26.9454 62.3453 33.2031 61.1719C33.401 60.3225 33.5573 59.4631 33.6718 58.5938C33.5959 57.5917 33.3615 56.6281 32.9687 55.7031C29.7395 53.3073 26.927 50.4948 24.5312 47.2656C22.5537 44.5127 21.7204 41.4398 22.0312 38.0469C19.0281 36.5205 17.7521 34.0725 18.2031 30.7031C15.6723 29.0262 14.8128 26.6825 15.6249 23.6719C15.8684 23.3175 16.2068 23.1353 16.6406 23.125C17.7852 23.0469 18.931 23.0209 20.0781 23.0469C20.052 20.9108 20.0781 18.7755 20.1562 16.6406C21.2631 9.38789 25.3515 4.77852 32.4218 2.8125C33.6607 2.57356 34.9107 2.44336 36.1718 2.42188C36.1459 1.79472 36.172 1.16971 36.2499 0.546875C36.3577 0.257777 36.5399 0.049443 36.7968 -0.078125Z" fill="#020101"/>
<path fill-rule="evenodd" clip-rule="evenodd" d="M38.5156 2.26562C39.4531 2.26562 40.3906 2.26562 41.3281 2.26562C41.3281 7.21355 41.3281 12.1615 41.3281 17.1094C40.3906 17.1094 39.4531 17.1094 38.5156 17.1094C38.5156 12.1615 38.5156 7.21355 38.5156 2.26562Z" fill="#FDA53D"/>
<path fill-rule="evenodd" clip-rule="evenodd" d="M36.1719 18.2031C33.6597 18.2526 31.1597 18.2006 28.6719 18.0468C28.6175 17.6532 28.4092 17.3667 28.0469 17.1874C26.2247 17.1093 24.4017 17.0832 22.5781 17.1093C23.5241 10.564 27.2219 6.52755 33.6719 4.99994C34.5036 4.92191 35.3369 4.89588 36.1719 4.92182C36.1719 9.3489 36.1719 13.776 36.1719 18.2031Z" fill="#FDC63A"/>
<path fill-rule="evenodd" clip-rule="evenodd" d="M48.8281 5.85896C50.1759 7.30098 51.2958 8.91557 52.1875 10.7027C53.1006 12.7409 53.5955 14.8763 53.6719 17.109C52.9928 17.083 52.3158 17.1091 51.6406 17.1871C51.173 17.3682 50.9125 17.7066 50.8594 18.2027C48.4636 18.2027 46.0677 18.2027 43.6719 18.2027C43.6719 13.7756 43.6719 9.34854 43.6719 4.92146C45.4652 4.86527 47.1839 5.17777 48.8281 5.85896Z" fill="#FEC63A"/>
<path fill-rule="evenodd" clip-rule="evenodd" d="M48.8281 5.85938C53.6392 8.08053 56.3997 11.8305 57.1094 17.1094C55.9636 17.1094 54.8177 17.1094 53.6719 17.1094C53.5955 14.8767 53.1006 12.7413 52.1875 10.7031C51.2958 8.91598 50.1759 7.30139 48.8281 5.85938Z" fill="#FAA43C"/>
<path fill-rule="evenodd" clip-rule="evenodd" d="M28.6719 18.0469C31.1597 18.2006 33.6597 18.2527 36.1719 18.2031C36.1719 19.8698 36.1719 21.5364 36.1719 23.2031C31.5886 23.2031 27.0052 23.2031 22.4219 23.2031C22.4219 21.9531 22.4219 20.7031 22.4219 19.4531C24.2455 19.4792 26.0684 19.4531 27.8906 19.375C28.5137 19.1431 28.7741 18.7005 28.6719 18.0469Z" fill="#FCA53D"/>
<path fill-rule="evenodd" clip-rule="evenodd" d="M43.6719 18.2031C46.0677 18.2031 48.4636 18.2031 50.8594 18.2031C50.9438 18.7102 51.2041 19.1008 51.6406 19.375C52.3158 19.453 52.9928 19.4791 53.6719 19.4531C53.6719 20.7031 53.6719 21.9531 53.6719 23.2031C50.3386 23.2031 47.0052 23.2031 43.6719 23.2031C43.6719 21.5364 43.6719 19.8698 43.6719 18.2031Z" fill="#FEA63D"/>
<path fill-rule="evenodd" clip-rule="evenodd" d="M38.5156 19.4531C39.4531 19.4531 40.3906 19.4531 41.3281 19.4531C41.3281 20.7031 41.3281 21.9531 41.3281 23.2031C40.3906 23.2031 39.4531 23.2031 38.5156 23.2031C38.5156 21.9531 38.5156 20.7031 38.5156 19.4531Z" fill="#FD823F"/>
<path fill-rule="evenodd" clip-rule="evenodd" d="M53.6719 19.4531C54.8177 19.4531 55.9636 19.4531 57.1094 19.4531C57.1094 20.7031 57.1094 21.9531 57.1094 23.2031C55.9636 23.2031 54.8177 23.2031 53.6719 23.2031C53.6719 21.9531 53.6719 20.7031 53.6719 19.4531Z" fill="#FE843F"/>
<path fill-rule="evenodd" clip-rule="evenodd" d="M58.2028 25.5469C58.2889 26.5313 58.1327 27.4688 57.7341 28.3594C49.2964 28.3333 40.8589 28.3594 32.4216 28.4375C31.9077 28.6578 31.6472 29.0484 31.6403 29.6094C30.5986 29.6094 29.5571 29.6094 28.5153 29.6094C28.5202 28.9692 28.2077 28.5786 27.5778 28.4375C24.7653 28.3855 21.9528 28.3333 19.1403 28.2812C18.0796 27.6811 17.6628 26.7695 17.8903 25.5469C31.3278 25.5469 44.7653 25.5469 58.2028 25.5469Z" fill="#FEC63B"/>
<path fill-rule="evenodd" clip-rule="evenodd" d="M58.2031 25.5469C59.4011 25.5469 60.5989 25.5469 61.7969 25.5469C62.0233 26.6142 61.7108 27.4736 60.8594 28.125C59.8319 28.3402 58.7902 28.4183 57.7344 28.3594C58.133 27.4688 58.2892 26.5313 58.2031 25.5469Z" fill="#FDA63D"/>
<path fill-rule="evenodd" clip-rule="evenodd" d="M28.5156 29.6094C29.5574 29.6094 30.5989 29.6094 31.6406 29.6094C31.7331 30.1702 32.0456 30.5347 32.5781 30.7031C39.3746 30.8592 46.1974 30.9112 53.0469 30.8594C53.0171 33.8297 53.0691 36.7984 53.2031 39.7656C53.1181 42.3389 52.415 44.7347 51.0938 46.9531C50.2711 48.338 49.3336 49.64 48.2813 50.8594C48.2058 51.0075 48.1799 51.1637 48.2031 51.3281C46.9074 52.6487 45.4491 53.7686 43.8281 54.6875C40.828 55.9712 37.9113 55.815 35.0781 54.2188C31.4517 51.6861 28.4049 48.587 25.9375 44.9219C25.2528 43.7531 24.7841 42.5031 24.5313 41.1719C24.5052 39.4014 24.5313 37.6306 24.6094 35.8594C24.7647 34.2208 24.8169 32.5541 24.7656 30.8594C25.7328 30.9098 26.6703 30.8578 27.5781 30.7031C28.1106 30.5347 28.4231 30.1702 28.5156 29.6094Z" fill="#FED8BF"/>
<path fill-rule="evenodd" clip-rule="evenodd" d="M20.547 30.7031C21.12 30.7031 21.6928 30.7031 22.2658 30.7031C22.2917 32.2666 22.2658 33.8291 22.1876 35.3906C20.725 34.1775 20.1781 32.615 20.547 30.7031Z" fill="#F7A686"/>
<path fill-rule="evenodd" clip-rule="evenodd" d="M27.5781 30.7031C26.6703 30.8578 25.7328 30.9098 24.7656 30.8594C24.8169 32.5541 24.7647 34.2208 24.6094 35.8594C24.6094 34.1406 24.6094 32.4219 24.6094 30.7031C25.5989 30.7031 26.5886 30.7031 27.5781 30.7031Z" fill="#988172"/>
<path fill-rule="evenodd" clip-rule="evenodd" d="M32.5781 30.7031C40.0781 30.7031 47.5781 30.7031 55.0781 30.7031C55.058 33.6991 55.1102 36.6939 55.2344 39.6875C55.2447 40.6091 55.1666 41.5205 55 42.4219C53.4792 45.9494 51.2136 48.9181 48.2031 51.3281C48.1798 51.1637 48.2058 51.0075 48.2812 50.8594C49.3336 49.64 50.2711 48.338 51.0938 46.9531C52.415 44.7347 53.1181 42.3389 53.2031 39.7656C53.0691 36.7984 53.017 33.8297 53.0469 30.8594C46.1973 30.9112 39.3745 30.8592 32.5781 30.7031Z" fill="#F7B89E"/>
<path fill-rule="evenodd" clip-rule="evenodd" d="M59.2973 31.016C59.4536 32.2467 59.2192 33.3927 58.5942 34.4535C58.3279 34.7461 58.0415 35.0066 57.7348 35.2347C57.5795 33.8047 57.5275 32.3464 57.5786 30.8597C58.1675 30.8197 58.7404 30.8717 59.2973 31.016Z" fill="#FCA988"/>
<path fill-rule="evenodd" clip-rule="evenodd" d="M59.2968 31.0158C58.7399 30.8716 58.1669 30.8195 57.578 30.8595C57.5269 32.3463 57.579 33.8045 57.7343 35.2345C57.7249 35.3194 57.6729 35.3714 57.578 35.3908C57.4219 33.8317 57.3699 32.2692 57.4218 30.7033C58.1204 30.6113 58.7454 30.7153 59.2968 31.0158Z" fill="#AA725C"/>
<path fill-rule="evenodd" clip-rule="evenodd" d="M35.2344 43.0465C35.8741 42.9223 36.3689 43.1306 36.7188 43.6715C37.5733 46.0126 39.1619 46.7157 41.4844 45.7809C42.2166 45.2551 42.7114 44.552 42.9688 43.6715C43.4484 43.0142 44.0473 42.884 44.7656 43.2809C45.0464 43.53 45.2027 43.8425 45.2344 44.2184C44.1897 47.4773 41.9502 48.8836 38.5156 48.4371C36.3609 47.7929 35.0067 46.3867 34.4531 44.2184C34.5048 43.6746 34.7653 43.284 35.2344 43.0465Z" fill="#060504"/>
<path fill-rule="evenodd" clip-rule="evenodd" d="M43.6715 59.9219C41.1187 60.7552 38.5666 60.7552 36.0152 59.9219C35.9638 59.0303 36.016 58.145 36.1715 57.2656C38.6149 58.082 41.0629 58.082 43.5152 57.2656C43.6707 58.145 43.7229 59.0303 43.6715 59.9219Z" fill="#FDBBA0"/>
<path fill-rule="evenodd" clip-rule="evenodd" d="M36.0156 59.9219C38.567 60.7552 41.1191 60.7552 43.6719 59.9219C43.9263 60.8441 44.1867 61.7816 44.4531 62.7344C43.9691 65.3795 42.3805 66.7858 39.6875 66.9531C37.1631 66.6422 35.6788 65.2359 35.2344 62.7344C35.4981 61.782 35.7586 60.8445 36.0156 59.9219Z" fill="#FCD6BE"/>
<path fill-rule="evenodd" clip-rule="evenodd" d="M51.3281 64.6094C51.1725 66.9778 51.1203 69.3736 51.1718 71.7969C42.6301 71.7969 34.0885 71.7969 25.5468 71.7969C25.4948 69.5548 25.547 67.3153 25.7031 65.0781C28.132 64.5091 30.58 64.0403 33.0468 63.6719C33.9196 67.1228 36.1332 68.9458 39.6875 69.1406C43.3835 69.0523 45.7014 67.2294 46.6406 63.6719C48.2428 63.8881 49.8053 64.2006 51.3281 64.6094Z" fill="#3DAFFC"/>
<path fill-rule="evenodd" clip-rule="evenodd" d="M51.3278 64.6094C52.2723 64.7253 53.2098 64.8816 54.1403 65.0781C54.1403 67.3177 54.1403 69.5573 54.1403 71.7969C53.1508 71.7969 52.1611 71.7969 51.1716 71.7969C51.12 69.3736 51.1722 66.9778 51.3278 64.6094Z" fill="#428FFE"/>
<path fill-rule="evenodd" clip-rule="evenodd" d="M22.7344 65.7031C22.8906 65.7031 23.0469 65.7031 23.2031 65.7031C23.2031 67.7344 23.2031 69.7656 23.2031 71.7969C21.8489 71.7969 20.4948 71.7969 19.1406 71.7969C19.1406 69.9739 19.1406 68.1511 19.1406 66.3281C20.3314 66.0795 21.5294 65.8712 22.7344 65.7031Z" fill="#648DA1"/>
<path fill-rule="evenodd" clip-rule="evenodd" d="M22.7344 65.7034C22.9012 65.5575 23.1095 65.5053 23.3594 65.5472C23.4108 67.6581 23.3587 69.7416 23.2031 71.7972C23.2031 69.7659 23.2031 67.7347 23.2031 65.7034C23.0469 65.7034 22.8906 65.7034 22.7344 65.7034Z" fill="#212D33"/>
<path fill-rule="evenodd" clip-rule="evenodd" d="M58.6719 66.0156C58.6719 67.9427 58.6719 69.8698 58.6719 71.7969C57.9427 71.7969 57.2136 71.7969 56.4844 71.7969C56.4844 69.7136 56.4844 67.6302 56.4844 65.5469C57.2231 65.6633 57.9522 65.8195 58.6719 66.0156Z" fill="#628A9E"/>
<path fill-rule="evenodd" clip-rule="evenodd" d="M58.6719 66.0156C59.2933 66.1342 59.9183 66.2383 60.5469 66.3281C60.5469 68.1511 60.5469 69.9739 60.5469 71.7969C59.9219 71.7969 59.2969 71.7969 58.6719 71.7969C58.6719 69.8698 58.6719 67.9427 58.6719 66.0156Z" fill="#4B7788"/>
<path fill-rule="evenodd" clip-rule="evenodd" d="M16.3283 66.9531C16.4846 66.9531 16.6408 66.9531 16.7971 66.9531C16.7971 70.4948 16.7971 74.0364 16.7971 77.5781C14.1408 77.5781 11.4846 77.5781 8.82832 77.5781C8.1626 72.497 10.1939 69.0334 14.9221 67.1875C15.3929 67.1091 15.8616 67.0309 16.3283 66.9531Z" fill="#3DB0FD"/>
<path fill-rule="evenodd" clip-rule="evenodd" d="M16.3281 66.9534C16.495 66.8075 16.7033 66.7553 16.9531 66.7972C17.0048 70.418 16.9528 74.0117 16.7969 77.5784C16.7969 74.0367 16.7969 70.4952 16.7969 66.9534C16.6406 66.9534 16.4844 66.9534 16.3281 66.9534Z" fill="#0B202D"/>
<path fill-rule="evenodd" clip-rule="evenodd" d="M63.3592 66.953C63.0482 70.4387 62.9442 73.9803 63.0467 77.578C62.8907 74.0112 62.8387 70.4175 62.8904 66.7967C63.0921 66.7597 63.2484 66.8117 63.3592 66.953Z" fill="#246996"/>
<path fill-rule="evenodd" clip-rule="evenodd" d="M63.3594 66.9531C64.2324 67.0152 65.0657 67.2234 65.8594 67.5781C67.9385 70.5716 68.7719 73.905 68.3594 77.5781C66.5886 77.5781 64.8177 77.5781 63.0469 77.5781C62.9444 73.9805 63.0485 70.4389 63.3594 66.9531Z" fill="#3DB0FE"/>
<path fill-rule="evenodd" clip-rule="evenodd" d="M65.8594 67.5781C69.9614 69.6353 71.6802 72.9686 71.0156 77.5781C70.1302 77.5781 69.2448 77.5781 68.3594 77.5781C68.7719 73.905 67.9384 70.5716 65.8594 67.5781Z" fill="#428EFC"/>
<path fill-rule="evenodd" clip-rule="evenodd" d="M23.2031 74.2972C21.9011 74.2972 20.5989 74.2972 19.2969 74.2972C19.2969 75.3389 19.2969 76.3805 19.2969 77.4222C20.5989 77.4222 21.9011 77.4222 23.2031 77.4222C21.8775 77.5774 20.5233 77.6294 19.1406 77.5785C19.1406 76.4327 19.1406 75.2867 19.1406 74.141C20.5233 74.09 21.8775 74.1421 23.2031 74.2972Z" fill="#B2C9D6"/>
<path fill-rule="evenodd" clip-rule="evenodd" d="M23.2031 74.2969C23.2031 75.3386 23.2031 76.3802 23.2031 77.4219C21.9011 77.4219 20.5989 77.4219 19.2969 77.4219C19.2969 76.3802 19.2969 75.3386 19.2969 74.2969C20.5989 74.2969 21.9011 74.2969 23.2031 74.2969Z" fill="#D3EFFE"/>
<path fill-rule="evenodd" clip-rule="evenodd" d="M51.1719 77.5781C50.0477 77.3306 49.3705 77.7473 49.1406 78.8281C48.0989 78.8281 47.0573 78.8281 46.0156 78.8281C46.0088 78.2672 45.7483 77.8766 45.2344 77.6562C38.7242 77.5781 32.2137 77.552 25.7031 77.5781C25.7031 76.4844 25.7031 75.3906 25.7031 74.2969C34.1927 74.2969 42.6823 74.2969 51.1719 74.2969C51.1719 75.3906 51.1719 76.4844 51.1719 77.5781Z" fill="#658EA3"/>
<path fill-rule="evenodd" clip-rule="evenodd" d="M51.1721 77.5781C51.1721 76.4844 51.1721 75.3906 51.1721 74.2969C42.6826 74.2969 34.1929 74.2969 25.7034 74.2969C25.7034 75.3906 25.7034 76.4844 25.7034 77.5781C25.5484 76.4613 25.4963 75.3155 25.5471 74.1406C35.0784 74.1406 44.6096 74.1406 54.1409 74.1406C54.1409 75.2864 54.1409 76.4323 54.1409 77.5781C53.1513 77.5781 52.1617 77.5781 51.1721 77.5781Z" fill="#4E7788"/>
<path fill-rule="evenodd" clip-rule="evenodd" d="M56.4844 74.1406C57.8386 74.1406 59.1927 74.1406 60.5469 74.1406C60.5469 75.2864 60.5469 76.4323 60.5469 77.5781C59.1927 77.5781 57.8386 77.5781 56.4844 77.5781C56.4844 76.4323 56.4844 75.2864 56.4844 74.1406Z" fill="#B3CFDD"/>
<path fill-rule="evenodd" clip-rule="evenodd" d="M56.6406 74.2969C57.2656 74.2969 57.8906 74.2969 58.5156 74.2969C58.5156 75.3386 58.5156 76.3802 58.5156 77.4219C57.8906 77.4219 57.2656 77.4219 56.6406 77.4219C56.6406 76.3802 56.6406 75.3386 56.6406 74.2969Z" fill="#D3EFFE"/>
</g>
<defs>
<clipPath id="clip0_160_808">
<rect width="80" height="80" fill="white"/>
</clipPath>
</defs>
</svg>
