<svg width="80" height="80" viewBox="0 0 80 80" fill="none" xmlns="http://www.w3.org/2000/svg">
<g clip-path="url(#clip0_160_1063)">
<mask id="mask0_160_1063" style="mask-type:luminance" maskUnits="userSpaceOnUse" x="0" y="0" width="80" height="80">
<path d="M80 0H0V80H80V0Z" fill="white"/>
</mask>
<g mask="url(#mask0_160_1063)">
<path opacity="0.976" fill-rule="evenodd" clip-rule="evenodd" d="M21.9531 -0.078125C33.9323 -0.078125 45.9114 -0.078125 57.8906 -0.078125C58.0927 0.202477 58.327 0.462894 58.5938 0.703125C58.7888 7.84461 62.0961 12.9227 68.5156 15.9375C70.5838 16.6948 72.7191 17.1116 74.9219 17.1875C75.7034 17.5275 76.068 18.1264 76.0156 18.9844C75.867 21.2725 75.815 23.5642 75.8594 25.8594C76.9023 25.8334 77.9441 25.8594 78.9844 25.9375C79.3219 26.1456 79.6344 26.38 79.9219 26.6406C79.9219 27.1614 79.9219 27.6823 79.9219 28.2031C79.6141 28.723 79.1453 29.0095 78.5156 29.0625C52.7864 29.1667 27.0573 29.1667 1.32812 29.0625C0.698495 29.0095 0.229745 28.723 -0.078125 28.2031C-0.078125 27.6823 -0.078125 27.1614 -0.078125 26.6406C0.209381 26.38 0.521881 26.1456 0.859375 25.9375C1.89973 25.8594 2.94141 25.8334 3.98438 25.8594C4.02727 23.5905 3.97517 21.3248 3.82812 19.0625C3.76123 18.1777 4.12583 17.5527 4.92188 17.1875C10.9569 17.023 15.6184 14.4448 18.9062 9.45312C20.4192 6.73478 21.2005 3.81813 21.25 0.703125C21.5167 0.462894 21.7511 0.202477 21.9531 -0.078125Z" fill="#010101"/>
<path fill-rule="evenodd" clip-rule="evenodd" d="M55.7031 3.67188C55.5619 3.56109 55.5098 3.40484 55.5469 3.20312C45.1302 3.20312 34.7136 3.20312 24.2969 3.20312C24.3339 3.40484 24.2819 3.56109 24.1406 3.67188C24.1406 3.46355 24.1406 3.2552 24.1406 3.04688C34.6614 3.04688 45.1823 3.04688 55.7031 3.04688C55.7031 3.2552 55.7031 3.46355 55.7031 3.67188Z" fill="#4FB299"/>
<path fill-rule="evenodd" clip-rule="evenodd" d="M55.7031 3.67188C57.0183 11.8883 61.6536 17.2269 69.6094 19.6875C70.6372 19.9497 71.6789 20.1319 72.7344 20.2344C72.6933 22.1097 72.6411 23.9847 72.5781 25.8594C71.5364 25.8594 70.4948 25.8594 69.4531 25.8594C69.4791 25.0244 69.453 24.1911 69.375 23.3594C69.2448 23.2031 69.1145 23.0469 68.9844 22.8906C63.0609 21.1447 58.5037 17.6552 55.3125 12.4219C54.3409 10.5059 53.4816 8.55275 52.7344 6.5625C52.5261 6.45833 52.3177 6.35417 52.1094 6.25C50.2344 6.14583 48.3594 6.14583 46.4844 6.25C45.8442 6.55028 45.4797 7.04508 45.3906 7.73438C44.0886 7.73438 42.7864 7.73438 41.4844 7.73438C41.2016 6.39531 40.4203 5.95259 39.1406 6.40625C38.6569 6.72323 38.3966 7.16594 38.3594 7.73438C37.0573 7.73438 35.7552 7.73438 34.4531 7.73438C34.3641 7.04508 33.9995 6.55028 33.3594 6.25C31.4323 6.14583 29.5052 6.14583 27.5781 6.25C27.4487 6.39292 27.2925 6.49709 27.1094 6.5625C26.3622 8.55275 25.5028 10.5059 24.5312 12.4219C21.3344 17.6569 16.777 21.1464 10.8594 22.8906C10.7292 23.0469 10.599 23.2031 10.4688 23.3594C10.3907 24.1911 10.3647 25.0244 10.3906 25.8594C9.34895 25.8594 8.3073 25.8594 7.26562 25.8594C7.19794 23.9328 7.14586 22.0058 7.10938 20.0781C14.4551 19.268 19.6895 15.518 22.8125 8.82812C23.4759 7.16387 23.9186 5.44512 24.1406 3.67188C24.2819 3.56109 24.3339 3.40484 24.2969 3.20312C34.7136 3.20312 45.1302 3.20312 55.5469 3.20312C55.5098 3.40484 55.5619 3.56109 55.7031 3.67188Z" fill="#5BCDB1"/>
<path fill-rule="evenodd" clip-rule="evenodd" d="M41.4844 7.7347C41.4214 8.76124 40.8745 9.28207 39.8438 9.2972C38.8941 9.20695 38.3994 8.68612 38.3594 7.7347C38.3966 7.16626 38.6569 6.72356 39.1406 6.40657C40.4203 5.95292 41.2016 6.39563 41.4844 7.7347Z" fill="#040706"/>
<path fill-rule="evenodd" clip-rule="evenodd" d="M34.4531 7.73438C35.7552 7.73438 37.0573 7.73438 38.3594 7.73438C38.3994 8.6858 38.8941 9.20662 39.8438 9.29688C40.8745 9.28175 41.4214 8.76092 41.4844 7.73438C42.7864 7.73438 44.0886 7.73438 45.3906 7.73438C45.4444 8.38816 45.7569 8.88295 46.3281 9.21875C47.7344 9.27083 49.1406 9.32292 50.5469 9.375C53.293 17.0691 58.5014 22.3295 66.1719 25.1562C66.3094 25.3681 66.3616 25.6025 66.3281 25.8594C48.7239 25.8594 31.1198 25.8594 13.5156 25.8594C13.5156 25.5989 13.5156 25.3386 13.5156 25.0781C21.2886 22.3833 26.5489 17.1489 29.2969 9.375C30.6511 9.32292 32.0052 9.27083 33.3594 9.21875C34.0448 8.96992 34.4095 8.47512 34.4531 7.73438Z" fill="#9CE2D0"/>
<path opacity="0.98" fill-rule="evenodd" clip-rule="evenodd" d="M79.9219 51.6407C79.9219 52.1614 79.9219 52.6824 79.9219 53.2032C79.6525 53.6785 79.2358 53.9649 78.6719 54.0625C76.0156 54.1146 73.3594 54.1668 70.7031 54.2188C64.88 67.9132 54.7238 76.4808 40.2344 79.9219C39.8177 79.9219 39.4011 79.9219 38.9844 79.9219C30.7545 77.7746 23.6452 73.7121 17.6562 67.7344C14.052 63.7329 11.2134 59.2277 9.14062 54.2188C6.48438 54.1668 3.82812 54.1146 1.17188 54.0625C0.607923 53.9649 0.191258 53.6785 -0.078125 53.2032C-0.078125 52.6824 -0.078125 52.1614 -0.078125 51.6407C0.209381 51.38 0.521881 51.1457 0.859375 50.9375C26.9011 50.8333 52.9427 50.8333 78.9844 50.9375C79.3219 51.1457 79.6344 51.38 79.9219 51.6407Z" fill="#000101"/>
<path fill-rule="evenodd" clip-rule="evenodd" d="M12.5781 54.1406C13.6961 53.9602 14.8419 53.9341 16.0156 54.0625C21.003 64.0737 28.9197 70.5059 39.7656 73.3594C50.7862 70.6439 58.8072 64.2116 63.8281 54.0625C64.9739 53.9583 66.1198 53.9583 67.2656 54.0625C63.2253 63.207 56.6628 69.8736 47.5781 74.0625C45.0769 75.1133 42.5248 76.0247 39.9219 76.7969C27.1948 73.5416 18.0803 65.9894 12.5781 54.1406Z" fill="#5ACDB0"/>
<path fill-rule="evenodd" clip-rule="evenodd" d="M60.0781 54.2968C46.6406 54.0886 33.2031 54.0886 19.7656 54.2968C19.6808 54.2875 19.6287 54.2354 19.6094 54.1406C33.1511 53.9323 46.6927 53.9323 60.2344 54.1406C60.215 54.2354 60.163 54.2875 60.0781 54.2968Z" fill="#7EB6A7"/>
<path fill-rule="evenodd" clip-rule="evenodd" d="M60.0781 54.2968C57.0858 60.1276 52.6587 64.5287 46.7969 67.5C44.5727 68.58 42.2809 69.4914 39.9219 70.2343C32.0439 67.9534 25.7678 63.4742 21.0938 56.7968C20.6073 55.9798 20.1645 55.1465 19.7656 54.2968C33.2031 54.0886 46.6406 54.0886 60.0781 54.2968Z" fill="#9CE2D0"/>
<path d="M15.8961 32.5777V47.3434H10.918V36.3324H8.38672V32.5777H15.8961ZM35.9725 36.4379H29.6233V47.3434H24.7295V32.5777H35.9725V36.4379ZM44.0836 47.6809C42.4945 47.6809 41.0672 47.3504 39.8016 46.6895C38.5359 46.0285 37.5445 45.1145 36.8273 43.9473C36.1102 42.766 35.7516 41.4371 35.7516 39.9605C35.7516 38.484 36.1102 37.1621 36.8273 35.9949C37.5445 34.8137 38.5359 33.8926 39.8016 33.2316C41.0672 32.5707 42.4945 32.2402 44.0836 32.2402C45.6727 32.2402 47.1 32.5707 48.3656 33.2316C49.6313 33.8926 50.6227 34.8137 51.3398 35.9949C52.057 37.1621 52.4156 38.484 52.4156 39.9605C52.4156 41.4371 52.057 42.766 51.3398 43.9473C50.6227 45.1145 49.6313 46.0285 48.3656 46.6895C47.1 47.3504 45.6727 47.6809 44.0836 47.6809ZM44.0836 43.652C44.7023 43.652 45.2578 43.5043 45.75 43.209C46.2562 42.8996 46.657 42.4707 46.9523 41.9223C47.2477 41.3598 47.3953 40.7059 47.3953 39.9605C47.3953 39.2152 47.2477 38.5684 46.9523 38.0199C46.657 37.4574 46.2562 37.0285 45.75 36.7332C45.2578 36.4238 44.7023 36.2691 44.0836 36.2691C43.4648 36.2691 42.9023 36.4238 42.3961 36.7332C41.9039 37.0285 41.5102 37.4574 41.2148 38.0199C40.9195 38.5684 40.7719 39.2152 40.7719 39.9605C40.7719 40.7059 40.9195 41.3598 41.2148 41.9223C41.5102 42.4707 41.9039 42.8996 42.3961 43.209C42.9023 43.5043 43.4648 43.652 44.0836 43.652ZM71.2722 43.4832V50.2332H66.7159V47.3434H57.8144V50.2332H53.2581V43.4832H54.9878V39.2012C54.9878 37.7527 55.2902 36.5082 55.8948 35.4676C56.5136 34.4129 57.3714 33.6113 58.4683 33.0629C59.5652 32.5145 60.8308 32.2402 62.2652 32.2402C63.6995 32.2402 64.9652 32.5145 66.062 33.0629C67.1589 33.6113 68.0097 34.4129 68.6144 35.4676C69.2331 36.5082 69.5425 37.7527 69.5425 39.2012V43.4832H71.2722ZM64.5644 43.4832V38.7793C64.5644 37.9496 64.3534 37.3238 63.9316 36.902C63.5237 36.4801 62.9683 36.2691 62.2652 36.2691C61.562 36.2691 60.9995 36.4801 60.5777 36.902C60.1698 37.3238 59.9659 37.9496 59.9659 38.7793V43.4832H64.5644Z" fill="black"/>
</g>
</g>
<defs>
<clipPath id="clip0_160_1063">
<rect width="80" height="80" fill="white"/>
</clipPath>
</defs>
</svg>
