<svg width="80" height="80" viewBox="0 0 80 80" fill="none" xmlns="http://www.w3.org/2000/svg">
<g clip-path="url(#clip0_160_996)">
<path opacity="0.977" fill-rule="evenodd" clip-rule="evenodd" d="M37.7344 -0.078125C39.1927 -0.078125 40.6511 -0.078125 42.1094 -0.078125C49.8887 1.52973 54.3939 6.26931 55.625 14.1406C55.677 15.5469 55.7292 16.9531 55.7812 18.3594C59.5366 15.0907 63.573 14.7001 67.8906 17.1875C69.9306 18.6364 71.2067 20.5895 71.7188 23.0469C72.0286 26.0153 72.0286 28.9841 71.7188 31.9531C71.1048 34.7002 69.5945 36.7834 67.1875 38.2031C67.0833 38.9323 67.0833 39.6614 67.1875 40.3906C69.5491 41.157 71.9189 41.9123 74.2969 42.6562C77.3678 44.0319 79.2428 46.3495 79.9219 49.6094C79.9219 51.0156 79.9219 52.4219 79.9219 53.8281C79.6542 54.1953 79.2895 54.3516 78.8281 54.2969C78.2672 54.29 77.8766 54.0295 77.6562 53.5156C77.9803 51.1098 77.4595 48.9223 76.0938 46.9531C75.3103 46.0017 74.3467 45.2986 73.2031 44.8438C71.0827 44.2236 68.9733 43.5727 66.875 42.8906C66.3969 43.6823 65.798 44.3855 65.0781 45C64.0659 45.6014 62.9722 45.8358 61.7969 45.7031C60.1567 45.3813 59.063 44.4437 58.5156 42.8906C56.1383 43.472 53.7945 44.1752 51.4844 45C53.9023 45.6109 56.2981 46.288 58.6719 47.0312C62.0639 48.7331 64.0692 51.4675 64.6875 55.2344C64.7656 57.1608 64.7917 59.0878 64.7656 61.0156C66.4564 61.1711 68.1752 61.2231 69.9219 61.1719C69.8959 59.7127 69.9219 58.2542 70 56.7969C70.2177 56.3491 70.5822 56.1408 71.0938 56.1719C71.5992 56.138 71.9637 56.3464 72.1875 56.7969C72.2656 58.2542 72.2916 59.7127 72.2656 61.1719C74.0364 61.1719 75.8073 61.1719 77.5781 61.1719C77.5522 60.1809 77.5781 59.1914 77.6562 58.2031C77.8766 57.6892 78.2672 57.4287 78.8281 57.4219C79.2895 57.3672 79.6542 57.5234 79.9219 57.8906C79.9219 59.5573 79.9219 61.2239 79.9219 62.8906C79.7944 63.1475 79.5859 63.3297 79.2969 63.4375C74.5055 63.5156 69.7137 63.5417 64.9219 63.5156C64.948 65.6517 64.9219 67.787 64.8438 69.9219C64.8334 70.3556 64.6512 70.6941 64.2969 70.9375C60.1963 71.1691 56.0816 71.2472 51.9531 71.1719C50.2725 75.9714 46.9392 78.8881 41.9531 79.9219C40.5989 79.9219 39.2448 79.9219 37.8906 79.9219C32.9045 78.8881 29.5712 75.9714 27.8906 71.1719C23.7622 71.2472 19.6475 71.1691 15.5469 70.9375C15.1926 70.6941 15.0103 70.3556 15 69.9219C14.9219 67.787 14.8958 65.6517 14.9219 63.5156C10.1299 63.5417 5.33827 63.5156 0.546875 63.4375C0.257777 63.3297 0.049443 63.1475 -0.078125 62.8906C-0.078125 61.2761 -0.078125 59.6614 -0.078125 58.0469C0.158498 57.6414 0.523081 57.433 1.01562 57.4219C1.57652 57.4287 1.96714 57.6892 2.1875 58.2031C2.26555 59.1914 2.29159 60.1809 2.26562 61.1719C4.03645 61.1719 5.8073 61.1719 7.57812 61.1719C7.55211 59.7127 7.57816 58.2542 7.65625 56.7969C8.18384 56.133 8.83489 56.0028 9.60938 56.4062C9.70716 56.5234 9.78528 56.6537 9.84375 56.7969C9.92184 58.2022 9.94788 59.6084 9.92188 61.0156C11.6126 61.1711 13.3313 61.2231 15.0781 61.1719C15.0521 59.192 15.0781 57.2128 15.1562 55.2344C15.7911 51.3198 17.9005 48.5334 21.4844 46.875C23.7122 46.175 25.9517 45.55 28.2031 45C25.9717 44.2728 23.7322 43.5697 21.4844 42.8906C20.8198 44.4203 19.6741 45.3578 18.0469 45.7031C16.8613 45.8672 15.7675 45.6328 14.7656 45C14.0458 44.3855 13.4468 43.6823 12.9688 42.8906C10.3691 43.5467 7.84306 44.4061 5.39062 45.4688C3.82188 46.5697 2.80625 48.0541 2.34375 49.9219C2.29167 51.1198 2.23958 52.3177 2.1875 53.5156C1.92072 53.9984 1.53009 54.3109 1.01562 54.4531C0.581837 54.3611 0.217255 54.1528 -0.078125 53.8281C-0.078125 52.4219 -0.078125 51.0156 -0.078125 49.6094C0.600952 46.3495 2.47595 44.0319 5.54688 42.6562C7.92483 41.9123 10.2946 41.157 12.6562 40.3906C12.7604 39.6614 12.7604 38.9323 12.6562 38.2031C8.87078 35.6284 7.28223 32.0347 7.89062 27.4219C7.51998 24.3211 8.22311 21.5086 10 18.9844C13.6398 15.2311 17.7805 14.5801 22.4219 17.0312C22.9688 17.4739 23.5156 17.9167 24.0625 18.3594C23.5222 12.5973 25.3191 7.72748 29.4531 3.75C31.8692 1.70834 34.6297 0.4323 37.7344 -0.078125ZM26.6406 28.9844C27.5166 29.1261 28.402 29.1781 29.2969 29.1406C29.5478 32.4034 30.9802 35.0077 33.5938 36.9531C33.698 38.1511 33.698 39.3489 33.5938 40.5469C32.6377 41.5948 31.5959 42.5323 30.4688 43.3594C29.9031 43.0116 29.3042 42.725 28.6719 42.5C26.3925 41.8269 24.1269 41.1237 21.875 40.3906C21.7708 39.6614 21.7708 38.9323 21.875 38.2031C25.2628 36.0837 26.8514 33.0108 26.6406 28.9844ZM52.8906 28.9844C52.9816 31.6248 53.8409 34.0208 55.4688 36.1719C56.2161 36.9613 57.0495 37.6383 57.9688 38.2031C58.073 38.9323 58.073 39.6614 57.9688 40.3906C55.7169 41.1237 53.4513 41.8269 51.1719 42.5C50.5395 42.725 49.9406 43.0116 49.375 43.3594C48.2478 42.5323 47.2061 41.5948 46.25 40.5469C46.1458 39.3489 46.1458 38.1511 46.25 36.9531C48.8636 35.0077 50.2959 32.4034 50.5469 29.1406C51.3586 29.1908 52.1398 29.1386 52.8906 28.9844Z" fill="#020202"/>
<path fill-rule="evenodd" clip-rule="evenodd" d="M48.0467 5.07849C46.5631 10.4954 43.7506 15.1047 39.6092 18.9066C39.702 18.9791 39.8062 19.0052 39.9217 18.9847C37.9696 19.1146 35.9904 19.1927 33.9842 19.2191C33.1284 19.4257 32.3731 19.8163 31.7185 20.391C31.5796 19.8266 31.2412 19.436 30.7029 19.2191C29.4406 19.0941 28.1906 19.1202 26.9529 19.2972C26.6443 17.7432 26.5401 16.1286 26.6404 14.4535C27.6164 7.77393 31.4184 3.73748 38.0467 2.34412C41.7778 1.89613 45.111 2.8076 48.0467 5.07849Z" fill="#E59541"/>
<path fill-rule="evenodd" clip-rule="evenodd" d="M48.0469 5.07812C51.1681 7.47666 52.8869 10.6538 53.2031 14.6094C53.2542 16.2002 53.2022 17.7627 53.0469 19.2969C51.802 19.1817 50.552 19.1036 49.2969 19.0625C48.3669 18.7575 47.6117 18.2106 47.0312 17.4219C46.7828 17.0859 46.6786 16.7214 46.7188 16.3281C47.3678 15.4717 47.9147 14.5603 48.3594 13.5938C47.8825 12.2795 47.1272 12.0972 46.0938 13.0469C45.0948 14.6709 43.975 16.2073 42.7344 17.6562C41.8959 18.3098 40.9584 18.7525 39.9219 18.9844C39.8064 19.0048 39.7022 18.9787 39.6094 18.9062C43.7508 15.1044 46.5633 10.495 48.0469 5.07812Z" fill="#E08322"/>
<path fill-rule="evenodd" clip-rule="evenodd" d="M53.2031 14.6094C53.4098 16.1991 53.4098 17.8136 53.2031 19.4531C53.1083 19.4338 53.0563 19.3817 53.0469 19.2969C53.2022 17.7627 53.2542 16.2002 53.2031 14.6094Z" fill="#5F370E"/>
<path fill-rule="evenodd" clip-rule="evenodd" d="M26.6401 14.4531C26.5398 16.1283 26.644 17.7428 26.9526 19.2969C26.8419 19.4381 26.6856 19.4902 26.4839 19.4531C26.4326 17.7584 26.4848 16.0917 26.6401 14.4531Z" fill="#5F3E1B"/>
<path fill-rule="evenodd" clip-rule="evenodd" d="M15.7031 18.0472C20.2128 17.6569 23.0513 19.6361 24.2188 23.9847C24.323 26.2243 24.323 28.464 24.2188 30.7035C23.2367 35.0691 20.5023 37.1265 16.0156 36.8754C12.8098 36.1176 10.9608 34.1124 10.4688 30.8597C10.3646 28.4118 10.3646 25.964 10.4688 23.516C11.2361 20.7436 12.9809 18.9208 15.7031 18.0472Z" fill="#FCD0A2"/>
<path fill-rule="evenodd" clip-rule="evenodd" d="M61.0157 18.0474C65.3193 17.5899 68.1057 19.4127 69.375 23.5161C69.4793 25.9641 69.4793 28.4119 69.375 30.8599C68.4424 35.1752 65.7602 37.1805 61.3282 36.8755C58.0775 36.0727 56.1766 34.0153 55.625 30.7036C55.5208 28.4641 55.5208 26.2244 55.625 23.9849C56.3127 20.9803 58.1096 19.0011 61.0157 18.0474Z" fill="#FCD0A2"/>
<path fill-rule="evenodd" clip-rule="evenodd" d="M45.2344 18.9844C45.2605 22.5784 45.2344 26.1722 45.1563 29.7656C44.6214 32.7158 43.0849 34.9555 40.5469 36.4844C36.7689 36.6144 34.0346 34.9998 32.3438 31.6406C32.0374 30.8317 31.8291 29.9984 31.7188 29.1406C31.6146 27.5261 31.6146 25.9114 31.7188 24.2969C32.2541 23.2936 32.9572 22.4342 33.8282 21.7188C36.0632 21.5533 38.3029 21.397 40.5469 21.25C42.2947 20.7931 43.8052 19.9338 45.0782 18.6719C45.2029 18.7433 45.2549 18.8475 45.2344 18.9844Z" fill="#FDD1A3"/>
<path fill-rule="evenodd" clip-rule="evenodd" d="M45.2344 18.9844C46.0459 19.9358 47.0355 20.613 48.2031 21.0156C48.2292 23.7245 48.2031 26.4328 48.125 29.1406C47.4188 33.4666 44.8928 35.9145 40.5469 36.4844C43.0848 34.9555 44.6214 32.7158 45.1562 29.7656C45.2344 26.1722 45.2605 22.5784 45.2344 18.9844Z" fill="#FCBB85"/>
<path fill-rule="evenodd" clip-rule="evenodd" d="M27.4219 21.4844C28.0469 21.4844 28.6719 21.4844 29.2969 21.4844C29.2969 23.2552 29.2969 25.0261 29.2969 26.7969C28.7216 26.8227 28.1488 26.7967 27.5782 26.7188C27.1971 26.5978 26.9105 26.3634 26.7188 26.0156C26.6146 24.7656 26.6146 23.5156 26.7188 22.2656C26.9052 21.9536 27.1396 21.6931 27.4219 21.4844Z" fill="#F9B983"/>
<path fill-rule="evenodd" clip-rule="evenodd" d="M50.5469 21.4848C52.7314 21.0902 53.6169 21.9757 53.2031 24.141C53.5758 26.2684 52.6905 27.1537 50.5469 26.7973C50.5469 25.0265 50.5469 23.2555 50.5469 21.4848Z" fill="#F1A569"/>
<path fill-rule="evenodd" clip-rule="evenodd" d="M43.6715 43.9844C43.6715 42.8906 43.6715 41.7969 43.6715 40.7031C41.1685 41.3136 38.6685 41.3136 36.1715 40.7031C36.1715 41.7969 36.1715 42.8906 36.1715 43.9844C36.016 42.0852 35.9638 40.158 36.0152 38.2031C38.6154 39.0205 41.2196 39.0205 43.8277 38.2031C43.8791 40.158 43.8269 42.0852 43.6715 43.9844Z" fill="#E59958"/>
<path fill-rule="evenodd" clip-rule="evenodd" d="M19.1406 39.1406C19.2951 39.9961 19.3471 40.8816 19.2968 41.7969C18.7314 43.3027 17.6896 43.7453 16.1718 43.125C15.7082 42.7969 15.4218 42.3541 15.3124 41.7969C15.2344 40.913 15.2084 40.0275 15.2343 39.1406C16.5354 39.3331 17.8374 39.3331 19.1406 39.1406Z" fill="#FCBB84"/>
<path fill-rule="evenodd" clip-rule="evenodd" d="M19.1406 39.1406C19.15 39.0558 19.202 39.0037 19.2969 38.9844C19.5027 39.9459 19.5027 40.8834 19.2969 41.7969C19.3472 40.8816 19.2952 39.9961 19.1406 39.1406Z" fill="#644A34"/>
<path fill-rule="evenodd" clip-rule="evenodd" d="M60.7032 39.1406C60.5486 39.9961 60.4966 40.8816 60.5469 41.7969C60.3411 40.8834 60.3411 39.9459 60.5469 38.9844C60.6418 39.0037 60.6938 39.0558 60.7032 39.1406Z" fill="#654B35"/>
<path fill-rule="evenodd" clip-rule="evenodd" d="M60.7031 39.1406C62.0008 39.325 63.303 39.325 64.6094 39.1406C64.6353 40.0275 64.6092 40.913 64.5312 41.7969C64.1091 43.1672 63.1975 43.662 61.7969 43.2812C61.1409 42.9836 60.7244 42.4887 60.5469 41.7969C60.4966 40.8816 60.5486 39.9961 60.7031 39.1406Z" fill="#FDBB85"/>
<path fill-rule="evenodd" clip-rule="evenodd" d="M43.6719 43.9844C42.5075 44.8855 41.2575 45.6667 39.9219 46.3281C38.5862 45.6667 37.3363 44.8855 36.1719 43.9844C36.1719 42.8906 36.1719 41.7969 36.1719 40.7031C38.6689 41.3136 41.1689 41.3136 43.6719 40.7031C43.6719 41.7969 43.6719 42.8906 43.6719 43.9844Z" fill="#FDBB85"/>
<path opacity="0.999" fill-rule="evenodd" clip-rule="evenodd" d="M18.0469 45.7031C13.3096 49.7023 11.4346 54.8064 12.4219 61.0156C11.5885 61.0156 10.7552 61.0156 9.92188 61.0156C9.94788 59.6084 9.92184 58.2022 9.84375 56.7969C9.78528 56.6537 9.70716 56.5234 9.60938 56.4062C8.83489 56.0028 8.18384 56.133 7.65625 56.7969C7.57816 58.2542 7.55211 59.7127 7.57812 61.1719C5.8073 61.1719 4.03645 61.1719 2.26562 61.1719C2.29159 60.1809 2.26555 59.1914 2.1875 58.2031C1.96714 57.6892 1.57652 57.4287 1.01562 57.4219C1.01562 56.4323 1.01562 55.4427 1.01562 54.4531C1.53009 54.3109 1.92072 53.9984 2.1875 53.5156C2.23958 52.3177 2.29167 51.1198 2.34375 49.9219C2.80625 48.0541 3.82188 46.5697 5.39062 45.4688C7.84306 44.4061 10.3691 43.5467 12.9688 42.8906C13.4468 43.6823 14.0458 44.3855 14.7656 45C15.7675 45.6328 16.8613 45.8672 18.0469 45.7031Z" fill="#61A3F9"/>
<path opacity="0.999" fill-rule="evenodd" clip-rule="evenodd" d="M78.8281 54.2969C78.8281 55.3386 78.8281 56.3802 78.8281 57.4219C78.2672 57.4287 77.8766 57.6892 77.6562 58.2031C77.5781 59.1914 77.5522 60.1809 77.5781 61.1719C75.8073 61.1719 74.0364 61.1719 72.2656 61.1719C72.2916 59.7127 72.2656 58.2542 72.1875 56.7969C71.9637 56.3464 71.5992 56.138 71.0938 56.1719C70.5822 56.1408 70.2177 56.3491 70 56.7969C69.9219 58.2542 69.8959 59.7127 69.9219 61.1719C68.1752 61.2231 66.4564 61.1711 64.7656 61.0156C65.6511 61.0156 66.5364 61.0156 67.4219 61.0156C68.4094 54.8073 66.5344 49.7031 61.7969 45.7031C62.9722 45.8358 64.0659 45.6014 65.0781 45C65.798 44.3855 66.3969 43.6823 66.875 42.8906C68.9733 43.5727 71.0827 44.2236 73.2031 44.8438C74.3467 45.2986 75.3103 46.0017 76.0938 46.9531C77.4595 48.9223 77.9803 51.1098 77.6562 53.5156C77.8766 54.0295 78.2672 54.29 78.8281 54.2969Z" fill="#61A2F9"/>
<path fill-rule="evenodd" clip-rule="evenodd" d="M9.92188 61.0156C10.7552 61.0156 11.5885 61.0156 12.4219 61.0156C11.4346 54.8064 13.3096 49.7023 18.0469 45.7031C19.6741 45.3578 20.8198 44.4203 21.4844 42.8906C23.7322 43.5697 25.9717 44.2728 28.2031 45C25.9517 45.55 23.7122 46.175 21.4844 46.875C17.9005 48.5334 15.7911 51.3198 15.1562 55.2344C15.0781 57.2128 15.0521 59.192 15.0781 61.1719C13.3313 61.2231 11.6126 61.1711 9.92188 61.0156Z" fill="#5290F6"/>
<path fill-rule="evenodd" clip-rule="evenodd" d="M61.7969 45.7031C66.5344 49.7031 68.4094 54.8073 67.4219 61.0156C66.5364 61.0156 65.6511 61.0156 64.7656 61.0156C64.7917 59.0878 64.7656 57.1608 64.6875 55.2344C64.0692 51.4675 62.0639 48.7331 58.6719 47.0312C56.2981 46.288 53.9023 45.6109 51.4844 45C53.7945 44.1752 56.1383 43.472 58.5156 42.8906C59.063 44.4437 60.1567 45.3813 61.7969 45.7031Z" fill="#5290F5"/>
<path fill-rule="evenodd" clip-rule="evenodd" d="M33.5156 43.9844C33.5942 44.5408 33.8025 45.0616 34.1406 45.5469C35.4367 46.3241 36.6867 47.1575 37.8906 48.0469C36.6406 49.4011 35.3386 50.7031 33.9844 51.9531C32.9641 50.1209 32.0266 48.2459 31.1719 46.3281C31.8956 45.5002 32.6769 44.7189 33.5156 43.9844Z" fill="#AEE0F6"/>
<path fill-rule="evenodd" clip-rule="evenodd" d="M46.1719 43.9844C47.113 44.6655 47.9462 45.4467 48.6719 46.3281C47.8172 48.2459 46.8797 50.1209 45.8594 51.9531C44.5052 50.7031 43.2031 49.4011 41.9531 48.0469C43.157 47.1575 44.407 46.3241 45.7031 45.5469C46.0906 45.0998 46.2469 44.5791 46.1719 43.9844Z" fill="#AEE0F6"/>
<path fill-rule="evenodd" clip-rule="evenodd" d="M27.4214 65.8594C27.2667 66.7672 27.2147 67.7047 27.2652 68.6719C26.4839 68.6719 25.7027 68.6719 24.9214 68.6719C24.9724 67.2892 24.9203 65.935 24.7652 64.6094C24.3389 63.9473 23.8181 63.3483 23.2027 62.8125C21.9528 62.5523 21.406 63.0472 21.562 64.2969C21.7636 64.655 22.0241 64.9675 22.3433 65.2344C22.4214 66.3791 22.4474 67.5248 22.4214 68.6719C20.7547 68.6719 19.0881 68.6719 17.4214 68.6719C17.3494 63.9258 17.4275 59.1862 17.6558 54.4531C18.5994 51.7389 20.3963 49.8378 23.0464 48.75C24.9811 48.2794 26.9081 47.7845 28.8277 47.2656C29.9628 49.1709 30.9785 51.1502 31.8746 53.2031C33.0702 54.5437 34.3722 54.648 35.7808 53.5156C36.058 54.018 36.2924 54.5388 36.4839 55.0781C31.3036 56.8717 28.2828 60.4655 27.4214 65.8594Z" fill="#E4F5FC"/>
<path fill-rule="evenodd" clip-rule="evenodd" d="M56.3281 48.6719C57.6339 50.1385 58.4411 51.8572 58.75 53.8282C58.8281 58.7758 58.8542 63.7238 58.8281 68.6719C58.3594 68.6719 57.8906 68.6719 57.4219 68.6719C57.3959 67.5249 57.4219 66.3791 57.5 65.2344C58.5173 64.4799 58.5955 63.6727 57.7344 62.8126C57.3698 62.7083 57.0052 62.7083 56.6406 62.8126C56.0252 63.3483 55.5044 63.9474 55.0781 64.6094C54.923 65.9351 54.8709 67.2893 54.9219 68.6719C54.1406 68.6719 53.3594 68.6719 52.5781 68.6719C52.6286 67.7047 52.5766 66.7672 52.4219 65.8594C52.2206 63.4015 51.2831 61.2921 49.6094 59.5313C49.192 59.4012 48.8275 59.4793 48.5156 59.7657C47.8767 58.918 47.0955 58.241 46.1719 57.7344C46.4512 56.9121 46.1908 56.313 45.3906 55.9376C44.6891 55.6955 44.012 55.409 43.3594 55.0782C43.5509 54.5388 43.7853 54.018 44.0625 53.5157C45.4659 54.6387 46.768 54.5344 47.9688 53.2032C48.8377 51.3091 49.7491 49.4341 50.7031 47.5782C51.057 47.399 51.4216 47.3729 51.7969 47.5001C53.3156 47.8668 54.8261 48.2574 56.3281 48.6719Z" fill="#E4F5FC"/>
<path fill-rule="evenodd" clip-rule="evenodd" d="M56.3281 48.6719C59.5555 49.7378 61.5606 51.9253 62.3438 55.2344C62.4219 59.7133 62.448 64.1923 62.4219 68.6719C61.2239 68.6719 60.0261 68.6719 58.8281 68.6719C58.8542 63.7238 58.8281 58.7758 58.75 53.8281C58.4411 51.8572 57.6339 50.1384 56.3281 48.6719Z" fill="#D2EEFC"/>
<path fill-rule="evenodd" clip-rule="evenodd" d="M39.7656 49.4531C40.6909 50.1173 41.5242 50.8986 42.2656 51.7969C41.8489 52.7344 41.4323 53.6719 41.0156 54.6094C40.2864 54.8177 39.5573 54.8177 38.8281 54.6094C38.4114 53.6719 37.9948 52.7344 37.5781 51.7969C38.3106 51.0125 39.0398 50.2313 39.7656 49.4531Z" fill="#D7548C"/>
<path fill-rule="evenodd" clip-rule="evenodd" d="M46.1717 57.7344C47.0953 58.241 47.8765 58.918 48.5154 59.7656C48.1276 60.0786 47.9713 60.4952 48.0467 61.0156C48.8718 64.2917 48.4812 67.4167 46.8748 70.3906C46.5404 71.0097 46.0978 71.5306 45.5467 71.9531C45.3993 70.915 45.3734 69.8733 45.4685 68.8281C46.0785 68.18 46.6515 67.503 47.1873 66.7969C47.6637 65.6086 47.4293 64.593 46.4842 63.75C45.4003 63.3878 44.3065 63.0492 43.2029 62.7344C42.6745 61.755 42.0495 60.8436 41.3279 60C40.0531 59.3338 38.9332 59.516 37.9685 60.5469C37.5568 61.2966 37.1142 62.0258 36.6404 62.7344C35.5863 62.9728 34.5448 63.2592 33.5154 63.5938C32.3529 64.5727 32.1185 65.7445 32.8123 67.1094C33.2967 67.7119 33.8174 68.2849 34.3748 68.8281C34.4838 69.7694 34.4579 70.7069 34.2967 71.6406C34.5459 73.4789 35.5874 74.2863 37.4217 74.0625C38.2381 73.6803 39.0713 73.3417 39.9217 73.0469C40.9367 73.503 41.9782 73.8675 43.0467 74.1406C40.2096 75.846 37.1888 76.2627 33.9842 75.3906C33.8893 75.41 33.8373 75.462 33.8279 75.5469C29.812 72.2453 28.6921 68.1306 30.4685 63.2031C32.7762 58.7286 36.4481 56.7233 41.4842 57.1875C42.7087 57.4483 43.9067 57.7869 45.0779 58.2031C45.2862 58.177 45.4946 58.1511 45.7029 58.125C45.8393 57.9617 45.9956 57.8316 46.1717 57.7344Z" fill="#F3DF63"/>
<path fill-rule="evenodd" clip-rule="evenodd" d="M45.5471 71.9529C45.2488 73.2928 44.4156 74.022 43.0471 74.1404C41.9787 73.8673 40.9371 73.5028 39.9221 73.0467C39.0718 73.3415 38.2385 73.6801 37.4221 74.0623C35.5879 74.286 34.5463 73.4787 34.2971 71.6404C34.4584 70.7067 34.4843 69.7692 34.3752 68.8279C33.8179 68.2846 33.2971 67.7117 32.8127 67.1092C32.119 65.7443 32.3534 64.5724 33.5159 63.5935C34.5452 63.259 35.5868 62.9726 36.6409 62.7342C37.1146 62.0256 37.5573 61.2964 37.969 60.5467C38.9337 59.5157 40.0535 59.3335 41.3284 59.9998C42.0499 60.8434 42.6749 61.7548 43.2034 62.7342C44.307 63.049 45.4007 63.3876 46.4846 63.7498C47.4298 64.5928 47.6642 65.6084 47.1877 66.7967C46.652 67.5028 46.079 68.1798 45.469 68.8279C45.3738 69.8731 45.3998 70.9148 45.5471 71.9529Z" fill="#050301"/>
<path fill-rule="evenodd" clip-rule="evenodd" d="M48.0469 61.0156C51.1489 65.6553 50.9145 70.1345 47.3437 74.4531C43.6862 77.7492 39.5977 78.4003 35.0781 76.4062C34.6298 76.1569 34.2131 75.8703 33.8281 75.5469C33.8375 75.462 33.8895 75.41 33.9844 75.3906C37.1891 76.2627 40.2098 75.8459 43.0469 74.1406C44.4153 74.0222 45.2486 73.293 45.5469 71.9531C46.098 71.5306 46.5406 71.0097 46.875 70.3906C48.4814 67.4167 48.872 64.2917 48.0469 61.0156Z" fill="#EECF31"/>
<path fill-rule="evenodd" clip-rule="evenodd" d="M39.7656 61.9531C40.0116 62.0214 40.1939 62.1777 40.3125 62.4219C40.7102 63.2439 41.205 63.9991 41.7969 64.6875C42.8733 65.0748 43.967 65.4134 45.0781 65.7031C44.2848 66.5744 43.5817 67.5119 42.9688 68.5156C42.9177 69.4344 42.9958 70.3459 43.2031 71.25C43.1511 71.4323 43.0989 71.6145 43.0469 71.7969C42.0628 71.252 41.0211 70.8873 39.9219 70.7031C38.8227 70.8873 37.7809 71.252 36.7969 71.7969C36.7448 71.6145 36.6927 71.4323 36.6406 71.25C36.848 70.3459 36.9261 69.4344 36.875 68.5156C36.262 67.5119 35.5589 66.5744 34.7656 65.7031C35.87 65.3881 36.9637 65.0495 38.0469 64.6875C38.7209 63.8331 39.2938 62.9216 39.7656 61.9531Z" fill="#E29341"/>
<path fill-rule="evenodd" clip-rule="evenodd" d="M24.7656 64.6094C24.9208 65.935 24.9728 67.2892 24.9219 68.6719C25.7031 68.6719 26.4844 68.6719 27.2656 68.6719C27.2152 67.7047 27.2672 66.7672 27.4219 65.8594C27.4219 66.8489 27.4219 67.8386 27.4219 68.8281C26.5364 68.8281 25.6511 68.8281 24.7656 68.8281C24.7656 67.4219 24.7656 66.0156 24.7656 64.6094Z" fill="#697174"/>
<path fill-rule="evenodd" clip-rule="evenodd" d="M55.0781 64.6094C55.0781 66.0156 55.0781 67.4219 55.0781 68.8281C54.1927 68.8281 53.3073 68.8281 52.4219 68.8281C52.4219 67.8386 52.4219 66.8489 52.4219 65.8594C52.5766 66.7672 52.6286 67.7047 52.5781 68.6719C53.3594 68.6719 54.1406 68.6719 54.9219 68.6719C54.8709 67.2892 54.923 65.935 55.0781 64.6094Z" fill="#697174"/>
</g>
<defs>
<clipPath id="clip0_160_996">
<rect width="80" height="80" fill="white"/>
</clipPath>
</defs>
</svg>
