<svg width="80" height="80" viewBox="0 0 80 80" fill="none" xmlns="http://www.w3.org/2000/svg">
<path opacity="0.988" fill-rule="evenodd" clip-rule="evenodd" d="M39.4531 0.547051C40.1254 0.437079 40.6723 0.645411 41.0937 1.17205C41.1979 3.56788 41.1979 5.96372 41.0937 8.35955C40.8548 8.8308 40.4642 9.03914 39.9218 8.98455C39.0532 9.02763 38.6106 8.61096 38.5937 7.73455C38.4487 5.53836 38.5007 3.35086 38.7499 1.17205C38.9682 0.926699 39.2026 0.718365 39.4531 0.547051Z" fill="#FAD707"/>
<path opacity="0.959" fill-rule="evenodd" clip-rule="evenodd" d="M26.6402 3.82831C27.2497 3.72786 27.7705 3.88411 28.2027 4.29706C29.083 5.87983 29.9944 7.44233 30.937 8.98456C31.8335 10.6876 31.3388 11.4949 29.4527 11.4064C28.1624 9.59159 26.9905 7.69054 25.937 5.70331C25.6728 4.86442 25.9072 4.23942 26.6402 3.82831Z" fill="#FAD807"/>
<path opacity="0.961" fill-rule="evenodd" clip-rule="evenodd" d="M52.1091 4.14031C53.4028 4.00193 54.0017 4.57484 53.906 5.85906C52.9038 7.70742 51.8622 9.53034 50.7809 11.3278C50.313 11.7598 49.7661 11.89 49.1403 11.7184C48.4589 11.3707 48.2245 10.8238 48.4372 10.0778C49.3747 8.41114 50.3122 6.74448 51.2497 5.07781C51.4622 4.68365 51.7486 4.37115 52.1091 4.14031Z" fill="#FAD807"/>
<path opacity="0.962" fill-rule="evenodd" clip-rule="evenodd" d="M17.1097 13.0466C17.478 13.0211 17.8425 13.0471 18.2035 13.1247C20.0518 14.1269 21.8747 15.1685 23.6722 16.2497C24.2972 17.083 24.193 17.8122 23.3597 18.4372C22.943 18.5414 22.5264 18.5414 22.1097 18.4372C20.391 17.4477 18.6722 16.458 16.9535 15.4685C16.1136 14.5938 16.1657 13.7865 17.1097 13.0466Z" fill="#FAD807"/>
<path opacity="0.995" fill-rule="evenodd" clip-rule="evenodd" d="M52.8907 32.2659C50.4057 37.8709 46.0829 40.8397 39.9219 41.1722C33.7655 40.8456 29.4425 37.8769 26.9532 32.2659C24.8194 25.2553 26.7466 19.6564 32.7344 15.4691C38.2824 12.564 43.5949 12.9286 48.6719 16.5628C53.4322 20.8901 54.8385 26.1245 52.8907 32.2659Z" fill="#62A4FA"/>
<path opacity="0.963" fill-rule="evenodd" clip-rule="evenodd" d="M61.6401 13.5156C63.1356 13.8086 63.5001 14.6159 62.7339 15.9375C60.9364 17.0188 59.1134 18.0603 57.2651 19.0625C55.7564 19.2203 55.2095 18.5692 55.6245 17.1094C57.5542 15.7677 59.5594 14.5697 61.6401 13.5156Z" fill="#FAD807"/>
<path fill-rule="evenodd" clip-rule="evenodd" d="M45.7028 20.5466C47.9486 20.369 48.8079 21.3587 48.2809 23.5154C44.8173 26.979 41.3539 30.4424 37.8903 33.906C37.1611 34.2185 36.432 34.2185 35.7028 33.906C34.0551 31.9982 32.4665 30.0451 30.9372 28.0466C30.329 25.8945 31.1364 24.9309 33.359 25.156C33.5673 25.2602 33.7758 25.3643 33.984 25.4685C34.919 26.7415 35.9087 27.9656 36.9528 29.1404C39.8769 26.2682 42.7936 23.4037 45.7028 20.5466Z" fill="#EDF3F7"/>
<path opacity="0.959" fill-rule="evenodd" clip-rule="evenodd" d="M13.6718 25.7031C15.912 25.6771 18.1517 25.7031 20.3906 25.7813C21.6406 26.6146 21.6406 27.448 20.3906 28.2813C18.1511 28.3855 15.9114 28.3855 13.6718 28.2813C12.4297 27.4305 12.4297 26.5711 13.6718 25.7031Z" fill="#F9D808"/>
<path opacity="0.94" fill-rule="evenodd" clip-rule="evenodd" d="M58.8286 26.3281C61.0167 26.3021 63.2042 26.3281 65.3911 26.4063C66.3236 26.7799 66.6101 27.431 66.2504 28.3594C66.0681 28.5417 65.8859 28.7239 65.7036 28.9063C63.3598 29.0105 61.0161 29.0105 58.6723 28.9063C57.8856 28.4355 57.7032 27.7844 58.1254 26.9531C58.3437 26.7078 58.5781 26.4994 58.8286 26.3281Z" fill="#FAD807"/>
<path opacity="0.999" fill-rule="evenodd" clip-rule="evenodd" d="M26.9531 32.2656C29.4425 37.8766 33.7655 40.8453 39.9219 41.1719C39.9219 43.5156 39.9219 45.8594 39.9219 48.2031C30.9667 44.8022 22.0605 41.3125 13.2031 37.7344C17.7755 35.9145 22.3588 34.0916 26.9531 32.2656Z" fill="#9B5D2B"/>
<path fill-rule="evenodd" clip-rule="evenodd" d="M52.8906 32.2656C57.485 34.0916 62.0683 35.9145 66.6406 37.7344C57.7833 41.3125 48.877 44.8022 39.9219 48.2031C39.9219 45.8594 39.9219 43.5156 39.9219 41.1719C46.0828 40.8394 50.4056 37.8706 52.8906 32.2656Z" fill="#824E2B"/>
<path opacity="0.998" fill-rule="evenodd" clip-rule="evenodd" d="M13.2031 37.7344C22.0605 41.3125 30.9667 44.8022 39.9219 48.2031C48.877 44.8022 57.7833 41.3125 66.6406 37.7344C67.0853 38.043 67.4239 38.4595 67.6562 38.9844C69.2188 41.6927 70.7812 44.4011 72.3438 47.1094C72.6158 47.5483 72.7981 48.017 72.8906 48.5156C70.8594 49.2448 68.8281 49.9739 66.7969 50.7031C59.9255 53.3583 53.0505 56.0145 46.1719 58.6719C46.0677 58.6198 45.9636 58.5677 45.8594 58.5156C43.9155 55.0947 41.9363 51.7092 39.9219 48.3594C37.9075 51.7092 35.9283 55.0947 33.9844 58.5156C33.8802 58.5677 33.7761 58.6198 33.6719 58.6719C26.7687 56.0759 19.8937 53.4197 13.0469 50.7031C11.0156 49.9739 8.98438 49.2448 6.95312 48.5156C7.04566 48.017 7.22795 47.5483 7.5 47.1094C9.0625 44.4011 10.625 41.6927 12.1875 38.9844C12.4199 38.4595 12.7584 38.043 13.2031 37.7344Z" fill="#C26925"/>
<path opacity="0.996" fill-rule="evenodd" clip-rule="evenodd" d="M39.9219 48.3594C39.9219 58.6719 39.9219 68.9844 39.9219 79.2969C30.9819 75.8295 22.0495 72.34 13.125 68.8281C13.0469 62.7867 13.0208 56.745 13.0469 50.7031C19.8938 53.4197 26.7688 56.0759 33.6719 58.6719C33.7761 58.6198 33.8802 58.5677 33.9844 58.5156C35.9283 55.0947 37.9075 51.7092 39.9219 48.3594Z" fill="#A45E25"/>
<path fill-rule="evenodd" clip-rule="evenodd" d="M39.9219 48.3594C41.9363 51.7092 43.9155 55.0947 45.8594 58.5156C45.9636 58.5677 46.0677 58.6198 46.1719 58.6719C53.0505 56.0145 59.9255 53.3583 66.7969 50.7031C66.823 56.745 66.7969 62.7867 66.7188 68.8281C57.8162 72.3945 48.8839 75.8842 39.9219 79.2969C39.9219 68.9844 39.9219 58.6719 39.9219 48.3594Z" fill="#A35623"/>
</svg>
