<svg width="80" height="80" viewBox="0 0 80 80" fill="none" xmlns="http://www.w3.org/2000/svg">
<g clip-path="url(#clip0_160_934)">
<path opacity="0.999" fill-rule="evenodd" clip-rule="evenodd" d="M16.9531 -0.078125C35.0261 -0.078125 53.0989 -0.078125 71.1719 -0.078125C72.0544 0.257788 72.6533 0.882787 72.9688 1.79688C73.0469 5.1298 73.073 8.46314 73.0469 11.7969C66.9589 6.52019 60.1881 5.45248 52.7344 8.59375C44.212 13.5324 41.1652 20.798 43.5938 30.3906C44.7452 33.6348 46.5942 36.3952 49.1406 38.6719C48.0403 44.9611 46.9727 51.2633 45.9375 57.5781C45.7184 59.3841 46.4736 59.983 48.2031 59.375C52.3403 57.4856 56.4548 55.5845 60.5469 53.6719C60.5989 53.6719 60.6511 53.6719 60.7031 53.6719C64.8311 55.5688 68.9456 57.4958 73.0469 59.4531C73.1206 64.6691 73.0425 69.8775 72.8125 75.0781C71.8792 77.6011 70.1344 79.2156 67.5781 79.9219C48.0989 79.9219 28.6198 79.9219 9.14062 79.9219C12.2797 79.3094 14.2328 77.4344 15 74.2969C15.0781 61.4323 15.1042 48.5678 15.0781 35.7031C15.0521 24.4009 15.0781 13.0988 15.1562 1.79688C15.4717 0.882787 16.0706 0.257788 16.9531 -0.078125Z" fill="#F8E9AF"/>
<path fill-rule="evenodd" clip-rule="evenodd" d="M21.4841 6.79688C27.2656 6.77083 33.0469 6.79688 38.8278 6.875C39.8684 7.2641 40.1548 7.96722 39.6872 8.98438C39.4811 9.29492 39.1947 9.47721 38.8278 9.53125C33.0466 9.63542 27.2653 9.63542 21.4841 9.53125C20.677 8.94989 20.4947 8.19467 20.9372 7.26563C21.1744 7.16197 21.3567 7.00572 21.4841 6.79688Z" fill="#A69179"/>
<path opacity="0.997" fill-rule="evenodd" clip-rule="evenodd" d="M73.0471 11.7964C76.7184 15.2763 78.5934 19.5731 78.6721 24.687C78.5648 29.8353 76.6898 34.1844 73.0471 37.7339C72.675 38.0019 72.3625 38.3144 72.1096 38.6714C68.7629 41.263 64.9609 42.6172 60.7034 42.7339C60.7034 46.3797 60.7034 50.0256 60.7034 53.6714C60.6514 53.6714 60.5992 53.6714 60.5471 53.6714C60.5471 50.0256 60.5471 46.3797 60.5471 42.7339C56.2734 42.6522 52.4714 41.298 49.1409 38.6714C46.5945 36.3947 44.7454 33.6344 43.594 30.3901C41.1654 20.7975 44.2123 13.5319 52.7346 8.59327C60.1884 5.452 66.9592 6.51971 73.0471 11.7964Z" fill="#FA7B76"/>
<path fill-rule="evenodd" clip-rule="evenodd" d="M58.3593 11.0152C64.3036 10.4338 68.9651 12.5692 72.3436 17.4214C75.6771 23.6708 74.974 29.426 70.2343 34.6871C65.8029 38.5752 60.8029 39.5127 55.2343 37.4996C49.2879 34.5424 46.5015 29.7247 46.8749 23.0464C48.1257 16.5616 51.9538 12.5512 58.3593 11.0152Z" fill="#DF4E60"/>
<path fill-rule="evenodd" clip-rule="evenodd" d="M59.1402 13.672C65.7846 13.5235 69.9252 16.6486 71.5621 23.047C71.9841 28.4288 69.8227 32.3611 65.0777 34.8439C59.7766 36.8066 55.3235 35.6347 51.7183 31.3283C48.9855 27.0369 48.9335 22.7141 51.5621 18.3595C53.5186 15.8588 56.0447 14.2962 59.1402 13.672Z" fill="#F2D45B"/>
<path fill-rule="evenodd" clip-rule="evenodd" d="M21.4841 15.0781C25.4428 15.0521 29.4011 15.0781 33.3591 15.1562C34.4941 15.6189 34.7285 16.3741 34.0622 17.4219C33.8405 17.5719 33.6061 17.702 33.3591 17.8125C29.4528 17.9167 25.5466 17.9167 21.6403 17.8125C20.9633 17.6311 20.6508 17.1883 20.7028 16.4844C20.6836 15.8445 20.9441 15.3758 21.4841 15.0781Z" fill="#A69279"/>
<path fill-rule="evenodd" clip-rule="evenodd" d="M21.4841 23.3594C24.0367 23.3333 26.5888 23.3594 29.1403 23.4375C30.0789 23.6988 30.4174 24.2977 30.156 25.2344C29.9591 25.6919 29.6205 25.9783 29.1403 26.0938C26.6403 26.198 24.1403 26.198 21.6403 26.0938C20.9633 25.9124 20.6508 25.4696 20.7028 24.7656C20.6836 24.1258 20.9441 23.6571 21.4841 23.3594Z" fill="#A69179"/>
<path fill-rule="evenodd" clip-rule="evenodd" d="M21.4844 31.6406C26.3805 31.6146 31.2762 31.6406 36.1719 31.7188C37.1161 32.1694 37.3505 32.8725 36.875 33.8281C36.6853 34.0702 36.4509 34.2524 36.1719 34.375C31.3281 34.4792 26.4844 34.4792 21.6406 34.375C20.6856 33.8605 20.4512 33.1052 20.9375 32.1094C21.1164 31.9319 21.2987 31.7756 21.4844 31.6406Z" fill="#A69179"/>
<path opacity="0.99" fill-rule="evenodd" clip-rule="evenodd" d="M15.0781 35.7031C15.1042 48.5678 15.0781 61.4324 15 74.2969C14.2328 77.4344 12.2797 79.3094 9.14063 79.9219C8.3073 79.9219 7.47395 79.9219 6.64063 79.9219C3.50208 79.0166 1.7052 76.9331 1.25 73.6719C1.14583 61.8489 1.14583 50.0261 1.25 38.2031C1.39701 36.9103 2.10014 36.1031 3.35938 35.7813C7.26528 35.7031 11.1715 35.6771 15.0781 35.7031Z" fill="#E3C05C"/>
<path opacity="0.954" fill-rule="evenodd" clip-rule="evenodd" d="M73.0469 37.7344C73.0469 39.7136 73.0469 41.6927 73.0469 43.6719C72.7028 42.0255 72.3903 40.3587 72.1094 38.6719C72.3622 38.3148 72.6747 38.0023 73.0469 37.7344Z" fill="#F8E4AD"/>
<path fill-rule="evenodd" clip-rule="evenodd" d="M49.1405 38.6719C52.4709 41.2984 56.273 42.6527 60.5467 42.7344C60.5467 46.3802 60.5467 50.0261 60.5467 53.6719C56.4547 55.5845 52.3401 57.4856 48.203 59.375C46.4734 59.983 45.7183 59.3841 45.9373 57.5781C46.9725 51.2633 48.0401 44.9611 49.1405 38.6719Z" fill="#FE5364"/>
<path opacity="0.995" fill-rule="evenodd" clip-rule="evenodd" d="M72.1094 38.6719C72.3903 40.3587 72.7028 42.0255 73.0469 43.6719C73.8702 48.4814 74.6514 53.2991 75.3906 58.125C75.2147 59.6195 74.4334 60.0622 73.0469 59.4531C68.9456 57.4958 64.8311 55.5688 60.7031 53.6719C60.7031 50.0261 60.7031 46.3802 60.7031 42.7344C64.9606 42.6177 68.7627 41.2634 72.1094 38.6719Z" fill="#DF4D60"/>
<path fill-rule="evenodd" clip-rule="evenodd" d="M21.4844 39.9219C27.2659 39.8958 33.0472 39.9219 38.8281 40C39.8669 40.386 40.1533 41.0891 39.6875 42.1094C39.4408 42.3502 39.1542 42.5325 38.8281 42.6563C33.0989 42.7605 27.3698 42.7605 21.6406 42.6563C20.6856 42.1417 20.4512 41.3864 20.9375 40.3906C21.1164 40.2131 21.2987 40.0569 21.4844 39.9219Z" fill="#A69179"/>
<path fill-rule="evenodd" clip-rule="evenodd" d="M21.4844 48.2031C28.2033 48.1771 34.922 48.2031 41.6406 48.2813C43.089 49.1286 43.089 50.0141 41.6406 50.9375C34.9739 51.0417 28.3073 51.0417 21.6406 50.9375C20.6856 50.423 20.4512 49.6677 20.9375 48.6719C21.1164 48.4944 21.2987 48.3381 21.4844 48.2031Z" fill="#A69179"/>
<path fill-rule="evenodd" clip-rule="evenodd" d="M21.4844 56.4844C27.7345 56.4583 33.9845 56.4844 40.2344 56.5625C41.3694 57.0252 41.6037 57.7803 40.9375 58.8281C40.7158 58.9781 40.4814 59.1083 40.2344 59.2188C34.0364 59.323 27.8386 59.323 21.6406 59.2188C20.6856 58.7042 20.4512 57.9489 20.9375 56.9531C21.1164 56.7756 21.2987 56.6194 21.4844 56.4844Z" fill="#A69179"/>
<path fill-rule="evenodd" clip-rule="evenodd" d="M21.4848 64.7656C36.4849 64.7396 51.4849 64.7656 66.4848 64.8438C67.1596 65.0192 67.4721 65.4619 67.4223 66.1719C67.3932 66.8021 67.0807 67.2447 66.4848 67.5C51.5368 67.6042 36.589 67.6042 21.641 67.5C20.7552 67.0602 20.4688 66.3571 20.7817 65.3906C20.9999 65.1453 21.2343 64.9369 21.4848 64.7656Z" fill="#A79279"/>
</g>
<defs>
<clipPath id="clip0_160_934">
<rect width="80" height="80" fill="white"/>
</clipPath>
</defs>
</svg>
