<svg width="80" height="80" viewBox="0 0 80 80" fill="none" xmlns="http://www.w3.org/2000/svg">
<g clip-path="url(#clip0_160_915)">
<path opacity="0.97" fill-rule="evenodd" clip-rule="evenodd" d="M36.1719 -0.078125C36.3281 -0.078125 36.4844 -0.078125 36.6406 -0.078125C39.6667 1.20892 42.7395 2.40684 45.8594 3.51562C45.4306 5.60734 44.9619 7.69069 44.4531 9.76562C46.2686 11.1436 47.8831 12.7322 49.2969 14.5312C51.3928 14.1376 53.4761 13.6428 55.5469 13.0469C55.6689 13.2401 55.8252 13.3963 56.0156 13.5156C60.7563 10.3808 65.7823 9.85994 71.0938 11.9531C71.198 12.0573 71.198 12.1615 71.0938 12.2656C67.3416 15.9917 63.6177 19.7417 59.9219 23.5156C62.3155 25.9873 64.7373 28.4353 67.1875 30.8594C70.9895 27.0573 74.7917 23.2552 78.5938 19.4531C79.2089 20.9263 79.6516 22.4366 79.9219 23.9844C79.9219 25.3386 79.9219 26.6927 79.9219 28.0469C78.8894 33.6905 75.7644 37.7269 70.5469 40.1562C68.7413 40.8825 66.8663 41.2211 64.9219 41.1719C63.6097 41.1495 62.3077 41.0714 61.0156 40.9375C58.6436 43.2834 56.2998 45.6533 53.9844 48.0469C54.9195 49.0603 55.8831 50.0498 56.875 51.0156C57.4739 50.2083 58.177 49.5052 58.9844 48.9062C60.9748 48.2484 62.303 48.8995 62.9688 50.8594C63.0208 52.0573 63.073 53.2552 63.125 54.4531C63.8444 56.9891 65.537 58.1089 68.2031 57.8125C71.4734 60.9978 74.7286 64.2009 77.9688 67.4219C79.9588 70.8142 79.6723 73.9913 77.1094 76.9531C74.2005 79.3553 71.1277 79.5897 67.8906 77.6562C64.5878 74.5097 61.3325 71.3066 58.125 68.0469C58.3997 65.5453 57.3841 63.8525 55.0781 62.9688C53.6777 62.7972 52.2714 62.693 50.8594 62.6562C49.1956 61.9587 48.5966 60.7348 49.0625 58.9844C49.1502 58.6367 49.3064 58.3242 49.5312 58.0469C50.0025 57.6017 50.4453 57.133 50.8594 56.6406C49.9242 55.6272 48.9606 54.6377 47.9688 53.6719C45.573 56.0677 43.177 58.4636 40.7812 60.8594C41.8258 66.7869 40.2373 71.865 36.0156 76.0938C33.5989 78.1358 30.8386 79.4117 27.7344 79.9219C26.4323 79.9219 25.1302 79.9219 23.8281 79.9219C22.3467 79.6452 20.8883 79.2284 19.4531 78.6719C23.2031 74.8698 26.9531 71.0677 30.7031 67.2656C28.3095 64.7939 25.8877 62.3459 23.4375 59.9219C19.7136 63.6458 15.9895 67.3698 12.2656 71.0938C12.1173 71.1902 11.9871 71.1642 11.875 71.0156C9.67944 65.2337 10.4607 59.9213 14.2188 55.0781C14.6195 53.4128 15.0101 51.7462 15.3906 50.0781C13.5691 48.5952 11.9285 46.9284 10.4688 45.0781C8.63287 45.603 6.78392 46.0978 4.92188 46.5625C4.64706 46.6872 4.38664 46.6611 4.14062 46.4844C2.78645 43.4636 1.43229 40.4427 0.078125 37.4219C1.75491 36.1375 3.4997 34.9397 5.3125 33.8281C5.07969 31.4892 5.00156 29.1455 5.07812 26.7969C3.39434 25.7362 1.67559 24.7466 -0.078125 23.8281C-0.078125 23.6198 -0.078125 23.4114 -0.078125 23.2031C1.1462 20.2625 2.34412 17.2938 3.51562 14.2969C3.67188 14.2448 3.82812 14.1927 3.98438 14.1406C5.96055 14.6036 7.93972 14.9942 9.92188 15.3125C11.2965 13.5732 12.833 11.9847 14.5312 10.5469C14.1012 8.48747 13.6064 6.43019 13.0469 4.375C16.1366 2.90075 19.2616 1.46846 22.4219 0.078125C23.6756 1.77638 24.8736 3.52117 26.0156 5.3125C28.2831 5.20214 30.5488 5.22817 32.8125 5.39062C34.0106 3.62011 35.1305 1.79719 36.1719 -0.078125Z" fill="#1B3751"/>
<path fill-rule="evenodd" clip-rule="evenodd" d="M42.5781 36.4844C45.3163 30.8505 44.7694 25.538 40.9375 20.5469C36.6169 15.8697 31.3825 14.3853 25.2344 16.0938C19.7584 18.1845 16.5033 22.1169 15.4688 27.8906C14.9862 35.0795 17.9809 40.2097 24.4531 43.2813C28.7522 44.8591 32.9189 44.5727 36.9531 42.4219C37.1133 42.4839 37.1394 42.588 37.0312 42.7344C34.6614 45.1042 32.2917 47.4739 29.9219 49.8438C25.6438 48.8636 21.6333 49.5145 17.8906 51.7969C17.8386 51.7188 17.7864 51.6406 17.7344 51.5625C18.0884 50.508 18.2447 49.4403 18.2031 48.3594C15.4444 46.9811 13.2569 44.9758 11.6406 42.3438C11.3281 42.2395 11.0156 42.2395 10.7031 42.3438C9.03056 42.8405 7.36389 43.2311 5.70312 43.5156C4.97373 41.7959 4.24458 40.0772 3.51562 38.3594C3.53253 38.2122 3.58461 38.082 3.67188 37.9688C5.1823 37.0052 6.6927 36.0417 8.20312 35.0781C8.34294 34.1314 8.26481 33.1939 7.96875 32.2656C7.81675 30.042 7.89487 27.8284 8.20312 25.625C8.15105 25.4948 8.09895 25.3645 8.04688 25.2344C6.51 24.2834 4.9475 23.372 3.35938 22.5C3.27783 22.4123 3.22575 22.3081 3.20312 22.1875C3.88094 20.4661 4.55802 18.7473 5.23438 17.0313C7.20738 17.3775 9.18655 17.69 11.1719 17.9688C12.8575 15.2935 15.019 13.0799 17.6562 11.3281C17.2158 9.35693 16.773 7.37775 16.3281 5.39063C18.1297 4.75077 19.9005 4.0216 21.6406 3.20313C22.7384 4.71955 23.78 6.28205 24.7656 7.89063C25 7.94271 25.2344 7.9948 25.4688 8.04688C28.4669 7.42386 31.4616 7.42386 34.4531 8.04688C35.5016 6.44518 36.4913 4.80455 37.4219 3.125C37.6302 3.02083 37.8386 3.02083 38.0469 3.125C39.6369 3.80241 41.2514 4.40138 42.8906 4.92188C42.5969 6.83361 42.2322 8.73466 41.7969 10.625C41.8489 10.7552 41.9011 10.8854 41.9531 11.0156C44.6245 12.6193 46.812 14.7287 48.5156 17.3438C49.983 17.1073 51.4412 16.7689 52.8906 16.3281C52.9948 16.3802 53.0989 16.4323 53.2031 16.4844C50.1395 20.3697 49.202 24.7186 50.3906 29.5313C47.9948 31.927 45.5989 34.323 43.2031 36.7188C42.9138 36.8395 42.7053 36.7614 42.5781 36.4844Z" fill="#FBBE5E"/>
<path fill-rule="evenodd" clip-rule="evenodd" d="M62.4219 13.3592C63.6762 13.3075 64.9262 13.3595 66.1719 13.5154C62.9448 16.8206 59.6897 20.1018 56.4062 23.3592C56.302 23.4634 56.302 23.5675 56.4062 23.6717C60.0022 27.2937 63.6219 30.8875 67.2656 34.4529C70.5989 31.1717 73.9323 27.8904 77.2656 24.6092C77.6983 30.645 75.1983 34.9939 69.7656 37.656C67.5016 38.5629 65.1578 38.8754 62.7344 38.5935C61.8522 38.3592 60.9667 38.2029 60.0781 38.1248C57.3936 40.8353 54.6853 43.5176 51.9531 46.1717C49.4531 43.7759 47.0052 41.3279 44.6094 38.8279C47.2634 36.0957 49.9458 33.3875 52.6562 30.7029C51.0664 25.1085 52.3423 20.2907 56.4844 16.2498C58.2653 14.8505 60.2445 13.887 62.4219 13.3592Z" fill="#FCFDFD"/>
<path fill-rule="evenodd" clip-rule="evenodd" d="M42.5785 36.4844C41.334 35.3182 40.1101 34.1202 38.9067 32.8907C38.7973 31.7333 38.8754 30.5876 39.141 29.4532C39.1582 29.1604 39.0542 28.926 38.8285 28.7501C34.8703 26.3021 30.9118 23.8543 26.9535 21.4063C26.7973 21.3021 26.641 21.3021 26.4848 21.4063C24.7921 23.099 23.0993 24.7918 21.4067 26.4844C21.3025 26.6407 21.3025 26.7969 21.4067 26.9532C23.9457 30.8329 26.4457 34.7391 28.9067 38.6719C29.1254 38.7682 29.3598 38.8202 29.6098 38.8282C30.7531 38.6565 31.8989 38.5783 33.0473 38.5938C34.4282 39.7926 35.7304 41.0685 36.9535 42.4219C32.9193 44.5727 28.7526 44.8591 24.4535 43.2813C17.9814 40.2098 14.9866 35.0796 15.4692 27.8907C16.5037 22.1169 19.7589 18.1846 25.2348 16.0938C31.3829 14.3854 36.6173 15.8698 40.9379 20.5469C44.7698 25.538 45.3167 30.8505 42.5785 36.4844Z" fill="#FEFEFD"/>
<path fill-rule="evenodd" clip-rule="evenodd" d="M26.7969 24.6094C27.3636 24.7312 27.8844 24.9656 28.3594 25.3125C30.9242 26.9727 33.5023 28.6133 36.0938 30.2344C36.0698 31.4312 36.0698 32.6292 36.0938 33.8281C42.3958 40.1302 48.698 46.4323 55 52.7344C55.1042 52.8386 55.1042 52.9427 55 53.0469C54.4011 53.6458 53.802 54.2448 53.2031 54.8438C53.0989 54.948 52.9948 54.948 52.8906 54.8438C46.5886 48.5417 40.2864 42.2395 33.9844 35.9375C32.7942 35.8767 31.6223 36.007 30.4688 36.3281C28.3753 33.2689 26.3702 30.1439 24.4531 26.9531C25.2897 26.2206 26.0709 25.4394 26.7969 24.6094Z" fill="#FCFCFD"/>
<path fill-rule="evenodd" clip-rule="evenodd" d="M53.6719 35.2344C54.2936 35.7519 54.8666 36.3248 55.3906 36.9531C54.8698 37.5781 54.2969 38.1511 53.6719 38.6719C53.0753 38.1534 52.5023 37.6066 51.9531 37.0312C52.5578 36.4528 53.1308 35.8537 53.6719 35.2344Z" fill="#1F3B55"/>
<path fill-rule="evenodd" clip-rule="evenodd" d="M38.8283 44.4531C41.349 46.8956 43.849 49.3695 46.3283 51.875C43.5419 54.6614 40.7554 57.448 37.969 60.2344C39.0297 64.145 38.613 67.895 36.719 71.4844C33.8043 75.8975 29.7157 77.8506 24.4533 77.3438C27.7607 74.0364 31.0679 70.7292 34.3752 67.4219C34.4794 67.3177 34.4794 67.2136 34.3752 67.1094C30.7793 63.4873 27.1596 59.8936 23.5158 56.3281C20.1325 59.6333 16.7732 62.9666 13.4377 66.3281C13.0233 59.8386 15.8097 55.3334 21.7971 52.8125C24.666 51.9159 27.5307 51.942 30.3908 52.8906C33.2586 50.1269 36.0711 47.3144 38.8283 44.4531Z" fill="#FCFDFD"/>
<path fill-rule="evenodd" clip-rule="evenodd" d="M59.9223 51.4844C60.0786 51.4844 60.2348 51.4844 60.3911 51.4844C60.1262 53.8097 60.6211 55.9452 61.8754 57.8906C63.2579 59.4803 65.0028 60.3397 67.1098 60.4688C70.0004 63.3594 72.8911 66.25 75.7817 69.1406C77.0664 71.6728 76.6237 73.8344 74.4536 75.625C72.7325 76.5553 71.0137 76.5553 69.2973 75.625C66.307 72.7909 63.3642 69.9003 60.4692 66.9531C60.1848 63.4403 58.3358 61.2789 54.9223 60.4688C53.7776 60.3906 52.6318 60.3647 51.4848 60.3906C51.4615 60.2262 51.4875 60.07 51.5629 59.9219C54.3809 57.13 57.1673 54.3175 59.9223 51.4844Z" fill="#F05F51"/>
<path fill-rule="evenodd" clip-rule="evenodd" d="M36.9531 51.9531C37.648 52.3614 38.2209 52.9083 38.6719 53.5938C38.1847 54.2377 37.6378 54.8366 37.0312 55.3906C36.4559 54.8414 35.9091 54.2684 35.3906 53.6719C35.9148 53.0958 36.4358 52.523 36.9531 51.9531Z" fill="#1F3B55"/>
</g>
<defs>
<clipPath id="clip0_160_915">
<rect width="80" height="80" fill="white"/>
</clipPath>
</defs>
</svg>
